<svg width="24" height="24" viewBox="0 0 24 24" fill="none" xmlns="http://www.w3.org/2000/svg">
<g id="india_299702 1" clip-path="url(#clip0_9274_27025)">
<path id="Vector" d="M19.1164 0.015625H4.88358C2.15508 0.203781 0 2.47638 0 5.25269V8.00702H24V5.25269C24 2.47638 21.8449 0.203781 19.1164 0.015625Z" fill="#FAB446"/>
<path id="Vector_2" d="M0 18.7465C0 21.5228 2.15512 23.7955 4.88363 23.9836H19.1164C21.8449 23.7955 24 21.5228 24 18.7465V15.9922H0V18.7465Z" fill="#73AF00"/>
<path id="Vector_3" d="M24 8.00781H0V15.9991H24V8.00781Z" fill="#F5F5F5"/>
<g id="Group">
<path id="Vector_4" d="M12.0015 14.7373C10.4907 14.7373 9.26172 13.5083 9.26172 11.9976C9.26172 10.4868 10.4907 9.25781 12.0015 9.25781C13.5122 9.25781 14.7412 10.4868 14.7412 11.9976C14.7412 13.5083 13.5122 14.7373 12.0015 14.7373ZM12.0015 9.76753C10.7717 9.76753 9.77144 10.7678 9.77144 11.9976C9.77144 13.2273 10.7717 14.2276 12.0015 14.2276C13.2312 14.2276 14.2315 13.2273 14.2315 11.9976C14.2315 10.7678 13.2312 9.76753 12.0015 9.76753Z" fill="#41479B"/>
<path id="Vector_5" d="M12.002 12.3087C12.1735 12.3087 12.3126 12.1696 12.3126 11.9981C12.3126 11.8266 12.1735 11.6875 12.002 11.6875C11.8305 11.6875 11.6914 11.8266 11.6914 11.9981C11.6914 12.1696 11.8305 12.3087 12.002 12.3087Z" fill="#41479B"/>
<path id="Vector_6" d="M12.0044 12.0479L11.2151 12.1276L9.51953 12.0479V11.9547L11.2151 11.875L12.0044 11.9547V12.0479Z" fill="#41479B"/>
<path id="Vector_7" d="M12.0039 12.0479L12.7932 12.1276L14.4888 12.0479V11.9547L12.7932 11.875L12.0039 11.9547V12.0479Z" fill="#41479B"/>
<path id="Vector_8" d="M11.9547 12.0005L11.875 11.2112L11.9547 9.51562H12.0479L12.1276 11.2112L12.0479 12.0005H11.9547Z" fill="#41479B"/>
<path id="Vector_9" d="M11.9547 12L11.875 12.7893L11.9547 14.4849H12.0479L12.1276 12.7893L12.0479 12H11.9547Z" fill="#41479B"/>
<path id="Vector_10" d="M11.968 12.0339L11.3535 11.5321L10.2109 10.2768L10.2768 10.2109L11.5321 11.3535L12.0339 11.968L11.968 12.0339Z" fill="#41479B"/>
<path id="Vector_11" d="M11.9688 12.0347L12.4705 12.6491L13.7259 13.7918L13.7917 13.7259L12.6491 12.4705L12.0347 11.9688L11.9688 12.0347Z" fill="#41479B"/>
<path id="Vector_12" d="M11.9688 11.968L12.4705 11.3535L13.7259 10.2109L13.7917 10.2768L12.6491 11.5321L12.0347 12.0339L11.9688 11.968Z" fill="#41479B"/>
<path id="Vector_13" d="M11.968 11.9688L11.3535 12.4705L10.2109 13.7259L10.2768 13.7918L11.5321 12.6491L12.0339 12.0347L11.968 11.9688Z" fill="#41479B"/>
<path id="Vector_14" d="M12.0189 12.0392L11.3202 12.4149L9.72313 12.9901L9.6875 12.904L11.2235 12.1815L11.9832 11.9531L12.0189 12.0392Z" fill="#41479B"/>
<path id="Vector_15" d="M12.02 12.037L12.7798 11.8086L14.3157 11.0861L14.2801 11L12.6831 11.5753L11.9844 11.951L12.02 12.037Z" fill="#41479B"/>
<path id="Vector_16" d="M11.9588 12.0189L11.5831 11.3202L11.0078 9.72313L11.0939 9.6875L11.8164 11.2235L12.0448 11.9832L11.9588 12.0189Z" fill="#41479B"/>
<path id="Vector_17" d="M11.957 12.0122L12.1855 12.7719L12.9079 14.3079L12.994 14.2723L12.4188 12.6753L12.0431 11.9766L11.957 12.0122Z" fill="#41479B"/>
<path id="Vector_18" d="M11.9832 12.037L11.2235 11.8086L9.6875 11.0861L9.72313 11L11.3202 11.5753L12.0189 11.951L11.9832 12.037Z" fill="#41479B"/>
<path id="Vector_19" d="M11.9844 12.0392L12.6831 12.4149L14.2801 12.9901L14.3157 12.904L12.7798 12.1815L12.02 11.9531L11.9844 12.0392Z" fill="#41479B"/>
<path id="Vector_20" d="M11.957 11.9832L12.1855 11.2235L12.9079 9.6875L12.994 9.72313L12.4188 11.3202L12.0431 12.0189L11.957 11.9832Z" fill="#41479B"/>
<path id="Vector_21" d="M11.9588 11.9766L11.5831 12.6753L11.0078 14.2723L11.0939 14.3079L11.8164 12.7719L12.0448 12.0122L11.9588 11.9766Z" fill="#41479B"/>
</g>
<path id="Vector_22" d="M12.0003 12.3366C12.1882 12.3366 12.3405 12.1843 12.3405 11.9964C12.3405 11.8086 12.1882 11.6562 12.0003 11.6562C11.8125 11.6562 11.6602 11.8086 11.6602 11.9964C11.6602 12.1843 11.8125 12.3366 12.0003 12.3366Z" fill="#F5F5F5"/>
<path id="Vector_23" d="M12.0012 12.2524C12.1399 12.2524 12.2524 12.1399 12.2524 12.0012C12.2524 11.8625 12.1399 11.75 12.0012 11.75C11.8625 11.75 11.75 11.8625 11.75 12.0012C11.75 12.1399 11.8625 12.2524 12.0012 12.2524Z" fill="#41479B"/>
</g>
<defs>
<clipPath id="clip0_9274_27025">
<rect width="24" height="24" fill="white"/>
</clipPath>
</defs>
</svg>
