<svg width="378" height="242" viewBox="0 0 378 242" fill="none" xmlns="http://www.w3.org/2000/svg">
<rect width="378" height="242" fill="#CBB155"/>
<path d="M54.624 44.664V58.488C54.624 60.0027 55.0187 61.1653 55.808 61.976C56.5973 62.7653 57.7067 63.16 59.136 63.16C60.5867 63.16 61.7067 62.7653 62.496 61.976C63.2853 61.1653 63.68 60.0027 63.68 58.488V44.664H68.192V58.456C68.192 60.3547 67.776 61.9653 66.944 63.288C66.1333 64.5893 65.0347 65.5707 63.648 66.232C62.2827 66.8933 60.7573 67.224 59.072 67.224C57.408 67.224 55.8933 66.8933 54.528 66.232C53.184 65.5707 52.1173 64.5893 51.328 63.288C50.5387 61.9653 50.144 60.3547 50.144 58.456V44.664H54.624ZM78.6645 67.288C77.2138 67.288 75.9125 67.032 74.7605 66.52C73.6085 65.9867 72.6912 65.272 72.0085 64.376C71.3472 63.48 70.9845 62.488 70.9205 61.4H75.4325C75.5178 62.0827 75.8485 62.648 76.4245 63.096C77.0218 63.544 77.7578 63.768 78.6325 63.768C79.4858 63.768 80.1472 63.5973 80.6165 63.256C81.1072 62.9147 81.3525 62.4773 81.3525 61.944C81.3525 61.368 81.0538 60.9413 80.4565 60.664C79.8805 60.3653 78.9525 60.0453 77.6725 59.704C76.3498 59.384 75.2618 59.0533 74.4085 58.712C73.5765 58.3707 72.8512 57.848 72.2325 57.144C71.6352 56.44 71.3365 55.4907 71.3365 54.296C71.3365 53.3147 71.6138 52.4187 72.1685 51.608C72.7445 50.7973 73.5552 50.1573 74.6005 49.688C75.6672 49.2187 76.9152 48.984 78.3445 48.984C80.4565 48.984 82.1418 49.5173 83.4005 50.584C84.6592 51.6293 85.3525 53.048 85.4805 54.84H81.1925C81.1285 54.136 80.8298 53.5813 80.2965 53.176C79.7845 52.7493 79.0912 52.536 78.2165 52.536C77.4058 52.536 76.7765 52.6853 76.3285 52.984C75.9018 53.2827 75.6885 53.6987 75.6885 54.232C75.6885 54.8293 75.9872 55.288 76.5845 55.608C77.1818 55.9067 78.1098 56.216 79.3685 56.536C80.6485 56.856 81.7045 57.1867 82.5365 57.528C83.3685 57.8693 84.0832 58.4027 84.6805 59.128C85.2992 59.832 85.6192 60.7707 85.6405 61.944C85.6405 62.968 85.3525 63.8853 84.7765 64.696C84.2218 65.5067 83.4112 66.1467 82.3445 66.616C81.2992 67.064 80.0725 67.288 78.6645 67.288ZM105.158 57.752C105.158 58.392 105.115 58.968 105.03 59.48H92.07C92.1767 60.76 92.6247 61.7627 93.414 62.488C94.2033 63.2133 95.174 63.576 96.326 63.576C97.99 63.576 99.174 62.8613 99.878 61.432H104.71C104.198 63.1387 103.217 64.5467 101.766 65.656C100.315 66.744 98.534 67.288 96.422 67.288C94.7153 67.288 93.1793 66.9147 91.814 66.168C90.47 65.4 89.414 64.3227 88.646 62.936C87.8993 61.5493 87.526 59.9493 87.526 58.136C87.526 56.3013 87.8993 54.6907 88.646 53.304C89.3927 51.9173 90.438 50.8507 91.782 50.104C93.126 49.3573 94.6727 48.984 96.422 48.984C98.1073 48.984 99.6113 49.3467 100.934 50.072C102.278 50.7973 103.313 51.832 104.038 53.176C104.785 54.4987 105.158 56.024 105.158 57.752ZM100.518 56.472C100.497 55.32 100.081 54.4027 99.27 53.72C98.4593 53.016 97.4673 52.664 96.294 52.664C95.1847 52.664 94.246 53.0053 93.478 53.688C92.7313 54.3493 92.2727 55.2773 92.102 56.472H100.518ZM113.621 58.136C113.621 56.3013 113.994 54.7013 114.741 53.336C115.488 51.9493 116.522 50.8827 117.845 50.136C119.168 49.368 120.682 48.984 122.389 48.984C124.586 48.984 126.4 49.5387 127.829 50.648C129.28 51.736 130.25 53.272 130.741 55.256H125.909C125.653 54.488 125.216 53.8907 124.597 53.464C124 53.016 123.253 52.792 122.357 52.792C121.077 52.792 120.064 53.2613 119.317 54.2C118.57 55.1173 118.197 56.4293 118.197 58.136C118.197 59.8213 118.57 61.1333 119.317 62.072C120.064 62.9893 121.077 63.448 122.357 63.448C124.17 63.448 125.354 62.6373 125.909 61.016H130.741C130.25 62.936 129.28 64.4613 127.829 65.592C126.378 66.7227 124.565 67.288 122.389 67.288C120.682 67.288 119.168 66.9147 117.845 66.168C116.522 65.4 115.488 64.3333 114.741 62.968C113.994 61.5813 113.621 59.9707 113.621 58.136ZM141.255 67.288C139.548 67.288 138.012 66.9147 136.647 66.168C135.282 65.4 134.204 64.3227 133.415 62.936C132.647 61.5493 132.263 59.9493 132.263 58.136C132.263 56.3227 132.658 54.7227 133.447 53.336C134.258 51.9493 135.356 50.8827 136.743 50.136C138.13 49.368 139.676 48.984 141.383 48.984C143.09 48.984 144.636 49.368 146.023 50.136C147.41 50.8827 148.498 51.9493 149.287 53.336C150.098 54.7227 150.503 56.3227 150.503 58.136C150.503 59.9493 150.087 61.5493 149.255 62.936C148.444 64.3227 147.335 65.4 145.927 66.168C144.54 66.9147 142.983 67.288 141.255 67.288ZM141.255 63.384C142.066 63.384 142.823 63.192 143.527 62.808C144.252 62.4027 144.828 61.8053 145.255 61.016C145.682 60.2267 145.895 59.2667 145.895 58.136C145.895 56.4507 145.447 55.16 144.551 54.264C143.676 53.3467 142.599 52.888 141.319 52.888C140.039 52.888 138.962 53.3467 138.087 54.264C137.234 55.16 136.807 56.4507 136.807 58.136C136.807 59.8213 137.223 61.1227 138.055 62.04C138.908 62.936 139.975 63.384 141.255 63.384ZM151.997 58.072C151.997 56.28 152.349 54.6907 153.053 53.304C153.779 51.9173 154.76 50.8507 155.997 50.104C157.235 49.3573 158.611 48.984 160.125 48.984C161.277 48.984 162.376 49.24 163.421 49.752C164.467 50.2427 165.299 50.904 165.917 51.736V43.32H170.461V67H165.917V64.376C165.363 65.2507 164.584 65.9547 163.581 66.488C162.579 67.0213 161.416 67.288 160.093 67.288C158.6 67.288 157.235 66.904 155.997 66.136C154.76 65.368 153.779 64.2907 153.053 62.904C152.349 61.496 151.997 59.8853 151.997 58.072ZM165.949 58.136C165.949 57.048 165.736 56.12 165.309 55.352C164.883 54.5627 164.307 53.9653 163.581 53.56C162.856 53.1333 162.077 52.92 161.245 52.92C160.413 52.92 159.645 53.1227 158.941 53.528C158.237 53.9333 157.661 54.5307 157.213 55.32C156.787 56.088 156.573 57.0053 156.573 58.072C156.573 59.1387 156.787 60.0773 157.213 60.888C157.661 61.6773 158.237 62.2853 158.941 62.712C159.667 63.1387 160.435 63.352 161.245 63.352C162.077 63.352 162.856 63.1493 163.581 62.744C164.307 62.3173 164.883 61.72 165.309 60.952C165.736 60.1627 165.949 59.224 165.949 58.136ZM190.677 57.752C190.677 58.392 190.634 58.968 190.549 59.48H177.589C177.695 60.76 178.143 61.7627 178.933 62.488C179.722 63.2133 180.693 63.576 181.845 63.576C183.509 63.576 184.693 62.8613 185.397 61.432H190.229C189.717 63.1387 188.735 64.5467 187.285 65.656C185.834 66.744 184.053 67.288 181.941 67.288C180.234 67.288 178.698 66.9147 177.333 66.168C175.989 65.4 174.933 64.3227 174.165 62.936C173.418 61.5493 173.045 59.9493 173.045 58.136C173.045 56.3013 173.418 54.6907 174.165 53.304C174.911 51.9173 175.957 50.8507 177.301 50.104C178.645 49.3573 180.191 48.984 181.941 48.984C183.626 48.984 185.13 49.3467 186.453 50.072C187.797 50.7973 188.831 51.832 189.557 53.176C190.303 54.4987 190.677 56.024 190.677 57.752ZM186.037 56.472C186.015 55.32 185.599 54.4027 184.789 53.72C183.978 53.016 182.986 52.664 181.813 52.664C180.703 52.664 179.765 53.0053 178.997 53.688C178.25 54.3493 177.791 55.2773 177.621 56.472H186.037ZM180.075 92.952H176.971V107H172.427V92.952H170.411V89.272H172.427V88.376C172.427 86.2 173.045 84.6 174.283 83.576C175.52 82.552 177.387 82.072 179.883 82.136V85.912C178.795 85.8907 178.037 86.072 177.611 86.456C177.184 86.84 176.971 87.5333 176.971 88.536V89.272H180.075V92.952ZM190.21 107.288C188.503 107.288 186.967 106.915 185.602 106.168C184.237 105.4 183.159 104.323 182.37 102.936C181.602 101.549 181.218 99.9493 181.218 98.136C181.218 96.3227 181.613 94.7227 182.402 93.336C183.213 91.9493 184.311 90.8827 185.698 90.136C187.085 89.368 188.631 88.984 190.338 88.984C192.045 88.984 193.591 89.368 194.978 90.136C196.365 90.8827 197.453 91.9493 198.242 93.336C199.053 94.7227 199.458 96.3227 199.458 98.136C199.458 99.9493 199.042 101.549 198.21 102.936C197.399 104.323 196.29 105.4 194.882 106.168C193.495 106.915 191.938 107.288 190.21 107.288ZM190.21 103.384C191.021 103.384 191.778 103.192 192.482 102.808C193.207 102.403 193.783 101.805 194.21 101.016C194.637 100.227 194.85 99.2667 194.85 98.136C194.85 96.4507 194.402 95.16 193.506 94.264C192.631 93.3467 191.554 92.888 190.274 92.888C188.994 92.888 187.917 93.3467 187.042 94.264C186.189 95.16 185.762 96.4507 185.762 98.136C185.762 99.8213 186.178 101.123 187.01 102.04C187.863 102.936 188.93 103.384 190.21 103.384ZM206.584 92.024C207.16 91.0853 207.907 90.3493 208.824 89.816C209.763 89.2827 210.83 89.016 212.024 89.016V93.72H210.84C209.432 93.72 208.366 94.0507 207.64 94.712C206.936 95.3733 206.584 96.5253 206.584 98.168V107H202.104V89.272H206.584V92.024ZM227.22 98.072C227.22 96.28 227.572 94.6907 228.276 93.304C229.001 91.9173 229.972 90.8507 231.188 90.104C232.425 89.3573 233.801 88.984 235.316 88.984C236.638 88.984 237.79 89.2507 238.772 89.784C239.774 90.3173 240.574 90.9893 241.172 91.8V89.272H245.684V107H241.172V104.408C240.596 105.24 239.796 105.933 238.772 106.488C237.769 107.021 236.606 107.288 235.284 107.288C233.79 107.288 232.425 106.904 231.188 106.136C229.972 105.368 229.001 104.291 228.276 102.904C227.572 101.496 227.22 99.8853 227.22 98.072ZM241.172 98.136C241.172 97.048 240.958 96.12 240.532 95.352C240.105 94.5627 239.529 93.9653 238.804 93.56C238.078 93.1333 237.3 92.92 236.468 92.92C235.636 92.92 234.868 93.1227 234.164 93.528C233.46 93.9333 232.884 94.5307 232.436 95.32C232.009 96.088 231.796 97.0053 231.796 98.072C231.796 99.1387 232.009 100.077 232.436 100.888C232.884 101.677 233.46 102.285 234.164 102.712C234.889 103.139 235.657 103.352 236.468 103.352C237.3 103.352 238.078 103.149 238.804 102.744C239.529 102.317 240.105 101.72 240.532 100.952C240.958 100.163 241.172 99.224 241.172 98.136ZM259.243 89.016C261.355 89.016 263.062 89.688 264.363 91.032C265.665 92.3547 266.315 94.2107 266.315 96.6V107H261.835V97.208C261.835 95.8 261.483 94.7227 260.779 93.976C260.075 93.208 259.115 92.824 257.899 92.824C256.662 92.824 255.681 93.208 254.955 93.976C254.251 94.7227 253.899 95.8 253.899 97.208V107H249.419V89.272H253.899V91.48C254.497 90.712 255.254 90.1147 256.171 89.688C257.11 89.24 258.134 89.016 259.243 89.016ZM66.688 137.752C66.688 138.392 66.6453 138.968 66.56 139.48H53.6C53.7067 140.76 54.1547 141.763 54.944 142.488C55.7333 143.213 56.704 143.576 57.856 143.576C59.52 143.576 60.704 142.861 61.408 141.432H66.24C65.728 143.139 64.7467 144.547 63.296 145.656C61.8453 146.744 60.064 147.288 57.952 147.288C56.2453 147.288 54.7093 146.915 53.344 146.168C52 145.4 50.944 144.323 50.176 142.936C49.4293 141.549 49.056 139.949 49.056 138.136C49.056 136.301 49.4293 134.691 50.176 133.304C50.9227 131.917 51.968 130.851 53.312 130.104C54.656 129.357 56.2027 128.984 57.952 128.984C59.6373 128.984 61.1413 129.347 62.464 130.072C63.808 130.797 64.8427 131.832 65.568 133.176C66.3147 134.499 66.688 136.024 66.688 137.752ZM62.048 136.472C62.0267 135.32 61.6107 134.403 60.8 133.72C59.9893 133.016 58.9973 132.664 57.824 132.664C56.7147 132.664 55.776 133.005 55.008 133.688C54.2613 134.349 53.8027 135.277 53.632 136.472H62.048ZM79.11 147L75.462 141.496L72.23 147H67.43L73.222 138.104L67.366 129.272H72.422L76.038 134.744L79.302 129.272H84.102L78.278 138.104L84.166 147H79.11ZM91.1753 132.952V141.528C91.1753 142.125 91.3139 142.563 91.5913 142.84C91.8899 143.096 92.3806 143.224 93.0633 143.224H95.1433V147H92.3273C88.5513 147 86.6633 145.165 86.6633 141.496V132.952H84.5513V129.272H86.6633V124.888H91.1753V129.272H95.1433V132.952H91.1753ZM102.206 132.024C102.782 131.085 103.528 130.349 104.446 129.816C105.384 129.283 106.451 129.016 107.646 129.016V133.72H106.462C105.054 133.72 103.987 134.051 103.262 134.712C102.558 135.373 102.206 136.525 102.206 138.168V147H97.7255V129.272H102.206V132.024ZM108.871 138.072C108.871 136.28 109.223 134.691 109.927 133.304C110.652 131.917 111.623 130.851 112.839 130.104C114.076 129.357 115.452 128.984 116.967 128.984C118.29 128.984 119.442 129.251 120.423 129.784C121.426 130.317 122.226 130.989 122.823 131.8V129.272H127.335V147H122.823V144.408C122.247 145.24 121.447 145.933 120.423 146.488C119.42 147.021 118.258 147.288 116.935 147.288C115.442 147.288 114.076 146.904 112.839 146.136C111.623 145.368 110.652 144.291 109.927 142.904C109.223 141.496 108.871 139.885 108.871 138.072ZM122.823 138.136C122.823 137.048 122.61 136.12 122.183 135.352C121.756 134.563 121.18 133.965 120.455 133.56C119.73 133.133 118.951 132.92 118.119 132.92C117.287 132.92 116.519 133.123 115.815 133.528C115.111 133.933 114.535 134.531 114.087 135.32C113.66 136.088 113.447 137.005 113.447 138.072C113.447 139.139 113.66 140.077 114.087 140.888C114.535 141.677 115.111 142.285 115.815 142.712C116.54 143.139 117.308 143.352 118.119 143.352C118.951 143.352 119.73 143.149 120.455 142.744C121.18 142.317 121.756 141.72 122.183 140.952C122.61 140.163 122.823 139.224 122.823 138.136ZM138.952 141.944C141 140.237 142.632 138.819 143.848 137.688C145.064 136.536 146.077 135.341 146.888 134.104C147.698 132.867 148.104 131.651 148.104 130.456C148.104 129.368 147.848 128.515 147.336 127.896C146.824 127.277 146.034 126.968 144.968 126.968C143.901 126.968 143.08 127.331 142.504 128.056C141.928 128.76 141.629 129.731 141.608 130.968H137.256C137.341 128.408 138.098 126.467 139.528 125.144C140.978 123.821 142.813 123.16 145.032 123.16C147.464 123.16 149.33 123.811 150.632 125.112C151.933 126.392 152.584 128.088 152.584 130.2C152.584 131.864 152.136 133.453 151.24 134.968C150.344 136.483 149.32 137.805 148.168 138.936C147.016 140.045 145.512 141.389 143.656 142.968H153.096V146.68H137.288V143.352L138.952 141.944ZM155.278 135.032C155.278 131.341 155.94 128.451 157.262 126.36C158.606 124.269 160.825 123.224 163.918 123.224C167.012 123.224 169.22 124.269 170.542 126.36C171.886 128.451 172.558 131.341 172.558 135.032C172.558 138.744 171.886 141.656 170.542 143.768C169.22 145.88 167.012 146.936 163.918 146.936C160.825 146.936 158.606 145.88 157.262 143.768C155.94 141.656 155.278 138.744 155.278 135.032ZM168.142 135.032C168.142 133.453 168.036 132.131 167.822 131.064C167.63 129.976 167.225 129.091 166.606 128.408C166.009 127.725 165.113 127.384 163.918 127.384C162.724 127.384 161.817 127.725 161.198 128.408C160.601 129.091 160.196 129.976 159.982 131.064C159.79 132.131 159.694 133.453 159.694 135.032C159.694 136.653 159.79 138.019 159.982 139.128C160.174 140.216 160.58 141.101 161.198 141.784C161.817 142.445 162.724 142.776 163.918 142.776C165.113 142.776 166.02 142.445 166.638 141.784C167.257 141.101 167.662 140.216 167.854 139.128C168.046 138.019 168.142 136.653 168.142 135.032ZM174.814 129.4C174.814 127.779 175.283 126.509 176.222 125.592C177.182 124.675 178.409 124.216 179.902 124.216C181.395 124.216 182.611 124.675 183.55 125.592C184.51 126.509 184.99 127.779 184.99 129.4C184.99 131.043 184.51 132.323 183.55 133.24C182.611 134.157 181.395 134.616 179.902 134.616C178.409 134.616 177.182 134.157 176.222 133.24C175.283 132.323 174.814 131.043 174.814 129.4ZM195.358 124.6L182.782 147H178.43L190.974 124.6H195.358ZM179.87 126.904C178.697 126.904 178.11 127.736 178.11 129.4C178.11 131.085 178.697 131.928 179.87 131.928C180.446 131.928 180.894 131.725 181.214 131.32C181.534 130.893 181.694 130.253 181.694 129.4C181.694 127.736 181.086 126.904 179.87 126.904ZM188.862 142.168C188.862 140.525 189.331 139.256 190.27 138.36C191.23 137.443 192.457 136.984 193.95 136.984C195.443 136.984 196.649 137.443 197.566 138.36C198.505 139.256 198.974 140.525 198.974 142.168C198.974 143.811 198.505 145.091 197.566 146.008C196.649 146.925 195.443 147.384 193.95 147.384C192.435 147.384 191.209 146.925 190.27 146.008C189.331 145.091 188.862 143.811 188.862 142.168ZM193.918 139.672C192.702 139.672 192.094 140.504 192.094 142.168C192.094 143.853 192.702 144.696 193.918 144.696C195.113 144.696 195.71 143.853 195.71 142.168C195.71 140.504 195.113 139.672 193.918 139.672ZM219.082 147.224C216.992 147.224 215.072 146.733 213.322 145.752C211.573 144.771 210.186 143.416 209.162 141.688C208.138 139.939 207.626 137.965 207.626 135.768C207.626 133.592 208.138 131.64 209.162 129.912C210.186 128.163 211.573 126.797 213.322 125.816C215.072 124.835 216.992 124.344 219.082 124.344C221.194 124.344 223.114 124.835 224.842 125.816C226.592 126.797 227.968 128.163 228.97 129.912C229.994 131.64 230.506 133.592 230.506 135.768C230.506 137.965 229.994 139.939 228.97 141.688C227.968 143.416 226.592 144.771 224.842 145.752C223.093 146.733 221.173 147.224 219.082 147.224ZM219.082 143.224C220.426 143.224 221.61 142.925 222.634 142.328C223.658 141.709 224.458 140.835 225.034 139.704C225.61 138.573 225.898 137.261 225.898 135.768C225.898 134.275 225.61 132.973 225.034 131.864C224.458 130.733 223.658 129.869 222.634 129.272C221.61 128.675 220.426 128.376 219.082 128.376C217.738 128.376 216.544 128.675 215.498 129.272C214.474 129.869 213.674 130.733 213.098 131.864C212.522 132.973 212.234 134.275 212.234 135.768C212.234 137.261 212.522 138.573 213.098 139.704C213.674 140.835 214.474 141.709 215.498 142.328C216.544 142.925 217.738 143.224 219.082 143.224ZM246.991 124.664V128.28H237.679V134.008H244.815V137.56H237.679V147H233.199V124.664H246.991ZM263.32 124.664V128.28H254.008V134.008H261.144V137.56H254.008V147H249.528V124.664H263.32Z" fill="white"/>
<path d="M61.728 107L56.8 98.296H54.688V107H50.208V84.664H58.592C60.32 84.664 61.792 84.9733 63.008 85.592C64.224 86.1893 65.1307 87.0107 65.728 88.056C66.3467 89.08 66.656 90.232 66.656 91.512C66.656 92.984 66.2293 94.3173 65.376 95.512C64.5227 96.6853 63.2533 97.496 61.568 97.944L66.912 107H61.728ZM54.688 94.936H58.432C59.648 94.936 60.5547 94.648 61.152 94.072C61.7493 93.4747 62.048 92.6533 62.048 91.608C62.048 90.584 61.7493 89.7947 61.152 89.24C60.5547 88.664 59.648 88.376 58.432 88.376H54.688V94.936ZM74.548 88.28V93.88H82.068V97.432H74.548V103.352H83.028V107H70.068V84.632H83.028V88.28H74.548ZM105.563 107H101.083L90.9393 91.672V107H86.4593V84.632H90.9393L101.083 99.992V84.632H105.563V107ZM124.551 84.664V88.28H118.599V107H114.119V88.28H108.167V84.664H124.551ZM128.075 101.944C130.123 100.237 131.755 98.8187 132.971 97.688C134.187 96.536 135.201 95.3413 136.011 94.104C136.822 92.8667 137.227 91.6507 137.227 90.456C137.227 89.368 136.971 88.5147 136.459 87.896C135.947 87.2773 135.158 86.968 134.091 86.968C133.025 86.968 132.203 87.3307 131.627 88.056C131.051 88.76 130.753 89.7307 130.731 90.968H126.379C126.465 88.408 127.222 86.4667 128.651 85.144C130.102 83.8213 131.937 83.16 134.155 83.16C136.587 83.16 138.454 83.8107 139.755 85.112C141.057 86.392 141.707 88.088 141.707 90.2C141.707 91.864 141.259 93.4533 140.363 94.968C139.467 96.4827 138.443 97.8053 137.291 98.936C136.139 100.045 134.635 101.389 132.779 102.968H142.219V106.68H126.411V103.352L128.075 101.944ZM144.402 95.032C144.402 91.3413 145.064 88.4507 146.386 86.36C147.73 84.2693 149.949 83.224 153.042 83.224C156.136 83.224 158.344 84.2693 159.666 86.36C161.01 88.4507 161.682 91.3413 161.682 95.032C161.682 98.744 161.01 101.656 159.666 103.768C158.344 105.88 156.136 106.936 153.042 106.936C149.949 106.936 147.73 105.88 146.386 103.768C145.064 101.656 144.402 98.744 144.402 95.032ZM157.266 95.032C157.266 93.4533 157.16 92.1307 156.946 91.064C156.754 89.976 156.349 89.0907 155.73 88.408C155.133 87.7253 154.237 87.384 153.042 87.384C151.848 87.384 150.941 87.7253 150.322 88.408C149.725 89.0907 149.32 89.976 149.106 91.064C148.914 92.1307 148.818 93.4533 148.818 95.032C148.818 96.6533 148.914 98.0187 149.106 99.128C149.298 100.216 149.704 101.101 150.322 101.784C150.941 102.445 151.848 102.776 153.042 102.776C154.237 102.776 155.144 102.445 155.762 101.784C156.381 101.101 156.786 100.216 156.978 99.128C157.17 98.0187 157.266 96.6533 157.266 95.032Z" fill="#8E433E"/>
<path d="M55.848 192L52.968 186.996H51.402V192H49.35V179.49H53.67C54.63 179.49 55.44 179.658 56.1 179.994C56.772 180.33 57.27 180.78 57.594 181.344C57.93 181.908 58.098 182.538 58.098 183.234C58.098 184.05 57.858 184.794 57.378 185.466C56.91 186.126 56.184 186.576 55.2 186.816L58.296 192H55.848ZM51.402 185.358H53.67C54.438 185.358 55.014 185.166 55.398 184.782C55.794 184.398 55.992 183.882 55.992 183.234C55.992 182.586 55.8 182.082 55.416 181.722C55.032 181.35 54.45 181.164 53.67 181.164H51.402V185.358ZM69.453 186.798C69.453 187.17 69.429 187.506 69.381 187.806H61.803C61.863 188.598 62.157 189.234 62.685 189.714C63.213 190.194 63.861 190.434 64.629 190.434C65.733 190.434 66.513 189.972 66.969 189.048H69.183C68.883 189.96 68.337 190.71 67.545 191.298C66.765 191.874 65.793 192.162 64.629 192.162C63.681 192.162 62.829 191.952 62.073 191.532C61.329 191.1 60.741 190.5 60.309 189.732C59.889 188.952 59.679 188.052 59.679 187.032C59.679 186.012 59.883 185.118 60.291 184.35C60.711 183.57 61.293 182.97 62.037 182.55C62.793 182.13 63.657 181.92 64.629 181.92C65.565 181.92 66.399 182.124 67.131 182.532C67.863 182.94 68.433 183.516 68.841 184.26C69.249 184.992 69.453 185.838 69.453 186.798ZM67.311 186.15C67.299 185.394 67.029 184.788 66.501 184.332C65.973 183.876 65.319 183.648 64.539 183.648C63.831 183.648 63.225 183.876 62.721 184.332C62.217 184.776 61.917 185.382 61.821 186.15H67.311ZM76.1164 181.92C76.8964 181.92 77.5924 182.082 78.2044 182.406C78.8284 182.73 79.3144 183.21 79.6624 183.846C80.0104 184.482 80.1844 185.25 80.1844 186.15V192H78.1504V186.456C78.1504 185.568 77.9284 184.89 77.4844 184.422C77.0404 183.942 76.4344 183.702 75.6664 183.702C74.8984 183.702 74.2864 183.942 73.8304 184.422C73.3864 184.89 73.1644 185.568 73.1644 186.456V192H71.1124V182.082H73.1644V183.216C73.5004 182.808 73.9264 182.49 74.4424 182.262C74.9704 182.034 75.5284 181.92 76.1164 181.92ZM84.8359 183.756V189.246C84.8359 189.618 84.9199 189.888 85.0879 190.056C85.2679 190.212 85.5679 190.29 85.9879 190.29H87.2479V192H85.6279C84.7039 192 83.9959 191.784 83.5039 191.352C83.0119 190.92 82.7659 190.218 82.7659 189.246V183.756H81.5959V182.082H82.7659V179.616H84.8359V182.082H87.2479V183.756H84.8359ZM98.0989 181.92C98.8789 181.92 99.5749 182.082 100.187 182.406C100.811 182.73 101.297 183.21 101.645 183.846C101.993 184.482 102.167 185.25 102.167 186.15V192H100.133V186.456C100.133 185.568 99.9109 184.89 99.4669 184.422C99.0229 183.942 98.4169 183.702 97.6489 183.702C96.8809 183.702 96.2689 183.942 95.8129 184.422C95.3689 184.89 95.1469 185.568 95.1469 186.456V192H93.0949V182.082H95.1469V183.216C95.4829 182.808 95.9089 182.49 96.4249 182.262C96.9529 182.034 97.5109 181.92 98.0989 181.92ZM108.726 192.162C107.79 192.162 106.944 191.952 106.188 191.532C105.432 191.1 104.838 190.5 104.406 189.732C103.974 188.952 103.758 188.052 103.758 187.032C103.758 186.024 103.98 185.13 104.424 184.35C104.868 183.57 105.474 182.97 106.242 182.55C107.01 182.13 107.868 181.92 108.816 181.92C109.764 181.92 110.622 182.13 111.39 182.55C112.158 182.97 112.764 183.57 113.208 184.35C113.652 185.13 113.874 186.024 113.874 187.032C113.874 188.04 113.646 188.934 113.19 189.714C112.734 190.494 112.11 191.1 111.318 191.532C110.538 191.952 109.674 192.162 108.726 192.162ZM108.726 190.38C109.254 190.38 109.746 190.254 110.202 190.002C110.67 189.75 111.048 189.372 111.336 188.868C111.624 188.364 111.768 187.752 111.768 187.032C111.768 186.312 111.63 185.706 111.354 185.214C111.078 184.71 110.712 184.332 110.256 184.08C109.8 183.828 109.308 183.702 108.78 183.702C108.252 183.702 107.76 183.828 107.304 184.08C106.86 184.332 106.506 184.71 106.242 185.214C105.978 185.706 105.846 186.312 105.846 187.032C105.846 188.1 106.116 188.928 106.656 189.516C107.208 190.092 107.898 190.38 108.726 190.38ZM128.863 182.082L125.785 192H123.625L121.627 184.674L119.629 192H117.469L114.373 182.082H116.461L118.531 190.056L120.637 182.082H122.779L124.795 190.02L126.847 182.082H128.863Z" fill="white"/>
<path d="M48 193.8H129.043V194.7H48V193.8Z" fill="white"/>
<path d="M144 194.25C143.648 194.25 143.336 194.133 143.102 193.898C142.594 193.43 142.594 192.609 143.102 192.141L149.703 185.5L143.102 178.898C142.594 178.43 142.594 177.609 143.102 177.141C143.57 176.633 144.391 176.633 144.859 177.141L152.359 184.641C152.867 185.109 152.867 185.93 152.359 186.398L144.859 193.898C144.625 194.133 144.312 194.25 144 194.25Z" fill="white"/>
</svg>
