<svg width="328" height="149" viewBox="0 0 328 149" fill="none" xmlns="http://www.w3.org/2000/svg">
<rect width="328" height="149" rx="8" fill="#74977B"/>
<path d="M311.561 126.485C320.357 117.884 320.357 103.941 311.561 95.3406C302.765 86.7404 288.503 86.7404 279.707 95.3406C270.911 103.941 270.911 117.884 279.707 126.485C288.503 135.085 302.765 135.085 311.561 126.485Z" fill="#74977B"/>
<path d="M291.869 119.263C291.76 119.742 292.126 120.283 292.613 120.227C293.645 120.107 294.679 120.099 295.714 120.17C297.172 120.27 298.611 120.494 300.036 120.812C300.077 120.822 300.119 120.828 300.16 120.839C300.264 120.866 300.311 120.828 300.341 120.726C300.419 120.464 300.509 120.204 300.596 119.944C301.318 117.779 302.787 116.289 304.891 115.352C306.254 114.744 307.677 114.544 309.158 114.642C309.612 114.673 310.045 114.364 310.082 113.91C310.086 113.859 310.09 113.807 310.094 113.755C310.187 112.344 310.591 111.018 311.209 109.747C311.359 109.44 311.498 109.129 311.617 108.809C312.015 107.731 311.989 106.659 311.558 105.6C311.299 104.964 310.845 104.456 310.342 103.991C309.525 103.235 308.514 102.835 307.462 102.516C306.591 102.252 305.692 102.128 304.791 102.023C303.94 101.924 303.09 101.822 302.237 101.745C301.569 101.684 300.9 101.645 300.23 101.625C298.703 101.581 297.175 101.581 295.648 101.626C294.605 101.658 293.562 101.73 292.552 102.018C291.783 102.238 291.04 102.524 290.435 103.062C289.352 104.028 288.817 105.228 288.847 106.666C288.87 107.774 289.162 108.829 289.507 109.873C289.736 110.567 290.008 111.248 290.167 111.963C290.278 112.466 290.378 112.971 290.405 113.486C290.41 113.569 290.411 113.652 290.404 113.734C290.394 113.846 290.331 113.919 290.212 113.932C290.095 113.945 290.005 113.881 289.984 113.748C289.953 113.552 289.945 113.352 289.914 113.155C289.779 112.292 289.545 111.453 289.247 110.631C288.902 109.675 288.604 108.708 288.441 107.705C288.208 106.278 288.386 104.927 289.218 103.697C289.741 102.923 290.431 102.346 291.296 101.958C292.265 101.522 293.288 101.306 294.343 101.224C296.385 101.064 298.43 101.094 300.474 101.155C302.377 101.211 304.262 101.451 306.142 101.723C307.231 101.881 308.272 102.208 309.261 102.682C310.259 103.16 311.062 103.867 311.667 104.775C312.253 105.653 312.449 106.635 312.374 107.674C312.325 108.354 312.105 108.987 311.821 109.603C311.658 109.959 311.502 110.318 311.34 110.674C310.867 111.711 310.67 112.809 310.572 113.93C310.548 114.203 310.537 114.477 310.51 114.749C310.498 114.877 310.542 114.945 310.665 114.991C310.935 115.093 311.181 115.241 311.424 115.394C312.265 115.923 312.978 117.206 312.427 118.563C312.224 119.061 311.931 119.506 311.563 119.903C311.481 119.992 311.433 120.088 311.394 120.201C311.065 121.169 310.727 122.133 310.395 123.1C309.915 124.499 309.405 125.888 309.022 127.317C308.8 128.144 308.61 128.977 308.446 129.816C308.275 130.686 308.317 131.544 308.499 132.409C308.688 133.31 308.836 134.22 308.887 135.142C308.9 135.382 308.899 135.623 308.837 135.859C308.768 136.12 308.654 136.352 308.358 136.416C308.059 136.481 307.831 136.338 307.646 136.124C307.506 135.965 307.418 135.776 307.347 135.579C307.127 134.974 307.022 134.344 306.902 133.716C306.859 133.488 306.818 133.258 306.735 133.04C306.636 132.778 306.518 132.72 306.244 132.79C306.054 132.839 305.88 132.927 305.711 133.022C304.762 133.559 303.777 134.021 302.763 134.426C302.693 134.454 302.625 134.489 302.545 134.488C302.451 134.486 302.384 134.445 302.346 134.36C302.307 134.272 302.332 134.193 302.4 134.134C302.449 134.091 302.511 134.059 302.573 134.032C303.613 133.583 304.62 133.068 305.613 132.528C305.791 132.431 305.979 132.353 306.178 132.307C306.626 132.203 306.965 132.362 307.155 132.772C307.297 133.077 307.347 133.407 307.408 133.733C307.508 134.255 307.601 134.778 307.766 135.285C307.818 135.443 307.874 135.599 307.968 135.74C308.015 135.81 308.068 135.875 308.145 135.914C308.217 135.95 308.278 135.937 308.314 135.862C308.362 135.764 308.379 135.657 308.386 135.549C308.414 135.107 308.36 134.67 308.303 134.234C308.207 133.502 308.078 132.775 307.931 132.051C307.782 131.315 307.812 130.583 307.941 129.85C308.294 127.841 308.888 125.897 309.57 123.975C309.912 123.012 310.243 122.045 310.578 121.079C310.591 121.042 310.604 121.005 310.616 120.968C310.637 120.905 310.596 120.84 310.543 120.878C309.573 121.58 308.49 122.069 307.373 122.497C306.969 122.652 306.56 122.786 306.138 122.883C305.97 122.921 305.89 123 305.844 123.167C305.23 125.384 304.527 127.576 303.841 129.772C303.693 130.248 303.519 130.716 303.32 131.175C302.948 132.035 302.397 132.756 301.605 133.291C301.424 133.413 301.246 133.541 301.09 133.695C300.945 133.838 300.822 133.996 300.752 134.187C300.699 134.329 300.719 134.359 300.875 134.378C301.086 134.403 301.292 134.447 301.489 134.528C301.971 134.724 302.226 135.07 302.229 135.584C302.231 135.933 302.232 136.281 302.228 136.63C302.218 137.56 302.155 138.486 302.017 139.407C301.987 139.605 301.946 139.799 301.857 139.981C301.667 140.37 301.267 140.398 301.016 140.042C300.918 139.903 300.873 139.743 300.837 139.58C300.717 139.043 300.682 138.496 300.646 137.95C300.581 136.974 300.486 136 300.375 135.027C300.354 134.851 300.352 134.847 300.17 134.863C299.646 134.912 299.13 135.014 298.612 135.098C297.494 135.278 296.37 135.341 295.239 135.297C294.764 135.279 294.289 135.258 293.815 135.242C292.974 135.213 292.142 135.098 291.313 134.97C290.157 134.79 289.001 134.612 287.863 134.341C286.669 134.056 285.483 133.737 284.33 133.317C284.099 133.233 284.129 133.2 284.008 133.436C283.654 134.124 283.31 134.819 282.959 135.509C282.735 135.947 282.493 136.375 282.232 136.793C282.096 137.013 281.951 137.229 281.756 137.405C281.582 137.563 281.387 137.686 281.137 137.578C280.88 137.468 280.825 137.246 280.831 137C280.839 136.707 280.91 136.425 281.006 136.15C281.317 135.254 281.697 134.385 282.057 133.508C282.209 133.139 282.363 132.77 282.497 132.394C282.757 131.666 282.765 130.933 282.582 130.189C282.389 129.397 282.109 128.632 281.87 127.854C281.565 126.86 281.308 125.855 281.161 124.826C281.097 124.382 281.057 123.935 281.042 123.488C281.021 122.84 280.883 122.227 280.592 121.64C280.332 121.119 280.075 120.595 279.939 120.024C279.811 119.485 279.779 118.945 279.85 118.394C280.012 117.132 281.023 116.426 282.079 116.322C282.238 116.306 282.368 116.26 282.497 116.172C283.817 115.265 285.272 114.682 286.867 114.44C287.556 114.336 288.25 114.291 288.947 114.37C290.194 114.51 291.057 115.166 291.585 116.265C291.957 117.038 292.042 117.854 291.96 118.695C291.94 118.887 291.911 119.076 291.869 119.263ZM306.108 122.181C306.078 122.295 306.169 122.386 306.283 122.358C306.71 122.249 307.122 122.094 307.53 121.93C308.791 121.422 310.001 120.834 310.968 119.855C311.379 119.438 311.722 118.979 311.952 118.445C312.379 117.452 312.028 116.349 311.107 115.756C310.655 115.465 310.167 115.25 309.633 115.172C308.789 115.047 307.941 115.069 307.096 115.186C306.177 115.313 305.326 115.635 304.514 116.061C303.078 116.816 301.987 117.891 301.34 119.372C300.958 120.244 300.694 121.153 300.488 122.077C300.168 123.511 299.854 124.946 299.424 126.354C299.244 126.943 299.025 127.518 298.739 128.065C298.093 129.299 297.088 130.087 295.694 130.376C295.161 130.486 294.618 130.525 294.075 130.531C292.449 130.55 290.839 130.405 289.244 130.095C288.424 129.936 287.634 129.695 286.897 129.303C285.943 128.796 285.23 128.079 284.922 127.038C284.735 126.408 284.619 125.761 284.588 125.104C284.537 124.018 284.468 122.933 284.48 121.846C284.481 121.729 284.381 121.693 284.284 121.758C284.28 121.761 284.277 121.763 284.273 121.765C284.092 121.876 283.9 121.959 283.686 121.99C283.143 122.069 282.656 121.922 282.225 121.613C280.692 120.513 280.552 118.382 281.466 117.112C281.525 117.03 281.448 116.979 281.359 117.024C280.899 117.256 280.57 117.597 280.421 118.1C280.253 118.671 280.277 119.248 280.399 119.824C280.516 120.382 280.765 120.893 281.021 121.397C281.364 122.073 281.519 122.785 281.54 123.533C281.553 123.989 281.599 124.444 281.669 124.895C281.822 125.889 282.076 126.86 282.375 127.821C282.623 128.614 282.916 129.394 283.089 130.207C283.185 130.655 283.237 131.106 283.187 131.566C283.128 132.117 282.946 132.633 282.74 133.142C282.369 134.06 281.992 134.975 281.62 135.892C281.511 136.162 281.416 136.438 281.36 136.724C281.356 136.744 281.352 136.764 281.348 136.785C281.316 136.947 281.467 137.01 281.571 136.881C281.761 136.646 281.908 136.384 282.06 136.125C282.519 135.339 282.904 134.517 283.31 133.705C283.433 133.459 283.563 133.216 283.698 132.977C283.833 132.736 283.95 132.701 284.223 132.801C284.398 132.864 284.572 132.928 284.75 132.985C285.692 133.287 286.646 133.561 287.611 133.78C289.984 134.32 292.378 134.741 294.825 134.804C295.801 134.829 296.777 134.848 297.747 134.725C298.546 134.625 299.341 134.493 300.138 134.38C300.232 134.366 300.265 134.323 300.281 134.238C300.354 133.846 300.579 133.54 300.868 133.272C301.047 133.106 301.245 132.963 301.444 132.821C302.04 132.394 302.473 131.84 302.783 131.189C303.02 130.692 303.209 130.176 303.373 129.653C303.967 127.75 304.577 125.852 305.124 123.936C305.171 123.774 305.218 123.612 305.265 123.449C305.322 123.252 305.205 123.076 305.002 123.101C304.536 123.16 304.067 123.189 303.61 123.073C302.476 122.788 301.866 122.157 301.735 121.16C301.624 120.317 301.722 119.48 302.104 118.706C302.52 117.864 303.185 117.338 304.179 117.28C305.54 117.202 306.216 118.007 306.424 118.882C306.482 119.125 306.503 119.373 306.508 119.623C306.524 120.436 306.352 121.222 306.16 122.005C306.145 122.063 306.124 122.121 306.108 122.181ZM300.111 121.556C300.143 121.41 300.052 121.261 299.905 121.233C299.065 121.074 298.219 120.946 297.373 120.818C295.402 120.521 293.436 120.535 291.469 120.836C291.351 120.854 291.27 120.898 291.197 120.993C290.64 121.722 289.988 122.358 289.232 122.892C288.617 123.325 287.971 123.701 287.247 123.937C287.035 124.007 286.82 124.041 286.597 124.026C286.141 123.996 285.898 123.657 286.027 123.228C286.07 123.083 286.147 122.954 286.239 122.834C286.43 122.586 286.663 122.383 286.918 122.2C288.014 121.416 289.241 120.904 290.544 120.563C290.784 120.5 290.919 120.382 291.031 120.179C291.414 119.483 291.498 118.732 291.484 117.961C291.475 117.432 291.358 116.925 291.125 116.446C290.708 115.588 290.048 115.03 289.071 114.875C288.575 114.797 288.075 114.803 287.574 114.847C285.999 114.984 284.544 115.46 283.209 116.29C283.174 116.311 283.132 116.326 283.106 116.358C283.092 116.377 283.095 116.41 283.117 116.418C283.172 116.439 283.228 116.459 283.283 116.479C283.881 116.702 284.365 117.071 284.705 117.598C285.321 118.552 285.478 119.575 285.082 120.644C284.965 120.96 284.946 121.269 284.949 121.592C284.958 122.587 285.006 123.581 285.043 124.576C285.068 125.242 285.156 125.895 285.288 126.548C285.493 127.56 286.082 128.291 286.973 128.804C287.472 129.091 288.006 129.305 288.566 129.451C289.593 129.717 290.64 129.872 291.697 129.965C292.814 130.064 293.932 130.106 295.051 129.996C296.576 129.846 297.685 129.11 298.358 127.756C298.592 127.285 298.784 126.798 298.939 126.298C299.418 124.747 299.75 123.161 300.111 121.556ZM306.031 119.766C306.041 119.532 306.012 119.301 305.97 119.073C305.868 118.527 305.594 118.086 305.056 117.871C304.501 117.648 303.526 117.663 302.95 118.314C302.742 118.549 302.567 118.798 302.454 119.089C302.231 119.663 302.155 120.264 302.186 120.871C302.233 121.807 302.746 122.426 303.859 122.638C304.377 122.737 304.888 122.64 305.399 122.569C305.503 122.555 305.536 122.486 305.557 122.401C305.607 122.208 305.66 122.016 305.707 121.823C305.875 121.147 306.012 120.465 306.031 119.766ZM284.801 119.558C284.799 119 284.664 118.508 284.406 118.049C284.033 117.385 283.47 116.974 282.704 116.825C282.527 116.791 282.401 116.832 282.27 116.951C281.472 117.677 281.266 118.58 281.462 119.587C281.593 120.252 281.941 120.804 282.503 121.217C282.747 121.396 283.026 121.5 283.324 121.524C283.841 121.566 284.197 121.304 284.44 120.884C284.683 120.464 284.782 120.004 284.801 119.558ZM290.416 121.192C290.459 121.145 290.426 121.079 290.365 121.097C289.203 121.439 288.11 121.92 287.132 122.632C286.954 122.762 286.795 122.91 286.655 123.078C286.591 123.156 286.534 123.24 286.5 123.334C286.449 123.475 286.488 123.539 286.639 123.556C286.705 123.564 286.775 123.556 286.841 123.547C287.062 123.519 287.268 123.44 287.47 123.352C288.612 122.854 289.579 122.126 290.401 121.209C290.406 121.203 290.411 121.198 290.416 121.192ZM301.297 139.377C301.333 139.549 301.497 139.537 301.524 139.363C301.534 139.297 301.541 139.231 301.551 139.166C301.671 138.361 301.706 137.55 301.738 136.738C301.754 136.349 301.758 135.96 301.759 135.57C301.76 135.44 301.757 135.303 301.643 135.204C301.469 135.053 301.275 134.938 301.044 134.893C300.872 134.86 300.855 134.872 300.876 135.048C300.997 136.102 301.088 137.159 301.16 138.217C301.187 138.605 301.218 138.994 301.297 139.377Z" fill="white"/>
<path d="M270.286 118.555C270.411 118.56 270.481 118.441 270.412 118.336C270.339 118.225 270.233 118.14 270.112 118.069C269.95 117.973 269.768 117.932 269.584 117.898C269.157 117.818 268.725 117.792 268.294 117.759C267.347 117.688 266.399 117.625 265.452 117.551C265.063 117.521 264.677 117.469 264.302 117.355C264.014 117.268 263.751 117.136 263.525 116.943C263.155 116.627 263.04 116.241 263.19 115.777C263.365 115.233 263.733 114.847 264.216 114.555C264.933 114.122 265.718 113.871 266.541 113.715C267.772 113.481 269.016 113.442 270.265 113.447C272.167 113.455 274.038 113.685 275.875 114.167C276.326 114.285 276.771 114.421 277.184 114.641C277.378 114.745 277.565 114.859 277.731 115.002C278.412 115.584 278.509 116.513 277.954 117.216C277.691 117.55 277.349 117.794 276.976 117.999C276.423 118.305 275.819 118.471 275.203 118.594C273.946 118.846 272.674 118.981 271.393 119.039C271.367 119.04 271.342 119.042 271.316 119.04C271.21 119.034 271.162 119.066 271.181 119.184C271.204 119.323 271.203 119.465 271.217 119.605C271.286 120.278 271.228 120.949 271.184 121.619C271.137 122.33 271.08 123.041 271.042 123.754C270.955 125.386 270.966 127.021 270.95 128.655C270.95 128.729 270.954 128.805 270.94 128.878C270.916 129.007 270.807 129.091 270.691 129.084C270.58 129.076 270.499 128.998 270.477 128.873C270.47 128.832 270.471 128.79 270.471 128.749C270.489 127.14 270.463 125.53 270.549 123.922C270.594 123.061 270.67 122.201 270.721 121.34C270.762 120.636 270.788 119.931 270.7 119.228C270.686 119.121 270.675 119.039 270.529 119.036C269.79 119.023 269.053 119.012 268.322 119.147C267.562 119.289 266.958 119.677 266.467 120.245C265.909 120.89 265.504 121.628 265.128 122.382C264.489 123.665 263.97 124.999 263.366 126.298C263.089 126.894 262.827 127.497 262.558 128.097C262.495 128.237 262.399 128.29 262.285 128.252C262.178 128.216 262.117 128.099 262.151 127.964C262.175 127.868 262.218 127.776 262.255 127.684C262.768 126.401 263.37 125.156 263.909 123.885C264.264 123.05 264.648 122.228 265.085 121.431C265.346 120.955 265.643 120.502 265.983 120.076C266.709 119.166 267.663 118.683 268.837 118.595C269.32 118.559 269.802 118.537 270.286 118.555ZM270.11 113.919C268.501 113.918 267.648 113.986 266.456 114.215C265.751 114.351 265.083 114.586 264.47 114.956C264.124 115.165 263.84 115.431 263.689 115.813C263.532 116.209 263.608 116.446 263.972 116.687C264.253 116.873 264.571 116.955 264.9 117.007C265.63 117.122 266.369 117.144 267.104 117.203C267.89 117.266 268.678 117.296 269.462 117.398C270.171 117.49 270.754 117.744 271.01 118.46C271.04 118.546 271.103 118.57 271.188 118.567C271.272 118.563 271.357 118.563 271.442 118.561C272.283 118.54 273.117 118.439 273.949 118.33C274.647 118.239 275.34 118.114 276.011 117.899C276.558 117.724 277.058 117.466 277.461 117.055C277.808 116.701 277.923 116.287 277.753 115.818C277.645 115.522 277.413 115.328 277.149 115.166C276.765 114.931 276.342 114.783 275.908 114.666C273.974 114.141 272.003 113.905 270.11 113.919Z" fill="white"/>
<path d="M278.203 127.685C278.24 127.818 278.284 127.975 278.198 128.083C278.17 128.117 278.133 128.141 278.088 128.154C277.978 128.185 277.874 128.142 277.814 128.03C277.786 127.979 277.77 127.922 277.755 127.866C277.201 125.788 276.564 123.732 276.032 121.648C275.849 120.932 275.675 120.214 275.498 119.497C275.49 119.465 275.481 119.432 275.479 119.399C275.468 119.266 275.526 119.172 275.634 119.15C275.753 119.126 275.833 119.182 275.879 119.282C275.911 119.349 275.927 119.423 275.948 119.495C276.427 121.215 276.858 122.947 277.359 124.661C277.652 125.666 277.923 126.677 278.203 127.685Z" fill="white"/>
<path d="M301.525 87.4741C301.484 87.4564 301.437 87.4948 301.447 87.5378C301.574 88.1247 301.594 88.7204 301.626 89.3173C301.669 90.0936 301.587 90.8585 301.46 91.6191C301.357 92.2348 301.11 92.796 300.66 93.2555C300.62 93.2973 300.584 93.3469 300.536 93.3795C300.129 93.6578 299.697 93.8689 299.187 93.906C298.399 93.9633 297.656 93.8151 296.93 93.5223C296.039 93.163 295.215 92.6901 294.432 92.1472C294.3 92.0555 294.176 91.9523 294.054 91.8458C293.834 91.6541 293.526 91.616 293.303 91.8048C292.97 92.0873 292.604 92.3277 292.251 92.5842C291.844 92.8805 291.441 93.183 291.013 93.4544C290.701 93.6521 290.382 93.8426 290.086 94.065C290.018 94.1161 289.944 94.1542 289.854 94.154C289.67 94.1533 289.579 94.014 289.654 93.8494C289.691 93.767 289.762 93.7254 289.835 93.6824C290.328 93.3894 290.791 93.0541 291.241 92.7023C291.479 92.5163 291.741 92.3627 291.984 92.1826C292.397 91.8778 292.787 91.5439 293.219 91.2645C293.254 91.2419 293.284 91.2116 293.313 91.1825C293.354 91.1428 293.363 91.1078 293.319 91.0559C293.126 90.8296 293.014 90.5626 292.905 90.2907C292.735 89.8645 292.761 89.4427 292.924 89.0292C293.055 88.6943 293.261 88.4006 293.519 88.1409C293.926 87.732 294.405 87.4235 294.914 87.156C295.332 86.9367 295.769 86.7566 296.202 86.5664C296.63 86.3783 297.078 86.2609 297.518 86.115C297.757 86.0359 298.016 86.0115 298.272 86.0737C298.629 86.1608 298.783 86.4194 298.683 86.7657C298.586 87.1039 298.348 87.3587 298.134 87.6235C297.978 87.8175 297.794 87.992 297.612 88.1648C297.126 88.6267 296.636 89.0858 296.123 89.5193C295.545 90.0063 294.964 90.4891 294.383 90.9719C294.236 91.0947 294.206 91.3096 294.347 91.4394C294.652 91.7185 294.991 91.9486 295.345 92.157C295.664 92.3449 295.981 92.5363 296.314 92.703C296.844 92.9688 297.392 93.187 297.968 93.3358C298.494 93.472 299.021 93.4875 299.551 93.3443C300.089 93.1989 300.439 92.8479 300.682 92.3766C300.899 91.9558 300.999 91.5 301.053 91.0386C301.149 90.2057 301.186 89.3704 301.078 88.5333C301.038 88.2209 301.029 87.9046 300.961 87.5954C300.928 87.45 300.888 87.3061 300.858 87.1605C300.842 87.0865 300.793 87.0482 300.733 87.0135C300.361 86.797 300.012 86.549 299.663 86.2992C299.4 86.1115 299.163 85.896 298.961 85.6527C298.523 85.1232 298.566 84.5194 299.102 84.0348C299.603 83.5818 300.189 83.3951 300.861 83.5985C301.399 83.761 301.784 84.0881 301.905 84.6476C301.966 84.9278 301.925 85.2065 301.844 85.4831C301.738 85.8469 301.549 86.1695 301.361 86.4941C301.233 86.7141 301.232 86.7157 301.459 86.8536C302.072 87.2253 302.717 87.5404 303.353 87.8722C303.921 88.1688 304.497 88.4508 305.06 88.757C306.127 89.337 307.185 89.9328 308.25 90.5156C309.271 91.0743 310.299 91.6191 311.319 92.1805C311.828 92.4611 312.328 92.7601 312.826 93.0599C314.104 93.8294 315.404 94.5623 316.744 95.2238C317.698 95.6949 318.679 96.1086 319.705 96.4094C320.185 96.5501 320.173 96.5933 320.202 96.0584C320.228 95.5681 320.36 95.0949 320.683 94.7189C321.126 94.2044 321.862 94.1434 322.333 94.7694C323.043 95.7115 322.322 96.7316 321.557 96.9507C321.301 97.024 321.048 97.0737 320.784 97.0697C320.662 97.0679 320.618 97.1127 320.623 97.2301C320.638 97.6695 320.648 98.1091 320.661 98.5487C320.663 98.6067 320.672 98.6644 320.673 98.7222C320.681 99.6507 320.68 100.579 320.696 101.508C320.718 102.66 320.719 103.813 320.734 104.965C320.739 105.371 320.737 105.777 320.746 106.182C320.761 106.846 320.749 107.51 320.788 108.172C320.82 108.702 320.797 109.234 320.837 109.762C320.877 110.293 320.851 110.824 320.887 111.352C320.92 111.826 320.889 112.296 320.886 112.768C320.883 113.44 320.842 114.111 320.841 114.782C320.84 115.379 320.788 115.974 320.794 116.57C320.801 117.175 320.743 117.779 320.743 118.383C320.744 118.832 320.694 119.276 320.682 119.722C320.659 120.61 320.565 121.492 320.493 122.376C320.44 123.037 320.319 123.69 320.177 124.34C320.095 124.716 320.011 124.668 320.441 124.782C321.164 124.973 321.861 125.233 322.495 125.629C322.766 125.798 323.026 125.986 323.28 126.179C323.669 126.473 324.049 126.781 324.397 127.119C324.672 127.387 324.935 127.675 325.081 128.037C325.188 128.304 325.12 128.411 324.832 128.485C324.397 128.596 323.953 128.654 323.508 128.717C322.323 128.884 321.128 128.936 319.937 129.021C319.751 129.034 319.564 129.036 319.377 129.041C318.64 129.061 317.903 129.096 317.166 129.111C316.596 129.122 316.031 129.078 315.464 129.066C314.552 129.048 313.663 128.865 312.764 128.752C312.629 128.735 312.497 128.7 312.375 128.64C312.265 128.585 312.221 128.484 312.251 128.37C312.28 128.26 312.356 128.201 312.471 128.199C312.538 128.199 312.607 128.206 312.673 128.221C313.742 128.467 314.833 128.567 315.925 128.613C317.111 128.664 318.298 128.616 319.483 128.544C319.653 128.533 319.822 128.524 319.992 128.523C320.68 128.519 321.364 128.451 322.046 128.387C322.771 128.32 323.502 128.289 324.219 128.152C324.375 128.122 324.454 127.945 324.36 127.817C324.301 127.736 324.238 127.661 324.169 127.59C323.423 126.831 322.583 126.192 321.62 125.717C321.149 125.485 320.652 125.32 320.142 125.189C319.991 125.15 319.954 125.208 319.908 125.323C319.733 125.765 319.529 126.191 319.235 126.574C318.9 127.009 318.501 127.369 318.035 127.67C317.625 127.935 317.165 128.04 316.697 128.101C316.219 128.162 315.755 128.033 315.369 127.762C314.993 127.498 314.79 127.118 314.904 126.637C314.964 126.384 315.059 126.146 315.223 125.939C315.48 125.615 315.778 125.347 316.149 125.14C317.003 124.664 317.921 124.502 318.886 124.525C319.064 124.529 319.241 124.559 319.418 124.575C319.615 124.593 319.618 124.593 319.668 124.397C319.772 123.986 319.839 123.57 319.886 123.149C319.947 122.597 320.05 122.047 320.076 121.493C320.114 120.698 320.214 119.908 320.216 119.111C320.217 118.697 320.28 118.282 320.274 117.868C320.263 117.172 320.345 116.479 320.318 115.783C320.309 115.576 320.34 115.369 320.345 115.161C320.367 114.366 320.392 113.57 320.404 112.773C320.413 112.168 320.427 111.561 320.393 110.958C320.363 110.427 320.387 109.896 320.344 109.368C320.302 108.854 320.326 108.341 320.299 107.828C320.241 106.734 320.26 105.64 320.242 104.546C320.233 103.999 320.258 103.452 320.237 102.906C320.194 101.812 320.216 100.717 320.185 99.6234C320.162 98.8112 320.187 97.9992 320.157 97.1874C320.152 97.0404 320.105 96.9876 319.965 96.9584C318.887 96.7351 317.889 96.2988 316.899 95.8433C315.901 95.384 314.942 94.853 313.991 94.3087C313.069 93.7811 312.161 93.2309 311.237 92.7077C310.459 92.2676 309.666 91.8534 308.882 91.4253C308.245 91.078 307.609 90.7295 306.976 90.3771C305.76 89.7008 304.546 89.0214 303.302 88.3956C302.729 88.1073 302.164 87.8046 301.594 87.5118C301.571 87.4997 301.549 87.4846 301.525 87.4741ZM293.685 90.7242C293.729 90.7801 293.813 90.7969 293.867 90.7511C294.295 90.3865 294.737 90.0394 295.17 89.6813C295.656 89.2802 296.12 88.8554 296.598 88.4454C296.974 88.1223 297.329 87.7781 297.66 87.4115C297.845 87.207 298.022 86.9933 298.151 86.7488C298.235 86.5894 298.201 86.5323 298.022 86.5417C297.801 86.5532 297.583 86.5899 297.373 86.6589C296.723 86.8726 296.092 87.1316 295.472 87.4188C294.836 87.713 294.263 88.0899 293.777 88.5835C293.517 88.8479 293.327 89.1572 293.307 89.5484C293.285 89.9897 293.411 90.3727 293.685 90.7242ZM318.944 126.125C319.278 125.635 318.9 124.984 318.307 125.016C318.042 125.03 317.779 125.068 317.515 125.134C317.034 125.254 316.568 125.404 316.172 125.697C315.833 125.948 315.529 126.238 315.417 126.667C315.327 127.008 315.468 127.295 315.794 127.438C316.675 127.822 317.435 127.53 318.135 127.012C318.459 126.773 318.717 126.459 318.944 126.125ZM301.454 85.0151C301.428 84.5896 301.245 84.2376 300.824 84.0806C300.47 83.9486 300.143 84.0103 299.814 84.1322C299.529 84.2372 299.342 84.4424 299.215 84.7075C299.135 84.8721 299.14 85.0323 299.238 85.1809C299.333 85.3265 299.433 85.4705 299.563 85.5923C299.907 85.915 300.295 86.1777 300.701 86.4189C300.808 86.4825 300.872 86.4631 300.925 86.3649C301.084 86.0733 301.27 85.7948 301.36 85.4712C301.403 85.3192 301.446 85.168 301.454 85.0151ZM320.919 96.5705C320.977 96.5646 321.069 96.5545 321.162 96.5454C321.561 96.5064 321.836 96.2866 322.02 95.9567C322.254 95.5375 322.073 95.0249 321.642 94.8427C321.533 94.7964 321.433 94.7976 321.324 94.8401C321.108 94.9242 321.001 95.1026 320.913 95.2926C320.755 95.6286 320.69 95.9872 320.664 96.3535C320.65 96.5651 320.661 96.5752 320.919 96.5705Z" fill="white"/>
<path d="M293.626 96.776C293.618 96.6471 293.657 96.5813 293.689 96.5144C294.154 95.5582 294.631 94.6077 295.157 93.6815C295.181 93.6381 295.202 93.5921 295.231 93.5517C295.297 93.4584 295.388 93.4272 295.497 93.4744C295.595 93.5171 295.662 93.6442 295.623 93.7414C295.558 93.9025 295.481 94.0596 295.399 94.2132C294.987 94.9831 294.618 95.7733 294.233 96.556C294.178 96.6673 294.134 96.7873 294.039 96.8739C293.962 96.9444 293.87 96.9831 293.76 96.9425C293.657 96.9045 293.631 96.8206 293.626 96.776Z" fill="white"/>
<path d="M297.603 97.459C297.674 96.5003 297.746 95.5835 297.941 94.6813C297.95 94.6407 297.954 94.5987 297.967 94.5597C298.014 94.4211 298.114 94.3544 298.23 94.3798C298.348 94.4059 298.406 94.5017 298.385 94.6508C298.358 94.8396 298.311 95.0265 298.299 95.2158C298.25 95.9599 298.13 96.698 298.097 97.4433C298.095 97.4926 298.097 97.544 298.083 97.5908C298.048 97.7122 297.951 97.7589 297.832 97.762C297.718 97.7648 297.625 97.6828 297.605 97.5659C297.596 97.5175 297.603 97.4665 297.603 97.459Z" fill="white"/>
<path d="M281.88 109.435C281.984 109.421 281.998 109.311 281.932 109.23C281.682 108.922 281.401 108.649 281.074 108.423C280.024 107.697 278.891 107.155 277.614 106.923C276.677 106.754 275.746 106.695 274.816 106.955C274.759 106.97 274.7 106.987 274.642 106.989C274.541 106.992 274.458 106.947 274.421 106.852C274.385 106.759 274.409 106.672 274.483 106.601C274.54 106.548 274.611 106.522 274.685 106.502C275.321 106.335 275.966 106.264 276.625 106.314C278.344 106.445 279.891 107.024 281.294 107.995C281.799 108.344 282.205 108.787 282.578 109.263C282.604 109.295 282.628 109.33 282.647 109.367C282.764 109.594 282.679 109.785 282.423 109.835C282.199 109.878 281.971 109.905 281.743 109.93C280.779 110.037 279.813 110.027 278.847 109.94C277.954 109.86 277.088 109.668 276.265 109.318C275.185 108.859 274.271 108.19 273.612 107.219C273.556 107.137 273.505 107.084 273.391 107.091C272.923 107.119 272.468 107.214 272.02 107.346C271.911 107.379 271.913 107.456 271.904 107.54C271.859 107.96 271.815 108.381 271.765 108.801C271.742 108.991 271.711 109.179 271.676 109.367C271.654 109.482 271.683 109.529 271.812 109.538C272.329 109.573 272.839 109.661 273.342 109.78C273.549 109.828 273.751 109.89 273.945 109.975C274.631 110.278 275.003 110.781 274.99 111.533C274.982 111.991 274.907 112.441 274.821 112.89C274.677 113.639 274.541 114.391 274.308 115.121C274.227 115.375 274.135 115.625 273.993 115.853C273.75 116.24 273.401 116.484 272.934 116.491C271.832 116.508 270.728 116.52 269.633 116.351C269.432 116.32 269.236 116.266 269.047 116.188C268.667 116.031 268.434 115.756 268.349 115.361C268.268 114.979 268.228 114.591 268.173 114.205C268.032 113.211 267.899 112.216 267.837 111.213C267.829 111.097 267.823 110.981 267.83 110.865C267.838 110.714 267.919 110.631 268.039 110.632C268.157 110.632 268.239 110.712 268.25 110.865C268.286 111.337 268.339 111.807 268.402 112.275C268.532 113.237 268.651 114.2 268.799 115.16C268.853 115.507 269.044 115.711 269.379 115.806C269.657 115.885 269.941 115.932 270.229 115.957C271.041 116.027 271.857 116.013 272.671 116.029C272.705 116.03 272.739 116.027 272.773 116.028C273.207 116.038 273.493 115.831 273.667 115.452C273.87 115.011 273.986 114.543 274.089 114.073C274.245 113.359 274.4 112.645 274.483 111.919C274.496 111.795 274.509 111.671 274.51 111.547C274.515 110.988 274.27 110.624 273.744 110.402C273.422 110.266 273.08 110.203 272.739 110.135C272.406 110.068 272.068 110.042 271.732 109.999C271.594 109.982 271.555 110.037 271.531 110.152C271.496 110.314 271.452 110.475 271.401 110.633C271.332 110.84 271.224 111.027 271.077 111.192C270.867 111.428 270.61 111.572 270.288 111.599C269.989 111.624 269.693 111.601 269.408 111.51C269.143 111.426 268.921 111.279 268.788 111.027C268.606 110.681 268.679 110.311 268.985 110.061C269.169 109.91 269.383 109.81 269.61 109.736C270.063 109.59 270.526 109.488 271.006 109.489C271.113 109.489 271.179 109.469 271.198 109.348C271.284 108.791 271.363 108.232 271.406 107.67C271.411 107.607 271.356 107.552 271.294 107.563C271.228 107.576 271.169 107.607 271.108 107.626C270.435 107.832 269.756 108.002 269.048 108.056C268.391 108.105 267.743 108.038 267.098 107.933C266.148 107.778 265.233 107.51 264.367 107.089C263.621 106.727 262.976 106.234 262.398 105.653C261.8 105.051 261.255 104.404 260.764 103.715C260.672 103.585 260.582 103.454 260.531 103.303C260.439 103.031 260.564 102.833 260.857 102.815C262.086 102.743 263.315 102.708 264.543 102.84C265.441 102.936 266.317 103.104 267.156 103.447C268.488 103.991 269.564 104.826 270.329 106.03C270.352 106.066 270.378 106.099 270.397 106.136C270.458 106.258 270.547 106.294 270.687 106.26C270.884 106.212 271.086 106.178 271.287 106.153C271.427 106.136 271.47 106.073 271.464 105.94C271.442 105.444 271.336 104.972 271.092 104.532C270.835 104.069 270.495 103.665 270.154 103.263C269.416 102.393 268.758 101.469 268.16 100.501C267.483 99.4028 267.078 98.2221 266.921 96.9513C266.818 96.1186 266.731 95.2862 266.726 94.4469C266.726 94.3642 266.718 94.2809 266.747 94.2003C266.811 94.0221 266.986 93.9528 267.157 94.0421C267.201 94.0653 267.241 94.0977 267.28 94.1297C268.498 95.1319 269.413 96.3492 270.004 97.7964C270.349 98.6406 270.559 99.5188 270.696 100.415C270.713 100.525 270.824 100.52 270.849 100.412C270.897 100.201 270.945 99.9959 270.997 99.7922C271.416 98.1522 272.123 96.6498 273.242 95.3477C273.777 94.7252 274.408 94.2144 275.132 93.8145C275.176 93.7901 275.221 93.7652 275.267 93.7448C275.505 93.6408 275.687 93.7096 275.774 93.9486C275.855 94.1682 275.878 94.4009 275.913 94.6308C276.141 96.1249 275.926 97.5557 275.275 98.9247C274.953 99.601 274.517 100.2 273.988 100.735C273.622 101.106 273.231 101.449 272.844 101.797C272.487 102.117 272.127 102.433 271.829 102.809C271.766 102.887 271.713 102.972 271.652 103.052C271.593 103.129 271.599 103.195 271.653 103.277C271.888 103.642 272.117 104.011 272.348 104.378C272.387 104.439 272.47 104.436 272.508 104.374C272.525 104.345 272.54 104.313 272.558 104.284C273.245 103.19 274.124 102.264 275.142 101.459C276.202 100.622 277.423 100.133 278.75 99.8765C279.574 99.717 280.41 99.6325 281.244 99.5327C281.817 99.4639 282.384 99.3681 282.951 99.2643C283.009 99.2537 283.068 99.2366 283.127 99.2366C283.374 99.2368 283.494 99.4334 283.375 99.6447C283.33 99.7241 283.269 99.7943 283.214 99.8678C282.982 100.176 282.777 100.501 282.582 100.831C281.378 102.872 279.61 104.245 277.362 105.057C275.895 105.587 274.38 105.947 272.862 106.3C272.615 106.357 272.366 106.408 272.118 106.465C271.977 106.498 271.887 106.684 271.95 106.81C271.98 106.87 272.037 106.851 272.084 106.84C272.241 106.803 272.396 106.76 272.553 106.726C272.868 106.657 273.19 106.633 273.512 106.61C273.698 106.596 273.837 106.658 273.934 106.823C274.343 107.516 274.935 108.031 275.617 108.454C276.5 109.002 277.478 109.292 278.505 109.426C279.628 109.573 280.755 109.584 281.88 109.435ZM282.605 99.887C282.622 99.8616 282.591 99.8271 282.561 99.8226C282.51 99.815 282.46 99.8316 282.41 99.8408C281.96 99.9241 281.505 99.972 281.051 100.031C280.252 100.133 279.449 100.209 278.661 100.376C277.51 100.621 276.444 101.053 275.514 101.772C274.487 102.566 273.609 103.493 272.93 104.593C272.86 104.707 272.793 104.823 272.717 104.932C272.526 105.203 272.297 105.199 272.119 104.925C272.078 104.862 272.042 104.796 272.002 104.733C271.734 104.309 271.477 103.88 271.195 103.466C271.053 103.256 271.052 103.087 271.191 102.875C271.464 102.458 271.804 102.102 272.169 101.766C272.601 101.368 273.048 100.984 273.469 100.575C275.081 99.0043 275.698 97.0945 275.459 94.902C275.445 94.775 275.436 94.6461 275.415 94.5187C275.389 94.3658 275.25 94.292 275.117 94.3722C274.58 94.6986 274.103 95.0952 273.689 95.5625C272.611 96.778 271.932 98.1928 271.507 99.7349C271.299 100.489 271.185 101.261 271.053 102.029C271.037 102.12 271.019 102.21 270.977 102.291C270.926 102.388 270.844 102.441 270.73 102.433C270.625 102.426 270.558 102.367 270.524 102.273C270.506 102.227 270.494 102.178 270.485 102.129C270.434 101.835 270.38 101.541 270.334 101.246C270.222 100.517 270.126 99.7837 269.925 99.0703C269.47 97.4536 268.686 96.0242 267.399 94.887C267.307 94.8055 267.227 94.8838 267.227 95.0068C267.227 95.0533 267.227 95.0998 267.23 95.1462C267.268 95.9425 267.366 96.7324 267.502 97.5181C267.633 98.2764 267.876 98.9982 268.248 99.6766C268.634 100.379 269.059 101.057 269.532 101.707C270.009 102.364 270.55 102.971 271.05 103.61C271.468 104.143 271.791 104.722 271.893 105.398C271.914 105.537 271.923 105.678 271.94 105.818C271.964 106.014 271.965 106.015 272.153 105.975C272.343 105.934 272.533 105.89 272.723 105.847C274.241 105.494 275.758 105.138 277.223 104.604C278.914 103.988 280.355 103.032 281.464 101.624C281.895 101.076 282.229 100.468 282.605 99.887ZM261.344 103.261C261.205 103.266 261.115 103.385 261.197 103.499C261.646 104.123 262.144 104.709 262.681 105.265C263.451 106.062 264.362 106.649 265.418 107.021C266.148 107.279 266.899 107.441 267.665 107.539C268.367 107.628 269.067 107.625 269.765 107.486C270.264 107.387 270.75 107.241 271.234 107.089C271.452 107.021 271.453 107.02 271.457 106.799C271.459 106.672 271.345 106.625 271.22 106.646C271.086 106.669 270.953 106.691 270.819 106.715C270.316 106.805 270.245 106.775 269.964 106.348C269.932 106.299 269.901 106.25 269.868 106.202C269.586 105.796 269.283 105.409 268.913 105.075C268.077 104.322 267.087 103.846 266.001 103.563C265.054 103.316 264.079 103.251 263.104 103.219C262.521 103.201 261.938 103.24 261.344 103.261ZM269.601 111.076C269.907 111.158 270.259 111.203 270.53 111.041C270.682 110.95 270.797 110.8 270.889 110.613C270.959 110.471 271.001 110.319 271.036 110.165C271.078 109.983 271.061 109.961 270.869 109.969C270.399 109.989 269.949 110.095 269.52 110.283C269.451 110.313 269.385 110.354 269.325 110.399C269.134 110.544 269.122 110.743 269.293 110.91C269.378 110.994 269.485 111.045 269.601 111.076Z" fill="white"/>
<path d="M51.92 31.248V48H48.56V37.104L44.072 48H41.528L37.016 37.104V48H33.656V31.248H37.472L42.8 43.704L48.128 31.248H51.92ZM53.8979 41.304C53.8979 39.96 54.1619 38.768 54.6899 37.728C55.2339 36.688 55.9619 35.888 56.8739 35.328C57.8019 34.768 58.8339 34.488 59.9699 34.488C60.9619 34.488 61.8259 34.688 62.5619 35.088C63.3139 35.488 63.9139 35.992 64.3619 36.6V34.704H67.7459V48H64.3619V46.056C63.9299 46.68 63.3299 47.2 62.5619 47.616C61.8099 48.016 60.9379 48.216 59.9459 48.216C58.8259 48.216 57.8019 47.928 56.8739 47.352C55.9619 46.776 55.2339 45.968 54.6899 44.928C54.1619 43.872 53.8979 42.664 53.8979 41.304ZM64.3619 41.352C64.3619 40.536 64.2019 39.84 63.8819 39.264C63.5619 38.672 63.1299 38.224 62.5859 37.92C62.0419 37.6 61.4579 37.44 60.8339 37.44C60.2099 37.44 59.6339 37.592 59.1059 37.896C58.5779 38.2 58.1459 38.648 57.8099 39.24C57.4899 39.816 57.3299 40.504 57.3299 41.304C57.3299 42.104 57.4899 42.808 57.8099 43.416C58.1459 44.008 58.5779 44.464 59.1059 44.784C59.6499 45.104 60.2259 45.264 60.8339 45.264C61.4579 45.264 62.0419 45.112 62.5859 44.808C63.1299 44.488 63.5619 44.04 63.8819 43.464C64.2019 42.872 64.3619 42.168 64.3619 41.352ZM78.4196 48L73.9076 42.336V48H70.5476V30.24H73.9076V40.344L78.3716 34.704H82.7396L76.8836 41.376L82.7876 48H78.4196ZM96.4432 41.064C96.4432 41.544 96.4112 41.976 96.3472 42.36H86.6272C86.7072 43.32 87.0432 44.072 87.6352 44.616C88.2272 45.16 88.9552 45.432 89.8192 45.432C91.0672 45.432 91.9552 44.896 92.4832 43.824H96.1072C95.7232 45.104 94.9872 46.16 93.8992 46.992C92.8112 47.808 91.4752 48.216 89.8912 48.216C88.6112 48.216 87.4592 47.936 86.4352 47.376C85.4272 46.8 84.6352 45.992 84.0592 44.952C83.4992 43.912 83.2192 42.712 83.2192 41.352C83.2192 39.976 83.4992 38.768 84.0592 37.728C84.6192 36.688 85.4032 35.888 86.4112 35.328C87.4192 34.768 88.5792 34.488 89.8912 34.488C91.1552 34.488 92.2832 34.76 93.2752 35.304C94.2832 35.848 95.0592 36.624 95.6032 37.632C96.1632 38.624 96.4432 39.768 96.4432 41.064ZM92.9632 40.104C92.9472 39.24 92.6352 38.552 92.0272 38.04C91.4192 37.512 90.6752 37.248 89.7952 37.248C88.9632 37.248 88.2592 37.504 87.6832 38.016C87.1232 38.512 86.7792 39.208 86.6512 40.104H92.9632ZM116.374 34.704L108.142 54.288H104.566L107.446 47.664L102.118 34.704H105.886L109.318 43.992L112.798 34.704H116.374ZM123.61 48.216C122.33 48.216 121.178 47.936 120.154 47.376C119.13 46.8 118.322 45.992 117.73 44.952C117.154 43.912 116.866 42.712 116.866 41.352C116.866 39.992 117.162 38.792 117.754 37.752C118.362 36.712 119.186 35.912 120.226 35.352C121.266 34.776 122.426 34.488 123.706 34.488C124.986 34.488 126.146 34.776 127.186 35.352C128.226 35.912 129.042 36.712 129.634 37.752C130.242 38.792 130.546 39.992 130.546 41.352C130.546 42.712 130.234 43.912 129.61 44.952C129.002 45.992 128.17 46.8 127.114 47.376C126.074 47.936 124.906 48.216 123.61 48.216ZM123.61 45.288C124.218 45.288 124.786 45.144 125.314 44.856C125.858 44.552 126.29 44.104 126.61 43.512C126.93 42.92 127.09 42.2 127.09 41.352C127.09 40.088 126.754 39.12 126.082 38.448C125.426 37.76 124.618 37.416 123.658 37.416C122.698 37.416 121.89 37.76 121.234 38.448C120.594 39.12 120.274 40.088 120.274 41.352C120.274 42.616 120.586 43.592 121.21 44.28C121.85 44.952 122.65 45.288 123.61 45.288ZM145.082 34.704V48H141.698V46.32C141.266 46.896 140.698 47.352 139.994 47.688C139.306 48.008 138.554 48.168 137.738 48.168C136.698 48.168 135.778 47.952 134.978 47.52C134.178 47.072 133.546 46.424 133.082 45.576C132.634 44.712 132.41 43.688 132.41 42.504V34.704H135.77V42.024C135.77 43.08 136.034 43.896 136.562 44.472C137.09 45.032 137.81 45.312 138.722 45.312C139.65 45.312 140.378 45.032 140.906 44.472C141.434 43.896 141.698 43.08 141.698 42.024V34.704H145.082ZM151.278 36.768C151.71 36.064 152.27 35.512 152.958 35.112C153.662 34.712 154.462 34.512 155.358 34.512V38.04H154.47C153.414 38.04 152.614 38.288 152.07 38.784C151.542 39.28 151.278 40.144 151.278 41.376V48H147.918V34.704H151.278V36.768ZM165.739 36.624C166.171 36.016 166.763 35.512 167.515 35.112C168.283 34.696 169.155 34.488 170.131 34.488C171.267 34.488 172.291 34.768 173.203 35.328C174.131 35.888 174.859 36.688 175.387 37.728C175.931 38.752 176.203 39.944 176.203 41.304C176.203 42.664 175.931 43.872 175.387 44.928C174.859 45.968 174.131 46.776 173.203 47.352C172.291 47.928 171.267 48.216 170.131 48.216C169.155 48.216 168.291 48.016 167.539 47.616C166.803 47.216 166.203 46.712 165.739 46.104V54.336H162.379V34.704H165.739V36.624ZM172.771 41.304C172.771 40.504 172.603 39.816 172.267 39.24C171.947 38.648 171.515 38.2 170.971 37.896C170.443 37.592 169.867 37.44 169.243 37.44C168.635 37.44 168.059 37.6 167.515 37.92C166.987 38.224 166.555 38.672 166.219 39.264C165.899 39.856 165.739 40.552 165.739 41.352C165.739 42.152 165.899 42.848 166.219 43.44C166.555 44.032 166.987 44.488 167.515 44.808C168.059 45.112 168.635 45.264 169.243 45.264C169.867 45.264 170.443 45.104 170.971 44.784C171.515 44.464 171.947 44.008 172.267 43.416C172.603 42.824 172.771 42.12 172.771 41.304ZM179.869 33.12C179.277 33.12 178.781 32.936 178.381 32.568C177.997 32.184 177.805 31.712 177.805 31.152C177.805 30.592 177.997 30.128 178.381 29.76C178.781 29.376 179.277 29.184 179.869 29.184C180.461 29.184 180.949 29.376 181.333 29.76C181.733 30.128 181.933 30.592 181.933 31.152C181.933 31.712 181.733 32.184 181.333 32.568C180.949 32.936 180.461 33.12 179.869 33.12ZM181.525 34.704V48H178.165V34.704H181.525ZM183.501 41.352C183.501 39.976 183.781 38.776 184.341 37.752C184.901 36.712 185.677 35.912 186.669 35.352C187.661 34.776 188.797 34.488 190.077 34.488C191.725 34.488 193.085 34.904 194.157 35.736C195.245 36.552 195.973 37.704 196.341 39.192H192.717C192.525 38.616 192.197 38.168 191.733 37.848C191.285 37.512 190.725 37.344 190.053 37.344C189.093 37.344 188.333 37.696 187.773 38.4C187.213 39.088 186.933 40.072 186.933 41.352C186.933 42.616 187.213 43.6 187.773 44.304C188.333 44.992 189.093 45.336 190.053 45.336C191.413 45.336 192.301 44.728 192.717 43.512H196.341C195.973 44.952 195.245 46.096 194.157 46.944C193.069 47.792 191.709 48.216 190.077 48.216C188.797 48.216 187.661 47.936 186.669 47.376C185.677 46.8 184.901 46 184.341 44.976C183.781 43.936 183.501 42.728 183.501 41.352ZM202.234 37.464V43.896C202.234 44.344 202.338 44.672 202.546 44.88C202.77 45.072 203.138 45.168 203.65 45.168H205.21V48H203.098C200.266 48 198.85 46.624 198.85 43.872V37.464H197.266V34.704H198.85V31.416H202.234V34.704H205.21V37.464H202.234ZM219.699 34.704V48H216.315V46.32C215.883 46.896 215.315 47.352 214.611 47.688C213.923 48.008 213.171 48.168 212.355 48.168C211.315 48.168 210.395 47.952 209.595 47.52C208.795 47.072 208.163 46.424 207.699 45.576C207.251 44.712 207.027 43.688 207.027 42.504V34.704H210.387V42.024C210.387 43.08 210.651 43.896 211.179 44.472C211.707 45.032 212.427 45.312 213.339 45.312C214.267 45.312 214.995 45.032 215.523 44.472C216.051 43.896 216.315 43.08 216.315 42.024V34.704H219.699ZM225.894 36.768C226.326 36.064 226.886 35.512 227.574 35.112C228.278 34.712 229.078 34.512 229.974 34.512V38.04H229.086C228.03 38.04 227.23 38.288 226.686 38.784C226.158 39.28 225.894 40.144 225.894 41.376V48H222.534V34.704H225.894V36.768ZM244.117 41.064C244.117 41.544 244.085 41.976 244.021 42.36H234.301C234.381 43.32 234.717 44.072 235.309 44.616C235.901 45.16 236.629 45.432 237.493 45.432C238.741 45.432 239.629 44.896 240.157 43.824H243.781C243.397 45.104 242.661 46.16 241.573 46.992C240.485 47.808 239.149 48.216 237.565 48.216C236.285 48.216 235.133 47.936 234.109 47.376C233.101 46.8 232.309 45.992 231.733 44.952C231.173 43.912 230.893 42.712 230.893 41.352C230.893 39.976 231.173 38.768 231.733 37.728C232.293 36.688 233.077 35.888 234.085 35.328C235.093 34.768 236.253 34.488 237.565 34.488C238.829 34.488 239.957 34.76 240.949 35.304C241.957 35.848 242.733 36.624 243.277 37.632C243.837 38.624 244.117 39.768 244.117 41.064ZM240.637 40.104C240.621 39.24 240.309 38.552 239.701 38.04C239.093 37.512 238.349 37.248 237.469 37.248C236.637 37.248 235.933 37.504 235.357 38.016C234.797 38.512 234.453 39.208 234.325 40.104H240.637ZM37.016 68.624C37.448 68.016 38.04 67.512 38.792 67.112C39.56 66.696 40.432 66.488 41.408 66.488C42.544 66.488 43.568 66.768 44.48 67.328C45.408 67.888 46.136 68.688 46.664 69.728C47.208 70.752 47.48 71.944 47.48 73.304C47.48 74.664 47.208 75.872 46.664 76.928C46.136 77.968 45.408 78.776 44.48 79.352C43.568 79.928 42.544 80.216 41.408 80.216C40.432 80.216 39.568 80.016 38.816 79.616C38.08 79.216 37.48 78.712 37.016 78.104V86.336H33.656V66.704H37.016V68.624ZM44.048 73.304C44.048 72.504 43.88 71.816 43.544 71.24C43.224 70.648 42.792 70.2 42.248 69.896C41.72 69.592 41.144 69.44 40.52 69.44C39.912 69.44 39.336 69.6 38.792 69.92C38.264 70.224 37.832 70.672 37.496 71.264C37.176 71.856 37.016 72.552 37.016 73.352C37.016 74.152 37.176 74.848 37.496 75.44C37.832 76.032 38.264 76.488 38.792 76.808C39.336 77.112 39.912 77.264 40.52 77.264C41.144 77.264 41.72 77.104 42.248 76.784C42.792 76.464 43.224 76.008 43.544 75.416C43.88 74.824 44.048 74.12 44.048 73.304ZM61.8016 73.064C61.8016 73.544 61.7696 73.976 61.7056 74.36H51.9856C52.0656 75.32 52.4016 76.072 52.9936 76.616C53.5856 77.16 54.3136 77.432 55.1776 77.432C56.4256 77.432 57.3136 76.896 57.8416 75.824H61.4656C61.0816 77.104 60.3456 78.16 59.2576 78.992C58.1696 79.808 56.8336 80.216 55.2496 80.216C53.9696 80.216 52.8176 79.936 51.7936 79.376C50.7856 78.8 49.9936 77.992 49.4176 76.952C48.8576 75.912 48.5776 74.712 48.5776 73.352C48.5776 71.976 48.8576 70.768 49.4176 69.728C49.9776 68.688 50.7616 67.888 51.7696 67.328C52.7776 66.768 53.9376 66.488 55.2496 66.488C56.5136 66.488 57.6416 66.76 58.6336 67.304C59.6416 67.848 60.4176 68.624 60.9616 69.632C61.5216 70.624 61.8016 71.768 61.8016 73.064ZM58.3216 72.104C58.3056 71.24 57.9936 70.552 57.3856 70.04C56.7776 69.512 56.0336 69.248 55.1536 69.248C54.3216 69.248 53.6176 69.504 53.0416 70.016C52.4816 70.512 52.1376 71.208 52.0096 72.104H58.3216ZM67.1341 68.768C67.5661 68.064 68.1261 67.512 68.8141 67.112C69.5181 66.712 70.3181 66.512 71.2141 66.512V70.04H70.3261C69.2701 70.04 68.4701 70.288 67.9261 70.784C67.3981 71.28 67.1341 72.144 67.1341 73.376V80H63.7741V66.704H67.1341V68.768ZM79.0933 69.464H76.7653V80H73.3573V69.464H71.8453V66.704H73.3573V66.032C73.3573 64.4 73.8213 63.2 74.7493 62.432C75.6773 61.664 77.0773 61.304 78.9493 61.352V64.184C78.1333 64.168 77.5653 64.304 77.2453 64.592C76.9253 64.88 76.7653 65.4 76.7653 66.152V66.704H79.0933V69.464ZM93.1507 73.064C93.1507 73.544 93.1187 73.976 93.0547 74.36H83.3347C83.4147 75.32 83.7507 76.072 84.3427 76.616C84.9347 77.16 85.6627 77.432 86.5267 77.432C87.7747 77.432 88.6627 76.896 89.1907 75.824H92.8147C92.4307 77.104 91.6947 78.16 90.6067 78.992C89.5187 79.808 88.1827 80.216 86.5987 80.216C85.3187 80.216 84.1667 79.936 83.1427 79.376C82.1347 78.8 81.3427 77.992 80.7667 76.952C80.2067 75.912 79.9267 74.712 79.9267 73.352C79.9267 71.976 80.2067 70.768 80.7667 69.728C81.3267 68.688 82.1107 67.888 83.1187 67.328C84.1267 66.768 85.2867 66.488 86.5987 66.488C87.8627 66.488 88.9907 66.76 89.9827 67.304C90.9907 67.848 91.7667 68.624 92.3107 69.632C92.8707 70.624 93.1507 71.768 93.1507 73.064ZM89.6707 72.104C89.6547 71.24 89.3427 70.552 88.7347 70.04C88.1267 69.512 87.3827 69.248 86.5027 69.248C85.6707 69.248 84.9667 69.504 84.3907 70.016C83.8307 70.512 83.4867 71.208 83.3587 72.104H89.6707ZM94.2592 73.352C94.2592 71.976 94.5392 70.776 95.0992 69.752C95.6592 68.712 96.4352 67.912 97.4272 67.352C98.4192 66.776 99.5552 66.488 100.835 66.488C102.483 66.488 103.843 66.904 104.915 67.736C106.003 68.552 106.731 69.704 107.099 71.192H103.475C103.283 70.616 102.955 70.168 102.491 69.848C102.043 69.512 101.483 69.344 100.811 69.344C99.8512 69.344 99.0912 69.696 98.5312 70.4C97.9712 71.088 97.6912 72.072 97.6912 73.352C97.6912 74.616 97.9712 75.6 98.5312 76.304C99.0912 76.992 99.8512 77.336 100.811 77.336C102.171 77.336 103.059 76.728 103.475 75.512H107.099C106.731 76.952 106.003 78.096 104.915 78.944C103.827 79.792 102.467 80.216 100.835 80.216C99.5552 80.216 98.4192 79.936 97.4272 79.376C96.4352 78.8 95.6592 78 95.0992 76.976C94.5392 75.936 94.2592 74.728 94.2592 73.352ZM112.993 69.464V75.896C112.993 76.344 113.097 76.672 113.305 76.88C113.529 77.072 113.897 77.168 114.409 77.168H115.969V80H113.857C111.025 80 109.609 78.624 109.609 75.872V69.464H108.025V66.704H109.609V63.416H112.993V66.704H115.969V69.464H112.993ZM130.632 66.512C131.64 66.512 132.536 66.736 133.32 67.184C134.104 67.616 134.712 68.264 135.144 69.128C135.592 69.976 135.816 71 135.816 72.2V80H132.456V72.656C132.456 71.6 132.192 70.792 131.664 70.232C131.136 69.656 130.416 69.368 129.504 69.368C128.576 69.368 127.84 69.656 127.296 70.232C126.768 70.792 126.504 71.6 126.504 72.656V80H123.144V62.24H126.504V68.36C126.936 67.784 127.512 67.336 128.232 67.016C128.952 66.68 129.752 66.512 130.632 66.512ZM144.435 80.216C143.155 80.216 142.003 79.936 140.979 79.376C139.955 78.8 139.147 77.992 138.555 76.952C137.979 75.912 137.691 74.712 137.691 73.352C137.691 71.992 137.987 70.792 138.579 69.752C139.187 68.712 140.011 67.912 141.051 67.352C142.091 66.776 143.251 66.488 144.531 66.488C145.811 66.488 146.971 66.776 148.011 67.352C149.051 67.912 149.867 68.712 150.459 69.752C151.067 70.792 151.371 71.992 151.371 73.352C151.371 74.712 151.059 75.912 150.435 76.952C149.827 77.992 148.995 78.8 147.939 79.376C146.899 79.936 145.731 80.216 144.435 80.216ZM144.435 77.288C145.043 77.288 145.611 77.144 146.139 76.856C146.683 76.552 147.115 76.104 147.435 75.512C147.755 74.92 147.915 74.2 147.915 73.352C147.915 72.088 147.579 71.12 146.907 70.448C146.251 69.76 145.443 69.416 144.483 69.416C143.523 69.416 142.715 69.76 142.059 70.448C141.419 71.12 141.099 72.088 141.099 73.352C141.099 74.616 141.411 75.592 142.035 76.28C142.675 76.952 143.475 77.288 144.435 77.288ZM169.868 66.512C171.5 66.512 172.812 67.016 173.804 68.024C174.812 69.016 175.316 70.408 175.316 72.2V80H171.956V72.656C171.956 71.616 171.692 70.824 171.164 70.28C170.636 69.72 169.916 69.44 169.004 69.44C168.092 69.44 167.364 69.72 166.82 70.28C166.292 70.824 166.028 71.616 166.028 72.656V80H162.668V72.656C162.668 71.616 162.404 70.824 161.876 70.28C161.348 69.72 160.628 69.44 159.716 69.44C158.788 69.44 158.052 69.72 157.508 70.28C156.98 70.824 156.716 71.616 156.716 72.656V80H153.356V66.704H156.716V68.312C157.148 67.752 157.7 67.312 158.372 66.992C159.06 66.672 159.812 66.512 160.628 66.512C161.668 66.512 162.596 66.736 163.412 67.184C164.228 67.616 164.86 68.24 165.308 69.056C165.74 68.288 166.364 67.672 167.18 67.208C168.012 66.744 168.908 66.512 169.868 66.512ZM190.384 73.064C190.384 73.544 190.352 73.976 190.288 74.36H180.568C180.648 75.32 180.984 76.072 181.576 76.616C182.168 77.16 182.896 77.432 183.76 77.432C185.008 77.432 185.896 76.896 186.424 75.824H190.048C189.664 77.104 188.928 78.16 187.84 78.992C186.752 79.808 185.416 80.216 183.832 80.216C182.552 80.216 181.4 79.936 180.376 79.376C179.368 78.8 178.576 77.992 178 76.952C177.44 75.912 177.16 74.712 177.16 73.352C177.16 71.976 177.44 70.768 178 69.728C178.56 68.688 179.344 67.888 180.352 67.328C181.36 66.768 182.52 66.488 183.832 66.488C185.096 66.488 186.224 66.76 187.216 67.304C188.224 67.848 189 68.624 189.544 69.632C190.104 70.624 190.384 71.768 190.384 73.064ZM186.904 72.104C186.888 71.24 186.576 70.552 185.968 70.04C185.36 69.512 184.616 69.248 183.736 69.248C182.904 69.248 182.2 69.504 181.624 70.016C181.064 70.512 180.72 71.208 180.592 72.104H186.904ZM216.028 66.704L212.14 80H208.516L206.092 70.712L203.668 80H200.02L196.108 66.704H199.516L201.868 76.832L204.412 66.704H207.964L210.46 76.808L212.812 66.704H216.028ZM219.07 65.12C218.478 65.12 217.982 64.936 217.582 64.568C217.198 64.184 217.006 63.712 217.006 63.152C217.006 62.592 217.198 62.128 217.582 61.76C217.982 61.376 218.478 61.184 219.07 61.184C219.662 61.184 220.15 61.376 220.534 61.76C220.934 62.128 221.134 62.592 221.134 63.152C221.134 63.712 220.934 64.184 220.534 64.568C220.15 64.936 219.662 65.12 219.07 65.12ZM220.726 66.704V80H217.366V66.704H220.726ZM227.477 69.464V75.896C227.477 76.344 227.581 76.672 227.789 76.88C228.013 77.072 228.381 77.168 228.893 77.168H230.453V80H228.341C225.509 80 224.093 78.624 224.093 75.872V69.464H222.509V66.704H224.093V63.416H227.477V66.704H230.453V69.464H227.477ZM239.878 66.512C240.886 66.512 241.782 66.736 242.566 67.184C243.35 67.616 243.958 68.264 244.39 69.128C244.838 69.976 245.062 71 245.062 72.2V80H241.702V72.656C241.702 71.6 241.438 70.792 240.91 70.232C240.382 69.656 239.662 69.368 238.75 69.368C237.822 69.368 237.086 69.656 236.542 70.232C236.014 70.792 235.75 71.6 235.75 72.656V80H232.39V62.24H235.75V68.36C236.182 67.784 236.758 67.336 237.478 67.016C238.198 66.68 238.998 66.512 239.878 66.512ZM265.568 66.704V80H262.184V78.32C261.752 78.896 261.184 79.352 260.48 79.688C259.792 80.008 259.04 80.168 258.224 80.168C257.184 80.168 256.264 79.952 255.464 79.52C254.664 79.072 254.032 78.424 253.568 77.576C253.12 76.712 252.896 75.688 252.896 74.504V66.704H256.256V74.024C256.256 75.08 256.52 75.896 257.048 76.472C257.576 77.032 258.296 77.312 259.208 77.312C260.136 77.312 260.864 77.032 261.392 76.472C261.92 75.896 262.184 75.08 262.184 74.024V66.704H265.568ZM273.491 80.216C272.403 80.216 271.427 80.024 270.563 79.64C269.699 79.24 269.011 78.704 268.499 78.032C268.003 77.36 267.731 76.616 267.683 75.8H271.067C271.131 76.312 271.379 76.736 271.811 77.072C272.259 77.408 272.811 77.576 273.467 77.576C274.107 77.576 274.603 77.448 274.955 77.192C275.323 76.936 275.507 76.608 275.507 76.208C275.507 75.776 275.283 75.456 274.835 75.248C274.403 75.024 273.707 74.784 272.747 74.528C271.755 74.288 270.939 74.04 270.299 73.784C269.675 73.528 269.131 73.136 268.667 72.608C268.219 72.08 267.995 71.368 267.995 70.472C267.995 69.736 268.203 69.064 268.619 68.456C269.051 67.848 269.659 67.368 270.443 67.016C271.243 66.664 272.179 66.488 273.251 66.488C274.835 66.488 276.099 66.888 277.043 67.688C277.987 68.472 278.507 69.536 278.603 70.88H275.387C275.339 70.352 275.115 69.936 274.715 69.632C274.331 69.312 273.811 69.152 273.155 69.152C272.547 69.152 272.075 69.264 271.739 69.488C271.419 69.712 271.259 70.024 271.259 70.424C271.259 70.872 271.483 71.216 271.931 71.456C272.379 71.68 273.075 71.912 274.019 72.152C274.979 72.392 275.771 72.64 276.395 72.896C277.019 73.152 277.555 73.552 278.003 74.096C278.467 74.624 278.707 75.328 278.723 76.208C278.723 76.976 278.507 77.664 278.075 78.272C277.659 78.88 277.051 79.36 276.251 79.712C275.467 80.048 274.547 80.216 273.491 80.216Z" fill="white"/>
<rect x="32" y="104" width="71" height="21" rx="2.77576" fill="#F6B704"/>
<path d="M45.232 118.5L43.312 115.164H42.268V118.5H40.9V110.16H43.78C44.42 110.16 44.96 110.272 45.4 110.496C45.848 110.72 46.18 111.02 46.396 111.396C46.62 111.772 46.732 112.192 46.732 112.656C46.732 113.2 46.572 113.696 46.252 114.144C45.94 114.584 45.456 114.884 44.8 115.044L46.864 118.5H45.232ZM42.268 114.072H43.78C44.292 114.072 44.676 113.944 44.932 113.688C45.196 113.432 45.328 113.088 45.328 112.656C45.328 112.224 45.2 111.888 44.944 111.648C44.688 111.4 44.3 111.276 43.78 111.276H42.268V114.072ZM54.302 115.032C54.302 115.28 54.286 115.504 54.254 115.704H49.202C49.242 116.232 49.438 116.656 49.79 116.976C50.142 117.296 50.574 117.456 51.086 117.456C51.822 117.456 52.342 117.148 52.646 116.532H54.122C53.922 117.14 53.558 117.64 53.03 118.032C52.51 118.416 51.862 118.608 51.086 118.608C50.454 118.608 49.886 118.468 49.382 118.188C48.886 117.9 48.494 117.5 48.206 116.988C47.926 116.468 47.786 115.868 47.786 115.188C47.786 114.508 47.922 113.912 48.194 113.4C48.474 112.88 48.862 112.48 49.358 112.2C49.862 111.92 50.438 111.78 51.086 111.78C51.71 111.78 52.266 111.916 52.754 112.188C53.242 112.46 53.622 112.844 53.894 113.34C54.166 113.828 54.302 114.392 54.302 115.032ZM52.874 114.6C52.866 114.096 52.686 113.692 52.334 113.388C51.982 113.084 51.546 112.932 51.026 112.932C50.554 112.932 50.15 113.084 49.814 113.388C49.478 113.684 49.278 114.088 49.214 114.6H52.874ZM58.7443 111.78C59.2643 111.78 59.7283 111.888 60.1363 112.104C60.5523 112.32 60.8763 112.64 61.1083 113.064C61.3403 113.488 61.4563 114 61.4563 114.6V118.5H60.1003V114.804C60.1003 114.212 59.9523 113.76 59.6563 113.448C59.3603 113.128 58.9563 112.968 58.4443 112.968C57.9323 112.968 57.5243 113.128 57.2203 113.448C56.9243 113.76 56.7763 114.212 56.7763 114.804V118.5H55.4083V111.888H56.7763V112.644C57.0003 112.372 57.2843 112.16 57.6283 112.008C57.9803 111.856 58.3523 111.78 58.7443 111.78ZM64.5573 113.004V116.664C64.5573 116.912 64.6133 117.092 64.7253 117.204C64.8453 117.308 65.0453 117.36 65.3253 117.36H66.1653V118.5H65.0853C64.4693 118.5 63.9973 118.356 63.6693 118.068C63.3413 117.78 63.1773 117.312 63.1773 116.664V113.004H62.3973V111.888H63.1773V110.244H64.5573V111.888H66.1653V113.004H64.5573ZM73.3993 111.78C73.9193 111.78 74.3833 111.888 74.7913 112.104C75.2073 112.32 75.5313 112.64 75.7633 113.064C75.9953 113.488 76.1113 114 76.1113 114.6V118.5H74.7553V114.804C74.7553 114.212 74.6073 113.76 74.3113 113.448C74.0153 113.128 73.6113 112.968 73.0993 112.968C72.5873 112.968 72.1793 113.128 71.8753 113.448C71.5793 113.76 71.4313 114.212 71.4313 114.804V118.5H70.0633V111.888H71.4313V112.644C71.6553 112.372 71.9393 112.16 72.2833 112.008C72.6353 111.856 73.0073 111.78 73.3993 111.78ZM80.4843 118.608C79.8603 118.608 79.2963 118.468 78.7923 118.188C78.2883 117.9 77.8923 117.5 77.6043 116.988C77.3163 116.468 77.1723 115.868 77.1723 115.188C77.1723 114.516 77.3203 113.92 77.6163 113.4C77.9123 112.88 78.3163 112.48 78.8283 112.2C79.3403 111.92 79.9123 111.78 80.5443 111.78C81.1763 111.78 81.7483 111.92 82.2603 112.2C82.7723 112.48 83.1763 112.88 83.4723 113.4C83.7683 113.92 83.9163 114.516 83.9163 115.188C83.9163 115.86 83.7643 116.456 83.4603 116.976C83.1563 117.496 82.7403 117.9 82.2123 118.188C81.6923 118.468 81.1163 118.608 80.4843 118.608ZM80.4843 117.42C80.8363 117.42 81.1643 117.336 81.4683 117.168C81.7803 117 82.0323 116.748 82.2243 116.412C82.4163 116.076 82.5123 115.668 82.5123 115.188C82.5123 114.708 82.4203 114.304 82.2363 113.976C82.0523 113.64 81.8083 113.388 81.5043 113.22C81.2003 113.052 80.8723 112.968 80.5203 112.968C80.1683 112.968 79.8403 113.052 79.5363 113.22C79.2403 113.388 79.0043 113.64 78.8283 113.976C78.6523 114.304 78.5643 114.708 78.5643 115.188C78.5643 115.9 78.7443 116.452 79.1043 116.844C79.4723 117.228 79.9323 117.42 80.4843 117.42ZM93.9086 111.888L91.8566 118.5H90.4166L89.0846 113.616L87.7526 118.5H86.3126L84.2486 111.888H85.6406L87.0206 117.204L88.4246 111.888H89.8526L91.1966 117.18L92.5646 111.888H93.9086Z" fill="#222222"/>
</svg>
