<svg width="802" height="496" viewBox="0 0 802 496" fill="none" xmlns="http://www.w3.org/2000/svg">
<rect width="802" height="496" fill="#74977B"/>
<path d="M94.48 100.912V140H86.64V114.576L76.168 140H70.232L59.704 114.576V140H51.864V100.912H60.768L73.2 129.976L85.632 100.912H94.48ZM119.871 135.576C119.013 136.995 117.613 138.189 115.671 139.16C113.73 140.093 111.639 140.56 109.399 140.56C107.458 140.56 105.703 140.168 104.135 139.384C102.567 138.6 101.335 137.517 100.439 136.136C99.5432 134.755 99.0952 133.168 99.0952 131.376C99.0952 128.501 100.159 126.149 102.287 124.32C104.453 122.491 107.682 121.576 111.975 121.576H119.871C119.797 119.597 119.218 118.029 118.135 116.872C117.09 115.677 115.634 115.08 113.767 115.08C112.125 115.08 110.762 115.528 109.679 116.424C108.597 117.283 107.906 118.496 107.607 120.064H99.7672C100.141 117.824 100.943 115.827 102.175 114.072C103.445 112.28 105.087 110.899 107.103 109.928C109.157 108.92 111.453 108.416 113.991 108.416C116.605 108.416 118.957 108.957 121.047 110.04C123.175 111.123 124.837 112.672 126.031 114.688C127.226 116.704 127.823 119.075 127.823 121.8V140H119.871V135.576ZM111.695 134.232C113.002 134.232 114.271 133.952 115.503 133.392C116.773 132.832 117.818 131.992 118.639 130.872C119.461 129.752 119.871 128.427 119.871 126.896V126.672H112.423C110.631 126.672 109.287 127.027 108.391 127.736C107.533 128.445 107.103 129.379 107.103 130.536C107.103 131.656 107.495 132.552 108.279 133.224C109.101 133.896 110.239 134.232 111.695 134.232ZM152.812 140L142.284 126.784V140H134.444V98.56H142.284V122.136L152.7 108.976H162.892L149.228 124.544L163.004 140H152.812ZM194.867 123.816C194.867 124.936 194.793 125.944 194.643 126.84H171.963C172.15 129.08 172.934 130.835 174.315 132.104C175.697 133.373 177.395 134.008 179.411 134.008C182.323 134.008 184.395 132.757 185.627 130.256H194.083C193.187 133.243 191.47 135.707 188.931 137.648C186.393 139.552 183.275 140.504 179.579 140.504C176.593 140.504 173.905 139.851 171.515 138.544C169.163 137.2 167.315 135.315 165.971 132.888C164.665 130.461 164.011 127.661 164.011 124.488C164.011 121.277 164.665 118.459 165.971 116.032C167.278 113.605 169.107 111.739 171.459 110.432C173.811 109.125 176.518 108.472 179.579 108.472C182.529 108.472 185.161 109.107 187.475 110.376C189.827 111.645 191.638 113.456 192.907 115.808C194.214 118.123 194.867 120.792 194.867 123.816ZM186.747 121.576C186.71 119.56 185.982 117.955 184.563 116.76C183.145 115.528 181.409 114.912 179.355 114.912C177.414 114.912 175.771 115.509 174.427 116.704C173.121 117.861 172.318 119.485 172.019 121.576H186.747ZM241.374 108.976L222.166 154.672H213.822L220.542 139.216L208.11 108.976H216.902L224.91 130.648L233.03 108.976H241.374ZM258.256 140.504C255.269 140.504 252.581 139.851 250.192 138.544C247.803 137.2 245.917 135.315 244.536 132.888C243.192 130.461 242.52 127.661 242.52 124.488C242.52 121.315 243.211 118.515 244.592 116.088C246.011 113.661 247.933 111.795 250.36 110.488C252.787 109.144 255.493 108.472 258.48 108.472C261.467 108.472 264.173 109.144 266.6 110.488C269.027 111.795 270.931 113.661 272.312 116.088C273.731 118.515 274.44 121.315 274.44 124.488C274.44 127.661 273.712 130.461 272.256 132.888C270.837 135.315 268.896 137.2 266.432 138.544C264.005 139.851 261.28 140.504 258.256 140.504ZM258.256 133.672C259.675 133.672 261 133.336 262.232 132.664C263.501 131.955 264.509 130.909 265.256 129.528C266.003 128.147 266.376 126.467 266.376 124.488C266.376 121.539 265.592 119.28 264.024 117.712C262.493 116.107 260.608 115.304 258.368 115.304C256.128 115.304 254.243 116.107 252.712 117.712C251.219 119.28 250.472 121.539 250.472 124.488C250.472 127.437 251.2 129.715 252.656 131.32C254.149 132.888 256.016 133.672 258.256 133.672ZM308.359 108.976V140H300.463V136.08C299.455 137.424 298.13 138.488 296.487 139.272C294.882 140.019 293.127 140.392 291.223 140.392C288.796 140.392 286.65 139.888 284.783 138.88C282.916 137.835 281.442 136.323 280.359 134.344C279.314 132.328 278.791 129.939 278.791 127.176V108.976H286.631V126.056C286.631 128.52 287.247 130.424 288.479 131.768C289.711 133.075 291.391 133.728 293.519 133.728C295.684 133.728 297.383 133.075 298.615 131.768C299.847 130.424 300.463 128.52 300.463 126.056V108.976H308.359ZM322.814 113.792C323.822 112.149 325.129 110.861 326.734 109.928C328.377 108.995 330.244 108.528 332.334 108.528V116.76H330.262C327.798 116.76 325.932 117.339 324.662 118.496C323.43 119.653 322.814 121.669 322.814 124.544V140H314.974V108.976H322.814V113.792ZM356.559 113.456C357.567 112.037 358.948 110.861 360.703 109.928C362.495 108.957 364.529 108.472 366.807 108.472C369.457 108.472 371.847 109.125 373.975 110.432C376.14 111.739 377.839 113.605 379.071 116.032C380.34 118.421 380.975 121.203 380.975 124.376C380.975 127.549 380.34 130.368 379.071 132.832C377.839 135.259 376.14 137.144 373.975 138.488C371.847 139.832 369.457 140.504 366.807 140.504C364.529 140.504 362.513 140.037 360.759 139.104C359.041 138.171 357.641 136.995 356.559 135.576V154.784H348.719V108.976H356.559V113.456ZM372.967 124.376C372.967 122.509 372.575 120.904 371.791 119.56C371.044 118.179 370.036 117.133 368.767 116.424C367.535 115.715 366.191 115.36 364.735 115.36C363.316 115.36 361.972 115.733 360.703 116.48C359.471 117.189 358.463 118.235 357.679 119.616C356.932 120.997 356.559 122.621 356.559 124.488C356.559 126.355 356.932 127.979 357.679 129.36C358.463 130.741 359.471 131.805 360.703 132.552C361.972 133.261 363.316 133.616 364.735 133.616C366.191 133.616 367.535 133.243 368.767 132.496C370.036 131.749 371.044 130.685 371.791 129.304C372.575 127.923 372.967 126.28 372.967 124.376ZM389.528 105.28C388.146 105.28 386.989 104.851 386.056 103.992C385.16 103.096 384.712 101.995 384.712 100.688C384.712 99.3813 385.16 98.2987 386.056 97.44C386.989 96.544 388.146 96.096 389.528 96.096C390.909 96.096 392.048 96.544 392.944 97.44C393.877 98.2987 394.344 99.3813 394.344 100.688C394.344 101.995 393.877 103.096 392.944 103.992C392.048 104.851 390.909 105.28 389.528 105.28ZM393.392 108.976V140H385.552V108.976H393.392ZM398.002 124.488C398.002 121.277 398.655 118.477 399.962 116.088C401.268 113.661 403.079 111.795 405.394 110.488C407.708 109.144 410.359 108.472 413.346 108.472C417.191 108.472 420.364 109.443 422.866 111.384C425.404 113.288 427.103 115.976 427.962 119.448H419.506C419.058 118.104 418.292 117.059 417.21 116.312C416.164 115.528 414.858 115.136 413.29 115.136C411.05 115.136 409.276 115.957 407.97 117.6C406.663 119.205 406.01 121.501 406.01 124.488C406.01 127.437 406.663 129.733 407.97 131.376C409.276 132.981 411.05 133.784 413.29 133.784C416.463 133.784 418.535 132.365 419.506 129.528H427.962C427.103 132.888 425.404 135.557 422.866 137.536C420.327 139.515 417.154 140.504 413.346 140.504C410.359 140.504 407.708 139.851 405.394 138.544C403.079 137.2 401.268 135.333 399.962 132.944C398.655 130.517 398.002 127.699 398.002 124.488ZM441.713 115.416V130.424C441.713 131.469 441.956 132.235 442.441 132.72C442.964 133.168 443.823 133.392 445.017 133.392H448.657V140H443.729C437.121 140 433.817 136.789 433.817 130.368V115.416H430.121V108.976H433.817V101.304H441.713V108.976H448.657V115.416H441.713ZM482.464 108.976V140H474.568V136.08C473.56 137.424 472.235 138.488 470.592 139.272C468.987 140.019 467.232 140.392 465.328 140.392C462.902 140.392 460.755 139.888 458.888 138.88C457.022 137.835 455.547 136.323 454.464 134.344C453.419 132.328 452.896 129.939 452.896 127.176V108.976H460.736V126.056C460.736 128.52 461.352 130.424 462.584 131.768C463.816 133.075 465.496 133.728 467.624 133.728C469.79 133.728 471.488 133.075 472.72 131.768C473.952 130.424 474.568 128.52 474.568 126.056V108.976H482.464ZM496.92 113.792C497.928 112.149 499.234 110.861 500.84 109.928C502.482 108.995 504.349 108.528 506.44 108.528V116.76H504.368C501.904 116.76 500.037 117.339 498.768 118.496C497.536 119.653 496.92 121.669 496.92 124.544V140H489.08V108.976H496.92V113.792ZM539.44 123.816C539.44 124.936 539.366 125.944 539.216 126.84H516.536C516.723 129.08 517.507 130.835 518.888 132.104C520.27 133.373 521.968 134.008 523.984 134.008C526.896 134.008 528.968 132.757 530.2 130.256H538.656C537.76 133.243 536.043 135.707 533.504 137.648C530.966 139.552 527.848 140.504 524.152 140.504C521.166 140.504 518.478 139.851 516.088 138.544C513.736 137.2 511.888 135.315 510.544 132.888C509.238 130.461 508.584 127.661 508.584 124.488C508.584 121.277 509.238 118.459 510.544 116.032C511.851 113.605 513.68 111.739 516.032 110.432C518.384 109.125 521.091 108.472 524.152 108.472C527.102 108.472 529.734 109.107 532.048 110.376C534.4 111.645 536.211 113.456 537.48 115.808C538.787 118.123 539.44 120.792 539.44 123.816ZM531.32 121.576C531.283 119.56 530.555 117.955 529.136 116.76C527.718 115.528 525.982 114.912 523.928 114.912C521.987 114.912 520.344 115.509 519 116.704C517.694 117.861 516.891 119.485 516.592 121.576H531.32ZM564.106 113.456C565.114 112.037 566.496 110.861 568.25 109.928C570.042 108.957 572.077 108.472 574.354 108.472C577.005 108.472 579.394 109.125 581.522 110.432C583.688 111.739 585.386 113.605 586.618 116.032C587.888 118.421 588.522 121.203 588.522 124.376C588.522 127.549 587.888 130.368 586.618 132.832C585.386 135.259 583.688 137.144 581.522 138.488C579.394 139.832 577.005 140.504 574.354 140.504C572.077 140.504 570.061 140.037 568.306 139.104C566.589 138.171 565.189 136.995 564.106 135.576V154.784H556.266V108.976H564.106V113.456ZM580.514 124.376C580.514 122.509 580.122 120.904 579.338 119.56C578.592 118.179 577.584 117.133 576.314 116.424C575.082 115.715 573.738 115.36 572.282 115.36C570.864 115.36 569.52 115.733 568.25 116.48C567.018 117.189 566.01 118.235 565.226 119.616C564.48 120.997 564.106 122.621 564.106 124.488C564.106 126.355 564.48 127.979 565.226 129.36C566.01 130.741 567.018 131.805 568.25 132.552C569.52 133.261 570.864 133.616 572.282 133.616C573.738 133.616 575.082 133.243 576.314 132.496C577.584 131.749 578.592 130.685 579.338 129.304C580.122 127.923 580.514 126.28 580.514 124.376ZM621.94 123.816C621.94 124.936 621.865 125.944 621.716 126.84H599.036C599.222 129.08 600.006 130.835 601.388 132.104C602.769 133.373 604.468 134.008 606.484 134.008C609.396 134.008 611.468 132.757 612.7 130.256H621.156C620.26 133.243 618.542 135.707 616.004 137.648C613.465 139.552 610.348 140.504 606.652 140.504C603.665 140.504 600.977 139.851 598.588 138.544C596.236 137.2 594.388 135.315 593.044 132.888C591.737 130.461 591.084 127.661 591.084 124.488C591.084 121.277 591.737 118.459 593.044 116.032C594.35 113.605 596.18 111.739 598.532 110.432C600.884 109.125 603.59 108.472 606.652 108.472C609.601 108.472 612.233 109.107 614.548 110.376C616.9 111.645 618.71 113.456 619.98 115.808C621.286 118.123 621.94 120.792 621.94 123.816ZM613.82 121.576C613.782 119.56 613.054 117.955 611.636 116.76C610.217 115.528 608.481 114.912 606.428 114.912C604.486 114.912 602.844 115.509 601.5 116.704C600.193 117.861 599.39 119.485 599.092 121.576H613.82ZM634.382 113.792C635.39 112.149 636.697 110.861 638.302 109.928C639.945 108.995 641.811 108.528 643.902 108.528V116.76H641.83C639.366 116.76 637.499 117.339 636.23 118.496C634.998 119.653 634.382 121.669 634.382 124.544V140H626.542V108.976H634.382V113.792ZM662.287 115.416H656.855V140H648.903V115.416H645.375V108.976H648.903V107.408C648.903 103.6 649.985 100.8 652.151 99.008C654.316 97.216 657.583 96.376 661.951 96.488V103.096C660.047 103.059 658.721 103.376 657.975 104.048C657.228 104.72 656.855 105.933 656.855 107.688V108.976H662.287V115.416ZM695.087 123.816C695.087 124.936 695.013 125.944 694.863 126.84H672.183C672.37 129.08 673.154 130.835 674.535 132.104C675.917 133.373 677.615 134.008 679.631 134.008C682.543 134.008 684.615 132.757 685.847 130.256H694.303C693.407 133.243 691.69 135.707 689.151 137.648C686.613 139.552 683.495 140.504 679.799 140.504C676.813 140.504 674.125 139.851 671.735 138.544C669.383 137.2 667.535 135.315 666.191 132.888C664.885 130.461 664.231 127.661 664.231 124.488C664.231 121.277 664.885 118.459 666.191 116.032C667.498 113.605 669.327 111.739 671.679 110.432C674.031 109.125 676.738 108.472 679.799 108.472C682.749 108.472 685.381 109.107 687.695 110.376C690.047 111.645 691.858 113.456 693.127 115.808C694.434 118.123 695.087 120.792 695.087 123.816ZM686.967 121.576C686.93 119.56 686.202 117.955 684.783 116.76C683.365 115.528 681.629 114.912 679.575 114.912C677.634 114.912 675.991 115.509 674.647 116.704C673.341 117.861 672.538 119.485 672.239 121.576H686.967ZM697.674 124.488C697.674 121.277 698.327 118.477 699.634 116.088C700.941 113.661 702.751 111.795 705.066 110.488C707.381 109.144 710.031 108.472 713.018 108.472C716.863 108.472 720.037 109.443 722.538 111.384C725.077 113.288 726.775 115.976 727.634 119.448H719.178C718.73 118.104 717.965 117.059 716.882 116.312C715.837 115.528 714.53 115.136 712.962 115.136C710.722 115.136 708.949 115.957 707.642 117.6C706.335 119.205 705.682 121.501 705.682 124.488C705.682 127.437 706.335 129.733 707.642 131.376C708.949 132.981 710.722 133.784 712.962 133.784C716.135 133.784 718.207 132.365 719.178 129.528H727.634C726.775 132.888 725.077 135.557 722.538 137.536C719.999 139.515 716.826 140.504 713.018 140.504C710.031 140.504 707.381 139.851 705.066 138.544C702.751 137.2 700.941 135.333 699.634 132.944C698.327 130.517 697.674 127.699 697.674 124.488ZM741.385 115.416V130.424C741.385 131.469 741.628 132.235 742.113 132.72C742.636 133.168 743.495 133.392 744.689 133.392H748.329V140H743.401C736.793 140 733.489 136.789 733.489 130.368V115.416H729.793V108.976H733.489V101.304H741.385V108.976H748.329V115.416H741.385ZM69.336 172.528C71.688 172.528 73.7787 173.051 75.608 174.096C77.4373 175.104 78.856 176.616 79.864 178.632C80.9093 180.611 81.432 183 81.432 185.8V204H73.592V186.864C73.592 184.4 72.976 182.515 71.744 181.208C70.512 179.864 68.832 179.192 66.704 179.192C64.5387 179.192 62.8213 179.864 61.552 181.208C60.32 182.515 59.704 184.4 59.704 186.864V204H51.864V162.56H59.704V176.84C60.712 175.496 62.056 174.451 63.736 173.704C65.416 172.92 67.2827 172.528 69.336 172.528ZM101.543 204.504C98.5568 204.504 95.8688 203.851 93.4794 202.544C91.0901 201.2 89.2048 199.315 87.8234 196.888C86.4794 194.461 85.8074 191.661 85.8074 188.488C85.8074 185.315 86.4981 182.515 87.8794 180.088C89.2981 177.661 91.2208 175.795 93.6474 174.488C96.0741 173.144 98.7808 172.472 101.767 172.472C104.754 172.472 107.461 173.144 109.887 174.488C112.314 175.795 114.218 177.661 115.599 180.088C117.018 182.515 117.727 185.315 117.727 188.488C117.727 191.661 116.999 194.461 115.543 196.888C114.125 199.315 112.183 201.2 109.719 202.544C107.293 203.851 104.567 204.504 101.543 204.504ZM101.543 197.672C102.962 197.672 104.287 197.336 105.519 196.664C106.789 195.955 107.797 194.909 108.543 193.528C109.29 192.147 109.663 190.467 109.663 188.488C109.663 185.539 108.879 183.28 107.311 181.712C105.781 180.107 103.895 179.304 101.655 179.304C99.4154 179.304 97.5301 180.107 95.9994 181.712C94.5061 183.28 93.7594 185.539 93.7594 188.488C93.7594 191.437 94.4874 193.715 95.9434 195.32C97.4368 196.888 99.3034 197.672 101.543 197.672ZM160.886 172.528C164.694 172.528 167.756 173.704 170.07 176.056C172.422 178.371 173.598 181.619 173.598 185.8V204H165.758V186.864C165.758 184.437 165.142 182.589 163.91 181.32C162.678 180.013 160.998 179.36 158.87 179.36C156.742 179.36 155.044 180.013 153.774 181.32C152.542 182.589 151.926 184.437 151.926 186.864V204H144.086V186.864C144.086 184.437 143.47 182.589 142.238 181.32C141.006 180.013 139.326 179.36 137.198 179.36C135.033 179.36 133.316 180.013 132.046 181.32C130.814 182.589 130.198 184.437 130.198 186.864V204H122.358V172.976H130.198V176.728C131.206 175.421 132.494 174.395 134.062 173.648C135.668 172.901 137.422 172.528 139.326 172.528C141.753 172.528 143.918 173.051 145.822 174.096C147.726 175.104 149.201 176.56 150.246 178.464C151.254 176.672 152.71 175.235 154.614 174.152C156.556 173.069 158.646 172.528 160.886 172.528ZM208.758 187.816C208.758 188.936 208.683 189.944 208.534 190.84H185.854C186.041 193.08 186.825 194.835 188.206 196.104C189.587 197.373 191.286 198.008 193.302 198.008C196.214 198.008 198.286 196.757 199.518 194.256H207.974C207.078 197.243 205.361 199.707 202.822 201.648C200.283 203.552 197.166 204.504 193.47 204.504C190.483 204.504 187.795 203.851 185.406 202.544C183.054 201.2 181.206 199.315 179.862 196.888C178.555 194.461 177.902 191.661 177.902 188.488C177.902 185.277 178.555 182.459 179.862 180.032C181.169 177.605 182.998 175.739 185.35 174.432C187.702 173.125 190.409 172.472 193.47 172.472C196.419 172.472 199.051 173.107 201.366 174.376C203.718 175.645 205.529 177.456 206.798 179.808C208.105 182.123 208.758 184.792 208.758 187.816ZM200.638 185.576C200.601 183.56 199.873 181.955 198.454 180.76C197.035 179.528 195.299 178.912 193.246 178.912C191.305 178.912 189.662 179.509 188.318 180.704C187.011 181.861 186.209 183.485 185.91 185.576H200.638ZM268.592 172.976L259.52 204H251.064L245.408 182.328L239.752 204H231.24L222.112 172.976H230.064L235.552 196.608L241.488 172.976H249.776L255.6 196.552L261.088 172.976H268.592ZM275.69 169.28C274.309 169.28 273.152 168.851 272.218 167.992C271.322 167.096 270.874 165.995 270.874 164.688C270.874 163.381 271.322 162.299 272.218 161.44C273.152 160.544 274.309 160.096 275.69 160.096C277.072 160.096 278.21 160.544 279.106 161.44C280.04 162.299 280.506 163.381 280.506 164.688C280.506 165.995 280.04 167.096 279.106 167.992C278.21 168.851 277.072 169.28 275.69 169.28ZM279.554 172.976V204H271.714V172.976H279.554ZM295.308 179.416V194.424C295.308 195.469 295.551 196.235 296.036 196.72C296.559 197.168 297.418 197.392 298.612 197.392H302.252V204H297.324C290.716 204 287.412 200.789 287.412 194.368V179.416H283.716V172.976H287.412V165.304H295.308V172.976H302.252V179.416H295.308ZM324.243 172.528C326.595 172.528 328.686 173.051 330.515 174.096C332.345 175.104 333.763 176.616 334.771 178.632C335.817 180.611 336.339 183 336.339 185.8V204H328.499V186.864C328.499 184.4 327.883 182.515 326.651 181.208C325.419 179.864 323.739 179.192 321.611 179.192C319.446 179.192 317.729 179.864 316.459 181.208C315.227 182.515 314.611 184.4 314.611 186.864V204H306.771V162.56H314.611V176.84C315.619 175.496 316.963 174.451 318.643 173.704C320.323 172.92 322.19 172.528 324.243 172.528ZM384.186 172.976V204H376.29V200.08C375.282 201.424 373.957 202.488 372.314 203.272C370.709 204.019 368.954 204.392 367.05 204.392C364.624 204.392 362.477 203.888 360.61 202.88C358.744 201.835 357.269 200.323 356.186 198.344C355.141 196.328 354.618 193.939 354.618 191.176V172.976H362.458V190.056C362.458 192.52 363.074 194.424 364.306 195.768C365.538 197.075 367.218 197.728 369.346 197.728C371.512 197.728 373.21 197.075 374.442 195.768C375.674 194.424 376.29 192.52 376.29 190.056V172.976H384.186ZM402.674 204.504C400.135 204.504 397.858 204.056 395.842 203.16C393.826 202.227 392.22 200.976 391.026 199.408C389.868 197.84 389.234 196.104 389.122 194.2H397.018C397.167 195.395 397.746 196.384 398.754 197.168C399.799 197.952 401.087 198.344 402.618 198.344C404.111 198.344 405.268 198.045 406.09 197.448C406.948 196.851 407.378 196.085 407.378 195.152C407.378 194.144 406.855 193.397 405.81 192.912C404.802 192.389 403.178 191.829 400.938 191.232C398.623 190.672 396.719 190.093 395.226 189.496C393.77 188.899 392.5 187.984 391.418 186.752C390.372 185.52 389.85 183.859 389.85 181.768C389.85 180.051 390.335 178.483 391.306 177.064C392.314 175.645 393.732 174.525 395.562 173.704C397.428 172.883 399.612 172.472 402.114 172.472C405.81 172.472 408.759 173.405 410.962 175.272C413.164 177.101 414.378 179.584 414.602 182.72H407.098C406.986 181.488 406.463 180.517 405.53 179.808C404.634 179.061 403.42 178.688 401.89 178.688C400.471 178.688 399.37 178.949 398.586 179.472C397.839 179.995 397.466 180.723 397.466 181.656C397.466 182.701 397.988 183.504 399.034 184.064C400.079 184.587 401.703 185.128 403.906 185.688C406.146 186.248 407.994 186.827 409.45 187.424C410.906 188.021 412.156 188.955 413.202 190.224C414.284 191.456 414.844 193.099 414.882 195.152C414.882 196.944 414.378 198.549 413.37 199.968C412.399 201.387 410.98 202.507 409.114 203.328C407.284 204.112 405.138 204.504 402.674 204.504Z" fill="white"/>
<rect x="48" y="344" width="178" height="64" rx="8" fill="#F6B704"/>
<path d="M103.848 382.5L100.968 377.496H99.402V382.5H97.35V369.99H101.67C102.63 369.99 103.44 370.158 104.1 370.494C104.772 370.83 105.27 371.28 105.594 371.844C105.93 372.408 106.098 373.038 106.098 373.734C106.098 374.55 105.858 375.294 105.378 375.966C104.91 376.626 104.184 377.076 103.2 377.316L106.296 382.5H103.848ZM99.402 375.858H101.67C102.438 375.858 103.014 375.666 103.398 375.282C103.794 374.898 103.992 374.382 103.992 373.734C103.992 373.086 103.8 372.582 103.416 372.222C103.032 371.85 102.45 371.664 101.67 371.664H99.402V375.858ZM117.453 377.298C117.453 377.67 117.429 378.006 117.381 378.306H109.803C109.863 379.098 110.157 379.734 110.685 380.214C111.213 380.694 111.861 380.934 112.629 380.934C113.733 380.934 114.513 380.472 114.969 379.548H117.183C116.883 380.46 116.337 381.21 115.545 381.798C114.765 382.374 113.793 382.662 112.629 382.662C111.681 382.662 110.829 382.452 110.073 382.032C109.329 381.6 108.741 381 108.309 380.232C107.889 379.452 107.679 378.552 107.679 377.532C107.679 376.512 107.883 375.618 108.291 374.85C108.711 374.07 109.293 373.47 110.037 373.05C110.793 372.63 111.657 372.42 112.629 372.42C113.565 372.42 114.399 372.624 115.131 373.032C115.863 373.44 116.433 374.016 116.841 374.76C117.249 375.492 117.453 376.338 117.453 377.298ZM115.311 376.65C115.299 375.894 115.029 375.288 114.501 374.832C113.973 374.376 113.319 374.148 112.539 374.148C111.831 374.148 111.225 374.376 110.721 374.832C110.217 375.276 109.917 375.882 109.821 376.65H115.311ZM124.116 372.42C124.896 372.42 125.592 372.582 126.204 372.906C126.828 373.23 127.314 373.71 127.662 374.346C128.01 374.982 128.184 375.75 128.184 376.65V382.5H126.15V376.956C126.15 376.068 125.928 375.39 125.484 374.922C125.04 374.442 124.434 374.202 123.666 374.202C122.898 374.202 122.286 374.442 121.83 374.922C121.386 375.39 121.164 376.068 121.164 376.956V382.5H119.112V372.582H121.164V373.716C121.5 373.308 121.926 372.99 122.442 372.762C122.97 372.534 123.528 372.42 124.116 372.42ZM132.836 374.256V379.746C132.836 380.118 132.92 380.388 133.088 380.556C133.268 380.712 133.568 380.79 133.988 380.79H135.248V382.5H133.628C132.704 382.5 131.996 382.284 131.504 381.852C131.012 381.42 130.766 380.718 130.766 379.746V374.256H129.596V372.582H130.766V370.116H132.836V372.582H135.248V374.256H132.836ZM146.099 372.42C146.879 372.42 147.575 372.582 148.187 372.906C148.811 373.23 149.297 373.71 149.645 374.346C149.993 374.982 150.167 375.75 150.167 376.65V382.5H148.133V376.956C148.133 376.068 147.911 375.39 147.467 374.922C147.023 374.442 146.417 374.202 145.649 374.202C144.881 374.202 144.269 374.442 143.813 374.922C143.369 375.39 143.147 376.068 143.147 376.956V382.5H141.095V372.582H143.147V373.716C143.483 373.308 143.909 372.99 144.425 372.762C144.953 372.534 145.511 372.42 146.099 372.42ZM156.726 382.662C155.79 382.662 154.944 382.452 154.188 382.032C153.432 381.6 152.838 381 152.406 380.232C151.974 379.452 151.758 378.552 151.758 377.532C151.758 376.524 151.98 375.63 152.424 374.85C152.868 374.07 153.474 373.47 154.242 373.05C155.01 372.63 155.868 372.42 156.816 372.42C157.764 372.42 158.622 372.63 159.39 373.05C160.158 373.47 160.764 374.07 161.208 374.85C161.652 375.63 161.874 376.524 161.874 377.532C161.874 378.54 161.646 379.434 161.19 380.214C160.734 380.994 160.11 381.6 159.318 382.032C158.538 382.452 157.674 382.662 156.726 382.662ZM156.726 380.88C157.254 380.88 157.746 380.754 158.202 380.502C158.67 380.25 159.048 379.872 159.336 379.368C159.624 378.864 159.768 378.252 159.768 377.532C159.768 376.812 159.63 376.206 159.354 375.714C159.078 375.21 158.712 374.832 158.256 374.58C157.8 374.328 157.308 374.202 156.78 374.202C156.252 374.202 155.76 374.328 155.304 374.58C154.86 374.832 154.506 375.21 154.242 375.714C153.978 376.206 153.846 376.812 153.846 377.532C153.846 378.6 154.116 379.428 154.656 380.016C155.208 380.592 155.898 380.88 156.726 380.88ZM176.863 372.582L173.785 382.5H171.625L169.627 375.174L167.629 382.5H165.469L162.373 372.582H164.461L166.531 380.556L168.637 372.582H170.779L172.795 380.52L174.847 372.582H176.863Z" fill="#222222"/>
<path d="M734.676 424.471C773.323 384.62 773.323 320.008 734.676 280.157C696.029 240.306 633.37 240.306 594.723 280.157C556.076 320.008 556.076 384.62 594.723 424.471C633.37 464.322 696.029 464.322 734.676 424.471Z" fill="#74977B"/>
<path d="M646.315 396.053C648.177 395.843 649.803 395.673 651.427 395.475C655.96 394.921 660.504 394.885 665.05 395.214C671.456 395.677 677.781 396.714 684.041 398.189C684.222 398.231 684.407 398.262 684.586 398.312C685.041 398.439 685.247 398.259 685.38 397.789C685.723 396.573 686.12 395.372 686.501 394.166C689.675 384.135 696.125 377.227 705.37 372.885C711.361 370.071 717.613 369.142 724.12 369.599C725.34 369.685 726.549 369.863 727.811 370.116C727.956 368.534 728.134 367.013 728.23 365.487C728.638 358.949 730.413 352.804 733.132 346.916C733.789 345.494 734.402 344.051 734.922 342.567C736.67 337.574 736.559 332.605 734.664 327.699C733.526 324.749 731.533 322.398 729.323 320.244C725.73 316.74 721.29 314.884 716.665 313.406C712.839 312.183 708.89 311.611 704.931 311.123C701.195 310.663 697.459 310.19 693.71 309.833C690.775 309.554 687.837 309.369 684.895 309.28C678.184 309.077 671.472 309.074 664.763 309.286C660.178 309.43 655.595 309.763 651.16 311.101C647.78 312.12 644.515 313.443 641.859 315.939C637.098 320.413 634.749 325.973 634.881 332.638C634.982 337.773 636.265 342.661 637.781 347.498C638.788 350.713 639.982 353.868 640.678 357.183C641.167 359.514 641.609 361.851 641.727 364.24C641.746 364.623 641.751 365.01 641.72 365.391C641.675 365.909 641.401 366.247 640.879 366.307C640.363 366.367 639.968 366.071 639.875 365.455C639.738 364.544 639.704 363.618 639.569 362.708C638.976 358.707 637.946 354.82 636.64 351.008C635.123 346.582 633.813 342.099 633.095 337.45C632.075 330.84 632.854 324.581 636.509 318.882C638.809 315.295 641.841 312.621 645.64 310.82C649.899 308.8 654.392 307.799 659.027 307.418C667.998 306.681 676.982 306.818 685.967 307.1C694.327 307.362 702.609 308.473 710.869 309.733C715.65 310.463 720.228 311.981 724.571 314.176C728.957 316.392 732.483 319.667 735.141 323.873C737.715 327.946 738.578 332.493 738.249 337.308C738.034 340.461 737.065 343.394 735.82 346.249C735.101 347.895 734.42 349.559 733.706 351.208C731.63 356.013 730.76 361.104 730.331 366.299C730.226 367.563 730.178 368.83 730.06 370.093C730.006 370.684 730.2 370.999 730.742 371.215C731.928 371.688 733.008 372.372 734.076 373.082C737.769 375.533 740.903 381.477 738.48 387.763C737.59 390.075 736.302 392.136 734.687 393.974C734.325 394.386 734.114 394.834 733.945 395.356C732.497 399.839 731.011 404.308 729.553 408.788C727.443 415.27 725.205 421.709 723.521 428.332C722.547 432.162 721.713 436.02 720.989 439.908C720.239 443.938 720.424 447.914 721.222 451.923C722.053 456.1 722.706 460.317 722.928 464.586C722.986 465.701 722.983 466.817 722.709 467.911C722.406 469.118 721.904 470.198 720.603 470.494C719.291 470.794 718.289 470.129 717.474 469.141C716.863 468.401 716.474 467.529 716.161 466.615C715.198 463.812 714.734 460.89 714.209 457.983C714.018 456.925 713.838 455.861 713.474 454.85C713.039 453.637 712.52 453.367 711.317 453.692C710.482 453.917 709.717 454.325 708.975 454.767C704.807 457.252 700.478 459.394 696.023 461.27C695.713 461.4 695.414 461.562 695.066 461.557C694.652 461.549 694.355 461.359 694.189 460.965C694.018 460.558 694.128 460.193 694.425 459.919C694.643 459.719 694.916 459.569 695.185 459.447C699.756 457.363 704.179 454.98 708.542 452.475C709.325 452.025 710.15 451.665 711.026 451.451C712.996 450.97 714.482 451.707 715.32 453.607C715.944 455.022 716.16 456.551 716.432 458.06C716.868 460.478 717.277 462.901 718.004 465.25C718.231 465.983 718.478 466.708 718.891 467.359C719.097 467.683 719.329 467.987 719.67 468.167C719.983 468.334 720.251 468.272 720.411 467.927C720.624 467.469 720.694 466.976 720.725 466.473C720.848 464.427 720.614 462.404 720.363 460.383C719.941 456.989 719.373 453.62 718.729 450.266C718.075 446.857 718.207 443.463 718.774 440.065C720.325 430.758 722.931 421.747 725.929 412.843C727.432 408.38 728.885 403.898 730.359 399.425C730.474 399.077 730.582 398.725 730.691 398.38C730.428 398.294 730.32 398.405 730.203 398.494C725.941 401.746 721.182 404.013 716.275 405.995C714.502 406.711 712.703 407.334 710.852 407.781C710.111 407.96 709.76 408.324 709.556 409.099C706.86 419.373 703.774 429.53 700.76 439.707C700.107 441.911 699.342 444.08 698.47 446.205C696.835 450.19 694.415 453.531 690.935 456.01C690.137 456.578 689.355 457.17 688.669 457.882C688.033 458.545 687.494 459.28 687.184 460.162C686.952 460.824 687.04 460.961 687.726 461.048C688.654 461.166 689.558 461.37 690.426 461.743C692.541 462.651 693.663 464.253 693.675 466.637C693.684 468.252 693.689 469.867 693.673 471.482C693.629 475.792 693.349 480.083 692.743 484.351C692.614 485.267 692.431 486.17 692.042 487.01C691.207 488.812 689.449 488.946 688.347 487.296C687.916 486.651 687.716 485.91 687.558 485.155C687.035 482.666 686.88 480.13 686.72 477.602C686.434 473.076 686.019 468.562 685.528 464.055C685.439 463.239 685.428 463.221 684.631 463.298C682.328 463.523 680.062 463.998 677.782 464.385C672.871 465.22 667.933 465.51 662.964 465.307C660.877 465.222 658.792 465.127 656.706 465.051C653.011 464.917 649.358 464.385 645.714 463.79C640.636 462.96 635.555 462.135 630.557 460.876C625.309 459.555 620.102 458.079 615.033 456.131C614.021 455.742 614.152 455.592 613.621 456.681C612.064 459.873 610.555 463.09 609.009 466.288C608.027 468.317 606.962 470.302 605.819 472.24C605.217 473.26 604.58 474.261 603.726 475.077C602.962 475.807 602.105 476.375 601.006 475.879C599.877 475.368 599.634 474.34 599.663 473.2C599.696 471.842 600.008 470.535 600.429 469.259C601.797 465.109 603.467 461.079 605.05 457.016C605.716 455.306 606.391 453.599 606.981 451.857C608.122 448.483 608.157 445.087 607.356 441.637C606.506 437.969 605.276 434.421 604.226 430.816C602.884 426.21 601.756 421.557 601.11 416.787C600.832 414.729 600.654 412.659 600.589 410.587C600.494 407.585 599.891 404.742 598.609 402.025C597.471 399.61 596.338 397.181 595.742 394.536C595.18 392.04 595.04 389.536 595.35 386.983C596.061 381.134 600.506 377.864 605.143 377.38C605.845 377.307 606.416 377.093 606.982 376.684C612.779 372.482 619.174 369.782 626.18 368.662C629.21 368.177 632.259 367.972 635.319 368.335C640.799 368.986 644.591 372.024 646.91 377.115C648.543 380.698 648.918 384.482 648.557 388.376C648.307 390.997 647.671 393.508 646.315 396.053ZM710.614 405.455C710.988 405.511 711.234 405.416 711.485 405.348C713.365 404.845 715.173 404.125 716.964 403.366C722.508 401.016 727.824 398.289 732.071 393.75C733.878 391.819 735.385 389.693 736.394 387.22C738.271 382.618 736.728 377.505 732.683 374.757C730.697 373.408 728.55 372.415 726.204 372.05C722.497 371.474 718.773 371.576 715.06 372.116C711.021 372.705 707.281 374.199 703.716 376.174C697.404 379.669 692.614 384.654 689.77 391.513C688.093 395.557 686.931 399.765 686.025 404.05C684.619 410.694 683.24 417.343 681.351 423.866C680.561 426.597 679.6 429.26 678.342 431.797C675.505 437.514 671.09 441.167 664.961 442.504C662.622 443.015 660.237 443.194 657.85 443.223C650.708 443.31 643.633 442.64 636.625 441.203C633.024 440.464 629.549 439.348 626.312 437.534C622.12 435.184 618.99 431.859 617.635 427.036C616.814 424.115 616.304 421.121 616.168 418.075C615.945 413.045 615.642 408.016 615.693 402.977C615.695 402.725 615.782 402.439 615.527 402.189C615.224 402.192 615.027 402.445 614.786 402.602C613.989 403.119 613.144 403.5 612.204 403.644C609.82 404.01 607.681 403.332 605.785 401.898C599.048 396.802 598.436 386.925 602.45 381.04C602.583 380.845 602.845 380.694 602.74 380.264C600.32 381.338 598.593 383.005 597.861 385.619C597.121 388.265 597.229 390.937 597.762 393.608C598.279 396.195 599.37 398.562 600.496 400.899C602.004 404.029 602.686 407.328 602.777 410.796C602.831 412.91 603.036 415.015 603.342 417.107C604.015 421.714 605.13 426.214 606.447 430.667C607.532 434.34 608.82 437.954 609.582 441.723C610.002 443.799 610.232 445.888 610.014 448.019C609.754 450.571 608.952 452.962 608.047 455.323C606.418 459.575 604.76 463.815 603.128 468.065C602.648 469.316 602.233 470.594 601.985 471.918C601.886 472.449 601.753 473 601.957 473.57C602.467 473.361 602.665 472.972 602.913 472.648C603.746 471.557 604.395 470.345 605.06 469.142C607.076 465.5 608.767 461.691 610.553 457.928C611.093 456.79 611.664 455.666 612.257 454.555C612.853 453.438 613.366 453.28 614.563 453.74C615.332 454.035 616.099 454.33 616.878 454.593C621.02 455.994 625.209 457.262 629.449 458.279C639.877 460.78 650.393 462.732 661.143 463.024C665.435 463.14 669.722 463.224 673.986 462.658C677.495 462.191 680.986 461.582 684.488 461.055C684.901 460.993 685.048 460.795 685.117 460.401C685.436 458.581 686.425 457.165 687.696 455.923C688.483 455.154 689.354 454.49 690.224 453.833C692.846 451.853 694.746 449.288 696.109 446.271C697.15 443.968 697.983 441.578 698.7 439.155C701.311 430.337 703.99 421.541 706.397 412.661C706.747 411.37 707.104 410.081 707.466 408.762C706.877 408.571 706.367 408.728 705.86 408.796C703.814 409.065 701.752 409.199 699.744 408.665C694.761 407.342 692.082 404.42 691.506 399.8C691.018 395.895 691.446 392.016 693.127 388.427C694.955 384.526 697.875 382.09 702.243 381.822C708.222 381.457 711.193 385.188 712.107 389.245C712.36 390.37 712.454 391.52 712.475 392.677C712.545 396.443 711.792 400.085 710.945 403.715C710.815 404.26 710.579 404.795 710.614 405.455ZM684.631 400.408C684.183 400.304 683.827 400.211 683.466 400.14C679.772 399.401 676.057 398.806 672.338 398.215C663.681 396.838 655.042 396.904 646.399 398.296C645.884 398.379 645.526 398.585 645.207 399.024C642.758 402.402 639.894 405.351 636.571 407.823C633.869 409.834 631.032 411.575 627.852 412.669C626.92 412.99 625.975 413.151 624.994 413.082C622.992 412.939 621.924 411.369 622.489 409.381C622.679 408.711 623.016 408.112 623.423 407.555C624.262 406.409 625.285 405.465 626.404 404.62C631.22 400.985 636.61 398.613 642.338 397.033C643.39 396.743 643.984 396.192 644.474 395.255C646.159 392.03 646.527 388.548 646.468 384.977C646.428 382.525 645.912 380.177 644.889 377.956C643.057 373.98 640.157 371.394 635.865 370.677C633.684 370.312 631.49 370.342 629.288 370.544C622.369 371.181 615.973 373.388 610.109 377.232C609.911 377.361 609.652 377.442 609.582 377.706C609.651 377.776 609.674 377.814 609.705 377.827C609.947 377.924 610.191 378.015 610.433 378.111C613.061 379.14 615.188 380.85 616.683 383.294C619.388 387.712 620.077 392.453 618.338 397.406C617.823 398.874 617.741 400.305 617.754 401.802C617.796 406.414 618.002 411.02 618.167 415.628C618.277 418.713 618.665 421.742 619.244 424.765C620.144 429.454 622.733 432.842 626.648 435.22C628.838 436.551 631.184 437.544 633.644 438.216C638.158 439.45 642.76 440.17 647.403 440.601C652.309 441.057 657.222 441.252 662.14 440.743C668.839 440.048 673.712 436.639 676.667 430.364C677.695 428.181 678.541 425.926 679.219 423.607C681.44 416.024 682.944 408.263 684.631 400.408ZM710.381 393.339C710.423 392.256 710.296 391.187 710.11 390.13C709.666 387.599 708.46 385.556 706.098 384.557C703.656 383.524 699.374 383.593 696.843 386.613C695.931 387.7 695.16 388.856 694.665 390.201C693.686 392.865 693.35 395.649 693.485 398.459C693.694 402.799 695.949 405.667 700.836 406.648C703.112 407.105 705.358 406.655 707.604 406.328C708.061 406.261 708.203 405.941 708.298 405.549C708.516 404.655 708.748 403.766 708.958 402.872C709.695 399.737 710.297 396.578 710.381 393.339ZM617.104 392.378C617.095 389.791 616.503 387.512 615.369 385.385C613.728 382.308 611.254 380.401 607.891 379.714C607.111 379.554 606.561 379.744 605.986 380.296C602.479 383.659 601.57 387.843 602.436 392.51C603.008 395.591 604.54 398.149 607.007 400.062C608.08 400.895 609.304 401.376 610.615 401.488C612.887 401.682 614.45 400.468 615.517 398.521C616.584 396.576 617.022 394.443 617.104 392.378ZM641.975 399.542C641.84 399.436 641.69 399.465 641.549 399.51C636.443 401.091 631.641 403.319 627.345 406.62C626.565 407.221 625.864 407.909 625.251 408.689C624.968 409.049 624.719 409.436 624.569 409.874C624.345 410.525 624.516 410.822 625.18 410.902C625.471 410.938 625.775 410.902 626.069 410.862C627.039 410.728 627.945 410.362 628.829 409.957C633.847 407.648 638.098 404.277 641.709 400.024C641.828 399.883 641.973 399.75 641.975 399.542ZM690.135 485.727C690.537 484.902 690.581 484.059 690.697 483.235C691.223 479.505 691.376 475.745 691.52 471.986C691.59 470.183 691.606 468.377 691.612 466.572C691.614 465.968 691.601 465.335 691.099 464.875C690.336 464.174 689.486 463.645 688.47 463.436C687.713 463.281 687.64 463.337 687.729 464.154C688.261 469.038 688.662 473.933 688.979 478.837C689.095 480.635 689.235 482.438 689.581 484.21C689.682 484.72 689.705 485.27 690.135 485.727Z" fill="white"/>
<path d="M554.262 387.629C554.029 386.624 553.374 385.978 552.566 385.476C551.855 385.033 551.054 384.842 550.244 384.682C548.372 384.312 546.474 384.194 544.58 384.043C540.418 383.711 536.254 383.419 532.092 383.078C530.384 382.938 528.686 382.694 527.038 382.169C525.775 381.766 524.62 381.156 523.625 380.259C521.999 378.795 521.497 377.006 522.153 374.857C522.923 372.338 524.54 370.549 526.663 369.194C529.81 367.187 533.259 366.024 536.876 365.301C542.286 364.217 547.753 364.038 553.24 364.06C561.594 364.096 569.816 365.162 577.888 367.394C579.869 367.942 581.822 368.574 583.637 369.593C584.491 370.073 585.31 370.602 586.043 371.264C589.035 373.962 589.459 378.269 587.022 381.526C585.867 383.071 584.362 384.201 582.725 385.155C580.294 386.571 577.642 387.338 574.936 387.911C569.413 389.078 563.823 389.705 558.193 389.971C558.082 389.976 557.97 389.984 557.858 389.977C557.39 389.948 557.18 390.099 557.265 390.644C557.365 391.287 557.358 391.947 557.421 392.596C557.726 395.711 557.468 398.82 557.274 401.925C557.067 405.223 556.818 408.516 556.653 411.818C556.272 419.384 556.318 426.958 556.25 434.53C556.246 434.875 556.264 435.227 556.204 435.565C556.099 436.163 555.622 436.552 555.112 436.516C554.62 436.481 554.265 436.121 554.171 435.541C554.14 435.352 554.142 435.158 554.143 434.966C554.223 427.509 554.108 420.048 554.484 412.598C554.686 408.608 555.017 404.624 555.241 400.634C555.423 397.372 555.534 394.105 555.148 390.845C555.089 390.351 555.038 389.971 554.398 389.959C551.153 389.897 547.915 389.845 544.702 390.474C541.365 391.128 538.71 392.926 536.551 395.56C534.1 398.549 532.32 401.968 530.669 405.464C527.862 411.409 525.579 417.591 522.928 423.607C521.71 426.37 520.561 429.164 519.377 431.942C519.099 432.594 518.68 432.838 518.177 432.662C517.705 432.496 517.439 431.954 517.589 431.326C517.696 430.882 517.885 430.458 518.047 430.028C520.298 424.086 522.942 418.316 525.313 412.427C526.872 408.557 528.558 404.749 530.48 401.056C531.627 398.851 532.932 396.751 534.426 394.775C537.616 390.558 541.808 388.322 546.963 387.916C549.085 387.75 551.204 387.646 553.33 387.727C553.624 387.74 553.926 387.794 554.262 387.629ZM552.558 366.246C545.489 366.24 541.741 366.555 536.501 367.62C533.407 368.249 530.472 369.336 527.778 371.05C526.257 372.02 525.007 373.253 524.345 375.022C523.658 376.857 523.992 377.957 525.59 379.072C526.823 379.934 528.223 380.315 529.666 380.555C532.873 381.089 536.119 381.191 539.349 381.465C542.803 381.757 546.267 381.897 549.708 382.368C552.824 382.794 555.388 383.971 556.51 387.291C556.644 387.687 556.92 387.8 557.292 387.782C557.665 387.765 558.037 387.765 558.411 387.755C562.106 387.66 565.769 387.19 569.426 386.688C572.493 386.266 575.535 385.684 578.484 384.688C580.886 383.876 583.085 382.682 584.856 380.777C586.379 379.139 586.885 377.221 586.137 375.046C585.665 373.676 584.645 372.774 583.485 372.026C581.795 370.936 579.94 370.252 578.03 369.707C569.535 367.277 560.873 366.183 552.558 366.246Z" fill="white"/>
<path d="M588.334 430.974C588.356 431.633 588.083 432.073 587.614 432.212C587.127 432.356 586.672 432.154 586.405 431.635C586.285 431.401 586.214 431.136 586.149 430.877C583.713 421.248 580.915 411.722 578.578 402.065C577.775 398.747 577.011 395.421 576.23 392.098C576.195 391.949 576.159 391.797 576.147 391.645C576.101 391.029 576.356 390.589 576.831 390.487C577.351 390.376 577.704 390.64 577.908 391.1C578.045 391.412 578.119 391.755 578.207 392.088C580.315 400.057 582.208 408.084 584.407 416.028C585.695 420.683 586.884 425.367 588.116 430.038C588.205 430.371 588.273 430.71 588.334 430.974Z" fill="white"/>
<path d="M690.255 243.652C690.248 243.786 690.218 243.9 690.24 244.004C690.798 246.723 690.885 249.483 691.028 252.249C691.216 255.847 690.855 259.391 690.297 262.915C689.846 265.768 688.762 268.369 686.784 270.498C686.605 270.692 686.449 270.921 686.24 271.073C684.449 272.362 682.552 273.34 680.309 273.512C676.85 273.778 673.583 273.091 670.394 271.734C666.48 270.069 662.859 267.878 659.42 265.362C658.272 264.522 657.265 263.475 656.175 262.506C655.529 262.822 654.988 263.303 654.46 263.776C652.995 265.085 651.387 266.199 649.836 267.387C648.047 268.76 646.276 270.162 644.397 271.42C643.028 272.336 641.626 273.218 640.326 274.249C640.026 274.486 639.702 274.662 639.305 274.661C638.495 274.658 638.097 274.013 638.425 273.25C638.59 272.868 638.903 272.675 639.222 272.476C641.388 271.118 643.421 269.564 645.398 267.934C646.445 267.073 647.595 266.361 648.665 265.526C650.478 264.114 652.193 262.567 654.091 261.272C654.244 261.167 654.375 261.027 654.505 260.892C654.681 260.708 654.721 260.546 654.528 260.306C653.683 259.257 653.188 258.02 652.711 256.76C651.963 254.785 652.078 252.83 652.792 250.914C653.37 249.363 654.274 248.001 655.409 246.798C657.197 244.903 659.303 243.474 661.539 242.234C663.374 241.218 665.293 240.383 667.194 239.502C669.074 238.631 671.047 238.086 672.98 237.411C674.029 237.044 675.166 236.931 676.291 237.219C677.86 237.623 678.538 238.821 678.099 240.426C677.67 241.993 676.627 243.173 675.686 244.401C674.997 245.3 674.191 246.108 673.392 246.909C671.256 249.049 669.103 251.176 666.847 253.185C664.311 255.442 661.758 257.679 659.206 259.916C658.811 260.262 658.376 260.559 657.929 260.902C659.529 262.752 661.425 264.163 663.43 265.408C664.831 266.278 666.226 267.165 667.688 267.938C670.018 269.169 672.424 270.18 674.954 270.87C677.268 271.501 679.582 271.573 681.91 270.909C684.274 270.236 685.81 268.609 686.878 266.425C687.831 264.475 688.273 262.363 688.507 260.225C688.931 256.366 689.094 252.495 688.619 248.616C688.442 247.169 688.405 245.703 688.103 244.27C687.962 243.597 687.784 242.93 687.651 242.255C687.583 241.912 687.369 241.735 687.105 241.574C685.471 240.571 683.934 239.422 682.401 238.264C681.247 237.394 680.204 236.396 679.32 235.268C677.394 232.815 677.582 230.017 679.938 227.771C682.139 225.672 684.714 224.807 687.666 225.749C690.028 226.502 691.721 228.018 692.255 230.611C692.522 231.909 692.34 233.201 691.986 234.483C691.52 236.168 690.689 237.663 689.862 239.167C689.302 240.187 689.296 240.194 690.295 240.833C692.988 242.555 695.821 244.016 698.613 245.553C701.11 246.927 703.643 248.234 706.116 249.653C710.803 252.341 715.451 255.101 720.131 257.802C724.616 260.391 729.135 262.915 733.613 265.517C735.851 266.817 738.045 268.202 740.234 269.592C745.851 273.157 751.564 276.553 757.451 279.619C761.641 281.801 765.953 283.719 770.461 285.112C772.569 285.764 772.515 285.964 772.641 283.486C772.756 281.214 773.335 279.021 774.757 277.279C776.702 274.895 779.935 274.612 782.006 277.513C785.124 281.879 781.958 286.605 778.595 287.621C777.47 287.96 776.358 288.191 775.2 288.172C774.664 288.164 774.472 288.371 774.491 288.915C774.559 290.951 774.603 292.988 774.66 295.025C774.667 295.294 774.709 295.562 774.711 295.829C774.745 300.132 774.741 304.435 774.815 308.738C774.908 314.078 774.916 319.418 774.979 324.759C775.001 326.638 774.994 328.519 775.033 330.399C775.096 333.471 775.047 336.551 775.219 339.617C775.356 342.075 775.258 344.538 775.433 346.986C775.609 349.444 775.493 351.905 775.653 354.353C775.795 356.548 775.659 358.728 775.649 360.915C775.635 364.028 775.456 367.138 775.451 370.245C775.447 373.012 775.218 375.77 775.245 378.53C775.273 381.337 775.019 384.133 775.022 386.934C775.024 389.012 774.804 391.071 774.752 393.139C774.65 397.252 774.24 401.341 773.923 405.435C773.687 408.497 773.155 411.526 772.532 414.537C772.171 416.28 771.803 416.055 773.692 416.583C776.869 417.471 779.929 418.673 782.716 420.508C783.907 421.293 785.048 422.163 786.166 423.057C787.873 424.422 789.544 425.848 791.075 427.416C792.284 428.654 793.437 429.99 794.078 431.666C794.551 432.903 794.249 433.403 792.986 433.742C791.073 434.256 789.124 434.528 787.168 434.818C781.961 435.591 776.713 435.832 771.477 436.226C770.659 436.288 769.838 436.297 769.018 436.321C765.779 436.414 762.542 436.575 759.302 436.644C756.8 436.696 754.317 436.491 751.825 436.437C747.818 436.351 743.912 435.506 739.964 434.979C739.372 434.9 738.789 434.741 738.254 434.461C737.77 434.209 737.579 433.739 737.71 433.212C737.837 432.7 738.171 432.425 738.676 432.42C738.972 432.417 739.275 432.452 739.562 432.521C744.261 433.661 749.051 434.123 753.849 434.338C759.06 434.572 764.277 434.349 769.485 434.015C770.229 433.967 770.975 433.926 771.72 433.922C774.741 433.903 777.749 433.584 780.746 433.29C783.931 432.979 787.141 432.837 790.293 432.199C790.72 432.113 791.144 432.012 791.67 431.895C791.196 431.008 790.685 430.257 790.071 429.597C786.795 426.081 783.106 423.12 778.872 420.919C776.804 419.844 774.622 419.076 772.378 418.47C771.718 418.292 771.552 418.56 771.351 419.093C770.581 421.138 769.687 423.112 768.394 424.886C766.921 426.904 765.168 428.57 763.123 429.965C761.32 431.195 759.298 431.683 757.241 431.962C755.144 432.246 753.103 431.651 751.41 430.395C749.755 429.169 748.862 427.41 749.365 425.179C749.628 424.007 750.046 422.903 750.768 421.944C751.896 420.444 753.205 419.203 754.837 418.243C758.587 416.038 762.622 415.287 766.861 415.392C767.642 415.412 768.419 415.549 769.199 415.625C770.065 415.71 770.077 415.71 770.295 414.801C770.755 412.898 771.049 410.968 771.253 409.017C771.52 406.458 771.976 403.909 772.091 401.345C772.256 397.662 772.696 393.999 772.704 390.306C772.708 388.386 772.987 386.466 772.959 384.548C772.912 381.323 773.272 378.11 773.151 374.884C773.115 373.927 773.248 372.966 773.273 372.005C773.368 368.317 773.479 364.628 773.529 360.94C773.567 358.135 773.631 355.323 773.481 352.525C773.349 350.068 773.456 347.606 773.267 345.159C773.083 342.779 773.186 340.398 773.068 338.022C772.815 332.956 772.897 327.885 772.818 322.817C772.779 320.281 772.89 317.746 772.795 315.214C772.606 310.146 772.705 305.072 772.568 300.005C772.466 296.242 772.575 292.479 772.445 288.717C772.421 288.036 772.218 287.791 771.603 287.656C766.866 286.622 762.481 284.6 758.13 282.489C753.745 280.361 749.531 277.9 745.354 275.378C741.305 272.933 737.314 270.384 733.253 267.959C729.838 265.92 726.353 264.001 722.906 262.017C720.109 260.408 717.315 258.793 714.532 257.16C709.19 254.026 703.855 250.878 698.39 247.978C695.873 246.642 693.392 245.24 690.887 243.883C690.691 243.776 690.52 243.619 690.255 243.652ZM656.485 259.211C656.698 259.063 656.828 258.991 656.938 258.893C658.816 257.203 660.761 255.595 662.664 253.936C664.795 252.077 666.837 250.109 668.935 248.209C670.589 246.712 672.148 245.117 673.602 243.418C674.414 242.47 675.193 241.48 675.759 240.348C676.129 239.609 675.978 239.344 675.19 239.388C674.223 239.441 673.264 239.611 672.341 239.931C669.484 240.921 666.714 242.121 663.987 243.452C661.193 244.815 658.676 246.562 656.541 248.849C655.398 250.074 654.564 251.507 654.477 253.32C654.372 255.552 655.039 257.461 656.485 259.211ZM769.381 418.018C766.42 417.488 763.639 417.479 760.838 418.216C758.723 418.772 756.677 419.467 754.936 420.826C753.448 421.988 752.112 423.333 751.618 425.317C751.223 426.898 751.842 428.231 753.276 428.89C757.147 430.672 760.487 429.318 763.563 426.92C764.983 425.812 766.118 424.355 767.117 422.808C768.071 421.33 768.718 419.718 769.381 418.018ZM690.27 232.314C690.156 230.342 689.352 228.711 687.502 227.983C685.946 227.372 684.513 227.658 683.065 228.223C681.814 228.709 680.993 229.66 680.432 230.889C680.084 231.651 680.106 232.393 680.534 233.082C680.954 233.757 681.392 234.424 681.962 234.989C683.473 236.484 685.178 237.701 686.962 238.819C687.432 239.114 687.714 239.023 687.948 238.568C688.645 237.217 689.461 235.927 689.859 234.427C690.046 233.723 690.237 233.022 690.27 232.314ZM775.791 285.859C776.046 285.832 776.453 285.785 776.861 285.742C778.614 285.562 779.82 284.543 780.63 283.015C781.66 281.072 780.861 278.697 778.971 277.853C778.491 277.638 778.05 277.644 777.571 277.841C776.621 278.23 776.155 279.057 775.764 279.937C775.073 281.494 774.788 283.156 774.674 284.853C774.609 285.834 774.661 285.881 775.791 285.859Z" fill="white"/>
<path d="M655.88 286.813C655.844 286.216 656.014 285.911 656.157 285.601C658.199 281.17 660.294 276.766 662.605 272.474C662.714 272.273 662.803 272.06 662.93 271.872C663.223 271.44 663.622 271.296 664.098 271.514C664.529 271.713 664.825 272.301 664.653 272.752C664.367 273.498 664.029 274.226 663.668 274.938C661.858 278.506 660.238 282.167 658.546 285.794C658.306 286.31 658.11 286.866 657.694 287.267C657.355 287.594 656.95 287.773 656.469 287.585C656.016 287.409 655.902 287.02 655.88 286.813Z" fill="white"/>
<path d="M673.35 289.974C673.665 285.531 673.979 281.283 674.837 277.102C674.876 276.914 674.891 276.719 674.95 276.539C675.157 275.897 675.596 275.588 676.105 275.705C676.624 275.826 676.879 276.27 676.787 276.961C676.67 277.836 676.463 278.702 676.409 279.579C676.192 283.027 675.666 286.447 675.523 289.901C675.514 290.129 675.52 290.367 675.461 290.584C675.307 291.147 674.88 291.363 674.357 291.377C673.858 291.39 673.448 291.011 673.358 290.469C673.319 290.245 673.35 290.008 673.35 289.974Z" fill="white"/>
<path d="M604.991 345.179C603.772 343.477 602.386 341.986 600.731 340.781C596.117 337.415 591.138 334.903 585.528 333.831C581.413 333.045 577.321 332.773 573.235 333.976C572.986 334.048 572.728 334.126 572.472 334.133C572.026 334.147 571.662 333.939 571.5 333.499C571.341 333.069 571.446 332.665 571.773 332.338C572.022 332.089 572.335 331.969 572.661 331.879C575.455 331.102 578.288 330.773 581.184 331.006C588.735 331.614 595.534 334.294 601.696 338.794C603.916 340.415 605.7 342.464 607.339 344.67C607.452 344.822 607.558 344.983 607.641 345.154C608.158 346.207 607.782 347.093 606.659 347.321C605.673 347.523 604.672 347.646 603.672 347.762C599.433 348.259 595.192 348.211 590.947 347.81C587.022 347.439 583.217 346.547 579.602 344.925C574.857 342.798 570.842 339.698 567.945 335.2C567.701 334.819 567.474 334.576 566.977 334.607C564.917 334.736 562.921 335.179 560.952 335.791C560.473 335.94 560.48 336.297 560.441 336.687C560.245 338.636 560.049 340.586 559.83 342.532C559.73 343.41 559.594 344.283 559.439 345.152C559.343 345.686 559.472 345.906 560.037 345.946C562.309 346.107 564.547 346.517 566.761 347.066C567.669 347.291 568.556 347.578 569.408 347.973C572.422 349.373 574.058 351.704 574.001 355.189C573.966 357.313 573.635 359.398 573.256 361.477C572.623 364.95 572.027 368.433 571.004 371.817C570.649 372.993 570.246 374.15 569.618 375.207C568.552 377.002 567.018 378.132 564.967 378.165C560.124 378.241 555.273 378.299 550.463 377.517C549.58 377.374 548.719 377.12 547.891 376.76C546.218 376.032 545.196 374.759 544.824 372.928C544.465 371.157 544.292 369.359 544.051 367.57C543.429 362.964 542.845 358.354 542.571 353.707C542.54 353.171 542.512 352.63 542.541 352.095C542.578 351.395 542.931 351.012 543.459 351.014C543.979 351.016 544.338 351.384 544.388 352.096C544.543 354.282 544.777 356.458 545.055 358.63C545.627 363.087 546.151 367.55 546.801 371.996C547.036 373.605 547.874 374.551 549.348 374.992C550.57 375.358 551.817 375.576 553.081 375.691C556.651 376.014 560.234 375.952 563.812 376.023C563.961 376.027 564.111 376.016 564.259 376.019C566.167 376.066 567.422 375.106 568.186 373.352C569.078 371.304 569.588 369.137 570.04 366.96C570.725 363.654 571.41 360.345 571.771 356.978C571.832 356.406 571.887 355.83 571.892 355.255C571.914 352.664 570.837 350.978 568.524 349.949C567.11 349.32 565.607 349.03 564.112 348.712C562.649 348.401 561.161 348.283 559.684 348.083C559.08 348.001 558.909 348.259 558.802 348.792C558.651 349.543 558.458 350.289 558.23 351.019C557.93 351.978 557.455 352.845 556.808 353.611C555.886 354.702 554.756 355.369 553.342 355.494C552.027 355.61 550.727 355.507 549.476 355.086C548.311 354.695 547.334 354.013 546.75 352.845C545.95 351.244 546.273 349.53 547.615 348.371C548.427 347.671 549.366 347.206 550.363 346.865C552.354 346.185 554.386 345.715 556.495 345.72C556.968 345.721 557.256 345.626 557.338 345.068C557.719 342.484 558.066 339.896 558.254 337.288C558.265 337.139 558.238 336.986 558.227 336.794C557.738 336.693 557.349 336.953 556.943 337.084C553.987 338.041 551.003 338.83 547.894 339.077C545.006 339.305 542.159 338.994 539.324 338.508C535.15 337.79 531.13 336.55 527.328 334.6C524.051 332.92 521.214 330.635 518.677 327.942C516.047 325.152 513.654 322.158 511.498 318.964C511.093 318.363 510.698 317.753 510.473 317.053C510.07 315.795 510.62 314.875 511.904 314.795C517.305 314.46 522.704 314.296 528.102 314.909C532.044 315.356 535.893 316.134 539.582 317.724C545.434 320.245 550.162 324.111 553.523 329.693C553.622 329.856 553.737 330.01 553.819 330.181C554.09 330.746 554.477 330.916 555.095 330.757C555.96 330.535 556.846 330.377 557.732 330.261C558.347 330.18 558.536 329.89 558.509 329.274C558.412 326.976 557.944 324.789 556.873 322.75C555.746 320.604 554.253 318.733 552.754 316.869C549.512 312.836 546.619 308.558 543.994 304.071C541.016 298.982 539.238 293.511 538.547 287.622C538.094 283.764 537.715 279.906 537.693 276.017C537.691 275.634 537.657 275.248 537.785 274.875C538.065 274.049 538.835 273.728 539.583 274.141C539.778 274.249 539.953 274.399 540.124 274.547C545.475 279.191 549.496 284.832 552.094 291.538C553.609 295.45 554.531 299.519 555.135 303.674C555.2 304.126 555.225 304.589 555.482 305.119C555.82 303.61 556.115 302.192 556.456 300.786C558.299 293.187 561.403 286.225 566.32 280.191C568.67 277.307 571.442 274.94 574.625 273.087C574.819 272.974 575.014 272.858 575.218 272.764C576.262 272.282 577.06 272.601 577.447 273.708C577.801 274.726 577.9 275.804 578.054 276.869C579.058 283.793 578.113 290.423 575.251 296.766C573.837 299.9 571.922 302.674 569.599 305.156C567.992 306.872 566.272 308.465 564.57 310.077C563.005 311.56 561.421 313.025 560.11 314.765C559.836 315.128 559.601 315.522 559.333 315.891C559.075 316.248 559.101 316.553 559.337 316.936C560.373 318.624 561.375 320.335 562.394 322.036C562.469 322.161 562.525 322.313 562.744 322.356C563.054 322.237 563.148 321.878 563.315 321.599C566.333 316.529 570.197 312.238 574.668 308.512C579.325 304.63 584.692 302.365 590.519 301.177C594.141 300.438 597.815 300.046 601.476 299.584C603.994 299.265 606.489 298.821 608.979 298.34C609.234 298.291 609.492 298.211 609.749 298.211C610.834 298.213 611.364 299.123 610.84 300.103C610.644 300.47 610.374 300.796 610.131 301.136C609.115 302.564 608.215 304.069 607.358 305.601C602.065 315.059 594.296 321.421 584.423 325.183C577.977 327.638 571.32 329.308 564.651 330.94C563.564 331.205 562.47 331.442 561.383 331.707C560.76 331.858 560.367 332.721 560.645 333.306C560.777 333.585 561.024 333.494 561.232 333.442C561.92 333.274 562.602 333.072 563.292 332.915C564.678 332.598 566.091 332.484 567.505 332.376C568.324 332.314 568.933 332.601 569.361 333.367C571.156 336.577 573.758 338.961 576.753 340.923C580.633 343.464 584.931 344.804 589.442 345.426C594.378 346.106 599.328 346.157 604.274 345.47C604.482 345.441 604.72 345.49 604.991 345.179ZM607.473 300.997C607.181 300.84 606.886 300.956 606.603 301.011C604.624 301.397 602.623 301.619 600.629 301.89C597.12 302.367 593.593 302.715 590.128 303.493C585.074 304.628 580.389 306.628 576.304 309.959C571.791 313.639 567.933 317.935 564.948 323.031C564.64 323.558 564.349 324.097 564.011 324.603C563.173 325.858 562.168 325.841 561.385 324.572C561.204 324.28 561.047 323.975 560.871 323.68C559.697 321.718 558.563 319.728 557.325 317.808C556.701 316.839 556.7 316.053 557.309 315.072C558.507 313.139 560 311.491 561.604 309.933C563.504 308.088 565.469 306.31 567.316 304.412C574.399 297.135 577.11 288.286 576.059 278.126C575.958 277.149 575.924 276.148 575.579 275.196C575.149 275.2 574.866 275.475 574.558 275.671C572.199 277.184 570.102 279.022 568.283 281.187C563.549 286.819 560.566 293.375 558.698 300.52C557.785 304.015 557.282 307.591 556.702 311.152C556.633 311.571 556.555 311.988 556.367 312.367C556.145 312.815 555.783 313.061 555.282 313.024C554.822 312.99 554.527 312.718 554.376 312.283C554.301 312.068 554.246 311.841 554.208 311.616C553.981 310.253 553.745 308.891 553.546 307.525C553.053 304.143 552.63 300.747 551.748 297.441C549.748 289.949 546.305 283.326 540.65 278.056C540.452 277.873 540.316 277.517 539.9 277.654C539.9 278.187 539.879 278.723 539.904 279.258C540.071 282.947 540.504 286.608 541.101 290.249C541.677 293.762 542.742 297.107 544.379 300.251C546.074 303.505 547.942 306.648 550.018 309.66C552.115 312.702 554.491 315.518 556.69 318.478C558.526 320.949 559.947 323.628 560.393 326.76C560.485 327.407 560.523 328.06 560.599 328.708C560.704 329.614 560.711 329.621 561.535 329.435C562.372 329.246 563.205 329.044 564.039 328.841C570.708 327.208 577.373 325.559 583.812 323.084C591.241 320.227 597.572 315.798 602.443 309.272C604.336 306.737 605.805 303.92 607.456 301.226C607.491 301.17 607.469 301.078 607.473 300.997ZM512.903 316.894C512.963 317.434 513.21 317.684 513.397 317.961C515.373 320.856 517.561 323.57 519.919 326.144C523.304 329.841 527.304 332.557 531.946 334.284C535.15 335.476 538.45 336.231 541.816 336.682C544.9 337.094 547.978 337.083 551.044 336.439C553.238 335.979 555.37 335.304 557.496 334.6C558.455 334.282 558.461 334.28 558.476 333.255C558.48 332.968 558.591 332.645 558.304 332.39C557.432 332.548 556.552 332.699 555.675 332.866C553.467 333.282 553.151 333.142 551.917 331.165C551.776 330.939 551.643 330.708 551.496 330.486C550.259 328.608 548.927 326.813 547.299 325.265C543.626 321.776 539.279 319.571 534.504 318.259C530.345 317.115 526.063 316.812 521.779 316.667C518.841 316.568 515.91 316.821 512.903 316.894ZM552.391 353.315C554.15 353.535 555.242 352.513 555.982 350.929C556.29 350.27 556.476 349.564 556.629 348.852C556.811 348.008 556.737 347.906 555.895 347.944C553.831 348.036 551.852 348.529 549.966 349.4C549.663 349.539 549.373 349.726 549.112 349.936C548.271 350.61 548.217 351.529 548.968 352.304C549.344 352.691 549.812 352.928 550.322 353.071C550.971 353.255 551.633 353.346 552.391 353.315Z" fill="white"/>
</svg>
