<svg width="25" height="24" viewBox="0 0 25 24" fill="none" xmlns="http://www.w3.org/2000/svg">
<path d="M21.9124 7.125C22.3999 9.075 21.7999 11.175 20.3749 12.6C18.9499 14.025 16.9249 14.5875 14.9749 14.1375L8.1124 21C7.5124 21.6 6.7249 21.9 5.9374 21.9C5.1499 21.9 4.2874 21.5625 3.7624 21C3.1999 20.4 2.8999 19.6125 2.8999 18.825C2.8999 18.0375 3.1999 17.25 3.7624 16.65L10.6624 9.7875C10.2124 7.8375 10.7749 5.8125 12.1999 4.425C13.6624 2.9625 15.6874 2.4 17.6749 2.8875C18.1624 3 18.4999 3.375 18.6499 3.825C18.7624 4.275 18.6499 4.7625 18.3124 5.1L16.0999 7.275L16.2874 8.5125L17.5249 8.7L19.7374 6.4875C20.0374 6.1875 20.5249 6.0375 21.0124 6.15C21.4624 6.3 21.8374 6.6375 21.9124 7.125ZM19.0999 11.325C19.8874 10.575 20.2999 9.525 20.2999 8.475L18.1249 10.65L14.7499 10.05L14.1874 6.675L16.2874 4.5H16.2499C15.2374 4.5 14.2249 4.9125 13.4749 5.7C12.3874 6.75 12.0499 8.325 12.6124 9.7875L12.7624 10.3125L5.1124 17.925C4.8874 18.1875 4.7374 18.4875 4.7374 18.825C4.7374 19.2 4.8874 19.5 5.1124 19.725C5.5624 20.2125 6.4249 20.2125 6.8749 19.725L14.5249 12.1125L15.0499 12.3C16.4749 12.7875 18.0499 12.4125 19.0999 11.325ZM6.1624 18C6.4999 18 6.7624 18.3 6.7249 18.6C6.7249 18.9 6.4624 19.2 6.1624 19.2C5.8624 19.2 5.5999 18.9 5.5999 18.6C5.5999 18.2625 5.8249 18 6.1624 18Z" fill="#5774AC"/>
</svg>
