<svg width="25" height="24" viewBox="0 0 25 24" fill="none" xmlns="http://www.w3.org/2000/svg">
<mask id="mask0_23186_86946" style="mask-type:alpha" maskUnits="userSpaceOnUse" x="0" y="0" width="24" height="24">
<rect width="24" height="24" fill="#D9D9D9"/>
</mask>
<g mask="url(#mask0_23186_86946)">
<path d="M7.5 16.5H13.5V15.5H7.5V16.5ZM7.5 12.5H16.5V11.5H7.5V12.5ZM7.5 8.5H16.5V7.5H7.5V8.5ZM5.61538 20C5.15513 20 4.77083 19.8458 4.4625 19.5375C4.15417 19.2292 4 18.8449 4 18.3846V5.61537C4 5.15512 4.15417 4.77083 4.4625 4.4625C4.77083 4.15417 5.15513 4 5.61538 4H18.3846C18.8449 4 19.2292 4.15417 19.5375 4.4625C19.8458 4.77083 20 5.15512 20 5.61537V18.3846C20 18.8449 19.8458 19.2292 19.5375 19.5375C19.2292 19.8458 18.8449 20 18.3846 20H5.61538ZM5.61538 19H18.3846C18.5385 19 18.6795 18.9359 18.8077 18.8077C18.9359 18.6795 19 18.5385 19 18.3846V5.61537C19 5.46154 18.9359 5.32052 18.8077 5.1923C18.6795 5.0641 18.5385 5 18.3846 5H5.61538C5.46154 5 5.32052 5.0641 5.1923 5.1923C5.0641 5.32052 5 5.46154 5 5.61537V18.3846C5 18.5385 5.0641 18.6795 5.1923 18.8077C5.32052 18.9359 5.46154 19 5.61538 19Z" fill="#5774AC"/>
</g>
<circle cx="18.5998" cy="17.4001" r="5.301" fill="#F6B704" stroke="#F9F0F0" stroke-width="1.002"/>
<mask id="mask1_23186_86946" style="mask-type:alpha" maskUnits="userSpaceOnUse" x="15" y="13" width="8" height="8">
<rect x="15" y="13.7998" width="7.2" height="7.2" fill="#D9D9D9"/>
</mask>
<g mask="url(#mask1_23186_86946)">
<path d="M18.2898 18.5306C18.2898 18.191 18.3289 17.931 18.4072 17.7506C18.4854 17.5702 18.6488 17.3702 18.8973 17.1506C19.0907 16.9783 19.2374 16.8221 19.3372 16.6819C19.437 16.5417 19.4869 16.3827 19.4869 16.205C19.4869 15.9693 19.4066 15.7733 19.246 15.6172C19.0854 15.461 18.8644 15.3829 18.5828 15.3829C18.3259 15.3829 18.1259 15.4518 17.9828 15.5895C17.8397 15.7272 17.7311 15.8808 17.6569 16.0504L17.1094 15.8099C17.2259 15.5225 17.4078 15.283 17.6551 15.0913C17.9024 14.8996 18.2117 14.8037 18.5828 14.8037C19.0674 14.8037 19.4404 14.9403 19.7018 15.2136C19.9631 15.4869 20.0938 15.8112 20.0938 16.1866C20.0938 16.4212 20.0429 16.6282 19.9412 16.8076C19.8395 16.9871 19.6851 17.1739 19.4782 17.3681C19.2178 17.607 19.0566 17.7953 18.9945 17.9332C18.9323 18.0711 18.9013 18.2702 18.9013 18.5306H18.2898ZM18.5828 20.2499C18.4601 20.2499 18.3545 20.2055 18.2658 20.1169C18.1772 20.0282 18.1328 19.9225 18.1328 19.7999C18.1328 19.6772 18.1772 19.5715 18.2658 19.4828C18.3545 19.3942 18.4601 19.3499 18.5828 19.3499C18.7055 19.3499 18.8112 19.3942 18.8998 19.4828C18.9885 19.5715 19.0328 19.6772 19.0328 19.7999C19.0328 19.9225 18.9885 20.0282 18.8998 20.1169C18.8112 20.2055 18.7055 20.2499 18.5828 20.2499Z" fill="white"/>
</g>
</svg>
