<svg width="25" height="24" viewBox="0 0 25 24" fill="none" xmlns="http://www.w3.org/2000/svg">
<path d="M10.9289 6.3375V5.7H10.8914C11.1539 5.25 11.4539 4.8375 11.8664 4.4625C13.2914 3 15.3539 2.4375 17.3414 2.925C17.7914 3.0375 18.1664 3.375 18.2789 3.8625C18.4289 4.3125 18.2789 4.8 17.9789 5.1L15.7664 7.275L15.9539 8.5125L17.1914 8.7L19.3664 6.4875C19.6664 6.1875 20.1539 6.0375 20.6414 6.15C21.0914 6.3 21.4289 6.6375 21.5414 7.125C22.0289 9.075 21.4289 11.2125 20.0039 12.6C19.6664 12.9375 19.2914 13.2375 18.9164 13.4625L17.7539 12.3C17.6789 12.2625 17.6039 12.1875 17.5664 12.15C17.9789 11.9625 18.3914 11.7 18.7289 11.325C19.5164 10.575 19.9289 9.525 19.9289 8.475L17.7539 10.6125L14.3789 10.05L13.8164 6.675L15.9914 4.5375H15.9539C14.9039 4.5375 13.8914 4.9125 13.1414 5.7C12.2039 6.6375 11.7914 7.95 12.0539 9.2625L10.9289 8.1375V6.3375ZM6.54141 19.725L10.9664 15.225C10.9664 15.9375 11.1914 16.6125 11.5664 17.2125L7.77891 20.9625C7.17891 21.5625 6.39141 21.8625 5.60391 21.8625C4.81641 21.8625 4.02891 21.5625 3.46641 20.9625C2.86641 20.4 2.52891 19.575 2.56641 18.7875C2.56641 18.0375 2.86641 17.25 3.46641 16.65L8.49141 11.625L9.76641 12.9L4.70391 18C4.47891 18.225 4.32891 18.525 4.32891 18.8625C4.32891 19.2 4.47891 19.5 4.70391 19.725C5.19141 20.2125 6.05391 20.2125 6.54141 19.725ZM21.3539 17.55C21.8789 18.1125 21.8789 18.975 21.3539 19.4625L19.3664 21.45C18.8039 21.975 17.9414 21.975 17.3789 21.45L12.9914 17.0625C12.1289 16.2 11.9789 14.8875 12.4664 13.8375L8.49141 9.8625H6.16641L2.56641 5.1L4.96641 2.7L9.72891 6.3V8.625L13.7414 12.6375C14.7914 12.1125 16.0664 12.3 16.9664 13.1625L21.3539 17.55Z" fill="#5774AC"/>
</svg>
