<svg width="25" height="24" viewBox="0 0 25 24" fill="none" xmlns="http://www.w3.org/2000/svg">
<path d="M5.6334 2.7C6.0459 2.7 6.4209 3.0375 6.4959 3.45L6.5709 3.9H22.3209C23.1084 3.9 23.7084 4.6875 23.4834 5.4375L21.4584 12.6375C21.3084 13.1625 20.8584 13.5 20.2959 13.5H8.4084L8.7459 15.3H20.3334C20.8209 15.3 21.2334 15.7125 21.2334 16.2C21.2334 16.725 20.8209 17.1 20.3334 17.1H7.9959C7.5834 17.1 7.2084 16.8 7.1334 16.3875L4.8834 4.5H2.9334C2.4084 4.5 2.0334 4.125 2.0334 3.6C2.0334 3.1125 2.4084 2.7 2.9334 2.7H5.6334ZM19.8459 11.7L21.5334 5.7H6.9459L8.0709 11.7H19.8459ZM6.8334 20.1C6.8334 19.125 7.6209 18.3 8.6334 18.3C9.6084 18.3 10.4334 19.125 10.4334 20.1C10.4334 21.1125 9.6084 21.9 8.6334 21.9C7.6209 21.9 6.8334 21.1125 6.8334 20.1ZM21.2334 20.1C21.2334 21.1125 20.4084 21.9 19.4334 21.9C18.4209 21.9 17.6334 21.1125 17.6334 20.1C17.6334 19.125 18.4209 18.3 19.4334 18.3C20.4084 18.3 21.2334 19.125 21.2334 20.1Z" fill="#5774AC"/>
</svg>
