<svg width="25" height="24" viewBox="0 0 25 24" fill="none" xmlns="http://www.w3.org/2000/svg">
<path d="M21.1999 15.6C21.6874 15.6 22.0999 16.0125 22.0999 16.5C22.0999 17.025 21.6874 17.4 21.1999 17.4H5.8624L8.6374 20.4C8.9749 20.775 8.9749 21.3375 8.5999 21.675C8.4124 21.825 8.1874 21.9 7.9999 21.9C7.7374 21.9 7.5124 21.825 7.3249 21.6375L3.1249 17.1375C2.7874 16.8 2.7874 16.2375 3.1249 15.9L7.3249 11.4C7.6624 11.025 8.2249 11.025 8.5999 11.3625C8.9749 11.7 8.9749 12.2625 8.6374 12.6375L5.8624 15.6H21.1999ZM3.7999 9C3.2749 9 2.8999 8.625 2.8999 8.1C2.8999 7.6125 3.2749 7.2 3.7999 7.2H19.0999L16.3249 4.2375C15.9874 3.8625 15.9874 3.3 16.3624 2.9625C16.5499 2.8125 16.7749 2.7 16.9999 2.7C17.2249 2.7 17.4499 2.8125 17.6374 3L21.8374 7.5C22.1749 7.8375 22.1749 8.4 21.8374 8.7375L17.6374 13.2375C17.2999 13.6125 16.7374 13.6125 16.3624 13.275C15.9874 12.9375 15.9874 12.375 16.3249 12L19.0999 9H3.7999Z" fill="#5774AC"/>
</svg>
