<svg width="26" height="26" viewBox="0 0 26 26" fill="none" xmlns="http://www.w3.org/2000/svg">
<path d="M18.1562 14.8022C18.6641 14.8022 19.0938 14.4116 19.0938 13.8647C19.0938 13.7085 19.0547 13.5522 18.9766 13.396C18.625 12.771 17.7266 12.771 17.3359 13.396C16.9844 14.021 17.4531 14.8022 18.1562 14.8022ZM7.80469 14.8022C8.3125 14.8022 8.74219 14.4116 8.74219 13.8647C8.74219 13.7085 8.70312 13.5522 8.625 13.396C8.23438 12.771 7.33594 12.771 6.98438 13.396C6.63281 14.021 7.0625 14.8022 7.80469 14.8022ZM18.5078 9.17725C21.7109 10.9351 23.8984 14.1772 24.25 18.0054H1.75C2.0625 14.1772 4.25 10.9351 7.45312 9.17725L5.57812 5.93506C5.5 5.81787 5.5 5.62256 5.57812 5.50537C5.77344 5.23193 6.125 5.271 6.28125 5.54443L8.15625 8.82568C11.2422 7.4585 14.7188 7.4585 17.8047 8.82568L19.6797 5.54443C19.7578 5.38818 19.9141 5.31006 20.0703 5.31006C20.3828 5.34912 20.5391 5.70068 20.3828 5.93506L18.5078 9.17725Z" fill="#222222"/>
</svg>
