<svg width="40" height="41" viewBox="0 0 40 41" fill="none" xmlns="http://www.w3.org/2000/svg">
<rect y="0.0107422" width="40" height="40" rx="8" fill="#F6B704"/>
<path d="M27.3125 13.292C28 13.9795 28 15.0732 27.3125 15.7607L26.375 16.6982L23.3125 13.6357L24.25 12.6982C24.9375 12.0107 26.0312 12.0107 26.7188 12.6982L27.3125 13.292ZM17.375 19.5732L22.5938 14.3545L25.6562 17.417L20.4375 22.6357C20.25 22.8232 20 22.9795 19.75 23.0732L16.9688 23.9795C16.6875 24.0732 16.4062 24.0107 16.2188 23.792C16 23.6045 15.9375 23.292 16.0312 23.042L16.9375 20.2607C17.0312 20.0107 17.1875 19.7607 17.375 19.5732ZM18 14.0107C18.5312 14.0107 19 14.4795 19 15.0107C19 15.5732 18.5312 16.0107 18 16.0107H15C14.4375 16.0107 14 16.4795 14 17.0107V25.0107C14 25.5732 14.4375 26.0107 15 26.0107H23C23.5312 26.0107 24 25.5732 24 25.0107V22.0107C24 21.4795 24.4375 21.0107 25 21.0107C25.5312 21.0107 26 21.4795 26 22.0107V25.0107C26 26.667 24.6562 28.0107 23 28.0107H15C13.3125 28.0107 12 26.667 12 25.0107V17.0107C12 15.3545 13.3125 14.0107 15 14.0107H18Z" fill="#222222"/>
</svg>
