<svg width="25" height="24" viewBox="0 0 25 24" fill="none" xmlns="http://www.w3.org/2000/svg">
<path d="M20.5254 13.1625L14.5254 19.1625C14.3004 19.3875 14.0004 19.5 13.7004 19.5C13.3629 19.5 13.0629 19.3875 12.8379 19.1625C12.3504 18.7125 12.3504 17.925 12.8379 17.475L16.7754 13.5H5.30039C4.62539 13.5 4.10039 12.975 4.10039 12.3C4.10039 11.6625 4.62539 11.1 5.30039 11.1H16.7754L12.8379 7.1625C12.3504 6.7125 12.3504 5.925 12.8379 5.475C13.2879 4.9875 14.0754 4.9875 14.5254 5.475L20.5254 11.475C21.0129 11.925 21.0129 12.7125 20.5254 13.1625Z" fill="#222222"/>
</svg>
