<svg width="26" height="26" viewBox="0 0 26 26" fill="none" xmlns="http://www.w3.org/2000/svg">
<path d="M17.9219 13.5132C17.9219 13.5913 17.8047 15.896 20.3438 17.1069C19.875 18.5522 18.2344 21.7554 16.3203 21.7554C15.2266 21.7554 14.6016 21.0522 13.3516 21.0522C12.0625 21.0522 11.3594 21.7554 10.3828 21.7554C8.50781 21.8335 6.71094 18.3179 6.20312 16.8726C5.8125 15.7788 5.65625 14.7241 5.65625 13.7085C5.65625 10.2319 7.96094 8.55225 10.1484 8.51318C11.2031 8.51318 12.5312 9.25537 13.1172 9.25537C13.6641 9.25537 15.1875 8.35693 16.5938 8.47412C18.0391 8.59131 19.1328 9.13818 19.875 10.1929C18.5859 11.0132 17.9219 12.0679 17.9219 13.5132ZM15.7344 7.10693C14.9531 8.00537 14.0156 8.51318 13 8.43506C12.9219 7.38037 13.3125 6.40381 14.0156 5.62256C14.6406 4.91943 15.7344 4.3335 16.6719 4.25537C16.6719 4.68506 16.7891 5.85693 15.7344 7.10693Z" fill="#222222"/>
</svg>
