<svg width="48" height="49" viewBox="0 0 48 49" fill="none" xmlns="http://www.w3.org/2000/svg">
<circle cx="23.5" cy="24.5107" r="12.5" fill="black"/>
<mask id="mask0_6711_1608" style="mask-type:alpha" maskUnits="userSpaceOnUse" x="0" y="0" width="48" height="49">
<rect y="0.0107422" width="48" height="48" fill="#D9D9D9"/>
</mask>
<g mask="url(#mask0_6711_1608)">
<path d="M19.15 32.5107L32.5 24.0107L19.15 15.5107V32.5107ZM24 44.0107C21.2667 44.0107 18.6833 43.4857 16.25 42.4357C13.8167 41.3857 11.6917 39.9524 9.875 38.1357C8.05833 36.3191 6.625 34.1941 5.575 31.7607C4.525 29.3274 4 26.7441 4 24.0107C4 21.2441 4.525 18.6441 5.575 16.2107C6.625 13.7774 8.05833 11.6607 9.875 9.86074C11.6917 8.06074 13.8167 6.63574 16.25 5.58574C18.6833 4.53574 21.2667 4.01074 24 4.01074C26.7667 4.01074 29.3667 4.53574 31.8 5.58574C34.2333 6.63574 36.35 8.06074 38.15 9.86074C39.95 11.6607 41.375 13.7774 42.425 16.2107C43.475 18.6441 44 21.2441 44 24.0107C44 26.7441 43.475 29.3274 42.425 31.7607C41.375 34.1941 39.95 36.3191 38.15 38.1357C36.35 39.9524 34.2333 41.3857 31.8 42.4357C29.3667 43.4857 26.7667 44.0107 24 44.0107Z" fill="white"/>
</g>
</svg>
