<svg width="46" height="41" viewBox="0 0 46 41" fill="none" xmlns="http://www.w3.org/2000/svg">
<path d="M3.54688 13.7607C3.625 13.7607 3.625 13.7607 3.54688 13.7607V13.7607ZM42.2969 13.7607C42.2969 13.7607 42.2969 13.7607 42.375 13.7607C42.2969 13.7607 42.2969 13.7607 42.2969 13.7607ZM39.875 12.5107C40.4219 13.292 41.2812 13.7607 42.2969 13.7607L38.3125 35.4795C38.1562 36.6514 37.0625 37.5107 35.8906 37.5107H10.0312C8.85938 37.5107 7.76562 36.6514 7.60938 35.4795L3.625 13.7607C4.64062 13.7607 5.5 13.292 6.04688 12.5107L13.0781 18.1357C14.25 19.0732 16.125 18.6826 16.8281 17.2764L21.3594 8.29199C21.8281 8.60449 22.2188 8.76074 22.9219 8.76074C23.5469 8.76074 24.0938 8.60449 24.5625 8.29199L29.0938 17.2764C29.7969 18.6826 31.5938 19.1514 32.8438 18.1357L39.875 12.5107Z" fill="#597492"/>
<path opacity="0.4" d="M23 2.51074C24.7188 2.51074 26.0469 3.91699 26.0469 5.63574C26.0469 7.43262 24.6406 8.76074 22.9219 8.76074C21.2031 8.76074 19.7969 7.43262 19.7969 5.63574C19.7969 3.91699 21.2031 2.51074 23 2.51074ZM3.54688 7.51074C5.34375 7.51074 6.67188 8.91699 6.67188 10.6357C6.67188 12.4326 5.26562 13.7607 3.54688 13.7607C1.82812 13.7607 0.421875 12.4326 0.421875 10.6357C0.421875 8.91699 1.82812 7.51074 3.54688 7.51074ZM42.375 7.51074C44.0938 7.51074 45.5 8.91699 45.5 10.6357C45.5 12.4326 44.0938 13.7607 42.375 13.7607C40.5781 13.7607 39.25 12.4326 39.25 10.6357C39.25 8.91699 40.5781 7.51074 42.375 7.51074Z" fill="#597492"/>
</svg>
