<svg width="42" height="42" viewBox="0 0 42 42" fill="none" xmlns="http://www.w3.org/2000/svg">
<path d="M3.5 14.7607C2.09375 14.7607 1 13.667 1 12.2607C1 10.9326 2.09375 9.76074 3.5 9.76074H32.4062L27.9531 5.30762C26.9375 4.37012 26.9375 2.72949 27.9531 1.79199C28.8906 0.776367 30.5312 0.776367 31.4688 1.79199L40.2188 10.542C41.2344 11.4795 41.2344 13.1201 40.2188 14.0576L31.4688 22.8076C31 23.2764 30.375 23.5107 29.75 23.5107C29.0469 23.5107 28.4219 23.2764 27.9531 22.8076C26.9375 21.8701 26.9375 20.2295 27.9531 19.292L32.4062 14.7607H3.5Z" fill="#597492"/>
<path opacity="0.4" d="M38.5 27.2607C39.8281 27.2607 41 28.4326 41 29.7607C41 31.167 39.8281 32.2607 38.5 32.2607H9.51562L13.9688 36.792C14.9844 37.7295 14.9844 39.3701 13.9688 40.3076C13.5 40.7764 12.875 41.0107 12.25 41.0107C11.5469 41.0107 10.9219 40.7764 10.4531 40.3076L1.70312 31.5576C0.6875 30.6201 0.6875 28.9795 1.70312 28.042L10.4531 19.292C11.3906 18.2764 13.0312 18.2764 13.9688 19.292C14.9844 20.2295 14.9844 21.8701 13.9688 22.8076L9.51562 27.2607H38.5Z" fill="#597492"/>
</svg>
