<svg width="24" height="24" viewBox="0 0 24 24" fill="none" xmlns="http://www.w3.org/2000/svg">
<mask id="mask0_6566_25474" style="mask-type:alpha" maskUnits="userSpaceOnUse" x="0" y="0" width="24" height="24">
<rect width="24" height="24" fill="#D9D9D9"/>
</mask>
<g mask="url(#mask0_6566_25474)">
<path d="M7.15382 22.0087C6.66794 22.0087 6.25481 21.838 5.91442 21.4967C5.57404 21.1553 5.40385 20.7409 5.40385 20.2536C5.40385 19.7663 5.57404 19.3519 5.91442 19.0106C6.25481 18.6692 6.66794 18.4985 7.15382 18.4985C7.63972 18.4985 8.05287 18.6692 8.39325 19.0106C8.73363 19.3519 8.90382 19.7663 8.90382 20.2536C8.90382 20.7409 8.73363 21.1553 8.39325 21.4967C8.05287 21.838 7.63972 22.0087 7.15382 22.0087ZM16.8461 22.0087C16.3602 22.0087 15.9471 21.838 15.6067 21.4967C15.2663 21.1553 15.0961 20.7409 15.0961 20.2536C15.0961 19.7663 15.2663 19.3519 15.6067 19.0106C15.9471 18.6692 16.3602 18.4985 16.8461 18.4985C17.332 18.4985 17.7451 18.6692 18.0855 19.0106C18.4259 19.3519 18.5961 19.7663 18.5961 20.2536C18.5961 20.7409 18.4259 21.1553 18.0855 21.4967C17.7451 21.838 17.332 22.0087 16.8461 22.0087ZM6.01535 6.15473L8.54997 11.478H15.3673C15.425 11.478 15.4763 11.4635 15.5211 11.4346C15.566 11.4057 15.6045 11.3655 15.6365 11.314L18.3192 6.42477C18.3577 6.35405 18.3609 6.29136 18.3288 6.23672C18.2968 6.18206 18.2423 6.15473 18.1653 6.15473H6.01535ZM5.29613 4.65039H19.1807C19.5897 4.65039 19.899 4.82493 20.1086 5.17402C20.3182 5.52312 20.3281 5.87961 20.1384 6.24349L16.9346 12.0643C16.7705 12.3536 16.5535 12.5789 16.2836 12.7403C16.0137 12.9017 15.7179 12.9823 15.3961 12.9823H8.09998L6.94227 15.1039C6.89099 15.1811 6.88939 15.2647 6.93747 15.3547C6.98556 15.4447 7.05767 15.4897 7.15382 15.4897H18.5961V16.9941H7.15382C6.48717 16.9941 5.98622 16.7057 5.65095 16.1291C5.3157 15.5524 5.30384 14.9767 5.61538 14.4019L7.04233 11.829L3.40385 4.14887H1.5V2.64453H4.34612L5.29613 4.65039Z" fill="#1C1B1F"/>
</g>
</svg>
