<svg width="25" height="26" viewBox="0 0 25 26" fill="none" xmlns="http://www.w3.org/2000/svg">
<path d="M12.5 3.01074C18.0078 3.01074 22.5 7.50293 22.5 13.0107C22.5 18.5576 18.0078 23.0107 12.5 23.0107C6.95312 23.0107 2.5 18.5576 2.5 13.0107C2.5 7.50293 6.95312 3.01074 12.5 3.01074ZM17.4219 12.6592C17.5391 12.4248 17.4609 12.1514 17.3047 11.9561L12.9297 7.58105C12.6953 7.34668 12.2656 7.34668 12.0312 7.58105L7.65625 11.9561C7.5 12.1514 7.42188 12.4248 7.53906 12.6592C7.61719 12.8936 7.85156 13.0107 8.125 13.0107H10.625V16.7607C10.625 17.4639 11.1719 18.0107 11.875 18.0107H13.125C13.7891 18.0107 14.375 17.4639 14.375 16.7607V13.0107H16.875C17.1094 13.0107 17.3438 12.8936 17.4219 12.6592Z" fill="#45454A"/>
</svg>
