<svg width="30" height="31" viewBox="0 0 30 31" fill="none" xmlns="http://www.w3.org/2000/svg">
<path d="M15 9.62012C17.9531 9.62012 20.3906 12.0576 20.3906 15.0107C20.3906 18.0107 17.9531 20.4014 15 20.4014C12 20.4014 9.60938 18.0107 9.60938 15.0107C9.60938 12.0576 12 9.62012 15 9.62012ZM15 18.5264C16.9219 18.5264 18.4688 16.9795 18.4688 15.0107C18.4688 13.0889 16.9219 11.542 15 11.542C13.0312 11.542 11.4844 13.0889 11.4844 15.0107C11.4844 16.9795 13.0781 18.5264 15 18.5264ZM21.8438 9.43262C21.8438 8.72949 21.2812 8.16699 20.5781 8.16699C19.875 8.16699 19.3125 8.72949 19.3125 9.43262C19.3125 10.1357 19.875 10.6982 20.5781 10.6982C21.2812 10.6982 21.8438 10.1357 21.8438 9.43262ZM25.4062 10.6982C25.5 12.4326 25.5 17.6357 25.4062 19.3701C25.3125 21.0576 24.9375 22.5107 23.7188 23.7764C22.5 24.9951 21 25.3701 19.3125 25.4639C17.5781 25.5576 12.375 25.5576 10.6406 25.4639C8.95312 25.3701 7.5 24.9951 6.23438 23.7764C5.01562 22.5107 4.64062 21.0576 4.54688 19.3701C4.45312 17.6357 4.45312 12.4326 4.54688 10.6982C4.64062 9.01074 5.01562 7.51074 6.23438 6.29199C7.5 5.07324 8.95312 4.69824 10.6406 4.60449C12.375 4.51074 17.5781 4.51074 19.3125 4.60449C21 4.69824 22.5 5.07324 23.7188 6.29199C24.9375 7.51074 25.3125 9.01074 25.4062 10.6982ZM23.1562 21.1982C23.7188 19.8389 23.5781 16.5576 23.5781 15.0107C23.5781 13.5107 23.7188 10.2295 23.1562 8.82324C22.7812 7.93262 22.0781 7.18262 21.1875 6.85449C19.7812 6.29199 16.5 6.43262 15 6.43262C13.4531 6.43262 10.1719 6.29199 8.8125 6.85449C7.875 7.22949 7.17188 7.93262 6.79688 8.82324C6.23438 10.2295 6.375 13.5107 6.375 15.0107C6.375 16.5576 6.23438 19.8389 6.79688 21.1982C7.17188 22.1357 7.875 22.8389 8.8125 23.2139C10.1719 23.7764 13.4531 23.6357 15 23.6357C16.5 23.6357 19.7812 23.7764 21.1875 23.2139C22.0781 22.8389 22.8281 22.1357 23.1562 21.1982Z" fill="#45454A"/>
</svg>
