<svg width="30" height="31" viewBox="0 0 30 31" fill="none" xmlns="http://www.w3.org/2000/svg">
<path d="M9.1875 24.0107H4.82812V9.99512H9.1875V24.0107ZM6.98438 8.12012C5.625 8.12012 4.5 6.94824 4.5 5.54199C4.5 3.62012 6.5625 2.40137 8.25 3.38574C9.04688 3.80762 9.51562 4.65137 9.51562 5.54199C9.51562 6.94824 8.39062 8.12012 6.98438 8.12012ZM25.4531 24.0107H21.1406V17.2139C21.1406 15.5732 21.0938 13.5107 18.8438 13.5107C16.5938 13.5107 16.2656 15.2451 16.2656 17.0732V24.0107H11.9062V9.99512H16.0781V11.917H16.125C16.7344 10.8389 18.1406 9.66699 20.25 9.66699C24.6562 9.66699 25.5 12.5732 25.5 16.3232V24.0107H25.4531Z" fill="#45454A"/>
</svg>
