<svg width="25" height="26" viewBox="0 0 25 26" fill="none" xmlns="http://www.w3.org/2000/svg">
<path d="M22.4609 17.6279L21.5234 21.5732C21.4062 22.1592 20.9375 22.5498 20.3516 22.5498C10.5078 22.5107 2.5 14.5029 2.5 4.65918C2.5 4.07324 2.85156 3.60449 3.4375 3.4873L7.38281 2.5498C7.92969 2.43262 8.51562 2.74512 8.75 3.25293L10.5859 7.51074C10.7812 8.01855 10.6641 8.60449 10.2344 8.91699L8.125 10.6357C9.45312 13.3311 11.6406 15.5186 14.375 16.8467L16.0938 14.7373C16.4062 14.3467 16.9922 14.1904 17.5 14.3857L21.7578 16.2217C22.2656 16.4951 22.5781 17.0811 22.4609 17.6279Z" fill="#45454A"/>
</svg>
