<svg width="30" height="31" viewBox="0 0 30 31" fill="none" xmlns="http://www.w3.org/2000/svg">
<path d="M26.625 15.0107C26.625 21.4326 21.4219 26.6357 15 26.6357C13.7812 26.6357 12.6094 26.4951 11.5312 26.1201C12 25.3701 12.7031 24.1045 12.9844 23.0732C13.125 22.5576 13.6875 20.3076 13.6875 20.3076C14.0625 21.0576 15.1875 21.667 16.3594 21.667C19.875 21.667 22.4062 18.4326 22.4062 14.4482C22.4062 10.6045 19.2656 7.69824 15.2344 7.69824C10.2188 7.69824 7.54688 11.0732 7.54688 14.7295C7.54688 16.4639 8.4375 18.5732 9.89062 19.2764C10.125 19.3701 10.2656 19.3232 10.3125 19.0889C10.3125 18.9482 10.5469 18.1514 10.6406 17.7764C10.6406 17.6826 10.6406 17.542 10.5469 17.4482C10.0781 16.8857 9.70312 15.8076 9.70312 14.7764C9.70312 12.2451 11.625 9.76074 14.9531 9.76074C17.7656 9.76074 19.7812 11.6826 19.7812 14.4951C19.7812 17.6357 18.1875 19.792 16.125 19.792C15 19.792 14.1562 18.8545 14.3906 17.7295C14.7188 16.3232 15.375 14.8232 15.375 13.8389C15.375 12.9482 14.9062 12.1982 13.9219 12.1982C12.75 12.1982 11.8125 13.417 11.8125 15.0107C11.8125 16.042 12.1406 16.7451 12.1406 16.7451C12.1406 16.7451 11.0156 21.6201 10.7812 22.5107C10.5469 23.542 10.6406 24.9482 10.7344 25.8389C6.42188 24.1514 3.375 19.9795 3.375 15.0107C3.375 8.58887 8.57812 3.38574 15 3.38574C21.4219 3.38574 26.625 8.58887 26.625 15.0107Z" fill="#45454A"/>
</svg>
