<svg width="30" height="31" viewBox="0 0 30 31" fill="none" xmlns="http://www.w3.org/2000/svg">
<path d="M24.5156 10.1357C24.5156 10.3701 24.5156 10.5576 24.5156 10.792C24.5156 17.3076 19.5938 24.7607 10.5469 24.7607C7.73438 24.7607 5.15625 23.9639 3 22.5576C3.375 22.6045 3.75 22.6514 4.17188 22.6514C6.46875 22.6514 8.57812 21.8545 10.2656 20.542C8.10938 20.4951 6.28125 19.0889 5.67188 17.1201C6 17.167 6.28125 17.2139 6.60938 17.2139C7.03125 17.2139 7.5 17.1201 7.875 17.0264C5.625 16.5576 3.9375 14.5889 3.9375 12.1982V12.1514C4.59375 12.5264 5.39062 12.7139 6.1875 12.7607C4.82812 11.8701 3.98438 10.3701 3.98438 8.68262C3.98438 7.74512 4.21875 6.90137 4.64062 6.19824C7.07812 9.15137 10.7344 11.1201 14.8125 11.3545C14.7188 10.9795 14.6719 10.6045 14.6719 10.2295C14.6719 7.51074 16.875 5.30762 19.5938 5.30762C21 5.30762 22.2656 5.87012 23.2031 6.85449C24.2812 6.62012 25.3594 6.19824 26.2969 5.63574C25.9219 6.80762 25.1719 7.74512 24.1406 8.35449C25.125 8.26074 26.1094 7.97949 26.9531 7.60449C26.2969 8.58887 25.4531 9.43262 24.5156 10.1357Z" fill="#45454A"/>
</svg>
