<svg width="30" height="31" viewBox="0 0 30 31" fill="none" xmlns="http://www.w3.org/2000/svg">
<path d="M27.2344 8.87012C27.7969 10.8389 27.7969 15.0576 27.7969 15.0576C27.7969 15.0576 27.7969 19.2295 27.2344 21.2451C26.9531 22.3701 26.0625 23.2139 24.9844 23.4951C22.9688 24.0107 15 24.0107 15 24.0107C15 24.0107 6.98438 24.0107 4.96875 23.4951C3.89062 23.2139 3 22.3701 2.71875 21.2451C2.15625 19.2295 2.15625 15.0576 2.15625 15.0576C2.15625 15.0576 2.15625 10.8389 2.71875 8.87012C3 7.74512 3.89062 6.85449 4.96875 6.57324C6.98438 6.01074 15 6.01074 15 6.01074C15 6.01074 22.9688 6.01074 24.9844 6.57324C26.0625 6.85449 26.9531 7.74512 27.2344 8.87012ZM12.375 18.8545L19.0312 15.0576L12.375 11.2607V18.8545Z" fill="#45454A"/>
</svg>
