<svg width="360" height="449" viewBox="0 0 360 449" fill="none" xmlns="http://www.w3.org/2000/svg">
<rect x="16" y="0.0107422" width="328" height="448" rx="4" fill="#324587"/>
<path d="M59.875 40.7607L70.1875 49.1982C71.0625 49.8857 71.1875 51.1357 70.5 52.0107L69.9375 52.7607C69.1875 53.6357 67.9375 53.7607 67.125 53.0732L66.75 52.7607L64.8125 55.1982C64 56.1982 62.5 56.3232 61.5 55.5107L60.375 54.5732C59 56.2607 56.5 56.5107 54.75 55.1357L49.125 50.0107H46V36.0732L48 36.0107C50.5 33.5107 53.9375 32.0732 57.5 32.0107L60.4375 32.5732L53.5625 38.2607C52.25 39.3232 52.125 41.1982 53.1875 42.5107C53.75 43.1982 54.625 43.5732 55.5 43.5732C56.125 43.5732 56.8125 43.3232 57.4375 42.8232L59.875 40.7607ZM74 36.0732H80V52.0107L75.9375 52.0732C74.875 52.0732 74 51.1357 74 50.0107V36.0732ZM77 50.0107C77.5 50.0107 78 49.5732 78 49.0732C78 48.5107 77.5 48.0732 77 48.0732C76.4375 48.0732 76 48.5107 76 49.0732C76 49.5732 76.4375 50.0107 77 50.0107Z" fill="white"/>
<path opacity="0.4" d="M70 36.0732H74V50.0107H70.75C70.6875 49.6982 70.5 49.4482 70.1875 49.1982L59.875 40.7607L57.4375 42.8232C56.875 43.3232 56.1875 43.5732 55.5 43.5732C54.625 43.5732 53.75 43.1982 53.1875 42.5107C52.125 41.1982 52.25 39.3232 53.5625 38.2607L60.4375 32.5732C61.0625 32.0107 61.625 32.0732 62.3125 32.0732C65.9375 32.0732 67.4375 33.5107 70 36.0732ZM40 52.0107V36.0732H46V50.0107C46 51.1357 45.0625 52.0107 44 52.0107H40ZM43 48.0732C42.4375 48.0732 42 48.5107 42 49.0732C42 49.5732 42.4375 50.0732 43 50.0732C43.5 50.0732 44 49.5732 44 49.0732C44 48.5107 43.5 48.0732 43 48.0732Z" fill="white"/>
<path d="M41.08 103.171V96.8107H52.16V126.011H45.04V103.171H41.08ZM56.0391 111.011C56.0391 106.424 56.9191 102.811 58.6791 100.171C60.4657 97.5307 63.3324 96.2107 67.2791 96.2107C71.2257 96.2107 74.0791 97.5307 75.8391 100.171C77.6257 102.811 78.5191 106.424 78.5191 111.011C78.5191 115.651 77.6257 119.291 75.8391 121.931C74.0791 124.571 71.2257 125.891 67.2791 125.891C63.3324 125.891 60.4657 124.571 58.6791 121.931C56.9191 119.291 56.0391 115.651 56.0391 111.011ZM71.7991 111.011C71.7991 108.317 71.5057 106.251 70.9191 104.811C70.3324 103.344 69.1191 102.611 67.2791 102.611C65.4391 102.611 64.2257 103.344 63.6391 104.811C63.0524 106.251 62.7591 108.317 62.7591 111.011C62.7591 112.824 62.8657 114.331 63.0791 115.531C63.2924 116.704 63.7191 117.664 64.3591 118.411C65.0257 119.131 65.9991 119.491 67.2791 119.491C68.5591 119.491 69.5191 119.131 70.1591 118.411C70.8257 117.664 71.2657 116.704 71.4791 115.531C71.6924 114.331 71.7991 112.824 71.7991 111.011ZM81.3328 111.011C81.3328 106.424 82.2128 102.811 83.9728 100.171C85.7595 97.5307 88.6261 96.2107 92.5728 96.2107C96.5195 96.2107 99.3728 97.5307 101.133 100.171C102.919 102.811 103.813 106.424 103.813 111.011C103.813 115.651 102.919 119.291 101.133 121.931C99.3728 124.571 96.5195 125.891 92.5728 125.891C88.6261 125.891 85.7595 124.571 83.9728 121.931C82.2128 119.291 81.3328 115.651 81.3328 111.011ZM97.0928 111.011C97.0928 108.317 96.7995 106.251 96.2128 104.811C95.6261 103.344 94.4128 102.611 92.5728 102.611C90.7328 102.611 89.5195 103.344 88.9328 104.811C88.3461 106.251 88.0528 108.317 88.0528 111.011C88.0528 112.824 88.1595 114.331 88.3728 115.531C88.5861 116.704 89.0128 117.664 89.6528 118.411C90.3195 119.131 91.2928 119.491 92.5728 119.491C93.8528 119.491 94.8128 119.131 95.4528 118.411C96.1195 117.664 96.5595 116.704 96.7728 115.531C96.9861 114.331 97.0928 112.824 97.0928 111.011ZM123.587 126.011L114.147 113.611V126.011H107.307V97.9307H114.147V110.251L123.507 97.9307H131.547L120.667 111.691L131.947 126.011H123.587ZM154.677 115.091H147.717V122.211H141.237V115.091H134.277V108.971H141.237V101.811H147.717V108.971H154.677V115.091Z" fill="white"/>
<path d="M171.08 103.171V96.8107H182.16V126.011H175.04V103.171H171.08ZM186.039 111.011C186.039 106.424 186.919 102.811 188.679 100.171C190.466 97.5307 193.332 96.2107 197.279 96.2107C201.226 96.2107 204.079 97.5307 205.839 100.171C207.626 102.811 208.519 106.424 208.519 111.011C208.519 115.651 207.626 119.291 205.839 121.931C204.079 124.571 201.226 125.891 197.279 125.891C193.332 125.891 190.466 124.571 188.679 121.931C186.919 119.291 186.039 115.651 186.039 111.011ZM201.799 111.011C201.799 108.317 201.506 106.251 200.919 104.811C200.332 103.344 199.119 102.611 197.279 102.611C195.439 102.611 194.226 103.344 193.639 104.811C193.052 106.251 192.759 108.317 192.759 111.011C192.759 112.824 192.866 114.331 193.079 115.531C193.292 116.704 193.719 117.664 194.359 118.411C195.026 119.131 195.999 119.491 197.279 119.491C198.559 119.491 199.519 119.131 200.159 118.411C200.826 117.664 201.266 116.704 201.479 115.531C201.692 114.331 201.799 112.824 201.799 111.011ZM211.333 111.011C211.333 106.424 212.213 102.811 213.973 100.171C215.759 97.5307 218.626 96.2107 222.573 96.2107C226.519 96.2107 229.373 97.5307 231.133 100.171C232.919 102.811 233.813 106.424 233.813 111.011C233.813 115.651 232.919 119.291 231.133 121.931C229.373 124.571 226.519 125.891 222.573 125.891C218.626 125.891 215.759 124.571 213.973 121.931C212.213 119.291 211.333 115.651 211.333 111.011ZM227.093 111.011C227.093 108.317 226.799 106.251 226.213 104.811C225.626 103.344 224.413 102.611 222.573 102.611C220.733 102.611 219.519 103.344 218.933 104.811C218.346 106.251 218.053 108.317 218.053 111.011C218.053 112.824 218.159 114.331 218.373 115.531C218.586 116.704 219.013 117.664 219.653 118.411C220.319 119.131 221.293 119.491 222.573 119.491C223.853 119.491 224.813 119.131 225.453 118.411C226.119 117.664 226.559 116.704 226.773 115.531C226.986 114.331 227.093 112.824 227.093 111.011ZM253.587 126.011L244.147 113.611V126.011H237.307V97.9307H244.147V110.251L253.507 97.9307H261.547L250.667 111.691L261.947 126.011H253.587ZM284.677 115.091H277.717V122.211H271.237V115.091H264.277V108.971H271.237V101.811H277.717V108.971H284.677V115.091Z" fill="white" fill-opacity="0.04"/>
<path d="M301.08 103.171V96.8107H312.16V126.011H305.04V103.171H301.08ZM316.039 111.011C316.039 106.424 316.919 102.811 318.679 100.171C320.466 97.5307 323.332 96.2107 327.279 96.2107C331.226 96.2107 334.079 97.5307 335.839 100.171C337.626 102.811 338.519 106.424 338.519 111.011C338.519 115.651 337.626 119.291 335.839 121.931C334.079 124.571 331.226 125.891 327.279 125.891C323.332 125.891 320.466 124.571 318.679 121.931C316.919 119.291 316.039 115.651 316.039 111.011ZM331.799 111.011C331.799 108.317 331.506 106.251 330.919 104.811C330.332 103.344 329.119 102.611 327.279 102.611C325.439 102.611 324.226 103.344 323.639 104.811C323.052 106.251 322.759 108.317 322.759 111.011C322.759 112.824 322.866 114.331 323.079 115.531C323.292 116.704 323.719 117.664 324.359 118.411C325.026 119.131 325.999 119.491 327.279 119.491C328.559 119.491 329.519 119.131 330.159 118.411C330.826 117.664 331.266 116.704 331.479 115.531C331.692 114.331 331.799 112.824 331.799 111.011ZM341.333 111.011C341.333 106.424 342.213 102.811 343.973 100.171C345.759 97.5307 348.626 96.2107 352.573 96.2107C356.519 96.2107 359.373 97.5307 361.133 100.171C362.919 102.811 363.813 106.424 363.813 111.011C363.813 115.651 362.919 119.291 361.133 121.931C359.373 124.571 356.519 125.891 352.573 125.891C348.626 125.891 345.759 124.571 343.973 121.931C342.213 119.291 341.333 115.651 341.333 111.011ZM357.093 111.011C357.093 108.317 356.799 106.251 356.213 104.811C355.626 103.344 354.413 102.611 352.573 102.611C350.733 102.611 349.519 103.344 348.933 104.811C348.346 106.251 348.053 108.317 348.053 111.011C348.053 112.824 348.159 114.331 348.373 115.531C348.586 116.704 349.013 117.664 349.653 118.411C350.319 119.131 351.293 119.491 352.573 119.491C353.853 119.491 354.813 119.131 355.453 118.411C356.119 117.664 356.559 116.704 356.773 115.531C356.986 114.331 357.093 112.824 357.093 111.011ZM383.587 126.011L374.147 113.611V126.011H367.307V97.9307H374.147V110.251L383.507 97.9307H391.547L380.667 111.691L391.947 126.011H383.587Z" fill="white" fill-opacity="0.04"/>
<path d="M-63.92 103.171V96.8107H-52.84V126.011H-59.96V103.171H-63.92ZM-48.9609 111.011C-48.9609 106.424 -48.0809 102.811 -46.3209 100.171C-44.5343 97.5307 -41.6676 96.2107 -37.7209 96.2107C-33.7743 96.2107 -30.9209 97.5307 -29.1609 100.171C-27.3743 102.811 -26.4809 106.424 -26.4809 111.011C-26.4809 115.651 -27.3743 119.291 -29.1609 121.931C-30.9209 124.571 -33.7743 125.891 -37.7209 125.891C-41.6676 125.891 -44.5343 124.571 -46.3209 121.931C-48.0809 119.291 -48.9609 115.651 -48.9609 111.011ZM-33.2009 111.011C-33.2009 108.317 -33.4943 106.251 -34.0809 104.811C-34.6676 103.344 -35.8809 102.611 -37.7209 102.611C-39.5609 102.611 -40.7743 103.344 -41.3609 104.811C-41.9476 106.251 -42.2409 108.317 -42.2409 111.011C-42.2409 112.824 -42.1343 114.331 -41.9209 115.531C-41.7076 116.704 -41.2809 117.664 -40.6409 118.411C-39.9743 119.131 -39.0009 119.491 -37.7209 119.491C-36.4409 119.491 -35.4809 119.131 -34.8409 118.411C-34.1743 117.664 -33.7343 116.704 -33.5209 115.531C-33.3076 114.331 -33.2009 112.824 -33.2009 111.011ZM-23.6672 111.011C-23.6672 106.424 -22.7872 102.811 -21.0272 100.171C-19.2405 97.5307 -16.3739 96.2107 -12.4272 96.2107C-8.48052 96.2107 -5.62718 97.5307 -3.86719 100.171C-2.08052 102.811 -1.18718 106.424 -1.18718 111.011C-1.18718 115.651 -2.08052 119.291 -3.86719 121.931C-5.62718 124.571 -8.48052 125.891 -12.4272 125.891C-16.3739 125.891 -19.2405 124.571 -21.0272 121.931C-22.7872 119.291 -23.6672 115.651 -23.6672 111.011ZM-7.90719 111.011C-7.90719 108.317 -8.20052 106.251 -8.78718 104.811C-9.37385 103.344 -10.5872 102.611 -12.4272 102.611C-14.2672 102.611 -15.4805 103.344 -16.0672 104.811C-16.6539 106.251 -16.9472 108.317 -16.9472 111.011C-16.9472 112.824 -16.8405 114.331 -16.6272 115.531C-16.4139 116.704 -15.9872 117.664 -15.3472 118.411C-14.6805 119.131 -13.7072 119.491 -12.4272 119.491C-11.1472 119.491 -10.1872 119.131 -9.54718 118.411C-8.88052 117.664 -8.44052 116.704 -8.22719 115.531C-8.01385 114.331 -7.90719 112.824 -7.90719 111.011ZM18.5866 126.011L9.14656 113.611V126.011H2.30656V97.9307H9.14656V110.251L18.5066 97.9307H26.5466L15.6666 111.691L26.9466 126.011H18.5866Z" fill="white" fill-opacity="0.04"/>
<path d="M55.68 150.891L52.384 162.011H50.32L47.984 153.595L45.504 162.011L43.456 162.027L40.304 150.891H42.24L44.544 159.947L47.04 150.891H49.088L51.408 159.899L53.728 150.891H55.68ZM64.9444 157.387C64.9444 157.717 64.923 158.016 64.8804 158.283H58.1444C58.1977 158.987 58.459 159.552 58.9284 159.979C59.3977 160.405 59.9737 160.619 60.6564 160.619C61.6377 160.619 62.331 160.208 62.7364 159.387H64.7044C64.4377 160.197 63.9524 160.864 63.2484 161.387C62.555 161.899 61.691 162.155 60.6564 162.155C59.8137 162.155 59.0564 161.968 58.3844 161.595C57.723 161.211 57.2004 160.677 56.8164 159.995C56.443 159.301 56.2564 158.501 56.2564 157.595C56.2564 156.688 56.4377 155.893 56.8004 155.211C57.1737 154.517 57.691 153.984 58.3524 153.611C59.0244 153.237 59.7924 153.051 60.6564 153.051C61.4884 153.051 62.2297 153.232 62.8804 153.595C63.531 153.957 64.0377 154.469 64.4004 155.131C64.763 155.781 64.9444 156.533 64.9444 157.387ZM63.0404 156.811C63.0297 156.139 62.7897 155.6 62.3204 155.195C61.851 154.789 61.2697 154.587 60.5764 154.587C59.947 154.587 59.4084 154.789 58.9604 155.195C58.5124 155.589 58.2457 156.128 58.1604 156.811H63.0404ZM69.6476 157.563C69.6476 156.677 69.829 155.893 70.1916 155.211C70.565 154.528 71.0663 154 71.6956 153.627C72.3356 153.243 73.0396 153.051 73.8076 153.051C74.501 153.051 75.1036 153.189 75.6156 153.467C76.1383 153.733 76.5543 154.069 76.8636 154.475V153.195H78.7036V162.011H76.8636V160.699C76.5543 161.115 76.133 161.461 75.5996 161.739C75.0663 162.016 74.4583 162.155 73.7756 162.155C73.0183 162.155 72.325 161.963 71.6956 161.579C71.0663 161.184 70.565 160.64 70.1916 159.947C69.829 159.243 69.6476 158.448 69.6476 157.563ZM76.8636 157.595C76.8636 156.987 76.7356 156.459 76.4796 156.011C76.2343 155.563 75.909 155.221 75.5036 154.987C75.0983 154.752 74.661 154.635 74.1916 154.635C73.7223 154.635 73.285 154.752 72.8796 154.987C72.4743 155.211 72.1436 155.547 71.8876 155.995C71.6423 156.432 71.5196 156.955 71.5196 157.563C71.5196 158.171 71.6423 158.704 71.8876 159.163C72.1436 159.621 72.4743 159.973 72.8796 160.219C73.2956 160.453 73.733 160.571 74.1916 160.571C74.661 160.571 75.0983 160.453 75.5036 160.219C75.909 159.984 76.2343 159.643 76.4796 159.195C76.7356 158.736 76.8636 158.203 76.8636 157.595ZM82.6034 154.475C82.87 154.027 83.222 153.68 83.6594 153.435C84.1074 153.179 84.6354 153.051 85.2434 153.051V154.939H84.7794C84.0647 154.939 83.5207 155.12 83.1474 155.483C82.7847 155.845 82.6034 156.475 82.6034 157.371V162.011H80.7794V153.195H82.6034V154.475ZM94.68 157.387C94.68 157.717 94.6587 158.016 94.616 158.283H87.88C87.9333 158.987 88.1947 159.552 88.664 159.979C89.1333 160.405 89.7093 160.619 90.392 160.619C91.3733 160.619 92.0667 160.208 92.472 159.387H94.44C94.1733 160.197 93.688 160.864 92.984 161.387C92.2907 161.899 91.4267 162.155 90.392 162.155C89.5493 162.155 88.792 161.968 88.12 161.595C87.4587 161.211 86.936 160.677 86.552 159.995C86.1787 159.301 85.992 158.501 85.992 157.595C85.992 156.688 86.1733 155.893 86.536 155.211C86.9093 154.517 87.4267 153.984 88.088 153.611C88.76 153.237 89.528 153.051 90.392 153.051C91.224 153.051 91.9653 153.232 92.616 153.595C93.2667 153.957 93.7733 154.469 94.136 155.131C94.4987 155.781 94.68 156.533 94.68 157.387ZM92.776 156.811C92.7653 156.139 92.5253 155.6 92.056 155.195C91.5867 154.789 91.0053 154.587 90.312 154.587C89.6827 154.587 89.144 154.789 88.696 155.195C88.248 155.589 87.9813 156.128 87.896 156.811H92.776ZM102.119 154.683V159.563C102.119 159.893 102.194 160.133 102.343 160.283C102.503 160.421 102.77 160.491 103.143 160.491H104.263V162.011H102.823C102.002 162.011 101.373 161.819 100.935 161.435C100.498 161.051 100.279 160.427 100.279 159.563V154.683H99.2392V153.195H100.279V151.003H102.119V153.195H104.263V154.683H102.119ZM107.448 154.475C107.715 154.027 108.067 153.68 108.504 153.435C108.952 153.179 109.48 153.051 110.088 153.051V154.939H109.624C108.91 154.939 108.366 155.12 107.992 155.483C107.63 155.845 107.448 156.475 107.448 157.371V162.011H105.624V153.195H107.448V154.475ZM119.429 153.195V162.011H117.605V160.971C117.317 161.333 116.938 161.621 116.469 161.835C116.01 162.037 115.52 162.139 114.997 162.139C114.304 162.139 113.68 161.995 113.125 161.707C112.581 161.419 112.149 160.992 111.829 160.427C111.52 159.861 111.365 159.179 111.365 158.379V153.195H113.173V158.107C113.173 158.896 113.37 159.504 113.765 159.931C114.16 160.347 114.698 160.555 115.381 160.555C116.064 160.555 116.602 160.347 116.997 159.931C117.402 159.504 117.605 158.896 117.605 158.107V153.195H119.429ZM124.716 162.155C124.022 162.155 123.398 162.032 122.844 161.787C122.3 161.531 121.868 161.189 121.548 160.763C121.228 160.325 121.057 159.84 121.036 159.307H122.924C122.956 159.68 123.132 159.995 123.452 160.251C123.782 160.496 124.193 160.619 124.684 160.619C125.196 160.619 125.59 160.523 125.868 160.331C126.156 160.128 126.3 159.872 126.3 159.563C126.3 159.232 126.14 158.987 125.82 158.827C125.51 158.667 125.014 158.491 124.332 158.299C123.67 158.117 123.132 157.941 122.716 157.771C122.3 157.6 121.937 157.339 121.628 156.987C121.329 156.635 121.18 156.171 121.18 155.595C121.18 155.125 121.318 154.699 121.596 154.315C121.873 153.92 122.268 153.611 122.78 153.387C123.302 153.163 123.9 153.051 124.572 153.051C125.574 153.051 126.38 153.307 126.988 153.819C127.606 154.32 127.937 155.008 127.98 155.883H126.156C126.124 155.488 125.964 155.173 125.676 154.939C125.388 154.704 124.998 154.587 124.508 154.587C124.028 154.587 123.66 154.677 123.404 154.859C123.148 155.04 123.02 155.28 123.02 155.579C123.02 155.813 123.105 156.011 123.276 156.171C123.446 156.331 123.654 156.459 123.9 156.555C124.145 156.64 124.508 156.752 124.988 156.891C125.628 157.061 126.15 157.237 126.556 157.419C126.972 157.589 127.329 157.845 127.628 158.187C127.926 158.528 128.081 158.981 128.092 159.547C128.092 160.048 127.953 160.496 127.676 160.891C127.398 161.285 127.004 161.595 126.492 161.819C125.99 162.043 125.398 162.155 124.716 162.155ZM131.871 154.683V159.563C131.871 159.893 131.945 160.133 132.095 160.283C132.255 160.421 132.521 160.491 132.895 160.491H134.015V162.011H132.575C131.753 162.011 131.124 161.819 130.687 161.435C130.249 161.051 130.031 160.427 130.031 159.563V154.683H128.991V153.195H130.031V151.003H131.871V153.195H134.015V154.683H131.871ZM143.456 157.387C143.456 157.717 143.434 158.016 143.392 158.283H136.656C136.709 158.987 136.97 159.552 137.44 159.979C137.909 160.405 138.485 160.619 139.168 160.619C140.149 160.619 140.842 160.208 141.248 159.387H143.216C142.949 160.197 142.464 160.864 141.76 161.387C141.066 161.899 140.202 162.155 139.168 162.155C138.325 162.155 137.568 161.968 136.896 161.595C136.234 161.211 135.712 160.677 135.328 159.995C134.954 159.301 134.768 158.501 134.768 157.595C134.768 156.688 134.949 155.893 135.312 155.211C135.685 154.517 136.202 153.984 136.864 153.611C137.536 153.237 138.304 153.051 139.168 153.051C140 153.051 140.741 153.232 141.392 153.595C142.042 153.957 142.549 154.469 142.912 155.131C143.274 155.781 143.456 156.533 143.456 157.387ZM141.552 156.811C141.541 156.139 141.301 155.6 140.832 155.195C140.362 154.789 139.781 154.587 139.088 154.587C138.458 154.587 137.92 154.789 137.472 155.195C137.024 155.589 136.757 156.128 136.672 156.811H141.552ZM144.323 157.563C144.323 156.677 144.504 155.893 144.867 155.211C145.24 154.528 145.741 154 146.371 153.627C147.011 153.243 147.72 153.051 148.499 153.051C149.075 153.051 149.64 153.179 150.195 153.435C150.76 153.68 151.208 154.011 151.539 154.427V150.171H153.379V162.011H151.539V160.683C151.24 161.109 150.824 161.461 150.291 161.739C149.768 162.016 149.165 162.155 148.483 162.155C147.715 162.155 147.011 161.963 146.371 161.579C145.741 161.184 145.24 160.64 144.867 159.947C144.504 159.243 144.323 158.448 144.323 157.563ZM151.539 157.595C151.539 156.987 151.411 156.459 151.155 156.011C150.909 155.563 150.584 155.221 150.179 154.987C149.773 154.752 149.336 154.635 148.867 154.635C148.397 154.635 147.96 154.752 147.555 154.987C147.149 155.211 146.819 155.547 146.563 155.995C146.317 156.432 146.195 156.955 146.195 157.563C146.195 158.171 146.317 158.704 146.563 159.163C146.819 159.621 147.149 159.973 147.555 160.219C147.971 160.453 148.408 160.571 148.867 160.571C149.336 160.571 149.773 160.453 150.179 160.219C150.584 159.984 150.909 159.643 151.155 159.195C151.411 158.736 151.539 158.203 151.539 157.595ZM161.115 154.507C161.424 154.08 161.845 153.733 162.379 153.467C162.923 153.189 163.525 153.051 164.187 153.051C164.965 153.051 165.669 153.237 166.299 153.611C166.928 153.984 167.424 154.517 167.787 155.211C168.149 155.893 168.331 156.677 168.331 157.563C168.331 158.448 168.149 159.243 167.787 159.947C167.424 160.64 166.923 161.184 166.283 161.579C165.653 161.963 164.955 162.155 164.187 162.155C163.504 162.155 162.896 162.021 162.363 161.755C161.84 161.488 161.424 161.147 161.115 160.731V162.011H159.291V150.171H161.115V154.507ZM166.475 157.563C166.475 156.955 166.347 156.432 166.091 155.995C165.845 155.547 165.515 155.211 165.099 154.987C164.693 154.752 164.256 154.635 163.787 154.635C163.328 154.635 162.891 154.752 162.475 154.987C162.069 155.221 161.739 155.563 161.483 156.011C161.237 156.459 161.115 156.987 161.115 157.595C161.115 158.203 161.237 158.736 161.483 159.195C161.739 159.643 162.069 159.984 162.475 160.219C162.891 160.453 163.328 160.571 163.787 160.571C164.256 160.571 164.693 160.453 165.099 160.219C165.515 159.973 165.845 159.621 166.091 159.163C166.347 158.704 166.475 158.171 166.475 157.563ZM177.75 153.195L172.342 166.155H170.454L172.246 161.867L168.774 153.195H170.806L173.286 159.915L175.862 153.195H177.75ZM193.315 153.051C194.008 153.051 194.627 153.195 195.171 153.483C195.726 153.771 196.158 154.197 196.467 154.763C196.787 155.328 196.947 156.011 196.947 156.811V162.011H195.139V157.083C195.139 156.293 194.942 155.691 194.547 155.275C194.152 154.848 193.614 154.635 192.931 154.635C192.248 154.635 191.704 154.848 191.299 155.275C190.904 155.691 190.707 156.293 190.707 157.083V162.011H188.899V157.083C188.899 156.293 188.702 155.691 188.307 155.275C187.912 154.848 187.374 154.635 186.691 154.635C186.008 154.635 185.464 154.848 185.059 155.275C184.664 155.691 184.467 156.293 184.467 157.083V162.011H182.643V153.195H184.467V154.203C184.766 153.84 185.144 153.557 185.603 153.355C186.062 153.152 186.552 153.051 187.075 153.051C187.779 153.051 188.408 153.2 188.963 153.499C189.518 153.797 189.944 154.229 190.243 154.795C190.51 154.261 190.926 153.84 191.491 153.531C192.056 153.211 192.664 153.051 193.315 153.051ZM202.772 162.155C201.94 162.155 201.188 161.968 200.516 161.595C199.844 161.211 199.316 160.677 198.932 159.995C198.548 159.301 198.356 158.501 198.356 157.595C198.356 156.699 198.553 155.904 198.948 155.211C199.343 154.517 199.881 153.984 200.564 153.611C201.247 153.237 202.009 153.051 202.852 153.051C203.695 153.051 204.457 153.237 205.14 153.611C205.823 153.984 206.361 154.517 206.756 155.211C207.151 155.904 207.348 156.699 207.348 157.595C207.348 158.491 207.145 159.285 206.74 159.979C206.335 160.672 205.78 161.211 205.076 161.595C204.383 161.968 203.615 162.155 202.772 162.155ZM202.772 160.571C203.241 160.571 203.679 160.459 204.084 160.235C204.5 160.011 204.836 159.675 205.092 159.227C205.348 158.779 205.476 158.235 205.476 157.595C205.476 156.955 205.353 156.416 205.108 155.979C204.863 155.531 204.537 155.195 204.132 154.971C203.727 154.747 203.289 154.635 202.82 154.635C202.351 154.635 201.913 154.747 201.508 154.971C201.113 155.195 200.799 155.531 200.564 155.979C200.329 156.416 200.212 156.955 200.212 157.595C200.212 158.544 200.452 159.28 200.932 159.803C201.423 160.315 202.036 160.571 202.772 160.571ZM210.655 154.475C210.922 154.027 211.274 153.68 211.711 153.435C212.159 153.179 212.687 153.051 213.295 153.051V154.939H212.831C212.117 154.939 211.573 155.12 211.199 155.483C210.837 155.845 210.655 156.475 210.655 157.371V162.011H208.831V153.195H210.655V154.475ZM222.732 157.387C222.732 157.717 222.711 158.016 222.668 158.283H215.932C215.985 158.987 216.247 159.552 216.716 159.979C217.185 160.405 217.761 160.619 218.444 160.619C219.425 160.619 220.119 160.208 220.524 159.387H222.492C222.225 160.197 221.74 160.864 221.036 161.387C220.343 161.899 219.479 162.155 218.444 162.155C217.601 162.155 216.844 161.968 216.172 161.595C215.511 161.211 214.988 160.677 214.604 159.995C214.231 159.301 214.044 158.501 214.044 157.595C214.044 156.688 214.225 155.893 214.588 155.211C214.961 154.517 215.479 153.984 216.14 153.611C216.812 153.237 217.58 153.051 218.444 153.051C219.276 153.051 220.017 153.232 220.668 153.595C221.319 153.957 221.825 154.469 222.188 155.131C222.551 155.781 222.732 156.533 222.732 157.387ZM220.828 156.811C220.817 156.139 220.577 155.6 220.108 155.195C219.639 154.789 219.057 154.587 218.364 154.587C217.735 154.587 217.196 154.789 216.748 155.195C216.3 155.589 216.033 156.128 215.948 156.811H220.828ZM230.171 154.683V159.563C230.171 159.893 230.246 160.133 230.395 160.283C230.555 160.421 230.822 160.491 231.195 160.491H232.315V162.011H230.875C230.054 162.011 229.424 161.819 228.987 161.435C228.55 161.051 228.331 160.427 228.331 159.563V154.683H227.291V153.195H228.331V151.003H230.171V153.195H232.315V154.683H230.171ZM238.236 153.051C238.908 153.051 239.506 153.195 240.028 153.483C240.562 153.771 240.978 154.197 241.276 154.763C241.586 155.328 241.74 156.011 241.74 156.811V162.011H239.932V157.083C239.932 156.293 239.735 155.691 239.34 155.275C238.946 154.848 238.407 154.635 237.724 154.635C237.042 154.635 236.498 154.848 236.092 155.275C235.698 155.691 235.5 156.293 235.5 157.083V162.011H233.676V150.171H235.5V154.219C235.81 153.845 236.199 153.557 236.668 153.355C237.148 153.152 237.671 153.051 238.236 153.051ZM243.139 157.563C243.139 156.677 243.32 155.893 243.683 155.211C244.056 154.528 244.558 154 245.187 153.627C245.827 153.243 246.531 153.051 247.299 153.051C247.992 153.051 248.595 153.189 249.107 153.467C249.63 153.733 250.046 154.069 250.355 154.475V153.195H252.195V162.011H250.355V160.699C250.046 161.115 249.624 161.461 249.091 161.739C248.558 162.016 247.95 162.155 247.267 162.155C246.51 162.155 245.816 161.963 245.187 161.579C244.558 161.184 244.056 160.64 243.683 159.947C243.32 159.243 243.139 158.448 243.139 157.563ZM250.355 157.595C250.355 156.987 250.227 156.459 249.971 156.011C249.726 155.563 249.4 155.221 248.995 154.987C248.59 154.752 248.152 154.635 247.683 154.635C247.214 154.635 246.776 154.752 246.371 154.987C245.966 155.211 245.635 155.547 245.379 155.995C245.134 156.432 245.011 156.955 245.011 157.563C245.011 158.171 245.134 158.704 245.379 159.163C245.635 159.621 245.966 159.973 246.371 160.219C246.787 160.453 247.224 160.571 247.683 160.571C248.152 160.571 248.59 160.453 248.995 160.219C249.4 159.984 249.726 159.643 249.971 159.195C250.227 158.736 250.355 158.203 250.355 157.595ZM258.719 153.051C259.412 153.051 260.031 153.195 260.575 153.483C261.129 153.771 261.561 154.197 261.871 154.763C262.18 155.328 262.335 156.011 262.335 156.811V162.011H260.527V157.083C260.527 156.293 260.329 155.691 259.935 155.275C259.54 154.848 259.001 154.635 258.319 154.635C257.636 154.635 257.092 154.848 256.687 155.275C256.292 155.691 256.095 156.293 256.095 157.083V162.011H254.271V153.195H256.095V154.203C256.393 153.84 256.772 153.557 257.231 153.355C257.7 153.152 258.196 153.051 258.719 153.051ZM267.697 152.011V150.347H271.025V162.011H269.185V152.011H267.697ZM273.211 156.027C273.211 154.181 273.521 152.741 274.139 151.707C274.769 150.661 275.846 150.139 277.371 150.139C278.897 150.139 279.969 150.661 280.587 151.707C281.217 152.741 281.531 154.181 281.531 156.027C281.531 157.893 281.217 159.355 280.587 160.411C279.969 161.456 278.897 161.979 277.371 161.979C275.846 161.979 274.769 161.456 274.139 160.411C273.521 159.355 273.211 157.893 273.211 156.027ZM279.739 156.027C279.739 155.163 279.681 154.432 279.563 153.835C279.457 153.237 279.233 152.752 278.891 152.379C278.55 151.995 278.043 151.803 277.371 151.803C276.699 151.803 276.193 151.995 275.851 152.379C275.51 152.752 275.281 153.237 275.163 153.835C275.057 154.432 275.003 155.163 275.003 156.027C275.003 156.923 275.057 157.675 275.163 158.283C275.27 158.891 275.494 159.381 275.835 159.755C276.187 160.128 276.699 160.315 277.371 160.315C278.043 160.315 278.55 160.128 278.891 159.755C279.243 159.381 279.473 158.891 279.579 158.283C279.686 157.675 279.739 156.923 279.739 156.027ZM283.141 156.027C283.141 154.181 283.451 152.741 284.069 151.707C284.699 150.661 285.776 150.139 287.301 150.139C288.827 150.139 289.899 150.661 290.517 151.707C291.147 152.741 291.461 154.181 291.461 156.027C291.461 157.893 291.147 159.355 290.517 160.411C289.899 161.456 288.827 161.979 287.301 161.979C285.776 161.979 284.699 161.456 284.069 160.411C283.451 159.355 283.141 157.893 283.141 156.027ZM289.669 156.027C289.669 155.163 289.611 154.432 289.493 153.835C289.387 153.237 289.163 152.752 288.821 152.379C288.48 151.995 287.973 151.803 287.301 151.803C286.629 151.803 286.123 151.995 285.781 152.379C285.44 152.752 285.211 153.237 285.093 153.835C284.987 154.432 284.933 155.163 284.933 156.027C284.933 156.923 284.987 157.675 285.093 158.283C285.2 158.891 285.424 159.381 285.765 159.755C286.117 160.128 286.629 160.315 287.301 160.315C287.973 160.315 288.48 160.128 288.821 159.755C289.173 159.381 289.403 158.891 289.509 158.283C289.616 157.675 289.669 156.923 289.669 156.027ZM299.439 162.011L295.135 157.035V162.011H293.311V150.891H295.135V155.963L299.455 150.891H301.743L296.911 156.459L301.823 162.011H299.439ZM43.024 174.891V186.011H41.2V174.891H43.024ZM49.5468 177.051C50.2401 177.051 50.8588 177.195 51.4028 177.483C51.9574 177.771 52.3894 178.197 52.6988 178.763C53.0081 179.328 53.1628 180.011 53.1628 180.811V186.011H51.3548V181.083C51.3548 180.293 51.1574 179.691 50.7628 179.275C50.3681 178.848 49.8294 178.635 49.1468 178.635C48.4641 178.635 47.9201 178.848 47.5148 179.275C47.1201 179.691 46.9228 180.293 46.9228 181.083V186.011H45.0988V177.195H46.9228V178.203C47.2214 177.84 47.6001 177.557 48.0588 177.355C48.5281 177.152 49.0241 177.051 49.5468 177.051ZM54.5614 181.563C54.5614 180.677 54.7427 179.893 55.1054 179.211C55.4787 178.528 55.98 178 56.6094 177.627C57.2494 177.243 57.9587 177.051 58.7374 177.051C59.3134 177.051 59.8787 177.179 60.4334 177.435C60.9987 177.68 61.4467 178.011 61.7774 178.427V174.171H63.6174V186.011H61.7774V184.683C61.4787 185.109 61.0627 185.461 60.5294 185.739C60.0067 186.016 59.404 186.155 58.7214 186.155C57.9534 186.155 57.2494 185.963 56.6094 185.579C55.98 185.184 55.4787 184.64 55.1054 183.947C54.7427 183.243 54.5614 182.448 54.5614 181.563ZM61.7774 181.595C61.7774 180.987 61.6494 180.459 61.3934 180.011C61.148 179.563 60.8227 179.221 60.4174 178.987C60.012 178.752 59.5747 178.635 59.1054 178.635C58.636 178.635 58.1987 178.752 57.7934 178.987C57.388 179.211 57.0574 179.547 56.8014 179.995C56.556 180.432 56.4334 180.955 56.4334 181.563C56.4334 182.171 56.556 182.704 56.8014 183.163C57.0574 183.621 57.388 183.973 57.7934 184.219C58.2094 184.453 58.6467 184.571 59.1054 184.571C59.5747 184.571 60.012 184.453 60.4174 184.219C60.8227 183.984 61.148 183.643 61.3934 183.195C61.6494 182.736 61.7774 182.203 61.7774 181.595ZM66.6211 176.027C66.2905 176.027 66.0131 175.915 65.7891 175.691C65.5651 175.467 65.4531 175.189 65.4531 174.859C65.4531 174.528 65.5651 174.251 65.7891 174.027C66.0131 173.803 66.2905 173.691 66.6211 173.691C66.9411 173.691 67.2131 173.803 67.4371 174.027C67.6611 174.251 67.7731 174.528 67.7731 174.859C67.7731 175.189 67.6611 175.467 67.4371 175.691C67.2131 175.915 66.9411 176.027 66.6211 176.027ZM67.5171 177.195V186.011H65.6931V177.195H67.5171ZM68.9839 181.563C68.9839 180.677 69.1652 179.893 69.5279 179.211C69.9012 178.528 70.4025 178 71.0319 177.627C71.6719 177.243 72.3759 177.051 73.1439 177.051C73.8372 177.051 74.4399 177.189 74.9519 177.467C75.4745 177.733 75.8905 178.069 76.1999 178.475V177.195H78.0399V186.011H76.1999V184.699C75.8905 185.115 75.4692 185.461 74.9359 185.739C74.4025 186.016 73.7945 186.155 73.1119 186.155C72.3545 186.155 71.6612 185.963 71.0319 185.579C70.4025 185.184 69.9012 184.64 69.5279 183.947C69.1652 183.243 68.9839 182.448 68.9839 181.563ZM76.1999 181.595C76.1999 180.987 76.0719 180.459 75.8159 180.011C75.5705 179.563 75.2452 179.221 74.8399 178.987C74.4345 178.752 73.9972 178.635 73.5279 178.635C73.0585 178.635 72.6212 178.752 72.2159 178.987C71.8105 179.211 71.4799 179.547 71.2239 179.995C70.9785 180.432 70.8559 180.955 70.8559 181.563C70.8559 182.171 70.9785 182.704 71.2239 183.163C71.4799 183.621 71.8105 183.973 72.2159 184.219C72.6319 184.453 73.0692 184.571 73.5279 184.571C73.9972 184.571 74.4345 184.453 74.8399 184.219C75.2452 183.984 75.5705 183.643 75.8159 183.195C76.0719 182.736 76.1999 182.203 76.1999 181.595ZM84.5636 177.051C85.257 177.051 85.8756 177.195 86.4196 177.483C86.9743 177.771 87.4063 178.197 87.7156 178.763C88.025 179.328 88.1796 180.011 88.1796 180.811V186.011H86.3716V181.083C86.3716 180.293 86.1743 179.691 85.7796 179.275C85.385 178.848 84.8463 178.635 84.1636 178.635C83.481 178.635 82.937 178.848 82.5316 179.275C82.137 179.691 81.9396 180.293 81.9396 181.083V186.011H80.1156V177.195H81.9396V178.203C82.2383 177.84 82.617 177.557 83.0756 177.355C83.545 177.152 84.041 177.051 84.5636 177.051ZM93.3863 186.155C92.6929 186.155 92.0689 186.032 91.5143 185.787C90.9703 185.531 90.5383 185.189 90.2183 184.763C89.8983 184.325 89.7276 183.84 89.7063 183.307H91.5943C91.6263 183.68 91.8023 183.995 92.1223 184.251C92.4529 184.496 92.8636 184.619 93.3543 184.619C93.8663 184.619 94.2609 184.523 94.5383 184.331C94.8263 184.128 94.9703 183.872 94.9703 183.563C94.9703 183.232 94.8103 182.987 94.4903 182.827C94.1809 182.667 93.6849 182.491 93.0023 182.299C92.3409 182.117 91.8023 181.941 91.3863 181.771C90.9703 181.6 90.6076 181.339 90.2983 180.987C89.9996 180.635 89.8503 180.171 89.8503 179.595C89.8503 179.125 89.9889 178.699 90.2663 178.315C90.5436 177.92 90.9383 177.611 91.4503 177.387C91.9729 177.163 92.5703 177.051 93.2423 177.051C94.2449 177.051 95.0503 177.307 95.6583 177.819C96.2769 178.32 96.6076 179.008 96.6503 179.883H94.8263C94.7943 179.488 94.6343 179.173 94.3463 178.939C94.0583 178.704 93.6689 178.587 93.1783 178.587C92.6983 178.587 92.3303 178.677 92.0743 178.859C91.8183 179.04 91.6903 179.28 91.6903 179.579C91.6903 179.813 91.7756 180.011 91.9463 180.171C92.1169 180.331 92.3249 180.459 92.5703 180.555C92.8156 180.64 93.1783 180.752 93.6583 180.891C94.2983 181.061 94.8209 181.237 95.2263 181.419C95.6423 181.589 95.9996 181.845 96.2983 182.187C96.5969 182.528 96.7516 182.981 96.7623 183.547C96.7623 184.048 96.6236 184.496 96.3463 184.891C96.0689 185.285 95.6743 185.595 95.1623 185.819C94.6609 186.043 94.0689 186.155 93.3863 186.155Z" fill="white"/>
<path d="M40 224.011H320" stroke="#5F789D" stroke-width="2" stroke-linecap="round"/>
<path d="M44.125 289.323L46.1875 283.698L52.3125 289.823L46.6875 291.886C46.4375 292.011 46.1875 292.011 46 292.011C45.4375 292.011 44.9375 291.823 44.5625 291.448C44 290.823 43.8125 290.073 44.125 289.323ZM47 281.636L48.375 277.886L58.125 287.636L54.375 289.011L47 281.636ZM63.375 282.636C63.875 283.136 64.0625 283.823 63.9375 284.448C63.8125 285.136 63.3125 285.698 62.6875 285.886L60.1875 286.823L49.1875 275.823L50.125 273.323C50.3125 272.698 50.875 272.198 51.5625 272.073C52.1875 271.948 52.875 272.136 53.375 272.636L63.375 282.636Z" fill="white"/>
<path opacity="0.4" d="M68.3125 271.011C67 272.573 65.5625 272.698 64.375 272.823C63.5 272.886 63.0625 272.948 62.5625 273.511C62.25 273.886 61.8125 274.011 61.4375 274.011C61.125 274.011 60.75 273.948 60.5 273.698C59.875 273.136 59.8125 272.198 60.3125 271.573C61.625 270.011 63.125 269.886 64.1875 269.823C65.125 269.698 65.5625 269.698 66.0625 269.073C66.5625 268.511 66.5625 268.073 66.5 267.136C66.375 266.073 66.3125 264.573 67.625 263.073C68.9375 261.511 70.375 261.386 71.5 261.261C72.4375 261.198 72.8125 261.136 73.3125 260.573C73.875 259.948 74.8125 259.886 75.4375 260.386C76.0625 260.948 76.125 261.886 75.625 262.511C74.3125 264.073 72.8125 264.198 71.75 264.261C70.8125 264.386 70.375 264.448 69.875 265.011C69.375 265.573 69.375 266.011 69.4375 266.948C69.5625 268.011 69.625 269.511 68.3125 271.011ZM58.4375 260.011C59.3125 260.011 59.9375 260.698 59.9375 261.511V262.136C59.9375 265.073 58.6875 267.823 56.4375 269.698C56.125 269.948 55.8125 270.011 55.5 270.011C55.0625 270.011 54.625 269.886 54.3125 269.511C53.8125 268.886 53.875 267.948 54.5 267.386C56.0625 266.073 57 264.198 57 262.136V261.511C57 260.698 57.5625 260.011 58.4375 260.011ZM48 260.073C49.0625 260.073 50 260.948 49.9375 262.011C49.9375 263.011 49 263.948 48 263.948C46.9375 263.948 46 263.073 46 262.011C46 260.948 46.875 260.073 48 260.073ZM74.4375 276.011C75.3125 276.011 75.9375 276.698 75.9375 277.511C75.9375 278.386 75.3125 279.011 74.5 279.011H73.875C71.8125 279.011 69.9375 279.948 68.5625 281.511C68.25 281.886 67.8125 282.011 67.4375 282.011C67.125 282.011 66.8125 281.948 66.5 281.698C65.875 281.136 65.8125 280.198 66.3125 279.573C68.1875 277.323 70.9375 276.011 73.8125 276.011H74.4375ZM73.9375 268.011C75.0625 268.011 75.9375 268.948 75.875 270.011C75.875 271.011 75 271.948 73.9375 271.948C72.875 271.948 72 271.073 72 270.011C72 268.948 72.8125 268.011 73.9375 268.011ZM73.9375 286.011C75.0625 286.011 75.9375 286.948 75.875 288.011C75.875 289.011 75 289.948 73.9375 289.948C72.875 289.948 72 289.073 72 288.011C72 286.948 72.8125 286.011 73.9375 286.011Z" fill="white"/>
<path d="M41.08 335.171V328.811H52.16V358.011H45.04V335.171H41.08ZM55.7991 352.531C56.7057 351.811 57.1191 351.477 57.0391 351.531C59.6524 349.371 61.7057 347.597 63.1991 346.211C64.7191 344.824 65.9991 343.371 67.0391 341.851C68.0791 340.331 68.5991 338.851 68.5991 337.411C68.5991 336.317 68.3457 335.464 67.8391 334.851C67.3324 334.237 66.5724 333.931 65.5591 333.931C64.5457 333.931 63.7457 334.317 63.1591 335.091C62.5991 335.837 62.3191 336.904 62.3191 338.291H55.7191C55.7724 336.024 56.2524 334.131 57.1591 332.611C58.0924 331.091 59.3057 329.971 60.7991 329.251C62.3191 328.531 63.9991 328.171 65.8391 328.171C69.0124 328.171 71.3991 328.984 72.9991 330.611C74.6257 332.237 75.4391 334.357 75.4391 336.971C75.4391 339.824 74.4657 342.477 72.5191 344.931C70.5724 347.357 68.0924 349.731 65.0791 352.051H75.8791V357.611H55.7991V352.531ZM95.0506 358.011L85.6106 345.611V358.011H78.7706V329.931H85.6106V342.251L94.9706 329.931H103.011L92.1306 343.691L103.411 358.011H95.0506ZM126.141 347.091H119.181V354.211H112.701V347.091H105.741V340.971H112.701V333.811H119.181V340.971H126.141V347.091Z" fill="white"/>
<path d="M142.08 335.171V328.811H153.16V358.011H146.04V335.171H142.08ZM156.799 352.531C157.706 351.811 158.119 351.477 158.039 351.531C160.652 349.371 162.706 347.597 164.199 346.211C165.719 344.824 166.999 343.371 168.039 341.851C169.079 340.331 169.599 338.851 169.599 337.411C169.599 336.317 169.346 335.464 168.839 334.851C168.332 334.237 167.572 333.931 166.559 333.931C165.546 333.931 164.746 334.317 164.159 335.091C163.599 335.837 163.319 336.904 163.319 338.291H156.719C156.772 336.024 157.252 334.131 158.159 332.611C159.092 331.091 160.306 329.971 161.799 329.251C163.319 328.531 164.999 328.171 166.839 328.171C170.012 328.171 172.399 328.984 173.999 330.611C175.626 332.237 176.439 334.357 176.439 336.971C176.439 339.824 175.466 342.477 173.519 344.931C171.572 347.357 169.092 349.731 166.079 352.051H176.879V357.611H156.799V352.531ZM196.051 358.011L186.611 345.611V358.011H179.771V329.931H186.611V342.251L195.971 329.931H204.011L193.131 343.691L204.411 358.011H196.051ZM227.141 347.091H220.181V354.211H213.701V347.091H206.741V340.971H213.701V333.811H220.181V340.971H227.141V347.091Z" fill="white" fill-opacity="0.04"/>
<path d="M243.08 335.171V328.811H254.16V358.011H247.04V335.171H243.08ZM257.799 352.531C258.706 351.811 259.119 351.477 259.039 351.531C261.652 349.371 263.706 347.597 265.199 346.211C266.719 344.824 267.999 343.371 269.039 341.851C270.079 340.331 270.599 338.851 270.599 337.411C270.599 336.317 270.346 335.464 269.839 334.851C269.332 334.237 268.572 333.931 267.559 333.931C266.546 333.931 265.746 334.317 265.159 335.091C264.599 335.837 264.319 336.904 264.319 338.291H257.719C257.772 336.024 258.252 334.131 259.159 332.611C260.092 331.091 261.306 329.971 262.799 329.251C264.319 328.531 265.999 328.171 267.839 328.171C271.012 328.171 273.399 328.984 274.999 330.611C276.626 332.237 277.439 334.357 277.439 336.971C277.439 339.824 276.466 342.477 274.519 344.931C272.572 347.357 270.092 349.731 267.079 352.051H277.879V357.611H257.799V352.531ZM297.051 358.011L287.611 345.611V358.011H280.771V329.931H287.611V342.251L296.971 329.931H305.011L294.131 343.691L305.411 358.011H297.051ZM328.141 347.091H321.181V354.211H314.701V347.091H307.741V340.971H314.701V333.811H321.181V340.971H328.141V347.091Z" fill="white" fill-opacity="0.04"/>
<path d="M344.08 335.171V328.811H355.16V358.011H348.04V335.171H344.08ZM358.799 352.531C359.706 351.811 360.119 351.477 360.039 351.531C362.652 349.371 364.706 347.597 366.199 346.211C367.719 344.824 368.999 343.371 370.039 341.851C371.079 340.331 371.599 338.851 371.599 337.411C371.599 336.317 371.346 335.464 370.839 334.851C370.332 334.237 369.572 333.931 368.559 333.931C367.546 333.931 366.746 334.317 366.159 335.091C365.599 335.837 365.319 336.904 365.319 338.291H358.719C358.772 336.024 359.252 334.131 360.159 332.611C361.092 331.091 362.306 329.971 363.799 329.251C365.319 328.531 366.999 328.171 368.839 328.171C372.012 328.171 374.399 328.984 375.999 330.611C377.626 332.237 378.439 334.357 378.439 336.971C378.439 339.824 377.466 342.477 375.519 344.931C373.572 347.357 371.092 349.731 368.079 352.051H378.879V357.611H358.799V352.531ZM398.051 358.011L388.611 345.611V358.011H381.771V329.931H388.611V342.251L397.971 329.931H406.011L395.131 343.691L406.411 358.011H398.051Z" fill="white" fill-opacity="0.04"/>
<path d="M-60.92 335.171V328.811H-49.84V358.011H-56.96V335.171H-60.92ZM-46.2009 352.531C-45.2943 351.811 -44.8809 351.477 -44.9609 351.531C-42.3476 349.371 -40.2943 347.597 -38.8009 346.211C-37.2809 344.824 -36.0009 343.371 -34.9609 341.851C-33.9209 340.331 -33.4009 338.851 -33.4009 337.411C-33.4009 336.317 -33.6543 335.464 -34.1609 334.851C-34.6676 334.237 -35.4276 333.931 -36.4409 333.931C-37.4543 333.931 -38.2543 334.317 -38.8409 335.091C-39.4009 335.837 -39.6809 336.904 -39.6809 338.291H-46.2809C-46.2276 336.024 -45.7476 334.131 -44.8409 332.611C-43.9076 331.091 -42.6943 329.971 -41.2009 329.251C-39.6809 328.531 -38.0009 328.171 -36.1609 328.171C-32.9876 328.171 -30.6009 328.984 -29.0009 330.611C-27.3743 332.237 -26.5609 334.357 -26.5609 336.971C-26.5609 339.824 -27.5343 342.477 -29.4809 344.931C-31.4276 347.357 -33.9076 349.731 -36.9209 352.051H-26.1209V357.611H-46.2009V352.531ZM-6.94937 358.011L-16.3894 345.611V358.011H-23.2294V329.931H-16.3894V342.251L-7.02937 329.931H1.01063L-9.86937 343.691L1.41063 358.011H-6.94937Z" fill="white" fill-opacity="0.04"/>
<path d="M47.904 391.739H43.248L42.448 394.011H40.544L44.528 382.875H46.64L50.624 394.011H48.704L47.904 391.739ZM47.392 390.251L45.584 385.083L43.76 390.251H47.392ZM53.8603 382.171V394.011H52.0363V382.171H53.8603ZM66.607 385.051C67.3003 385.051 67.919 385.195 68.463 385.483C69.0177 385.771 69.4497 386.197 69.759 386.763C70.079 387.328 70.239 388.011 70.239 388.811V394.011H68.431V389.083C68.431 388.293 68.2337 387.691 67.839 387.275C67.4443 386.848 66.9057 386.635 66.223 386.635C65.5403 386.635 64.9963 386.848 64.591 387.275C64.1963 387.691 63.999 388.293 63.999 389.083V394.011H62.191V389.083C62.191 388.293 61.9937 387.691 61.599 387.275C61.2043 386.848 60.6657 386.635 59.983 386.635C59.3003 386.635 58.7563 386.848 58.351 387.275C57.9563 387.691 57.759 388.293 57.759 389.083V394.011H55.935V385.195H57.759V386.203C58.0577 385.84 58.4363 385.557 58.895 385.355C59.3537 385.152 59.8443 385.051 60.367 385.051C61.071 385.051 61.7003 385.2 62.255 385.499C62.8097 385.797 63.2363 386.229 63.535 386.795C63.8017 386.261 64.2177 385.84 64.783 385.531C65.3483 385.211 65.9563 385.051 66.607 385.051ZM76.064 394.155C75.232 394.155 74.48 393.968 73.808 393.595C73.136 393.211 72.608 392.677 72.224 391.995C71.84 391.301 71.648 390.501 71.648 389.595C71.648 388.699 71.8453 387.904 72.24 387.211C72.6347 386.517 73.1733 385.984 73.856 385.611C74.5387 385.237 75.3013 385.051 76.144 385.051C76.9867 385.051 77.7493 385.237 78.432 385.611C79.1147 385.984 79.6533 386.517 80.048 387.211C80.4427 387.904 80.64 388.699 80.64 389.595C80.64 390.491 80.4373 391.285 80.032 391.979C79.6267 392.672 79.072 393.211 78.368 393.595C77.6747 393.968 76.9067 394.155 76.064 394.155ZM76.064 392.571C76.5333 392.571 76.9707 392.459 77.376 392.235C77.792 392.011 78.128 391.675 78.384 391.227C78.64 390.779 78.768 390.235 78.768 389.595C78.768 388.955 78.6453 388.416 78.4 387.979C78.1547 387.531 77.8293 387.195 77.424 386.971C77.0187 386.747 76.5813 386.635 76.112 386.635C75.6427 386.635 75.2053 386.747 74.8 386.971C74.4053 387.195 74.0907 387.531 73.856 387.979C73.6213 388.416 73.504 388.955 73.504 389.595C73.504 390.544 73.744 391.28 74.224 391.803C74.7147 392.315 75.328 392.571 76.064 392.571ZM85.3231 394.155C84.6298 394.155 84.0058 394.032 83.4511 393.787C82.9071 393.531 82.4751 393.189 82.1551 392.763C81.8351 392.325 81.6645 391.84 81.6431 391.307H83.5311C83.5631 391.68 83.7391 391.995 84.0591 392.251C84.3898 392.496 84.8005 392.619 85.2911 392.619C85.8031 392.619 86.1978 392.523 86.4751 392.331C86.7631 392.128 86.9071 391.872 86.9071 391.563C86.9071 391.232 86.7471 390.987 86.4271 390.827C86.1178 390.667 85.6218 390.491 84.9391 390.299C84.2778 390.117 83.7391 389.941 83.3231 389.771C82.9071 389.6 82.5445 389.339 82.2351 388.987C81.9365 388.635 81.7871 388.171 81.7871 387.595C81.7871 387.125 81.9258 386.699 82.2031 386.315C82.4805 385.92 82.8751 385.611 83.3871 385.387C83.9098 385.163 84.5071 385.051 85.1791 385.051C86.1818 385.051 86.9871 385.307 87.5951 385.819C88.2138 386.32 88.5445 387.008 88.5871 387.883H86.7631C86.7311 387.488 86.5711 387.173 86.2831 386.939C85.9951 386.704 85.6058 386.587 85.1151 386.587C84.6351 386.587 84.2671 386.677 84.0111 386.859C83.7551 387.04 83.6271 387.28 83.6271 387.579C83.6271 387.813 83.7125 388.011 83.8831 388.171C84.0538 388.331 84.2618 388.459 84.5071 388.555C84.7525 388.64 85.1151 388.752 85.5951 388.891C86.2351 389.061 86.7578 389.237 87.1631 389.419C87.5791 389.589 87.9365 389.845 88.2351 390.187C88.5338 390.528 88.6885 390.981 88.6991 391.547C88.6991 392.048 88.5605 392.496 88.2831 392.891C88.0058 393.285 87.6111 393.595 87.0991 393.819C86.5978 394.043 86.0058 394.155 85.3231 394.155ZM92.478 386.683V391.563C92.478 391.893 92.5527 392.133 92.702 392.283C92.862 392.421 93.1287 392.491 93.502 392.491H94.622V394.011H93.182C92.3607 394.011 91.7313 393.819 91.294 393.435C90.8567 393.051 90.638 392.427 90.638 391.563V386.683H89.598V385.195H90.638V383.003H92.478V385.195H94.622V386.683H92.478ZM103.643 394.155C102.811 394.155 102.059 393.968 101.387 393.595C100.715 393.211 100.187 392.677 99.8034 391.995C99.4194 391.301 99.2274 390.501 99.2274 389.595C99.2274 388.699 99.4247 387.904 99.8194 387.211C100.214 386.517 100.753 385.984 101.435 385.611C102.118 385.237 102.881 385.051 103.723 385.051C104.566 385.051 105.329 385.237 106.011 385.611C106.694 385.984 107.233 386.517 107.627 387.211C108.022 387.904 108.219 388.699 108.219 389.595C108.219 390.491 108.017 391.285 107.611 391.979C107.206 392.672 106.651 393.211 105.947 393.595C105.254 393.968 104.486 394.155 103.643 394.155ZM103.643 392.571C104.113 392.571 104.55 392.459 104.955 392.235C105.371 392.011 105.707 391.675 105.963 391.227C106.219 390.779 106.347 390.235 106.347 389.595C106.347 388.955 106.225 388.416 105.979 387.979C105.734 387.531 105.409 387.195 105.003 386.971C104.598 386.747 104.161 386.635 103.691 386.635C103.222 386.635 102.785 386.747 102.379 386.971C101.985 387.195 101.67 387.531 101.435 387.979C101.201 388.416 101.083 388.955 101.083 389.595C101.083 390.544 101.323 391.28 101.803 391.803C102.294 392.315 102.907 392.571 103.643 392.571ZM113.111 392.379L115.607 385.195H117.543L114.183 394.011H112.007L108.663 385.195H110.615L113.111 392.379ZM126.681 389.387C126.681 389.717 126.66 390.016 126.617 390.283H119.881C119.935 390.987 120.196 391.552 120.665 391.979C121.135 392.405 121.711 392.619 122.393 392.619C123.375 392.619 124.068 392.208 124.473 391.387H126.441C126.175 392.197 125.689 392.864 124.985 393.387C124.292 393.899 123.428 394.155 122.393 394.155C121.551 394.155 120.793 393.968 120.121 393.595C119.46 393.211 118.937 392.677 118.553 391.995C118.18 391.301 117.993 390.501 117.993 389.595C117.993 388.688 118.175 387.893 118.537 387.211C118.911 386.517 119.428 385.984 120.089 385.611C120.761 385.237 121.529 385.051 122.393 385.051C123.225 385.051 123.967 385.232 124.617 385.595C125.268 385.957 125.775 386.469 126.137 387.131C126.5 387.781 126.681 388.533 126.681 389.387ZM124.777 388.811C124.767 388.139 124.527 387.6 124.057 387.195C123.588 386.789 123.007 386.587 122.313 386.587C121.684 386.587 121.145 386.789 120.697 387.195C120.249 387.589 119.983 388.128 119.897 388.811H124.777ZM129.98 386.475C130.247 386.027 130.599 385.68 131.036 385.435C131.484 385.179 132.012 385.051 132.62 385.051V386.939H132.156C131.442 386.939 130.898 387.12 130.524 387.483C130.162 387.845 129.98 388.475 129.98 389.371V394.011H128.156V385.195H129.98V386.475ZM137.333 384.011V382.347H140.661V394.011H138.821V384.011H137.333ZM143.855 391.531C144.879 390.645 145.684 389.92 146.271 389.355C146.868 388.779 147.364 388.181 147.759 387.563C148.154 386.944 148.351 386.325 148.351 385.707C148.351 385.067 148.196 384.565 147.887 384.203C147.588 383.84 147.114 383.659 146.463 383.659C145.834 383.659 145.343 383.861 144.991 384.267C144.65 384.661 144.468 385.195 144.447 385.867H142.687C142.719 384.651 143.082 383.723 143.775 383.083C144.479 382.432 145.37 382.107 146.447 382.107C147.61 382.107 148.516 382.427 149.167 383.067C149.828 383.707 150.159 384.56 150.159 385.627C150.159 386.395 149.962 387.136 149.567 387.851C149.183 388.555 148.719 389.189 148.175 389.755C147.642 390.309 146.959 390.955 146.127 391.691L145.407 392.331H150.479V393.851H142.703V392.523L143.855 391.531ZM158.129 394.011L153.825 389.035V394.011H152.001V382.891H153.825V387.963L158.145 382.891H160.433L155.601 388.459L160.513 394.011H158.129ZM169.338 386.683H167.706V394.011H165.866V386.683H164.826V385.195H165.866V384.571C165.866 383.557 166.133 382.821 166.666 382.363C167.21 381.893 168.058 381.659 169.21 381.659V383.179C168.656 383.179 168.266 383.285 168.042 383.499C167.818 383.701 167.706 384.059 167.706 384.571V385.195H169.338V386.683ZM178.619 385.195V394.011H176.795V392.971C176.507 393.333 176.128 393.621 175.659 393.835C175.2 394.037 174.71 394.139 174.187 394.139C173.494 394.139 172.87 393.995 172.315 393.707C171.771 393.419 171.339 392.992 171.019 392.427C170.71 391.861 170.555 391.179 170.555 390.379V385.195H172.363V390.107C172.363 390.896 172.56 391.504 172.955 391.931C173.35 392.347 173.888 392.555 174.571 392.555C175.254 392.555 175.792 392.347 176.187 391.931C176.592 391.504 176.795 390.896 176.795 390.107V385.195H178.619ZM182.53 386.475C182.796 386.027 183.148 385.68 183.586 385.435C184.034 385.179 184.562 385.051 185.17 385.051V386.939H184.706C183.991 386.939 183.447 387.12 183.074 387.483C182.711 387.845 182.53 388.475 182.53 389.371V394.011H180.706V385.195H182.53V386.475ZM190.974 385.051C191.668 385.051 192.286 385.195 192.83 385.483C193.385 385.771 193.817 386.197 194.126 386.763C194.436 387.328 194.59 388.011 194.59 388.811V394.011H192.782V389.083C192.782 388.293 192.585 387.691 192.19 387.275C191.796 386.848 191.257 386.635 190.574 386.635C189.892 386.635 189.348 386.848 188.942 387.275C188.548 387.691 188.35 388.293 188.35 389.083V394.011H186.526V385.195H188.35V386.203C188.649 385.84 189.028 385.557 189.486 385.355C189.956 385.152 190.452 385.051 190.974 385.051ZM197.525 384.027C197.194 384.027 196.917 383.915 196.693 383.691C196.469 383.467 196.357 383.189 196.357 382.859C196.357 382.528 196.469 382.251 196.693 382.027C196.917 381.803 197.194 381.691 197.525 381.691C197.845 381.691 198.117 381.803 198.341 382.027C198.565 382.251 198.677 382.528 198.677 382.859C198.677 383.189 198.565 383.467 198.341 383.691C198.117 383.915 197.845 384.027 197.525 384.027ZM198.421 385.195V394.011H196.597V385.195H198.421ZM202.624 386.683V391.563C202.624 391.893 202.698 392.133 202.848 392.283C203.008 392.421 203.274 392.491 203.648 392.491H204.768V394.011H203.328C202.506 394.011 201.877 393.819 201.44 393.435C201.002 393.051 200.784 392.427 200.784 391.563V386.683H199.744V385.195H200.784V383.003H202.624V385.195H204.768V386.683H202.624ZM214.113 385.195V394.011H212.289V392.971C212.001 393.333 211.622 393.621 211.153 393.835C210.694 394.037 210.203 394.139 209.681 394.139C208.987 394.139 208.363 393.995 207.809 393.707C207.265 393.419 206.833 392.992 206.513 392.427C206.203 391.861 206.049 391.179 206.049 390.379V385.195H207.857V390.107C207.857 390.896 208.054 391.504 208.449 391.931C208.843 392.347 209.382 392.555 210.065 392.555C210.747 392.555 211.286 392.347 211.681 391.931C212.086 391.504 212.289 390.896 212.289 390.107V385.195H214.113ZM218.023 386.475C218.29 386.027 218.642 385.68 219.079 385.435C219.527 385.179 220.055 385.051 220.663 385.051V386.939H220.199C219.485 386.939 218.941 387.12 218.567 387.483C218.205 387.845 218.023 388.475 218.023 389.371V394.011H216.199V385.195H218.023V386.475ZM230.1 389.387C230.1 389.717 230.079 390.016 230.036 390.283H223.3C223.353 390.987 223.615 391.552 224.084 391.979C224.553 392.405 225.129 392.619 225.812 392.619C226.793 392.619 227.487 392.208 227.892 391.387H229.86C229.593 392.197 229.108 392.864 228.404 393.387C227.711 393.899 226.847 394.155 225.812 394.155C224.969 394.155 224.212 393.968 223.54 393.595C222.879 393.211 222.356 392.677 221.972 391.995C221.599 391.301 221.412 390.501 221.412 389.595C221.412 388.688 221.593 387.893 221.956 387.211C222.329 386.517 222.847 385.984 223.508 385.611C224.18 385.237 224.948 385.051 225.812 385.051C226.644 385.051 227.385 385.232 228.036 385.595C228.687 385.957 229.193 386.469 229.556 387.131C229.919 387.781 230.1 388.533 230.1 389.387ZM228.196 388.811C228.185 388.139 227.945 387.6 227.476 387.195C227.007 386.789 226.425 386.587 225.732 386.587C225.103 386.587 224.564 386.789 224.116 387.195C223.668 387.589 223.401 388.128 223.316 388.811H228.196ZM234.775 394.155C234.082 394.155 233.458 394.032 232.903 393.787C232.359 393.531 231.927 393.189 231.607 392.763C231.287 392.325 231.116 391.84 231.095 391.307H232.983C233.015 391.68 233.191 391.995 233.511 392.251C233.842 392.496 234.252 392.619 234.743 392.619C235.255 392.619 235.65 392.523 235.927 392.331C236.215 392.128 236.359 391.872 236.359 391.563C236.359 391.232 236.199 390.987 235.879 390.827C235.57 390.667 235.074 390.491 234.391 390.299C233.73 390.117 233.191 389.941 232.775 389.771C232.359 389.6 231.996 389.339 231.687 388.987C231.388 388.635 231.239 388.171 231.239 387.595C231.239 387.125 231.378 386.699 231.655 386.315C231.932 385.92 232.327 385.611 232.839 385.387C233.362 385.163 233.959 385.051 234.631 385.051C235.634 385.051 236.439 385.307 237.047 385.819C237.666 386.32 237.996 387.008 238.039 387.883H236.215C236.183 387.488 236.023 387.173 235.735 386.939C235.447 386.704 235.058 386.587 234.567 386.587C234.087 386.587 233.719 386.677 233.463 386.859C233.207 387.04 233.079 387.28 233.079 387.579C233.079 387.813 233.164 388.011 233.335 388.171C233.506 388.331 233.714 388.459 233.959 388.555C234.204 388.64 234.567 388.752 235.047 388.891C235.687 389.061 236.21 389.237 236.615 389.419C237.031 389.589 237.388 389.845 237.687 390.187C237.986 390.528 238.14 390.981 238.151 391.547C238.151 392.048 238.012 392.496 237.735 392.891C237.458 393.285 237.063 393.595 236.551 393.819C236.05 394.043 235.458 394.155 234.775 394.155ZM243.03 389.563C243.03 388.677 243.211 387.893 243.574 387.211C243.947 386.528 244.449 386 245.078 385.627C245.718 385.243 246.422 385.051 247.19 385.051C247.883 385.051 248.486 385.189 248.998 385.467C249.521 385.733 249.937 386.069 250.246 386.475V385.195H252.086V394.011H250.246V392.699C249.937 393.115 249.515 393.461 248.982 393.739C248.449 394.016 247.841 394.155 247.158 394.155C246.401 394.155 245.707 393.963 245.078 393.579C244.449 393.184 243.947 392.64 243.574 391.947C243.211 391.243 243.03 390.448 243.03 389.563ZM250.246 389.595C250.246 388.987 250.118 388.459 249.862 388.011C249.617 387.563 249.291 387.221 248.886 386.987C248.481 386.752 248.043 386.635 247.574 386.635C247.105 386.635 246.667 386.752 246.262 386.987C245.857 387.211 245.526 387.547 245.27 387.995C245.025 388.432 244.902 388.955 244.902 389.563C244.902 390.171 245.025 390.704 245.27 391.163C245.526 391.621 245.857 391.973 246.262 392.219C246.678 392.453 247.115 392.571 247.574 392.571C248.043 392.571 248.481 392.453 248.886 392.219C249.291 391.984 249.617 391.643 249.862 391.195C250.118 390.736 250.246 390.203 250.246 389.595ZM258.61 385.051C259.303 385.051 259.922 385.195 260.466 385.483C261.021 385.771 261.453 386.197 261.762 386.763C262.071 387.328 262.226 388.011 262.226 388.811V394.011H260.418V389.083C260.418 388.293 260.221 387.691 259.826 387.275C259.431 386.848 258.893 386.635 258.21 386.635C257.527 386.635 256.983 386.848 256.578 387.275C256.183 387.691 255.986 388.293 255.986 389.083V394.011H254.162V385.195H255.986V386.203C256.285 385.84 256.663 385.557 257.122 385.355C257.591 385.152 258.087 385.051 258.61 385.051ZM263.625 389.563C263.625 388.677 263.806 387.893 264.169 387.211C264.542 386.528 265.043 386 265.673 385.627C266.313 385.243 267.022 385.051 267.801 385.051C268.377 385.051 268.942 385.179 269.497 385.435C270.062 385.68 270.51 386.011 270.841 386.427V382.171H272.681V394.011H270.841V392.683C270.542 393.109 270.126 393.461 269.593 393.739C269.07 394.016 268.467 394.155 267.785 394.155C267.017 394.155 266.313 393.963 265.673 393.579C265.043 393.184 264.542 392.64 264.169 391.947C263.806 391.243 263.625 390.448 263.625 389.563ZM270.841 389.595C270.841 388.987 270.713 388.459 270.457 388.011C270.211 387.563 269.886 387.221 269.481 386.987C269.075 386.752 268.638 386.635 268.169 386.635C267.699 386.635 267.262 386.752 266.857 386.987C266.451 387.211 266.121 387.547 265.865 387.995C265.619 388.432 265.497 388.955 265.497 389.563C265.497 390.171 265.619 390.704 265.865 391.163C266.121 391.621 266.451 391.973 266.857 392.219C267.273 392.453 267.71 392.571 268.169 392.571C268.638 392.571 269.075 392.453 269.481 392.219C269.886 391.984 270.211 391.643 270.457 391.195C270.713 390.736 270.841 390.203 270.841 389.595ZM40.592 413.563C40.592 412.677 40.7733 411.893 41.136 411.211C41.5093 410.528 42.0107 410 42.64 409.627C43.28 409.243 43.984 409.051 44.752 409.051C45.4453 409.051 46.048 409.189 46.56 409.467C47.0827 409.733 47.4987 410.069 47.808 410.475V409.195H49.648V418.011H47.808V416.699C47.4987 417.115 47.0773 417.461 46.544 417.739C46.0107 418.016 45.4027 418.155 44.72 418.155C43.9627 418.155 43.2693 417.963 42.64 417.579C42.0107 417.184 41.5093 416.64 41.136 415.947C40.7733 415.243 40.592 414.448 40.592 413.563ZM47.808 413.595C47.808 412.987 47.68 412.459 47.424 412.011C47.1787 411.563 46.8533 411.221 46.448 410.987C46.0427 410.752 45.6053 410.635 45.136 410.635C44.6667 410.635 44.2293 410.752 43.824 410.987C43.4187 411.211 43.088 411.547 42.832 411.995C42.5867 412.432 42.464 412.955 42.464 413.563C42.464 414.171 42.5867 414.704 42.832 415.163C43.088 415.621 43.4187 415.973 43.824 416.219C44.24 416.453 44.6773 416.571 45.136 416.571C45.6053 416.571 46.0427 416.453 46.448 416.219C46.8533 415.984 47.1787 415.643 47.424 415.195C47.68 414.736 47.808 414.203 47.808 413.595ZM53.5478 410.491C53.8571 410.085 54.2784 409.744 54.8118 409.467C55.3451 409.189 55.9478 409.051 56.6198 409.051C57.3878 409.051 58.0864 409.243 58.7158 409.627C59.3558 410 59.8571 410.528 60.2198 411.211C60.5824 411.893 60.7638 412.677 60.7638 413.563C60.7638 414.448 60.5824 415.243 60.2198 415.947C59.8571 416.64 59.3558 417.184 58.7158 417.579C58.0864 417.963 57.3878 418.155 56.6198 418.155C55.9478 418.155 55.3504 418.021 54.8278 417.755C54.3051 417.477 53.8784 417.136 53.5478 416.731V422.203H51.7238V409.195H53.5478V410.491ZM58.9078 413.563C58.9078 412.955 58.7798 412.432 58.5238 411.995C58.2784 411.547 57.9478 411.211 57.5318 410.987C57.1264 410.752 56.6891 410.635 56.2198 410.635C55.7611 410.635 55.3238 410.752 54.9078 410.987C54.5024 411.221 54.1718 411.563 53.9158 412.011C53.6704 412.459 53.5478 412.987 53.5478 413.595C53.5478 414.203 53.6704 414.736 53.9158 415.195C54.1718 415.643 54.5024 415.984 54.9078 416.219C55.3238 416.453 55.7611 416.571 56.2198 416.571C56.6891 416.571 57.1264 416.453 57.5318 416.219C57.9478 415.973 58.2784 415.621 58.5238 415.163C58.7798 414.704 58.9078 414.171 58.9078 413.563ZM64.0715 410.491C64.3808 410.085 64.8022 409.744 65.3355 409.467C65.8688 409.189 66.4715 409.051 67.1435 409.051C67.9115 409.051 68.6102 409.243 69.2395 409.627C69.8795 410 70.3808 410.528 70.7435 411.211C71.1062 411.893 71.2875 412.677 71.2875 413.563C71.2875 414.448 71.1062 415.243 70.7435 415.947C70.3808 416.64 69.8795 417.184 69.2395 417.579C68.6102 417.963 67.9115 418.155 67.1435 418.155C66.4715 418.155 65.8742 418.021 65.3515 417.755C64.8288 417.477 64.4022 417.136 64.0715 416.731V422.203H62.2475V409.195H64.0715V410.491ZM69.4315 413.563C69.4315 412.955 69.3035 412.432 69.0475 411.995C68.8022 411.547 68.4715 411.211 68.0555 410.987C67.6502 410.752 67.2128 410.635 66.7435 410.635C66.2848 410.635 65.8475 410.752 65.4315 410.987C65.0262 411.221 64.6955 411.563 64.4395 412.011C64.1942 412.459 64.0715 412.987 64.0715 413.595C64.0715 414.203 64.1942 414.736 64.4395 415.195C64.6955 415.643 65.0262 415.984 65.4315 416.219C65.8475 416.453 66.2848 416.571 66.7435 416.571C67.2128 416.571 67.6502 416.453 68.0555 416.219C68.4715 415.973 68.8022 415.621 69.0475 415.163C69.3035 414.704 69.4315 414.171 69.4315 413.563ZM74.5953 406.171V418.011H72.7713V406.171H74.5953ZM77.598 408.027C77.2673 408.027 76.99 407.915 76.766 407.691C76.542 407.467 76.43 407.189 76.43 406.859C76.43 406.528 76.542 406.251 76.766 406.027C76.99 405.803 77.2673 405.691 77.598 405.691C77.918 405.691 78.19 405.803 78.414 406.027C78.638 406.251 78.75 406.528 78.75 406.859C78.75 407.189 78.638 407.467 78.414 407.691C78.19 407.915 77.918 408.027 77.598 408.027ZM78.494 409.195V418.011H76.67V409.195H78.494ZM79.9608 413.563C79.9608 412.677 80.1421 411.893 80.5048 411.211C80.8781 410.528 81.3794 410 82.0088 409.627C82.6488 409.243 83.3528 409.051 84.1208 409.051C84.8141 409.051 85.4168 409.189 85.9288 409.467C86.4514 409.733 86.8674 410.069 87.1768 410.475V409.195H89.0168V418.011H87.1768V416.699C86.8674 417.115 86.4461 417.461 85.9128 417.739C85.3794 418.016 84.7714 418.155 84.0888 418.155C83.3314 418.155 82.6381 417.963 82.0088 417.579C81.3794 417.184 80.8781 416.64 80.5048 415.947C80.1421 415.243 79.9608 414.448 79.9608 413.563ZM87.1768 413.595C87.1768 412.987 87.0488 412.459 86.7928 412.011C86.5474 411.563 86.2221 411.221 85.8168 410.987C85.4114 410.752 84.9741 410.635 84.5048 410.635C84.0354 410.635 83.5981 410.752 83.1928 410.987C82.7874 411.211 82.4568 411.547 82.2008 411.995C81.9554 412.432 81.8328 412.955 81.8328 413.563C81.8328 414.171 81.9554 414.704 82.2008 415.163C82.4568 415.621 82.7874 415.973 83.1928 416.219C83.6088 416.453 84.0461 416.571 84.5048 416.571C84.9741 416.571 85.4114 416.453 85.8168 416.219C86.2221 415.984 86.5474 415.643 86.7928 415.195C87.0488 414.736 87.1768 414.203 87.1768 413.595ZM95.5405 409.051C96.2338 409.051 96.8525 409.195 97.3965 409.483C97.9512 409.771 98.3832 410.197 98.6925 410.763C99.0018 411.328 99.1565 412.011 99.1565 412.811V418.011H97.3485V413.083C97.3485 412.293 97.1512 411.691 96.7565 411.275C96.3618 410.848 95.8232 410.635 95.1405 410.635C94.4578 410.635 93.9138 410.848 93.5085 411.275C93.1138 411.691 92.9165 412.293 92.9165 413.083V418.011H91.0925V409.195H92.9165V410.203C93.2152 409.84 93.5938 409.557 94.0525 409.355C94.5218 409.152 95.0178 409.051 95.5405 409.051ZM100.555 413.595C100.555 412.688 100.736 411.893 101.099 411.211C101.472 410.517 101.984 409.984 102.635 409.611C103.286 409.237 104.032 409.051 104.875 409.051C105.942 409.051 106.822 409.307 107.515 409.819C108.219 410.32 108.694 411.04 108.939 411.979H106.971C106.811 411.541 106.555 411.2 106.203 410.955C105.851 410.709 105.408 410.587 104.875 410.587C104.128 410.587 103.531 410.853 103.083 411.387C102.646 411.909 102.427 412.645 102.427 413.595C102.427 414.544 102.646 415.285 103.083 415.819C103.531 416.352 104.128 416.619 104.875 416.619C105.931 416.619 106.63 416.155 106.971 415.227H108.939C108.683 416.123 108.203 416.837 107.499 417.371C106.795 417.893 105.92 418.155 104.875 418.155C104.032 418.155 103.286 417.968 102.635 417.595C101.984 417.211 101.472 416.677 101.099 415.995C100.736 415.301 100.555 414.501 100.555 413.595ZM118.517 413.387C118.517 413.717 118.496 414.016 118.453 414.283H111.717C111.77 414.987 112.032 415.552 112.501 415.979C112.97 416.405 113.546 416.619 114.229 416.619C115.21 416.619 115.904 416.208 116.309 415.387H118.277C118.01 416.197 117.525 416.864 116.821 417.387C116.128 417.899 115.264 418.155 114.229 418.155C113.386 418.155 112.629 417.968 111.957 417.595C111.296 417.211 110.773 416.677 110.389 415.995C110.016 415.301 109.829 414.501 109.829 413.595C109.829 412.688 110.01 411.893 110.373 411.211C110.746 410.517 111.264 409.984 111.925 409.611C112.597 409.237 113.365 409.051 114.229 409.051C115.061 409.051 115.802 409.232 116.453 409.595C117.104 409.957 117.61 410.469 117.973 411.131C118.336 411.781 118.517 412.533 118.517 413.387ZM116.613 412.811C116.602 412.139 116.362 411.6 115.893 411.195C115.424 410.789 114.842 410.587 114.149 410.587C113.52 410.587 112.981 410.789 112.533 411.195C112.085 411.589 111.818 412.128 111.733 412.811H116.613ZM123.192 418.155C122.499 418.155 121.875 418.032 121.32 417.787C120.776 417.531 120.344 417.189 120.024 416.763C119.704 416.325 119.533 415.84 119.512 415.307H121.4C121.432 415.68 121.608 415.995 121.928 416.251C122.259 416.496 122.669 416.619 123.16 416.619C123.672 416.619 124.067 416.523 124.344 416.331C124.632 416.128 124.776 415.872 124.776 415.563C124.776 415.232 124.616 414.987 124.296 414.827C123.987 414.667 123.491 414.491 122.808 414.299C122.147 414.117 121.608 413.941 121.192 413.771C120.776 413.6 120.413 413.339 120.104 412.987C119.805 412.635 119.656 412.171 119.656 411.595C119.656 411.125 119.795 410.699 120.072 410.315C120.349 409.92 120.744 409.611 121.256 409.387C121.779 409.163 122.376 409.051 123.048 409.051C124.051 409.051 124.856 409.307 125.464 409.819C126.083 410.32 126.413 411.008 126.456 411.883H124.632C124.6 411.488 124.44 411.173 124.152 410.939C123.864 410.704 123.475 410.587 122.984 410.587C122.504 410.587 122.136 410.677 121.88 410.859C121.624 411.04 121.496 411.28 121.496 411.579C121.496 411.813 121.581 412.011 121.752 412.171C121.923 412.331 122.131 412.459 122.376 412.555C122.621 412.64 122.984 412.752 123.464 412.891C124.104 413.061 124.627 413.237 125.032 413.419C125.448 413.589 125.805 413.845 126.104 414.187C126.403 414.528 126.557 414.981 126.568 415.547C126.568 416.048 126.429 416.496 126.152 416.891C125.875 417.285 125.48 417.595 124.968 417.819C124.467 418.043 123.875 418.155 123.192 418.155ZM131.447 413.563C131.447 412.677 131.628 411.893 131.991 411.211C132.364 410.528 132.866 410 133.495 409.627C134.135 409.243 134.839 409.051 135.607 409.051C136.3 409.051 136.903 409.189 137.415 409.467C137.938 409.733 138.354 410.069 138.663 410.475V409.195H140.503V418.011H138.663V416.699C138.354 417.115 137.932 417.461 137.399 417.739C136.866 418.016 136.258 418.155 135.575 418.155C134.818 418.155 134.124 417.963 133.495 417.579C132.866 417.184 132.364 416.64 131.991 415.947C131.628 415.243 131.447 414.448 131.447 413.563ZM138.663 413.595C138.663 412.987 138.535 412.459 138.279 412.011C138.034 411.563 137.708 411.221 137.303 410.987C136.898 410.752 136.46 410.635 135.991 410.635C135.522 410.635 135.084 410.752 134.679 410.987C134.274 411.211 133.943 411.547 133.687 411.995C133.442 412.432 133.319 412.955 133.319 413.563C133.319 414.171 133.442 414.704 133.687 415.163C133.943 415.621 134.274 415.973 134.679 416.219C135.095 416.453 135.532 416.571 135.991 416.571C136.46 416.571 136.898 416.453 137.303 416.219C137.708 415.984 138.034 415.643 138.279 415.195C138.535 414.736 138.663 414.203 138.663 413.595ZM144.403 410.475C144.669 410.027 145.021 409.68 145.459 409.435C145.907 409.179 146.435 409.051 147.043 409.051V410.939H146.579C145.864 410.939 145.32 411.12 144.947 411.483C144.584 411.845 144.403 412.475 144.403 413.371V418.011H142.579V409.195H144.403V410.475ZM156.479 413.387C156.479 413.717 156.458 414.016 156.415 414.283H149.679C149.733 414.987 149.994 415.552 150.463 415.979C150.933 416.405 151.509 416.619 152.191 416.619C153.173 416.619 153.866 416.208 154.271 415.387H156.239C155.973 416.197 155.487 416.864 154.783 417.387C154.09 417.899 153.226 418.155 152.191 418.155C151.349 418.155 150.591 417.968 149.919 417.595C149.258 417.211 148.735 416.677 148.351 415.995C147.978 415.301 147.791 414.501 147.791 413.595C147.791 412.688 147.973 411.893 148.335 411.211C148.709 410.517 149.226 409.984 149.887 409.611C150.559 409.237 151.327 409.051 152.191 409.051C153.023 409.051 153.765 409.232 154.415 409.595C155.066 409.957 155.573 410.469 155.935 411.131C156.298 411.781 156.479 412.533 156.479 413.387ZM154.575 412.811C154.565 412.139 154.325 411.6 153.855 411.195C153.386 410.789 152.805 410.587 152.111 410.587C151.482 410.587 150.943 410.789 150.495 411.195C150.047 411.589 149.781 412.128 149.695 412.811H154.575ZM163.615 410.475C163.881 410.027 164.233 409.68 164.671 409.435C165.119 409.179 165.647 409.051 166.255 409.051V410.939H165.791C165.076 410.939 164.532 411.12 164.159 411.483C163.796 411.845 163.615 412.475 163.615 413.371V418.011H161.791V409.195H163.615V410.475ZM175.691 413.387C175.691 413.717 175.67 414.016 175.627 414.283H168.891C168.945 414.987 169.206 415.552 169.675 415.979C170.145 416.405 170.721 416.619 171.403 416.619C172.385 416.619 173.078 416.208 173.483 415.387H175.451C175.185 416.197 174.699 416.864 173.995 417.387C173.302 417.899 172.438 418.155 171.403 418.155C170.561 418.155 169.803 417.968 169.131 417.595C168.47 417.211 167.947 416.677 167.563 415.995C167.19 415.301 167.003 414.501 167.003 413.595C167.003 412.688 167.185 411.893 167.547 411.211C167.921 410.517 168.438 409.984 169.099 409.611C169.771 409.237 170.539 409.051 171.403 409.051C172.235 409.051 172.977 409.232 173.627 409.595C174.278 409.957 174.785 410.469 175.147 411.131C175.51 411.781 175.691 412.533 175.691 413.387ZM173.787 412.811C173.777 412.139 173.537 411.6 173.067 411.195C172.598 410.789 172.017 410.587 171.323 410.587C170.694 410.587 170.155 410.789 169.707 411.195C169.259 411.589 168.993 412.128 168.907 412.811H173.787ZM181.614 409.051C182.308 409.051 182.926 409.195 183.47 409.483C184.025 409.771 184.457 410.197 184.766 410.763C185.076 411.328 185.23 412.011 185.23 412.811V418.011H183.422V413.083C183.422 412.293 183.225 411.691 182.83 411.275C182.436 410.848 181.897 410.635 181.214 410.635C180.532 410.635 179.988 410.848 179.582 411.275C179.188 411.691 178.99 412.293 178.99 413.083V418.011H177.166V409.195H178.99V410.203C179.289 409.84 179.668 409.557 180.126 409.355C180.596 409.152 181.092 409.051 181.614 409.051ZM189.365 410.683V415.563C189.365 415.893 189.44 416.133 189.589 416.283C189.749 416.421 190.016 416.491 190.389 416.491H191.509V418.011H190.069C189.248 418.011 188.618 417.819 188.181 417.435C187.744 417.051 187.525 416.427 187.525 415.563V410.683H186.485V409.195H187.525V407.003H189.365V409.195H191.509V410.683H189.365ZM200.95 413.387C200.95 413.717 200.929 414.016 200.886 414.283H194.15C194.203 414.987 194.465 415.552 194.934 415.979C195.403 416.405 195.979 416.619 196.662 416.619C197.643 416.619 198.337 416.208 198.742 415.387H200.71C200.443 416.197 199.958 416.864 199.254 417.387C198.561 417.899 197.697 418.155 196.662 418.155C195.819 418.155 195.062 417.968 194.39 417.595C193.729 417.211 193.206 416.677 192.822 415.995C192.449 415.301 192.262 414.501 192.262 413.595C192.262 412.688 192.443 411.893 192.806 411.211C193.179 410.517 193.697 409.984 194.358 409.611C195.03 409.237 195.798 409.051 196.662 409.051C197.494 409.051 198.235 409.232 198.886 409.595C199.537 409.957 200.043 410.469 200.406 411.131C200.769 411.781 200.95 412.533 200.95 413.387ZM199.046 412.811C199.035 412.139 198.795 411.6 198.326 411.195C197.857 410.789 197.275 410.587 196.582 410.587C195.953 410.587 195.414 410.789 194.966 411.195C194.518 411.589 194.251 412.128 194.166 412.811H199.046ZM201.817 413.563C201.817 412.677 201.998 411.893 202.361 411.211C202.734 410.528 203.236 410 203.865 409.627C204.505 409.243 205.214 409.051 205.993 409.051C206.569 409.051 207.134 409.179 207.689 409.435C208.254 409.68 208.702 410.011 209.033 410.427V406.171H210.873V418.011H209.033V416.683C208.734 417.109 208.318 417.461 207.785 417.739C207.262 418.016 206.66 418.155 205.977 418.155C205.209 418.155 204.505 417.963 203.865 417.579C203.236 417.184 202.734 416.64 202.361 415.947C201.998 415.243 201.817 414.448 201.817 413.563ZM209.033 413.595C209.033 412.987 208.905 412.459 208.649 412.011C208.404 411.563 208.078 411.221 207.673 410.987C207.268 410.752 206.83 410.635 206.361 410.635C205.892 410.635 205.454 410.752 205.049 410.987C204.644 411.211 204.313 411.547 204.057 411.995C203.812 412.432 203.689 412.955 203.689 413.563C203.689 414.171 203.812 414.704 204.057 415.163C204.313 415.621 204.644 415.973 205.049 416.219C205.465 416.453 205.902 416.571 206.361 416.571C206.83 416.571 207.268 416.453 207.673 416.219C208.078 415.984 208.404 415.643 208.649 415.195C208.905 414.736 209.033 414.203 209.033 413.595ZM224.865 413.387C224.865 413.717 224.844 414.016 224.801 414.283H218.065C218.118 414.987 218.38 415.552 218.849 415.979C219.318 416.405 219.894 416.619 220.577 416.619C221.558 416.619 222.252 416.208 222.657 415.387H224.625C224.358 416.197 223.873 416.864 223.169 417.387C222.476 417.899 221.612 418.155 220.577 418.155C219.734 418.155 218.977 417.968 218.305 417.595C217.644 417.211 217.121 416.677 216.737 415.995C216.364 415.301 216.177 414.501 216.177 413.595C216.177 412.688 216.358 411.893 216.721 411.211C217.094 410.517 217.612 409.984 218.273 409.611C218.945 409.237 219.713 409.051 220.577 409.051C221.409 409.051 222.15 409.232 222.801 409.595C223.452 409.957 223.958 410.469 224.321 411.131C224.684 411.781 224.865 412.533 224.865 413.387ZM222.961 412.811C222.95 412.139 222.71 411.6 222.241 411.195C221.772 410.789 221.19 410.587 220.497 410.587C219.868 410.587 219.329 410.789 218.881 411.195C218.433 411.589 218.166 412.128 218.081 412.811H222.961ZM229.748 416.379L232.244 409.195H234.18L230.82 418.011H228.644L225.3 409.195H227.252L229.748 416.379ZM243.319 413.387C243.319 413.717 243.297 414.016 243.255 414.283H236.519C236.572 414.987 236.833 415.552 237.303 415.979C237.772 416.405 238.348 416.619 239.031 416.619C240.012 416.619 240.705 416.208 241.111 415.387H243.079C242.812 416.197 242.327 416.864 241.623 417.387C240.929 417.899 240.065 418.155 239.031 418.155C238.188 418.155 237.431 417.968 236.759 417.595C236.097 417.211 235.575 416.677 235.191 415.995C234.817 415.301 234.631 414.501 234.631 413.595C234.631 412.688 234.812 411.893 235.175 411.211C235.548 410.517 236.065 409.984 236.727 409.611C237.399 409.237 238.167 409.051 239.031 409.051C239.863 409.051 240.604 409.232 241.255 409.595C241.905 409.957 242.412 410.469 242.775 411.131C243.137 411.781 243.319 412.533 243.319 413.387ZM241.415 412.811C241.404 412.139 241.164 411.6 240.695 411.195C240.225 410.789 239.644 410.587 238.951 410.587C238.321 410.587 237.783 410.789 237.335 411.195C236.887 411.589 236.62 412.128 236.535 412.811H241.415ZM246.618 410.475C246.884 410.027 247.236 409.68 247.674 409.435C248.122 409.179 248.65 409.051 249.258 409.051V410.939H248.794C248.079 410.939 247.535 411.12 247.162 411.483C246.799 411.845 246.618 412.475 246.618 413.371V418.011H244.794V409.195H246.618V410.475ZM258.55 409.195L253.142 422.155H251.254L253.046 417.867L249.574 409.195H251.606L254.086 415.915L256.662 409.195H258.55ZM274.115 409.051C274.808 409.051 275.427 409.195 275.971 409.483C276.526 409.771 276.958 410.197 277.267 410.763C277.587 411.328 277.747 412.011 277.747 412.811V418.011H275.939V413.083C275.939 412.293 275.742 411.691 275.347 411.275C274.952 410.848 274.414 410.635 273.731 410.635C273.048 410.635 272.504 410.848 272.099 411.275C271.704 411.691 271.507 412.293 271.507 413.083V418.011H269.699V413.083C269.699 412.293 269.502 411.691 269.107 411.275C268.712 410.848 268.174 410.635 267.491 410.635C266.808 410.635 266.264 410.848 265.859 411.275C265.464 411.691 265.267 412.293 265.267 413.083V418.011H263.443V409.195H265.267V410.203C265.566 409.84 265.944 409.557 266.403 409.355C266.862 409.152 267.352 409.051 267.875 409.051C268.579 409.051 269.208 409.2 269.763 409.499C270.318 409.797 270.744 410.229 271.043 410.795C271.31 410.261 271.726 409.84 272.291 409.531C272.856 409.211 273.464 409.051 274.115 409.051ZM283.572 418.155C282.74 418.155 281.988 417.968 281.316 417.595C280.644 417.211 280.116 416.677 279.732 415.995C279.348 415.301 279.156 414.501 279.156 413.595C279.156 412.699 279.353 411.904 279.748 411.211C280.143 410.517 280.681 409.984 281.364 409.611C282.047 409.237 282.809 409.051 283.652 409.051C284.495 409.051 285.257 409.237 285.94 409.611C286.623 409.984 287.161 410.517 287.556 411.211C287.951 411.904 288.148 412.699 288.148 413.595C288.148 414.491 287.945 415.285 287.54 415.979C287.135 416.672 286.58 417.211 285.876 417.595C285.183 417.968 284.415 418.155 283.572 418.155ZM283.572 416.571C284.041 416.571 284.479 416.459 284.884 416.235C285.3 416.011 285.636 415.675 285.892 415.227C286.148 414.779 286.276 414.235 286.276 413.595C286.276 412.955 286.153 412.416 285.908 411.979C285.663 411.531 285.337 411.195 284.932 410.971C284.527 410.747 284.089 410.635 283.62 410.635C283.151 410.635 282.713 410.747 282.308 410.971C281.913 411.195 281.599 411.531 281.364 411.979C281.129 412.416 281.012 412.955 281.012 413.595C281.012 414.544 281.252 415.28 281.732 415.803C282.223 416.315 282.836 416.571 283.572 416.571ZM294.079 409.051C294.773 409.051 295.391 409.195 295.935 409.483C296.49 409.771 296.922 410.197 297.231 410.763C297.541 411.328 297.695 412.011 297.695 412.811V418.011H295.887V413.083C295.887 412.293 295.69 411.691 295.295 411.275C294.901 410.848 294.362 410.635 293.679 410.635C292.997 410.635 292.453 410.848 292.047 411.275C291.653 411.691 291.455 412.293 291.455 413.083V418.011H289.631V409.195H291.455V410.203C291.754 409.84 292.133 409.557 292.591 409.355C293.061 409.152 293.557 409.051 294.079 409.051ZM301.83 410.683V415.563C301.83 415.893 301.905 416.133 302.054 416.283C302.214 416.421 302.481 416.491 302.854 416.491H303.974V418.011H302.534C301.713 418.011 301.083 417.819 300.646 417.435C300.209 417.051 299.99 416.427 299.99 415.563V410.683H298.95V409.195H299.99V407.003H301.83V409.195H303.974V410.683H301.83ZM309.895 409.051C310.567 409.051 311.164 409.195 311.687 409.483C312.22 409.771 312.636 410.197 312.935 410.763C313.244 411.328 313.399 412.011 313.399 412.811V418.011H311.591V413.083C311.591 412.293 311.394 411.691 310.999 411.275C310.604 410.848 310.066 410.635 309.383 410.635C308.7 410.635 308.156 410.848 307.751 411.275C307.356 411.691 307.159 412.293 307.159 413.083V418.011H305.335V406.171H307.159V410.219C307.468 409.845 307.858 409.557 308.327 409.355C308.807 409.152 309.33 409.051 309.895 409.051Z" fill="white"/>
</svg>
