<svg width="193" height="129" viewBox="0 0 193 129" fill="none" xmlns="http://www.w3.org/2000/svg">
<path d="M102.056 76.5418C102.208 75.9336 102.37 75.3429 102.494 74.7445C102.529 74.5775 102.51 74.3487 102.419 74.2153C102.19 73.882 101.916 73.5779 101.639 73.2818C101.541 73.1773 101.387 73.0975 101.248 73.075C101.199 73.067 101.051 73.2717 101.061 73.3681C101.176 74.5302 101.271 75.7045 102.056 76.5418ZM136.686 73.55C136.31 73.877 135.994 74.1173 135.722 74.4003C135.432 74.7015 135.184 75.0432 134.927 75.3553C135.762 76.4312 135.725 77.3074 134.888 78.3533C134.573 78.7471 134.324 79.1933 134.045 79.6154C135.488 79.102 136.894 75.6585 136.686 73.55ZM139.482 49.1824C139.483 49.1877 139.481 49.0253 139.414 48.8974C138.838 47.8035 138.301 46.6846 137.653 45.6344C136.843 44.3212 135.733 43.2537 134.576 42.2457C134.317 42.0206 133.983 41.7655 133.723 42.2585C132.919 43.7821 132.114 45.3051 131.352 46.8497C131.269 47.0176 131.398 47.3906 131.55 47.555C131.919 47.9538 132.49 48.2104 132.749 48.6581C133.675 50.2573 136.063 50.5138 137.408 49.9694C138.047 49.7108 138.697 49.4792 139.482 49.1824ZM117.183 35.9657C116.282 36.1514 115.218 36.5238 114.141 36.5602C112.091 36.6297 110.518 37.8201 109.095 38.9295C106.758 40.7514 104.649 42.9067 102.646 45.1055C101.462 46.4045 100.652 48.0496 99.7109 49.5624C99.5959 49.7474 99.6053 50.191 99.7417 50.3235C100.861 51.4104 101.096 52.7534 101.045 54.2319C100.992 55.7669 100.702 57.3847 102.145 58.5479C102.199 58.5915 102.19 58.7071 102.238 58.7669C102.9 59.5975 103.567 60.4242 104.367 61.4182C104.572 60.9006 104.692 60.669 104.756 60.4228C105.201 58.73 105.608 57.0265 106.078 55.341C106.835 52.6283 108.276 50.6117 111.338 50.279C112.174 50.1883 112.375 49.8008 112.212 48.9729C112.131 48.5637 112.057 48.1114 112.148 47.7173C112.427 46.5042 113.005 45.4496 113.915 44.5629C115.099 43.4072 116.65 43.5914 118.077 43.3111C118.571 43.214 119.085 43.1834 119.559 43.0279C120.487 42.7237 121.053 42.0092 120.928 41.2997C120.814 40.6589 120.639 40.0234 120.427 39.4076C120.286 38.9978 119.925 38.6461 119.852 38.2346C119.691 37.3379 119.047 36.9553 118.36 36.5791C118.005 36.384 117.641 36.2035 117.183 35.9657ZM116.349 77.6954C116.28 77.4576 116.155 77.2605 116.184 77.0899C116.34 76.1769 116.473 75.2525 116.73 74.3659C117.151 72.914 117.789 71.5147 118.09 70.043C118.316 68.9447 117.935 67.838 116.991 67.0798C116.105 66.3679 115.482 64.5424 115.857 63.4578C116.093 62.7783 116.427 62.1338 116.686 61.4617C116.789 61.195 116.93 60.854 116.848 60.6189C116.275 58.9762 116.449 57.2831 116.519 55.6133C116.546 54.9908 116.929 54.3664 117.22 53.7783C117.398 53.4192 117.7 53.2846 118.151 53.5311C118.819 53.8967 119.528 54.2026 120.247 54.4585C121.22 54.8052 121.644 55.5356 121.801 56.4804C121.949 57.3721 121.972 58.2986 122.234 59.1529C122.444 59.8373 122.559 60.6719 123.55 60.8875C124.415 61.0757 124.466 60.2978 124.841 59.9482C125.49 59.3426 127.05 59.0209 127.785 59.5438C128.426 60.0005 128.967 60.5956 129.604 61.0601C130.202 61.4969 130.413 62.0506 130.259 62.729C130.096 63.4441 129.854 64.1414 129.619 64.94C130.137 65.0387 130.702 65.0655 131.203 65.258C132.415 65.7232 133.627 66.2068 134.784 66.7901C137.001 67.9067 136.7 70.5569 135.5 71.6306C135.337 71.7758 135.259 72.0146 135.141 72.21C135.213 72.2734 135.285 72.3369 135.356 72.4004C135.61 72.1663 135.918 71.9693 136.108 71.6913C136.788 70.6986 137.485 69.7108 138.066 68.6599C138.683 67.5418 139.315 66.3968 139.685 65.1853C140.103 63.8198 140.248 62.3691 140.491 60.9517C140.869 58.7368 141.182 56.511 140.913 54.2598C140.8 53.3139 140.625 52.3629 140.349 51.4536C140.162 50.8379 139.681 50.5327 138.978 50.9108C138.539 51.1474 138.047 51.4633 137.588 51.4507C136.358 51.417 135.112 51.3175 133.913 51.058C133.31 50.9274 132.75 50.4461 132.25 50.0273C131.541 49.4331 130.957 48.6839 130.226 48.1234C129.427 47.5113 129.305 47.2714 129.78 46.3429C130.665 44.6101 131.523 42.8625 132.443 41.1481C132.787 40.5066 132.642 40.0055 132.105 39.6996C130.384 38.7181 128.782 37.4916 126.789 37.0473C125.885 36.8458 125.006 36.5112 124.096 36.3585C123.191 36.2066 122.261 36.1942 121.34 36.1484C121.044 36.1337 120.744 36.2074 120.361 36.25C120.929 37.3619 121.485 38.3254 121.925 39.3392C123.017 41.852 122.759 43.8042 119.661 44.4203C118.595 44.6324 117.491 44.6635 116.436 44.911C114.502 45.3646 113.268 47.6287 113.769 49.5757C113.904 50.1021 114.085 50.7926 113.46 51.0977C112.707 51.4649 111.884 51.7525 111.06 51.8912C110.045 52.062 109.218 52.4595 108.737 53.3568C108.289 54.194 107.881 55.0728 107.605 55.9791C107.053 57.7865 106.606 59.6261 106.111 61.4509C105.907 62.2022 104.761 62.8643 104.166 62.4207C103.221 61.715 102.399 60.8335 101.578 59.975C101.171 59.5491 100.944 58.947 100.528 58.5331C99.6743 57.6841 99.3515 56.7389 99.4787 55.5247C99.5799 54.557 99.4525 53.5613 99.3787 52.5817C99.3578 52.3063 99.1675 52.0438 99.0235 51.7006C98.8841 51.8788 98.8119 51.9331 98.7915 52.0028C97.5807 56.1414 97.7267 60.294 98.7078 64.4444C99.2492 66.7348 100.524 68.7072 101.563 70.7767C102.735 73.1104 104.992 74.363 106.899 75.9546C107.382 76.3575 108.052 76.5365 108.532 76.9416C110.664 78.741 113.225 79.4276 115.889 79.6572C117.834 79.8247 119.819 79.7639 121.766 79.5832C123 79.4685 124.214 79.0012 125.403 78.5915C126.47 78.2238 127.457 77.5991 128.538 77.2984C130.929 76.6333 132.651 75.0232 134.425 73.5126C134.11 72.8137 133.804 72.221 133.587 71.5971C133.522 71.4118 133.644 70.9918 133.787 70.9308C134.829 70.4856 134.75 69.5855 134.786 68.7049C134.82 67.8666 134.202 67.7242 133.614 67.5236C133.466 67.473 133.342 67.3532 133.195 67.2962C132.257 66.9333 131.326 66.5471 130.372 66.2336C129.804 66.047 129.187 66.0125 128.609 65.8492C127.935 65.6584 127.76 65.1461 127.968 64.5224C128.136 64.0172 128.396 63.5436 128.582 63.0436C128.897 62.1988 128.404 61.1728 127.485 60.7116C126.887 60.4118 126.357 60.6955 125.766 61.4451C125.474 61.8155 125.021 62.2473 124.601 62.2946C122.883 62.4878 121.007 61.0007 120.617 59.361C120.396 58.4315 120.265 57.4756 120.165 56.5241C120.079 55.713 119.618 55.1265 118.893 54.9596C118.403 54.8471 118.152 55.0119 118.136 55.4734C118.099 56.6108 117.949 57.773 118.121 58.882C118.364 60.4479 118.604 61.9177 117.543 63.3158C117.299 63.6359 117.256 64.3049 117.414 64.6943C117.756 65.5418 118.181 66.4027 118.764 67.0956C119.848 68.3827 119.969 69.8261 119.548 71.297C119.116 72.8039 118.476 74.2543 117.871 75.7064C117.562 76.4501 117.275 77.2525 116.349 77.6954ZM97.6126 129C97.9694 126.537 98.2909 124.067 98.6909 121.611C99.3703 117.44 100.162 113.287 100.79 109.109C101.418 104.931 101.88 100.727 102.464 96.542C102.678 95.0143 103.042 93.5082 103.322 91.9897C103.473 91.1741 103.672 90.3547 103.692 89.5333C103.701 89.1451 103.431 88.6454 103.129 88.3742C102.202 87.5425 101.193 86.8028 100.228 86.0133C99.9869 85.8166 99.7523 85.5925 99.5779 85.3375C98.2229 83.3551 97.2356 81.1744 96.4057 78.9406C95.6214 76.8297 95.2467 74.6047 95.5108 72.3395C95.639 71.2394 95.91 70.1504 96.1901 69.0756C96.4361 68.1325 96.9057 67.3325 97.9749 67.2411C97.0746 63.9875 96.1982 60.7775 96.0036 57.4726C95.8535 54.9258 96.1527 52.4393 97.2103 49.9591C98.6982 46.4698 101.043 43.6957 103.478 40.9369C104.286 40.0218 105.145 39.1263 106.1 38.3754C106.866 37.7736 107.814 37.4058 108.679 36.9309C110.215 36.0877 111.749 35.2399 113.288 34.4009C113.447 34.314 113.651 34.1895 113.802 34.2242C115.684 34.656 117.477 33.8338 119.323 33.8502C121.693 33.8714 124.042 34.0055 126.266 35.0037C126.869 35.2744 127.616 35.2085 128.251 35.4276C129.222 35.7623 130.236 36.0839 131.086 36.6373C132.821 37.7683 134.563 38.9315 136.105 40.304C137.54 41.5799 138.718 43.1313 139.727 44.8086C141.496 47.751 142.563 50.8857 142.983 54.3056C143.341 57.2191 143.149 60.0653 142.415 62.8644C142.065 64.1975 141.399 65.4525 140.821 66.7173C140.562 67.282 140.483 67.6257 141.205 67.868C142.03 68.1447 142.133 68.9342 142.104 69.6463C141.995 72.335 141.957 75.0372 141.635 77.7031C141.412 79.5438 140.887 81.3745 140.278 83.134C139.63 85.0108 138.699 86.788 137.949 88.6325C137.747 89.1314 137.667 89.7195 137.683 90.2619C137.757 92.7126 138.197 95.1123 138.671 97.5159C139.12 99.792 139.335 102.113 139.704 104.406C140.075 106.712 140.573 108.998 140.896 111.31C141.161 113.209 141.238 115.135 141.422 117.047C141.63 119.198 141.887 121.344 142.082 123.496C142.248 125.328 142.358 127.165 142.492 129C142.117 129 141.741 129 141.366 129C141.099 125.99 140.857 122.977 140.559 119.969C140.225 116.582 139.869 113.197 139.465 109.818C139.269 108.178 138.93 106.555 138.677 104.921C138.296 102.467 137.915 100.013 137.569 97.5542C137.2 94.9367 136.77 92.3213 136.574 89.6895C136.498 88.6581 136.816 87.5062 137.257 86.5495C137.864 85.2343 138.938 84.1628 139.251 82.6635C139.627 80.8643 140.28 79.1063 140.49 77.2929C140.786 74.7294 140.799 72.1318 140.895 69.5473C140.907 69.2209 140.687 68.886 140.574 68.5551C140.238 68.722 139.81 68.8083 139.584 69.0701C138.723 70.0684 138.367 71.3004 138.124 72.576C137.808 74.2285 137.494 75.8825 137.116 77.5214C136.826 78.7785 136.211 79.8555 135.071 80.562C134.642 80.8282 133.057 80.7883 132.988 80.422C132.89 79.9053 133.006 79.289 133.212 78.7901C133.43 78.2583 133.918 77.8428 134.177 77.3208C134.35 76.9699 134.33 76.5223 134.397 76.1179C134.306 76.07 134.216 76.0221 134.126 75.9742C133.818 76.1564 133.504 76.3283 133.204 76.5238C132.825 76.7714 132.481 77.0852 132.081 77.2887C130.174 78.2578 128.7 79.5512 127.817 81.6207C126.812 83.9753 126.711 86.3742 126.836 88.8349C126.921 90.5066 127.202 92.1769 127.171 93.8438C127.116 96.8963 126.888 99.9453 126.746 102.997C126.482 108.7 126.171 114.403 125.992 120.109C125.899 123.069 126.046 126.036 126.084 129C125.655 129 125.227 129 124.798 129C124.813 128.033 124.851 127.066 124.839 126.099C124.81 123.721 124.677 121.342 124.738 118.967C124.795 116.809 125.109 114.659 125.211 112.5C125.474 106.924 125.683 101.346 125.91 95.7686C125.976 94.1548 125.955 92.5638 125.693 90.9435C125.448 89.4242 125.566 87.8311 125.651 86.2775C125.741 84.6038 125.858 82.9154 126.698 81.3872C126.908 81.0057 127.016 80.5674 127.157 80.192C122.358 81.865 117.487 81.6776 112.51 80.9577C112.926 81.5886 113.309 82.1196 113.642 82.6806C114.783 84.6043 114.676 86.7091 114.535 88.8305C114.409 90.7212 114.309 92.6167 114.29 94.5109C114.265 97.1509 114.321 99.7917 114.353 102.432C114.388 105.329 114.448 108.225 114.471 111.122C114.488 113.373 114.456 115.623 114.461 117.874C114.469 121.583 114.488 125.291 114.503 129C113.966 129 113.43 129 112.894 129C112.896 126.863 112.92 124.726 112.894 122.59C112.861 119.916 112.748 117.243 112.745 114.569C112.743 112.111 112.884 109.653 112.883 107.194C112.88 104.386 112.773 101.578 112.742 98.7697C112.721 96.8755 112.673 94.9758 112.786 93.0875C112.894 91.2789 113.253 89.4867 113.396 87.6789C113.638 84.62 112.833 82.0267 109.936 80.4486C109.516 80.2201 109.16 79.8753 108.768 79.5935C108.019 79.0543 107.326 78.3748 106.496 78.0242C105.483 77.5961 104.786 76.9158 104.159 76.0802C103.984 75.8462 103.741 75.6632 103.529 75.4569C103.448 75.4976 103.367 75.5384 103.287 75.5792C103.441 76.5172 103.558 77.4632 103.762 78.3902C103.885 78.9524 103.743 79.2365 103.197 79.033C102.684 78.8421 102.113 78.5852 101.776 78.1825C100.662 76.8513 99.9107 75.3236 99.9397 73.5329C99.9696 71.6822 99.7098 69.9361 98.5734 68.3947C98.2823 67.9996 98.0483 67.9046 97.8027 68.3237C97.5225 68.8018 97.3144 69.3265 97.1101 69.8449C96.3904 71.6716 96.4656 73.6163 96.7191 75.4613C96.9543 77.1739 97.7066 78.8216 98.2858 80.4786C99.3214 83.4416 101.011 85.928 103.731 87.591C104.696 88.1809 105.042 89.0369 104.998 90.0815C104.93 91.6584 104.808 93.2333 104.695 94.8081C104.568 96.5628 104.489 98.3241 104.272 100.068C104.082 101.601 103.693 103.109 103.459 104.638C103.056 107.269 102.724 109.911 102.326 112.543C102.015 114.598 101.658 116.647 101.302 118.695C101.169 119.456 100.926 120.2 100.828 120.964C100.485 123.64 100.182 126.321 99.8645 129C99.1139 129 98.3633 129 97.6126 129Z" fill="white"/>
<path d="M69.3807 85.5172C68.9019 86.4099 68.4745 87.2255 68.0282 88.0304C67.7802 88.4779 67.3965 88.8784 67.2628 89.3535C67.1095 89.8982 66.9867 90.6833 67.6422 90.9136C68.1918 91.1066 68.9906 91.0843 69.4796 90.8057C69.9257 90.5512 70.1041 89.8246 70.3899 89.3248C69.9929 89.0239 69.7001 88.8017 69.2972 88.4964C69.5212 87.9354 69.7493 87.3546 69.9849 86.7767C70.213 86.2173 69.9051 85.6415 69.3807 85.5172ZM65.0261 88.3318C67.6253 87.9151 68.4507 85.1568 67.7138 83.3247C67.5264 82.8586 67.0249 82.2227 66.445 82.6384C65.9139 83.0191 65.3701 83.6825 65.264 84.2963C65.0369 85.6084 65.0891 86.9692 65.0261 88.3318ZM64.017 85.1732C63.8737 84.1106 63.8435 83.3545 63.641 82.6482C63.5611 82.3694 63.08 82.0042 62.8114 82.0274C62.3624 82.0661 61.6656 82.2841 61.5481 82.6029C60.9623 84.1911 60.738 85.8502 61.4799 87.467C61.9796 88.5559 62.5256 88.6116 63.1456 87.543C63.6037 86.7535 63.7933 85.8074 64.017 85.1732ZM59.897 85.5851C59.6773 84.3388 59.5258 83.3132 59.2991 82.3047C59.2383 82.0338 58.9643 81.6319 58.7599 81.6138C58.4345 81.5853 57.8354 81.767 57.7865 81.9668C57.4648 83.2803 56.1619 84.4084 56.974 85.9543C57.0309 86.0627 56.9174 86.2492 56.9257 86.3969C56.9606 87.0126 56.9759 87.689 57.6175 87.9883C58.2729 88.2941 58.8007 87.8503 59.1129 87.3633C59.4838 86.7846 59.681 86.0941 59.897 85.5851ZM62.9293 93.2917C62.9293 91.8638 62.9293 90.6196 62.9293 89.3185C61.7646 89.4388 60.9253 88.895 60.3692 87.9479C59.8046 88.3597 59.2797 88.7425 58.711 89.1572C59.2805 90.4717 58.4266 91.4612 57.7098 92.537C59.2755 94.096 61.1424 92.8958 62.9293 93.2917ZM56.105 87.5763C55.6538 86.6922 55.2675 85.9729 54.9233 85.2337C54.8379 85.0504 54.823 84.7804 54.8883 84.5889C55.2664 83.4785 55.7031 82.388 56.0725 81.275C56.5105 79.9552 56.8817 78.6133 57.3207 77.2937C57.4936 76.7742 57.7283 76.2908 58.472 76.6936C58.8906 76.9203 59.3984 76.9817 59.9381 77.1388C59.2726 74.8755 58.6388 72.7202 57.9523 70.3858C55.4551 71.5513 52.9269 72.7313 50.2987 73.9581C51.0458 74.5356 51.6596 74.9596 52.2041 75.4592C52.388 75.6277 52.5419 76.0441 52.4621 76.2514C51.9569 77.565 51.3939 78.8567 50.8274 80.1458C50.2595 81.4379 49.6577 82.7148 49.0856 84.005C48.7515 84.7583 48.3634 85.5017 48.147 86.2902C47.7524 87.7282 47.2391 89.1866 47.6973 90.7007C47.823 91.1166 48.1392 91.6111 48.5043 91.7896C49.3235 92.1902 50.2219 92.4372 51.1052 92.6849C51.2226 92.7179 51.5434 92.4164 51.5891 92.2261C51.6739 91.8722 51.584 91.4799 51.6396 91.1148C51.8686 89.6128 52.4267 88.3428 54.0856 87.9553C54.7057 87.8105 55.338 87.7184 56.105 87.5763ZM82.8242 77.0575C82.8331 77.2251 82.8151 77.3376 82.8479 77.4326C83.2606 78.6295 83.6799 79.8242 84.099 81.0191C84.4337 81.9735 84.2565 82.9254 84.1997 83.9016C84.159 84.599 84.0353 84.918 83.3592 84.9241C81.0742 84.9451 78.7886 84.9825 76.5048 84.9336C76.2074 84.9272 75.7479 84.5016 75.6601 84.187C75.3854 83.2032 75.2527 82.1796 75.0381 81.0268C73.4328 82.8543 72.3149 84.8014 71.4192 86.908C71.0408 87.7976 71.3637 88.5074 71.811 89.1263C72.5689 90.1752 73.4676 91.1219 74.3125 92.1071C74.6652 92.5185 75.031 92.9184 75.4894 93.4344C75.5917 92.3529 75.6807 91.4315 75.7654 90.5096C75.8071 90.0547 75.9909 89.8935 76.4954 89.9382C78.3584 90.1031 80.2171 90.1802 82.0759 90.5198C83.8906 90.8513 85.7771 90.8433 87.6333 90.8641C88.4114 90.8728 89.4527 90.9416 89.7368 89.942C89.9696 89.1239 90.0765 88.1815 89.9157 87.3578C89.6067 85.775 89.1054 84.2254 88.6158 82.6837C88.0468 80.8917 87.425 79.1154 86.7714 77.3526C86.6789 77.1033 86.2733 76.8053 86.0187 76.8108C84.9582 76.834 83.8997 76.9648 82.8242 77.0575ZM74.4493 129C74.101 127.019 73.7626 125.036 73.4016 123.057C73.0238 120.986 72.6137 118.921 72.2401 116.85C72.1139 116.15 72.0738 115.435 71.9624 114.731C71.7377 113.312 71.4647 111.9 71.2605 110.479C71.0321 108.888 70.8766 107.286 70.6541 105.694C70.4639 104.331 70.2979 102.958 69.9841 101.621C69.6846 100.346 69.7568 99.117 69.9058 97.8354C70.1171 96.0162 70.1417 94.1753 70.2398 92.4556C69.1494 92.2155 68.1385 92.1321 67.2475 91.7601C66.2193 91.3312 65.8076 90.3979 66.1397 89.3483C65.4526 89.2551 64.9166 89.1824 64.2404 89.0908C64.2404 90.0791 64.2446 91.0887 64.238 92.0981C64.2361 92.3919 64.2198 92.6876 64.1824 92.9789C64.0412 94.0781 63.9358 94.1447 62.8195 94.191C61.9984 94.225 61.1801 94.3235 60.3058 94.3979C60.4718 94.7844 60.617 95.1225 60.7717 95.4832C59.5241 95.9057 58.9598 94.8784 58.1656 94.4756C57.5739 94.1756 57.1178 93.6148 56.5811 93.1961C55.9684 92.7181 55.9602 92.3988 56.5264 91.8888C57.1441 91.3327 57.6818 90.7225 57.5895 89.7879C57.5269 89.1566 57.0398 88.6009 56.4125 88.6567C55.6267 88.7267 54.819 88.8301 54.0856 89.0977C53.6952 89.2401 53.2933 89.7081 53.1521 90.1176C52.5044 91.9949 52.7093 93.7611 53.8553 95.4597C54.7181 96.7387 55.4002 98.1421 56.1381 99.5037C56.7239 100.584 57.3889 101.642 57.8135 102.786C58.797 105.437 59.3242 108.177 59.2475 111.041C59.1925 113.097 59.4207 115.16 59.4194 117.219C59.4185 118.901 59.2229 120.583 59.189 122.266C59.1438 124.51 59.1714 126.755 59.1677 129C58.7388 129 58.3099 129 57.8809 129C57.8844 126.898 57.8487 124.794 57.9023 122.693C57.9607 120.396 58.2085 118.099 58.182 115.804C58.1418 112.321 58.2407 108.812 57.4169 105.388C57.1099 104.112 56.7818 102.811 56.2275 101.633C55.5966 100.291 54.695 99.0788 53.9247 97.8018C53.3186 96.7968 52.7582 95.7627 52.1229 94.777C51.9409 94.4943 51.5992 94.2384 51.2782 94.1363C50.1558 93.7796 48.9391 93.6466 47.8903 93.149C46.2995 92.394 45.6309 90.8128 45.8752 89.0647C46.0682 87.6849 46.4716 86.3899 47.0887 85.1242C48.4516 82.3286 49.6903 79.4722 51.021 76.6604C51.2777 76.1179 51.0638 76.0097 50.646 75.7815C49.9481 75.4008 49.2834 74.9451 48.6534 74.4577C48.1503 74.0683 48.2973 73.6529 48.8202 73.3996C50.7658 72.4567 52.7225 71.5373 54.671 70.6007C55.6934 70.1094 56.6903 69.5594 57.7352 69.124C58.0662 68.986 58.4491 68.768 58.7325 68.7591C59.0135 68.7504 59.472 69.189 59.5709 69.5168C59.9695 70.8383 60.2236 72.2026 60.598 73.5323C61.0381 75.0953 61.5518 76.6371 62.0206 78.1922C62.0701 78.3569 62.1004 78.6515 62.0201 78.7048C61.8696 78.8048 61.6132 78.8356 61.4329 78.7835C60.793 78.5983 60.1692 78.3569 59.533 78.1571C59.3371 78.0955 59.1211 78.0985 58.8805 78.0677C58.6269 78.8571 58.3871 79.6028 58.1921 80.2095C59.0391 80.7355 59.7816 81.1966 60.4219 81.5941C61.2298 81.4051 62.0714 80.9981 62.859 81.0846C63.6096 81.167 64.3041 81.7642 65.0932 82.1711C66.3576 81.116 66.9537 81.3803 68.2387 82.4134C68.6939 82.7793 68.9088 83.5333 69.0683 84.1528C69.1933 84.6382 69.2837 84.8372 69.8326 84.7599C70.1457 84.7159 70.4949 84.9286 70.9205 85.0526C71.5686 83.8918 72.1882 82.689 72.8963 81.5411C73.5107 80.545 74.2135 79.6024 74.9059 78.657C75.038 78.4767 75.3986 78.2395 75.4894 78.2958C75.7725 78.4707 76.1472 78.7516 76.1836 79.0311C76.384 80.5708 76.4945 82.1225 76.6349 83.6701C76.6444 83.7744 76.6474 83.8792 76.6532 83.978C77.7009 83.978 78.7368 84.0621 79.752 83.9522C80.6129 83.8592 81.4557 83.5622 82.2949 83.3158C82.7311 83.1876 83.0013 83.0072 82.7966 82.3841C82.2402 80.6918 81.7819 78.9659 81.3216 77.2433C81.0253 76.1345 81.3656 75.6542 82.5421 75.645C84.0535 75.6332 85.5706 75.6796 87.0751 75.8148C87.6272 75.8644 88.1978 76.1692 88.6689 76.4915C88.9491 76.6834 89.1376 77.1165 89.2186 77.4748C89.47 78.5881 89.6141 79.7259 89.8668 80.8388C90.261 82.574 90.7224 84.2938 91.1316 86.0258C91.4065 87.1893 91.657 88.3594 91.8857 89.5328C92.0255 90.2505 91.7469 90.7338 91.0526 91.0697C89.3225 91.9069 87.5148 91.966 85.6554 91.7962C83.3995 91.5902 81.1401 91.4194 78.8811 91.2499C78.3833 91.2125 77.8802 91.2444 77.3454 91.2444C77.1029 93.0296 77.3974 94.8432 76.7655 96.62C75.6955 96.0778 74.8551 95.5042 74.3824 94.4869C74.2655 94.2355 73.9667 94.0757 73.8004 93.8391C73.3605 93.2136 72.9608 92.5596 72.5174 91.937C72.3262 91.6684 72.0662 91.4491 71.7238 91.0871C71.6154 93.0211 71.5403 94.7731 71.4076 96.5205C71.3575 97.181 71.1828 97.833 71.0501 98.4857C70.7735 99.8486 71.0749 101.145 71.3295 102.486C71.7777 104.85 71.9915 107.257 72.3339 109.642C72.5426 111.095 72.8194 112.538 73.0465 113.989C73.5458 117.18 74.018 120.375 74.5338 123.563C74.6968 124.571 74.9807 125.56 75.1771 126.563C75.335 127.371 75.4444 128.187 75.5753 129C75.1999 129 74.8247 129 74.4493 129Z" fill="white"/>
<path d="M24.2698 56.4272C23.783 57.7196 24.4488 58.8032 26.0374 59.3094C25.5391 58.2635 25.4966 57.0032 24.2698 56.4272ZM39.9678 81.8513C39.5078 82.1259 39.0985 82.422 38.6476 82.6255C38.1701 82.8409 37.6635 83.0386 37.1506 83.1131C36.7106 83.1773 36.4182 83.2837 36.4442 83.7616C36.4661 84.1646 36.4055 84.5735 37.017 84.7249C38.051 84.9809 39.0658 84.6472 39.8809 83.6283C40.3269 83.071 40.3731 82.501 39.9678 81.8513ZM36.0513 82.1807C37.456 82.1445 38.5444 81.5116 39.4983 80.5886C40.2056 79.9042 40.2623 79.2889 39.7901 78.6163C38.8365 79.2455 37.9395 79.9689 36.9304 80.4618C36.1036 80.8661 35.7737 81.3284 36.0513 82.1807ZM30.1758 59.6973C32.0197 59.2928 32.7201 58.6128 32.8038 57.4108C32.8488 56.7653 32.7045 56.1289 32.0292 56.0239C31.4984 55.9412 30.8577 56.1423 30.7067 56.8435C30.513 57.7435 30.3675 58.6539 30.1758 59.6973ZM33.6739 77.9895C33.6562 79.1022 34.4255 79.7607 35.4898 79.7127C37.2 79.6353 38.8743 78.0307 38.9505 76.044C39.0044 74.6386 38.514 73.9794 37.1397 74.235C36.3535 74.3812 35.5272 74.8842 34.9549 75.4616C34.2992 76.1232 33.5087 76.8514 33.6739 77.9895ZM39.46 67.4694C39.3889 67.4454 39.3178 67.4212 39.2468 67.397C39.2468 67.0031 39.3006 66.5993 39.231 66.2183C39.1668 65.8679 39.0267 65.3111 38.8178 65.2592C38.4984 65.1797 38.0283 65.3738 37.7338 65.5989C37.1485 66.0462 36.6947 66.6769 36.0873 67.0831C34.6392 68.0517 33.9967 69.3625 34.0456 71.0888C34.0649 71.769 34.3658 72.2315 34.9223 72.4795C35.5293 72.75 36.1755 72.6207 36.6162 72.1228C37.3193 71.328 38.0181 70.5112 38.5832 69.6176C38.9899 68.9742 39.1757 68.1905 39.46 67.4694ZM32.7222 69.7524C32.8839 69.4455 33.0545 69.2132 33.1348 68.9528C33.446 67.9427 33.8255 66.9921 34.8034 66.4218C34.9567 66.3324 35.1053 66.1717 35.173 66.0091C35.5367 65.1352 36.3484 64.7827 37.1006 64.4342C37.9358 64.0472 38.4785 63.4445 38.8117 62.6405C39.1449 61.8365 39.4584 61.0151 39.6767 60.1743C40.1108 58.5015 40.3522 56.7805 39.4862 55.1881C38.9621 54.2245 38.2956 53.2901 37.5155 52.5243C35.6295 50.673 33.6226 48.9557 30.8538 48.5709C30.4075 48.5088 29.9437 48.5198 29.5139 48.4016C28.4085 48.0978 27.3173 48.0483 26.1985 48.3307C25.504 48.5058 24.78 48.563 24.0855 48.7383C23.3777 48.917 22.6655 49.1195 21.9995 49.4128C21.1278 49.7966 20.3147 50.3126 19.4493 50.7125C17.9207 51.4189 16.9011 52.6299 16.306 54.1302C15.9048 55.1419 15.738 56.2692 15.6076 57.3618C15.3103 59.8529 16.2019 61.9508 18.0761 63.552C19.0062 64.3467 20.1123 64.9523 21.1898 65.5509C22.6684 66.3721 24.0961 67.3385 25.9162 67.3075C26.531 67.297 26.8919 67.7079 26.8859 68.426C26.866 70.8173 27.0792 73.192 27.6159 75.5255C27.6832 75.8172 27.9731 76.2542 28.1973 76.2787C29.1646 76.3846 30.1515 76.4349 31.12 76.3603C31.7627 76.3108 32.4699 76.144 32.9984 75.799C33.7173 75.3294 34.2979 74.6447 34.9263 74.0402C35.0458 73.9252 35.1114 73.7541 35.3123 73.4316C34.7307 73.4316 34.3074 73.3802 33.9008 73.4407C32.2902 73.6803 30.6867 73.9697 29.0752 74.2032C28.7784 74.2461 28.4563 74.1142 28.1459 74.0631C28.3569 73.7225 28.5029 73.3038 28.7947 73.0603C29.195 72.7263 29.692 72.4932 30.1759 72.2821C30.3821 72.1921 30.66 72.2671 30.9053 72.2671C30.924 72.36 30.9426 72.4529 30.9613 72.5457C30.7226 72.6994 30.4838 72.8532 30.2449 73.0071C30.2853 73.0501 30.3257 73.0932 30.3662 73.1364C31.3294 72.9827 32.2926 72.829 33.3307 72.6634C33.1542 72.1986 32.8665 71.7709 32.8556 71.3364C32.838 70.652 32.4942 70.5746 31.9843 70.6546C30.8376 70.8347 29.6971 71.0571 28.5473 71.212C28.2199 71.2562 27.8691 71.1277 27.5291 71.0784C27.6746 70.7928 27.756 70.4332 27.9799 70.2382C28.3497 69.9166 28.8114 69.7011 29.2177 69.4512C29.8489 70.0536 30.8562 70.0439 31.4233 69.599C30.6259 66.6806 29.8481 63.8348 29.0462 60.9001C28.7572 60.958 28.3135 61.0468 27.9048 61.1288C28.1402 62.3252 28.2922 63.4598 28.5973 64.5513C28.9256 65.7258 28.5689 67.0431 29.3927 68.123C29.5353 68.3099 29.4662 68.8283 29.3 69.0398C29.093 69.3036 28.6959 69.4575 28.3524 69.5418C28.2774 69.56 28.008 69.0969 27.9567 68.8307C27.8422 68.2362 27.8446 67.6194 27.7356 67.0234C27.4052 65.2161 27.0143 63.4195 26.7132 61.6075C26.6168 61.0278 26.4267 60.7634 25.8382 60.5778C24.2442 60.0748 22.5904 58.6366 22.8474 57.0061C22.9508 56.3493 23.5652 55.4594 24.2315 55.3363C24.9239 55.2086 25.524 55.5295 25.85 56.131C26.3793 57.1067 26.8837 58.1072 27.2698 59.1455C27.5087 59.7875 27.8163 60.0763 28.4849 59.9863C28.6819 59.9598 28.8856 59.9823 29.1247 59.9823C29.1644 59.2942 29.2222 58.6331 29.2371 57.971C29.2711 56.461 30.7671 54.9429 32.2409 55.0212C32.9284 55.0578 33.4503 55.4389 33.7881 56.0939C34.3008 57.0882 33.9722 57.9887 33.532 58.859C33.077 59.7586 32.1107 59.9682 31.2881 60.357C30.8649 60.5571 30.3546 60.6539 30.5301 61.3463C30.9783 63.1162 31.3833 64.8973 31.8338 66.6667C32.0781 67.6263 32.3798 68.5711 32.7222 69.7524ZM37.1295 129C37.075 126.994 37.0133 124.987 36.9679 122.981C36.9132 120.564 36.9092 118.146 36.8135 115.731C36.7431 113.949 36.5414 112.173 36.4354 110.393C36.368 109.259 36.4108 108.117 36.328 106.985C36.235 105.713 36.0036 104.45 35.9268 103.178C35.8036 101.138 35.7354 99.0946 35.6867 97.0517C35.6441 95.2705 35.6729 93.4876 35.6471 91.7058C35.6269 90.3089 36.065 89.1616 37.1488 88.2126C37.9257 87.5326 38.5573 86.6857 39.1733 85.8214C38.0703 86.1215 37.1154 85.7403 36.1718 85.4752C35.4839 85.2819 35.1286 84.5174 35.1991 83.6955C35.2036 83.6422 35.2303 83.5867 35.2214 83.5367C35.0519 82.5855 34.8866 81.6333 34.694 80.6868C34.6752 80.5944 34.4909 80.5234 34.3722 80.4657C33.0357 79.8167 32.2391 78.8498 32.4699 77.2634C32.4832 77.1715 32.4297 77.0696 32.412 76.9927C30.7054 77.6332 28.9636 77.473 27.2788 77.2931C26.464 77.206 26.3098 76.1 26.0713 75.3752C25.8337 74.6538 25.8173 73.8572 25.7199 73.0917C25.5574 71.8169 25.0429 70.7002 24.1744 69.768C23.9973 69.5779 23.6385 69.5581 23.2914 69.5375C23.7279 70.7967 23.318 71.6376 22.3771 72.3366C22.195 72.4719 22.1312 72.8463 22.1162 73.1161C21.9844 75.4906 22.5527 77.7373 23.2577 79.9861C23.4906 80.7293 23.3373 81.6617 23.1496 82.4576C22.5828 84.8601 21.9191 87.2396 21.2804 89.6245C20.8075 91.3897 20.201 93.1275 19.8549 94.9164C19.1584 98.5179 18.5594 102.14 17.9971 105.765C17.6372 108.086 17.3249 110.421 17.1542 112.762C16.9511 115.549 16.9305 118.35 16.8157 121.144C16.7413 122.951 16.6613 124.758 16.5303 126.561C16.507 126.882 16.2211 127.183 16.0563 127.494C15.9376 127.465 15.8189 127.437 15.7002 127.408C15.6637 126.477 15.6027 125.547 15.5957 124.616C15.5788 122.378 15.5037 120.136 15.6081 117.903C15.7222 115.463 15.9966 113.03 16.2299 110.596C16.4158 108.657 16.5678 106.709 16.8721 104.787C17.3811 101.571 17.8992 98.3511 18.5996 95.1743C19.3377 91.8264 20.2985 88.5282 21.1528 85.206C21.4641 83.9956 21.7397 82.7761 22.0485 81.5653C22.3311 80.4562 21.9221 79.4497 21.5773 78.4497C20.6914 75.881 20.7028 73.2914 21.208 70.6539C21.7187 67.988 23.947 68.2405 25.359 69.4154C25.4371 69.4805 25.5089 69.5531 25.6748 69.7066C25.6748 69.205 25.6748 68.8059 25.6748 68.3781C25.0455 68.2726 24.3711 68.2879 23.8117 68.0411C22.3059 67.3762 20.872 66.5477 19.3674 65.8793C17.0204 64.8369 15.5618 63.0278 14.7203 60.671C14.5184 60.1053 14.4337 59.4761 14.4094 58.8716C14.3212 56.6702 14.482 54.4833 15.8559 52.6533C16.9101 51.2491 18.387 50.3445 19.9107 49.4531C22.0826 48.1828 24.4583 47.674 26.8422 47.2614C28.1259 47.039 29.5122 47.3741 30.8484 47.4993C34.658 47.8559 37.2465 50.3079 39.6069 52.936C41.3852 54.9163 41.6215 57.4097 40.8818 59.9668C40.6692 60.7016 40.5114 61.4609 40.2137 62.1598C39.9263 62.8345 39.4907 63.4456 39.0686 64.1736C40.5249 64.7951 40.5547 66.1059 40.523 67.4288C40.4861 68.9594 39.9255 70.2729 38.8659 71.3859C38.3559 71.9217 37.9009 72.5104 37.3537 73.1546C38.4595 73.3178 39.3852 73.6358 39.7756 74.6557C39.9858 75.2051 40.2124 75.862 40.0947 76.3956C39.9404 77.0938 40.1741 77.4727 40.6093 77.8986C41.4942 78.7643 41.5222 80.1924 40.6943 81.1367C41.3715 82.0738 41.615 82.9754 41.1213 84.1867C40.6376 85.373 40.2082 86.5622 39.4327 87.585C39.0735 88.0588 38.6809 88.5522 38.197 88.8771C36.8412 89.7877 36.7632 91.1514 36.7678 92.5559C36.7738 94.4009 36.7543 96.2488 36.8491 98.0902C36.9833 100.701 37.2217 103.307 37.3957 105.916C37.4909 107.342 37.5393 108.77 37.6193 110.197C37.7846 113.149 38.0045 116.099 38.1108 119.054C38.1885 121.211 38.0981 123.374 38.1275 125.534C38.1415 126.565 38.2629 127.595 38.3261 128.626C38.3337 128.749 38.2806 128.875 38.2555 129C37.8803 129 37.5049 129 37.1295 129Z" fill="white"/>
<path d="M155.349 89.8959C155.216 90.4924 155.151 91.0618 154.958 91.5836C154.638 92.4483 153.87 91.6977 153.371 91.9391C153.123 93.2149 153.474 93.63 154.988 94.0052C155.95 94.2437 157.132 93.3976 157.399 92.3011C157.76 90.8241 157.445 90.4438 155.349 89.8959ZM176.251 63.6601C176.188 63.6164 176.127 63.5727 176.064 63.529C175.989 63.666 175.912 63.8026 175.838 63.9405C174.67 66.0988 173.229 68.0525 171.54 69.8337C169.843 71.6211 168.245 73.5023 166.517 75.2573C164.804 76.997 162.961 78.607 161.219 80.3185C159.867 81.6477 158.582 83.0459 157.148 84.5366C157.673 84.6809 157.945 84.8223 158.215 84.8193C160.067 84.7978 161.919 84.7488 163.772 84.7033C165.85 84.6522 167.653 83.7128 169.361 82.7077C170.406 82.0922 171.21 81.0388 172.06 80.1234C173.147 78.952 174.011 77.5929 174.561 76.1063C174.948 75.0538 175.066 73.8865 175.206 72.7583C175.582 69.729 175.905 66.6932 176.251 63.6601ZM155.537 83.9135C156.348 82.8348 156.986 81.7642 157.834 80.9024C159.569 79.1402 161.403 77.4731 163.223 75.7983C165.462 73.74 167.83 71.8109 169.954 69.6432C171.678 67.8864 173.126 65.8597 174.697 63.9526C174.652 63.896 174.606 63.8394 174.561 63.7828C173.816 64.0346 173.081 64.3271 172.323 64.5311C169.681 65.2418 167.058 66.0714 164.377 66.574C161.335 67.1437 158.62 68.2446 156.48 70.494C155.429 71.5998 154.294 72.7236 153.956 74.315C153.791 75.0911 153.75 75.8941 153.656 76.6852C153.348 79.2987 154.375 81.5527 155.537 83.9135ZM179.329 129C179.31 126.537 178.536 124.262 177.354 122.166C176.05 119.853 174.459 117.702 173.147 115.394C171.839 113.093 170.202 111.108 168.214 109.395C167.36 108.659 166.488 107.943 165.604 107.244C164.946 106.724 164.415 106.146 164.098 105.336C163.876 104.771 163.441 104.293 163.13 103.759C162.899 103.36 162.969 103.061 163.508 103.137C165.884 103.474 167.897 102.307 170.012 101.571C170.268 101.482 170.48 101.272 170.686 101.022C169.457 100.742 168.241 100.66 167.066 101.099C166.461 101.325 166.118 101.067 165.933 100.609C165.888 100.497 166.337 100.073 166.623 99.96C168.095 99.3824 169.601 98.8883 171.069 98.303C171.643 98.074 172.153 97.6828 172.692 97.3657C172.671 97.2436 172.648 97.1215 172.627 96.9996C171.908 96.9867 171.169 96.8577 170.477 96.9866C169.261 97.2131 168.071 97.59 166.874 97.9186C166.155 98.116 165.432 98.6223 164.774 97.5754C164.827 97.5222 164.972 97.2784 165.186 97.1768C166.566 96.517 167.986 95.9357 169.345 95.2338C170.4 94.6883 171.439 94.0742 172.376 93.3499C172.771 93.0454 172.886 92.3782 173.165 91.802C172.275 91.2727 171.297 91.3972 170.49 91.6856C168.811 92.2866 167.191 93.0719 165.585 93.8598C164.788 94.2501 164.09 94.8382 163.32 95.2876C163.014 95.4655 162.632 95.5097 162.156 95.6538C162.156 94.573 162.115 93.7058 162.165 92.8437C162.246 91.4333 161.639 90.2089 161.092 89.0028C160.397 87.4643 158.102 86.5456 156.441 86.9254C155.615 87.1145 155.682 87.7918 155.558 88.3673C155.432 88.9586 155.872 89.0431 156.297 89.1935C156.824 89.3796 157.351 89.6057 157.819 89.9062C158.908 90.6056 159.118 92.3863 158.281 93.5379C156.754 95.6366 153.924 95.2239 152.491 93.6814C151.812 92.9511 152.064 91.9348 152.24 91.0197C152.26 90.9165 152.312 90.8179 152.358 90.7214C152.641 90.1254 152.971 89.3672 152.235 89.06C151.907 88.9233 151.069 89.4809 150.76 89.9295C149.644 91.5531 149.034 93.3662 148.948 95.3776C148.859 97.4543 148.974 99.4938 149.767 101.419C150.568 103.366 151.719 105.112 153.183 106.641C154.85 108.38 156.57 110.072 158.143 111.893C159.143 113.05 159.944 114.386 160.785 115.674C161.424 116.653 162.045 117.654 162.564 118.7C163.201 119.986 163.785 121.308 164.283 122.655C165.057 124.752 165.739 126.883 166.459 129C166.032 129 165.602 129 165.173 129C164.616 127.366 164.09 125.721 163.494 124.103C163.034 122.857 162.59 121.588 161.956 120.43C160.851 118.414 159.642 116.454 158.405 114.516C157.741 113.476 157.005 112.46 156.163 111.564C155.154 110.489 153.981 109.571 152.915 108.547C152.566 108.212 152.343 107.747 152.04 107.36C150.675 105.612 149.439 103.786 148.567 101.732C147.677 99.6351 147.378 97.4558 147.432 95.1783C147.469 93.5995 147.596 92.0638 148.53 90.7757C149.201 89.8495 150.039 89.0205 150.915 88.2802C151.229 88.014 151.869 88.093 152.36 88.0906C152.692 88.0891 153.024 88.221 153.435 88.3105C153.946 87.1968 154.462 86.1225 154.921 85.0242C155.001 84.833 154.895 84.5115 154.782 84.2999C153.719 82.3054 152.723 80.2354 152.627 77.9733C152.517 75.3489 152.753 72.7523 154.677 70.5914C156.513 68.5287 158.632 66.9046 161.236 66.0816C163.283 65.4346 165.464 65.2235 167.531 64.6301C170.136 63.8823 172.689 62.9527 175.255 62.0745C175.624 61.9489 175.933 61.6599 176.282 61.4706C176.532 61.3345 176.804 61.2384 177.068 61.1244C177.182 61.4384 177.42 61.7644 177.391 62.0643C177.139 64.6538 176.861 67.2416 176.544 69.824C176.293 71.8646 176.068 73.916 175.651 75.9252C175.434 76.9719 174.966 78.0273 174.377 78.9241C172.219 82.2099 169.523 84.8733 165.486 85.6608C164.303 85.8916 163.071 85.8903 161.86 85.9458C160.922 85.9887 159.98 85.9543 159.004 86.0556C160.373 86.8499 161.723 87.6666 162.331 89.1511C162.915 90.5765 163.289 92.0879 163.745 93.5211C166.009 92.2553 168.42 90.786 171.281 90.5232C172.026 90.4546 172.865 90.6236 173.552 90.9282C174.43 91.3168 174.422 91.8674 174.101 92.7729C173.718 93.8552 173.029 94.5488 172.027 95.0183C171.699 95.1719 171.42 95.4307 171.014 95.7141C171.741 95.901 172.336 96.0263 172.914 96.2109C173.438 96.3788 173.988 96.6623 173.861 97.3068C173.776 97.7436 173.499 98.2633 173.144 98.5015C172.362 99.0265 171.477 99.3968 170.543 99.8774C170.728 99.9508 170.85 100.022 170.982 100.047C171.543 100.154 172.118 100.394 172.109 100.989C172.105 101.38 171.725 101.832 171.4 102.134C171.061 102.45 170.607 102.676 170.167 102.84C168.983 103.28 167.78 103.671 166.58 104.069C166.155 104.21 165.72 104.315 165.12 104.485C165.408 104.848 165.625 105.191 165.906 105.467C168.155 107.672 170.525 109.765 172.639 112.094C174.179 113.792 175.463 115.746 176.721 117.678C177.808 119.35 178.826 121.094 179.64 122.912C180.381 124.574 180.804 126.379 181.377 128.118C181.475 128.42 181.618 128.706 181.742 129C180.938 129 180.133 129 179.329 129Z" fill="white"/>
<path d="M77.8026 65.2083C77.6807 64.3625 77.7304 63.7106 77.4835 63.2036C76.9737 62.1566 76.3422 61.1627 75.6949 60.1912C74.5742 58.509 73.5322 56.749 72.2206 55.2266C70.6275 53.3776 70.5281 53.6122 69.2032 55.2938C68.3114 56.4258 67.2862 57.4972 66.6249 58.7562C65.5835 60.7386 64.2818 62.4322 62.5305 63.813C62.0377 64.2015 61.6696 64.7489 61.2587 65.2075C62.808 65.9775 64.1987 66.6408 65.56 67.3597C66.0713 67.6298 66.3104 67.4053 66.5219 67.0161C67.668 64.9063 68.809 62.7939 69.948 60.6804C70.3504 59.9337 71.1047 59.9417 71.6546 60.6156C73.0686 62.3487 74.5144 64.0565 75.9775 65.7485C76.4606 66.3072 76.4704 66.5173 75.8697 66.8995C75.1588 67.3518 74.4652 67.8312 73.6296 68.3885C76.5584 69.499 79.3876 70.572 82.2451 71.6554C82.6718 68.6358 83.0763 65.7733 83.5156 62.6647C81.6163 64.0608 79.6324 64.6305 77.8026 65.2083ZM70.7388 61.6468C70.2357 62.7146 69.7521 63.7761 69.2384 64.8228C68.6163 66.09 67.9776 67.3492 67.3287 68.6029C67.0181 69.2031 66.437 69.083 65.9762 68.9374C65.4561 68.7731 64.986 68.4433 64.5028 68.1698C63.4896 67.5959 62.4852 67.0062 61.471 66.4341C60.8965 66.1102 60.2891 65.8404 59.7352 65.4858C59.3217 65.221 59.4531 64.9321 59.8203 64.6818C60.1436 64.4616 60.5206 64.2547 60.731 63.9444C62.2272 61.7377 63.6274 59.4633 65.1801 57.2982C66.1179 55.9906 67.2185 54.7857 68.3475 53.6349C69.5084 52.4518 70.8289 52.5766 72.0871 53.2368C72.3664 53.3835 72.5417 53.7357 72.756 54.0005C74.213 55.8015 75.6844 57.5912 77.1125 59.4149C77.5348 59.9541 77.8216 60.5983 78.1896 61.1824C79.1129 62.6473 79.9793 62.8682 81.7609 62.1758C82.5245 61.879 83.3118 61.6347 84.1028 61.4196C84.6945 61.2585 85.3348 62.1231 85.1863 62.9474C84.9254 64.3975 84.5788 65.832 84.3086 67.2807C84.0359 68.7426 83.8064 70.2127 83.5698 71.6812C83.4059 72.698 83.1772 72.9807 82.1604 72.8485C80.9813 72.695 79.7585 72.5239 78.6735 72.073C76.4651 71.1555 74.3309 70.0569 72.1783 69.0077C71.3928 68.6249 71.387 68.1996 72.1271 67.7686C72.8642 67.3394 73.6139 66.9314 74.3627 66.523C74.7855 66.2924 74.773 65.9838 74.4989 65.6716C73.366 64.3813 72.2202 63.1022 71.0753 61.8227C71.0261 61.7677 70.9373 61.7484 70.7388 61.6468Z" fill="white"/>
<path d="M36.7311 33.3C36.539 34.6674 36.4057 36.0464 36.1411 37.3996C35.7318 39.4915 35.2274 41.5647 34.776 43.6486C34.6751 44.1144 34.6661 44.6027 34.5383 45.0592C34.4706 45.3004 34.2382 45.4952 34.0802 45.7109C33.7759 45.482 33.1707 45.5411 33.2871 44.9073C33.4452 44.0473 33.5955 43.1848 33.7906 42.3329C34.4164 39.6005 35.0425 36.8678 35.7226 34.1488C35.809 33.8038 36.2177 33.5396 36.477 33.2379C36.5617 33.2586 36.6465 33.2794 36.7311 33.3Z" fill="white"/>
<path d="M27.03 45.5527C25.6544 45.5231 25.8882 44.6041 25.8627 43.8803C25.7988 42.0776 25.762 40.2741 25.7244 38.4706C25.7092 37.7469 25.6946 37.0212 25.7361 36.2996C25.7483 36.0866 25.9534 35.8847 26.0701 35.6778C26.2754 35.8495 26.6152 35.9913 26.6612 36.1986C26.8119 36.8789 26.9037 37.5812 26.9324 38.2786C27.0194 40.3926 27.071 42.5082 27.1228 44.6235C27.1304 44.9305 27.0633 45.2394 27.03 45.5527Z" fill="white"/>
<path d="M18.0963 36.0337C18.6079 36.9066 19.2207 37.7365 19.6105 38.661C20.4565 40.6674 21.1902 42.7216 21.9663 44.7575C22.2138 45.4073 22.0065 45.5662 20.9038 45.5379C19.9727 42.3994 18.427 39.4437 17.6689 36.2283C17.8113 36.1635 17.9538 36.0985 18.0963 36.0337Z" fill="white"/>
<path d="M38.415 44.275C39.2084 42.629 39.8719 40.8863 41.3464 39.6539C41.4274 39.6836 41.5085 39.7134 41.5896 39.7431C41.3311 40.5109 41.1063 41.2924 40.8047 42.0426C40.5176 42.757 40.1644 43.4462 39.8146 44.1331C39.4177 44.9123 39.1515 44.9414 38.415 44.275Z" fill="white"/>
</svg>
