<svg width="46" height="41" viewBox="0 0 46 41" fill="none" xmlns="http://www.w3.org/2000/svg">
<path d="M8 0.0107422C8.85938 0.0107422 9.64062 0.713867 9.79688 1.57324L14.4844 26.2607H38.625C39.6406 26.2607 40.5 27.1201 40.5 28.1357C40.5 29.2295 39.6406 30.0107 38.625 30.0107H12.9219C12.0625 30.0107 11.2812 29.3857 11.125 28.5264L6.4375 3.76074H2.375C1.28125 3.76074 0.5 2.97949 0.5 1.88574C0.5 0.870117 1.28125 0.0107422 2.375 0.0107422H8ZM10.5 36.2607C10.5 34.2295 12.1406 32.5107 14.25 32.5107C16.2812 32.5107 18 34.2295 18 36.2607C18 38.3701 16.2812 40.0107 14.25 40.0107C12.1406 40.0107 10.5 38.3701 10.5 36.2607ZM40.5 36.2607C40.5 38.3701 38.7812 40.0107 36.75 40.0107C34.6406 40.0107 33 38.3701 33 36.2607C33 34.2295 34.6406 32.5107 36.75 32.5107C38.7812 32.5107 40.5 34.2295 40.5 36.2607ZM31.75 10.9482C32.6094 10.9482 33.3125 11.6514 33.3125 12.5107C33.3125 13.3701 32.6094 14.0732 31.75 14.0732H21.75C20.8125 14.0732 20.1875 13.3701 20.1875 12.5107C20.1875 11.6514 20.8125 10.9482 21.75 10.9482H31.75Z" fill="#597492"/>
<path opacity="0.4" d="M38.5469 22.5107H13.7812L9.95312 2.51074H42.7656C44.4062 2.51074 45.6562 4.15137 45.1875 5.71387L40.9688 20.7139C40.6562 21.8076 39.7188 22.5107 38.5469 22.5107ZM21.75 10.9482C20.8125 10.9482 20.1875 11.6514 20.1875 12.5107C20.1875 13.3701 20.8125 14.0732 21.75 14.0732H31.75C32.6094 14.0732 33.3125 13.3701 33.3125 12.5107C33.3125 11.6514 32.6094 10.9482 31.75 10.9482H21.75Z" fill="#597492"/>
</svg>
