<svg width="40" height="41" viewBox="0 0 40 41" fill="none" xmlns="http://www.w3.org/2000/svg">
<path d="M3.75 10.0107H35C35 10.0107 35 10.0107 35.0781 10.0107C35.9375 10.0889 36.7188 10.3232 37.5 10.7139C38.9844 11.5732 40 13.2139 40 15.0107V32.5107C40 35.3232 37.7344 37.5107 35 37.5107H5C2.1875 37.5107 0 35.3232 0 32.5107V6.26074C0 8.37012 1.64062 10.0107 3.75 10.0107ZM32.5 26.2607C33.8281 26.2607 35 25.167 35 23.7607C35 22.4326 33.8281 21.2607 32.5 21.2607C31.0938 21.2607 30 22.4326 30 23.7607C30 25.167 31.0938 26.2607 32.5 26.2607Z" fill="#597492"/>
<path opacity="0.4" d="M0 6.26074C0 4.22949 1.64062 2.51074 3.75 2.51074H33.75C35.7812 2.51074 37.5 4.22949 37.5 6.26074V10.7139C36.7188 10.3232 35.8594 10.0107 35 10.0107H3.75C1.64062 10.0107 0 8.37012 0 6.26074Z" fill="#597492"/>
</svg>
