<svg width="51" height="41" viewBox="0 0 51 41" fill="none" xmlns="http://www.w3.org/2000/svg">
<path d="M1.46875 34.375L12.0156 16.7188L18.5 20.4688L7.95312 38.2031C6.85938 40 4.59375 40.5469 2.79688 39.5312C1 38.4375 0.453125 36.1719 1.46875 34.375ZM30.4531 10C31.625 10.7031 32.0156 12.2656 31.3906 13.3594L27.6406 19.8438C26.9375 21.0938 25.375 21.4844 24.2031 20.7812L6.78125 10.7812C5.60938 10.1562 5.21875 8.67188 5.84375 7.5L7.79688 3.90625C8.1875 3.04688 9.04688 2.5 9.98438 2.5H16.7812C17.25 2.5 17.6406 2.65625 18.0312 2.89062L19.5938 3.75L26.0781 7.5L30.4531 10Z" fill="#597492"/>
<path opacity="0.4" d="M51 17.5C51 17.9688 50.6094 18.5156 50.1406 18.6719L42.4844 21.1719L46.0781 28.3594C46.3125 28.9062 46.2344 29.4531 45.8438 29.8438C45.4531 30.2344 44.9062 30.3125 44.3594 30.0781L37.1719 26.4844L34.6719 34.1406C34.4375 34.6094 33.9688 35 33.5 35C32.9531 35 32.4062 34.6094 32.25 34.1406L29.75 26.4844L22.5625 30.0781C22.0156 30.3125 21.4688 30.2344 21.0781 29.8438C20.6875 29.4531 20.6094 28.9062 20.8438 28.3594L23.4219 23.2031C25.7656 24.2188 28.5 23.3594 29.75 21.0938L33.5 14.6094C34.9062 12.2656 34.125 9.21875 31.7031 7.8125L30.2188 6.95312L32.25 0.859375C32.4062 0.3125 32.9531 0 33.5 0C33.9688 0 34.4375 0.3125 34.6719 0.859375L37.1719 8.4375L44.3594 4.84375C44.9062 4.60938 45.4531 4.6875 45.8438 5.07812C46.2344 5.46875 46.3125 6.09375 46.0781 6.5625L42.4844 13.8281L50.1406 16.3281C50.6094 16.4844 51 17.0312 51 17.5Z" fill="#597492"/>
</svg>
