<svg width="40" height="40" viewBox="0 0 40 40" fill="none" xmlns="http://www.w3.org/2000/svg">
<path d="M20.0781 14.6875L28.9844 18.75C29.4531 18.9844 29.7656 19.4531 29.7656 19.9219C29.7656 20.3906 29.4531 20.8594 28.9844 21.0938L20.0781 25.1562L16.0156 34.0625C15.7812 34.5312 15.3125 34.8438 14.8438 34.8438C14.375 34.8438 13.9062 34.5312 13.75 34.0625L9.60938 25.1562L0.703125 21.0938C0.234375 20.8594 0 20.3906 0 19.9219C0 19.4531 0.234375 18.9844 0.703125 18.75L9.60938 14.6875L13.75 5.78125C13.9062 5.3125 14.375 5 14.8438 5C15.3125 5 15.7812 5.3125 16.0156 5.78125L20.0781 14.6875Z" fill="#597492"/>
<path opacity="0.4" d="M25.5469 6.71875L30 5L31.6406 0.625C31.7188 0.234375 32.1094 0 32.5 0C32.8125 0 33.2031 0.234375 33.2812 0.625L35 5L39.375 6.71875C39.7656 6.79688 40 7.1875 40 7.5C40 7.89062 39.7656 8.28125 39.375 8.35938L35 10L33.2812 14.4531C33.2031 14.7656 32.8125 15 32.5 15C32.1094 15 31.7188 14.7656 31.6406 14.4531L30 10L25.5469 8.35938C25.1562 8.28125 25 7.89062 25 7.5C25 7.1875 25.1562 6.79688 25.5469 6.71875ZM25.5469 31.7188L30 30L31.6406 25.625C31.7188 25.2344 32.1094 25 32.5 25C32.8125 25 33.2031 25.2344 33.2812 25.625L35 30L39.375 31.7188C39.7656 31.7969 40 32.1875 40 32.5C40 32.8906 39.7656 33.2812 39.375 33.3594L35 35L33.2812 39.4531C33.2031 39.7656 32.8125 40 32.5 40C32.1094 40 31.7188 39.7656 31.6406 39.4531L30 35L25.5469 33.3594C25.1562 33.2812 25 32.8906 25 32.5C25 32.1875 25.1562 31.7969 25.5469 31.7188Z" fill="#597492"/>
</svg>
