<svg width="380" height="240" viewBox="0 0 380 240" fill="none" xmlns="http://www.w3.org/2000/svg">
<g clip-path="url(#clip0_7271_2164)">
<mask id="mask0_7271_2164" style="mask-type:luminance" maskUnits="userSpaceOnUse" x="0" y="0" width="380" height="240">
<path d="M371.5 0H8.5C4.08172 0 0.5 3.58172 0.5 8V232C0.5 236.418 4.08172 240 8.5 240H371.5C375.918 240 379.5 236.418 379.5 232V8C379.5 3.58172 375.918 0 371.5 0Z" fill="white"/>
</mask>
<g mask="url(#mask0_7271_2164)">
<path d="M371.5 0H8.5C4.08172 0 0.5 3.58172 0.5 8V232C0.5 236.418 4.08172 240 8.5 240H371.5C375.918 240 379.5 236.418 379.5 232V8C379.5 3.58172 375.918 0 371.5 0Z" fill="white"/>
<mask id="mask1_7271_2164" style="mask-type:luminance" maskUnits="userSpaceOnUse" x="46" y="-20" width="353" height="391">
<path d="M398.5 -20H46.5V371H398.5V-20Z" fill="white"/>
</mask>
<g mask="url(#mask1_7271_2164)">
<path d="M86 -19.5H47V19.5H86V-19.5Z" stroke="#BECFD2" stroke-opacity="0.02"/>
<path d="M125 -19.5H86V19.5H125V-19.5Z" stroke="#BECFD2" stroke-opacity="0.02"/>
<path d="M164 -19.5H125V19.5H164V-19.5Z" stroke="#BECFD2" stroke-opacity="0.02"/>
<path d="M203 -19.5H164V19.5H203V-19.5Z" stroke="#BECFD2" stroke-opacity="0.02"/>
<path d="M242 -19.5H203V19.5H242V-19.5Z" stroke="#BECFD2" stroke-opacity="0.02"/>
<path d="M281 -19.5H242V19.5H281V-19.5Z" stroke="#BECFD2" stroke-opacity="0.02"/>
<path d="M320 -19.5H281V19.5H320V-19.5Z" stroke="#BECFD2" stroke-opacity="0.02"/>
<path d="M355.5 -16H323.5V16H355.5V-16Z" fill="#5F789D" fill-opacity="0.01"/>
<path d="M355 -15.5H324V15.5H355V-15.5Z" stroke="#5F789D" stroke-opacity="0.08"/>
<path d="M359 -19.5H320V19.5H359V-19.5Z" stroke="#5F789D" stroke-opacity="0.12"/>
<path d="M398 -19.5H359V19.5H398V-19.5Z" stroke="#BECFD2" stroke-opacity="0.02"/>
<path d="M86 19.5H47V58.5H86V19.5Z" stroke="#BECFD2" stroke-opacity="0.02"/>
<path d="M125 19.5H86V58.5H125V19.5Z" stroke="#BECFD2" stroke-opacity="0.02"/>
<path d="M164 19.5H125V58.5H164V19.5Z" stroke="#BECFD2" stroke-opacity="0.02"/>
<path d="M203 19.5H164V58.5H203V19.5Z" stroke="#BECFD2" stroke-opacity="0.02"/>
<path d="M242 19.5H203V58.5H242V19.5Z" stroke="#BECFD2" stroke-opacity="0.02"/>
<path d="M281 19.5H242V58.5H281V19.5Z" stroke="#BECFD2" stroke-opacity="0.02"/>
<path d="M316.5 23H284.5V55H316.5V23Z" fill="#5F789D" fill-opacity="0.08"/>
<path d="M316 23.5H285V54.5H316V23.5Z" stroke="#5F789D" stroke-opacity="0.02"/>
<path d="M320 19.5H281V58.5H320V19.5Z" stroke="#5F789D" stroke-opacity="0.08"/>
<path d="M359 19.5H320V58.5H359V19.5Z" stroke="#BECFD2" stroke-opacity="0.02"/>
<path d="M398 19.5H359V58.5H398V19.5Z" stroke="#BECFD2" stroke-opacity="0.02"/>
<path d="M86 58.5H47V97.5H86V58.5Z" stroke="#BECFD2" stroke-opacity="0.02"/>
<path d="M125 58.5H86V97.5H125V58.5Z" stroke="#BECFD2" stroke-opacity="0.02"/>
<path d="M164 58.5H125V97.5H164V58.5Z" stroke="#BECFD2" stroke-opacity="0.02"/>
<path d="M203 58.5H164V97.5H203V58.5Z" stroke="#BECFD2" stroke-opacity="0.02"/>
<path d="M242 58.5H203V97.5H242V58.5Z" stroke="#BECFD2" stroke-opacity="0.02"/>
<path d="M281 58.5H242V97.5H281V58.5Z" stroke="#BECFD2" stroke-opacity="0.02"/>
<path d="M320 58.5H281V97.5H320V58.5Z" stroke="#BECFD2" stroke-opacity="0.02"/>
<path d="M355.5 62H323.5V94H355.5V62Z" fill="#5F789D" fill-opacity="0.01"/>
<path d="M355 62.5H324V93.5H355V62.5Z" stroke="#5F789D" stroke-opacity="0.08"/>
<path d="M359 58.5H320V97.5H359V58.5Z" stroke="#5F789D" stroke-opacity="0.12"/>
<path d="M398 58.5H359V97.5H398V58.5Z" stroke="#BECFD2" stroke-opacity="0.02"/>
<path d="M86 97.5H47V136.5H86V97.5Z" stroke="#BECFD2" stroke-opacity="0.02"/>
<path d="M125 97.5H86V136.5H125V97.5Z" stroke="#BECFD2" stroke-opacity="0.02"/>
<path d="M164 97.5H125V136.5H164V97.5Z" stroke="#BECFD2" stroke-opacity="0.02"/>
<path d="M203 97.5H164V136.5H203V97.5Z" stroke="#BECFD2" stroke-opacity="0.02"/>
<path d="M242 97.5H203V136.5H242V97.5Z" stroke="#BECFD2" stroke-opacity="0.02"/>
<path d="M281 97.5H242V136.5H281V97.5Z" stroke="#BECFD2" stroke-opacity="0.02"/>
<path d="M320 97.5H281V136.5H320V97.5Z" stroke="#BECFD2" stroke-opacity="0.02"/>
<path d="M359 97.5H320V136.5H359V97.5Z" stroke="#BECFD2" stroke-opacity="0.02"/>
<path d="M394.5 101H362.5V133H394.5V101Z" fill="#5F789D" fill-opacity="0.04"/>
<path d="M394 101.5H363V132.5H394V101.5Z" stroke="#5F789D" stroke-opacity="0.08"/>
<path d="M398 97.5H359V136.5H398V97.5Z" stroke="#5F789D" stroke-opacity="0.12"/>
<path d="M86 136.5H47V175.5H86V136.5Z" stroke="#BECFD2" stroke-opacity="0.02"/>
<path d="M125 136.5H86V175.5H125V136.5Z" stroke="#BECFD2" stroke-opacity="0.02"/>
<path d="M164 136.5H125V175.5H164V136.5Z" stroke="#BECFD2" stroke-opacity="0.02"/>
<path d="M203 136.5H164V175.5H203V136.5Z" stroke="#BECFD2" stroke-opacity="0.02"/>
<path d="M242 136.5H203V175.5H242V136.5Z" stroke="#BECFD2" stroke-opacity="0.02"/>
<path d="M281 136.5H242V175.5H281V136.5Z" stroke="#BECFD2" stroke-opacity="0.02"/>
<path d="M320 136.5H281V175.5H320V136.5Z" stroke="#BECFD2" stroke-opacity="0.02"/>
<path d="M359 136.5H320V175.5H359V136.5Z" stroke="#5F789D" stroke-opacity="0.12"/>
<path d="M398 136.5H359V175.5H398V136.5Z" stroke="#BECFD2" stroke-opacity="0.02"/>
<path d="M86 175.5H47V214.5H86V175.5Z" stroke="#BECFD2" stroke-opacity="0.02"/>
<path d="M125 175.5H86V214.5H125V175.5Z" stroke="#BECFD2" stroke-opacity="0.02"/>
<path d="M164 175.5H125V214.5H164V175.5Z" stroke="#BECFD2" stroke-opacity="0.02"/>
<path d="M203 175.5H164V214.5H203V175.5Z" stroke="#BECFD2" stroke-opacity="0.02"/>
<path d="M242 175.5H203V214.5H242V175.5Z" stroke="#BECFD2" stroke-opacity="0.02"/>
<path d="M281 175.5H242V214.5H281V175.5Z" stroke="#BECFD2" stroke-opacity="0.02"/>
<path d="M320 175.5H281V214.5H320V175.5Z" stroke="#BECFD2" stroke-opacity="0.02"/>
<path d="M359 175.5H320V214.5H359V175.5Z" stroke="#BECFD2" stroke-opacity="0.02"/>
<path d="M398 175.5H359V214.5H398V175.5Z" stroke="#BECFD2" stroke-opacity="0.02"/>
<path d="M86 214.5H47V253.5H86V214.5Z" stroke="#BECFD2" stroke-opacity="0.02"/>
<path d="M125 214.5H86V253.5H125V214.5Z" stroke="#BECFD2" stroke-opacity="0.02"/>
<path d="M164 214.5H125V253.5H164V214.5Z" stroke="#BECFD2" stroke-opacity="0.02"/>
<path d="M203 214.5H164V253.5H203V214.5Z" stroke="#BECFD2" stroke-opacity="0.02"/>
<path d="M242 214.5H203V253.5H242V214.5Z" stroke="#BECFD2" stroke-opacity="0.02"/>
<path d="M281 214.5H242V253.5H281V214.5Z" stroke="#BECFD2" stroke-opacity="0.02"/>
<path d="M320 214.5H281V253.5H320V214.5Z" stroke="#BECFD2" stroke-opacity="0.02"/>
<path d="M359 214.5H320V253.5H359V214.5Z" stroke="#BECFD2" stroke-opacity="0.02"/>
<path d="M398 214.5H359V253.5H398V214.5Z" stroke="#BECFD2" stroke-opacity="0.02"/>
</g>
<path d="M19.9684 110.375L30.5152 92.7188L36.9996 96.4688L26.4527 114.203C25.359 116 23.0934 116.547 21.2965 115.531C19.4996 114.438 18.9527 112.172 19.9684 110.375ZM48.9527 86C50.1246 86.7031 50.5152 88.2656 49.8902 89.3594L46.1402 95.8438C45.4371 97.0938 43.8746 97.4844 42.7027 96.7812L25.2808 86.7812C24.109 86.1562 23.7184 84.6719 24.3434 83.5L26.2965 79.9062C26.6871 79.0469 27.5465 78.5 28.484 78.5H35.2808C35.7496 78.5 36.1402 78.6562 36.5308 78.8906L38.0934 79.75L44.5777 83.5L48.9527 86Z" fill="#597492"/>
<path opacity="0.4" d="M69.5 93.5C69.5 93.9688 69.1094 94.5156 68.6406 94.6719L60.9844 97.1719L64.5781 104.359C64.8125 104.906 64.7344 105.453 64.3438 105.844C63.9531 106.234 63.4062 106.312 62.8594 106.078L55.6719 102.484L53.1719 110.141C52.9375 110.609 52.4688 111 52 111C51.4531 111 50.9062 110.609 50.75 110.141L48.25 102.484L41.0625 106.078C40.5156 106.312 39.9688 106.234 39.5781 105.844C39.1875 105.453 39.1094 104.906 39.3438 104.359L41.9219 99.2031C44.2656 100.219 47 99.3594 48.25 97.0938L52 90.6094C53.4062 88.2656 52.625 85.2188 50.2031 83.8125L48.7188 82.9531L50.75 76.8594C50.9062 76.3125 51.4531 76 52 76C52.4688 76 52.9375 76.3125 53.1719 76.8594L55.6719 84.4375L62.8594 80.8438C63.4062 80.6094 63.9531 80.6875 64.3438 81.0781C64.7344 81.4688 64.8125 82.0938 64.5781 82.5625L60.9844 89.8281L68.6406 92.3281C69.1094 92.4844 69.5 93.0312 69.5 93.5Z" fill="#597492"/>
</g>
<path d="M371.5 0.5H8.5C4.35786 0.5 1 3.85786 1 8V232C1 236.142 4.35786 239.5 8.5 239.5H371.5C375.642 239.5 379 236.142 379 232V8C379 3.85786 375.642 0.5 371.5 0.5Z" stroke="#EDEDEE"/>
</g>
<defs>
<clipPath id="clip0_7271_2164">
<rect width="379" height="240" fill="white" transform="translate(0.5)"/>
</clipPath>
</defs>
</svg>
