<svg width="380" height="240" viewBox="0 0 380 240" fill="none" xmlns="http://www.w3.org/2000/svg">
<g clip-path="url(#clip0_7271_2080)">
<mask id="mask0_7271_2080" style="mask-type:luminance" maskUnits="userSpaceOnUse" x="0" y="0" width="380" height="240">
<path d="M371.5 0H8.5C4.08172 0 0.5 3.58172 0.5 8V232C0.5 236.418 4.08172 240 8.5 240H371.5C375.918 240 379.5 236.418 379.5 232V8C379.5 3.58172 375.918 0 371.5 0Z" fill="white"/>
</mask>
<g mask="url(#mask0_7271_2080)">
<path d="M371.5 0H8.5C4.08172 0 0.5 3.58172 0.5 8V232C0.5 236.418 4.08172 240 8.5 240H371.5C375.918 240 379.5 236.418 379.5 232V8C379.5 3.58172 375.918 0 371.5 0Z" fill="white"/>
<mask id="mask1_7271_2080" style="mask-type:luminance" maskUnits="userSpaceOnUse" x="46" y="-20" width="353" height="391">
<path d="M398.5 -20H46.5V371H398.5V-20Z" fill="white"/>
</mask>
<g mask="url(#mask1_7271_2080)">
<path d="M86 -19.5H47V19.5H86V-19.5Z" stroke="#BECFD2" stroke-opacity="0.02"/>
<path d="M125 -19.5H86V19.5H125V-19.5Z" stroke="#BECFD2" stroke-opacity="0.02"/>
<path d="M164 -19.5H125V19.5H164V-19.5Z" stroke="#BECFD2" stroke-opacity="0.02"/>
<path d="M203 -19.5H164V19.5H203V-19.5Z" stroke="#BECFD2" stroke-opacity="0.02"/>
<path d="M242 -19.5H203V19.5H242V-19.5Z" stroke="#BECFD2" stroke-opacity="0.02"/>
<path d="M281 -19.5H242V19.5H281V-19.5Z" stroke="#BECFD2" stroke-opacity="0.02"/>
<path d="M320 -19.5H281V19.5H320V-19.5Z" stroke="#BECFD2" stroke-opacity="0.02"/>
<path d="M355.5 -16H323.5V16H355.5V-16Z" fill="#5F789D" fill-opacity="0.01"/>
<path d="M355 -15.5H324V15.5H355V-15.5Z" stroke="#5F789D" stroke-opacity="0.08"/>
<path d="M359 -19.5H320V19.5H359V-19.5Z" stroke="#5F789D" stroke-opacity="0.12"/>
<path d="M398 -19.5H359V19.5H398V-19.5Z" stroke="#BECFD2" stroke-opacity="0.02"/>
<path d="M86 19.5H47V58.5H86V19.5Z" stroke="#BECFD2" stroke-opacity="0.02"/>
<path d="M125 19.5H86V58.5H125V19.5Z" stroke="#BECFD2" stroke-opacity="0.02"/>
<path d="M164 19.5H125V58.5H164V19.5Z" stroke="#BECFD2" stroke-opacity="0.02"/>
<path d="M203 19.5H164V58.5H203V19.5Z" stroke="#BECFD2" stroke-opacity="0.02"/>
<path d="M242 19.5H203V58.5H242V19.5Z" stroke="#BECFD2" stroke-opacity="0.02"/>
<path d="M281 19.5H242V58.5H281V19.5Z" stroke="#BECFD2" stroke-opacity="0.02"/>
<path d="M316.5 23H284.5V55H316.5V23Z" fill="#5F789D" fill-opacity="0.08"/>
<path d="M316 23.5H285V54.5H316V23.5Z" stroke="#5F789D" stroke-opacity="0.02"/>
<path d="M320 19.5H281V58.5H320V19.5Z" stroke="#5F789D" stroke-opacity="0.08"/>
<path d="M359 19.5H320V58.5H359V19.5Z" stroke="#BECFD2" stroke-opacity="0.02"/>
<path d="M398 19.5H359V58.5H398V19.5Z" stroke="#BECFD2" stroke-opacity="0.02"/>
<path d="M86 58.5H47V97.5H86V58.5Z" stroke="#BECFD2" stroke-opacity="0.02"/>
<path d="M125 58.5H86V97.5H125V58.5Z" stroke="#BECFD2" stroke-opacity="0.02"/>
<path d="M164 58.5H125V97.5H164V58.5Z" stroke="#BECFD2" stroke-opacity="0.02"/>
<path d="M203 58.5H164V97.5H203V58.5Z" stroke="#BECFD2" stroke-opacity="0.02"/>
<path d="M242 58.5H203V97.5H242V58.5Z" stroke="#BECFD2" stroke-opacity="0.02"/>
<path d="M281 58.5H242V97.5H281V58.5Z" stroke="#BECFD2" stroke-opacity="0.02"/>
<path d="M320 58.5H281V97.5H320V58.5Z" stroke="#BECFD2" stroke-opacity="0.02"/>
<path d="M355.5 62H323.5V94H355.5V62Z" fill="#5F789D" fill-opacity="0.01"/>
<path d="M355 62.5H324V93.5H355V62.5Z" stroke="#5F789D" stroke-opacity="0.08"/>
<path d="M359 58.5H320V97.5H359V58.5Z" stroke="#5F789D" stroke-opacity="0.12"/>
<path d="M398 58.5H359V97.5H398V58.5Z" stroke="#BECFD2" stroke-opacity="0.02"/>
<path d="M86 97.5H47V136.5H86V97.5Z" stroke="#BECFD2" stroke-opacity="0.02"/>
<path d="M125 97.5H86V136.5H125V97.5Z" stroke="#BECFD2" stroke-opacity="0.02"/>
<path d="M164 97.5H125V136.5H164V97.5Z" stroke="#BECFD2" stroke-opacity="0.02"/>
<path d="M203 97.5H164V136.5H203V97.5Z" stroke="#BECFD2" stroke-opacity="0.02"/>
<path d="M242 97.5H203V136.5H242V97.5Z" stroke="#BECFD2" stroke-opacity="0.02"/>
<path d="M281 97.5H242V136.5H281V97.5Z" stroke="#BECFD2" stroke-opacity="0.02"/>
<path d="M320 97.5H281V136.5H320V97.5Z" stroke="#BECFD2" stroke-opacity="0.02"/>
<path d="M359 97.5H320V136.5H359V97.5Z" stroke="#BECFD2" stroke-opacity="0.02"/>
<path d="M394.5 101H362.5V133H394.5V101Z" fill="#5F789D" fill-opacity="0.04"/>
<path d="M394 101.5H363V132.5H394V101.5Z" stroke="#5F789D" stroke-opacity="0.08"/>
<path d="M398 97.5H359V136.5H398V97.5Z" stroke="#5F789D" stroke-opacity="0.12"/>
<path d="M86 136.5H47V175.5H86V136.5Z" stroke="#BECFD2" stroke-opacity="0.02"/>
<path d="M125 136.5H86V175.5H125V136.5Z" stroke="#BECFD2" stroke-opacity="0.02"/>
<path d="M164 136.5H125V175.5H164V136.5Z" stroke="#BECFD2" stroke-opacity="0.02"/>
<path d="M203 136.5H164V175.5H203V136.5Z" stroke="#BECFD2" stroke-opacity="0.02"/>
<path d="M242 136.5H203V175.5H242V136.5Z" stroke="#BECFD2" stroke-opacity="0.02"/>
<path d="M281 136.5H242V175.5H281V136.5Z" stroke="#BECFD2" stroke-opacity="0.02"/>
<path d="M320 136.5H281V175.5H320V136.5Z" stroke="#BECFD2" stroke-opacity="0.02"/>
<path d="M359 136.5H320V175.5H359V136.5Z" stroke="#5F789D" stroke-opacity="0.12"/>
<path d="M398 136.5H359V175.5H398V136.5Z" stroke="#BECFD2" stroke-opacity="0.02"/>
<path d="M86 175.5H47V214.5H86V175.5Z" stroke="#BECFD2" stroke-opacity="0.02"/>
<path d="M125 175.5H86V214.5H125V175.5Z" stroke="#BECFD2" stroke-opacity="0.02"/>
<path d="M164 175.5H125V214.5H164V175.5Z" stroke="#BECFD2" stroke-opacity="0.02"/>
<path d="M203 175.5H164V214.5H203V175.5Z" stroke="#BECFD2" stroke-opacity="0.02"/>
<path d="M242 175.5H203V214.5H242V175.5Z" stroke="#BECFD2" stroke-opacity="0.02"/>
<path d="M281 175.5H242V214.5H281V175.5Z" stroke="#BECFD2" stroke-opacity="0.02"/>
<path d="M320 175.5H281V214.5H320V175.5Z" stroke="#BECFD2" stroke-opacity="0.02"/>
<path d="M359 175.5H320V214.5H359V175.5Z" stroke="#BECFD2" stroke-opacity="0.02"/>
<path d="M398 175.5H359V214.5H398V175.5Z" stroke="#BECFD2" stroke-opacity="0.02"/>
<path d="M86 214.5H47V253.5H86V214.5Z" stroke="#BECFD2" stroke-opacity="0.02"/>
<path d="M125 214.5H86V253.5H125V214.5Z" stroke="#BECFD2" stroke-opacity="0.02"/>
<path d="M164 214.5H125V253.5H164V214.5Z" stroke="#BECFD2" stroke-opacity="0.02"/>
<path d="M203 214.5H164V253.5H203V214.5Z" stroke="#BECFD2" stroke-opacity="0.02"/>
<path d="M242 214.5H203V253.5H242V214.5Z" stroke="#BECFD2" stroke-opacity="0.02"/>
<path d="M281 214.5H242V253.5H281V214.5Z" stroke="#BECFD2" stroke-opacity="0.02"/>
<path d="M320 214.5H281V253.5H320V214.5Z" stroke="#BECFD2" stroke-opacity="0.02"/>
<path d="M359 214.5H320V253.5H359V214.5Z" stroke="#BECFD2" stroke-opacity="0.02"/>
<path d="M398 214.5H359V253.5H398V214.5Z" stroke="#BECFD2" stroke-opacity="0.02"/>
</g>
<path d="M54.5 97.7969L63.6406 106.781C64.7344 107.953 64.7344 109.828 63.6406 110.922L59.5 115.062C58.3281 116.156 56.5312 116.156 55.3594 115.062L46.2188 105.922C44.4219 104.125 44.1094 101.391 45.125 99.2031L36.8438 90.9219H32L24.5 81L29.5 76L39.4219 83.5V88.3438L47.7812 96.7031C49.9688 95.6875 52.625 96 54.5 97.7969Z" fill="#597492"/>
<path opacity="0.4" d="M42.2344 99.9844C41.8438 101.781 42.0781 103.578 42.7812 105.219L33.4844 114.516C32.4688 115.531 31.0625 116 29.7344 116C28.4062 116 27 115.531 25.9844 114.516C23.9531 112.406 23.9531 109.125 25.9844 107.016L37.625 95.375L42.2344 99.9844ZM29.5 112.875C30.5156 112.875 31.375 112.094 31.375 111C31.375 109.984 30.5156 109.125 29.5 109.125C28.4062 109.125 27.625 109.984 27.625 111C27.625 112.094 28.4062 112.875 29.5 112.875ZM64.1094 84.5938C65.0469 88.4219 63.9531 92.4844 61.1406 95.2969C59.5 96.9375 57.3906 98.0312 55.0469 98.4219L54.5 97.7969C52.7031 96.0781 50.0469 95.6094 47.7812 96.7031L42.2344 91.1562L42.5469 90.8438C41.2969 86.9375 42.1562 82.4062 45.2031 79.3594C48.0938 76.5469 52.0781 75.4531 55.9062 76.3906C56.0625 76.3906 56.2188 76.4688 56.375 76.625C56.6875 77.0156 56.6875 77.5625 56.375 77.9531L50.5156 83.7344L51.4531 89.0469L56.7656 89.9844L62.5469 84.125C62.7031 84.0469 62.7812 83.9688 63.0156 83.8906C63.4844 83.7344 64.0312 84.0469 64.1094 84.5938Z" fill="#597492"/>
</g>
<path d="M371.5 0.5H8.5C4.35786 0.5 1 3.85786 1 8V232C1 236.142 4.35786 239.5 8.5 239.5H371.5C375.642 239.5 379 236.142 379 232V8C379 3.85786 375.642 0.5 371.5 0.5Z" stroke="#EDEDEE"/>
</g>
<defs>
<clipPath id="clip0_7271_2080">
<rect width="379" height="240" fill="white" transform="translate(0.5)"/>
</clipPath>
</defs>
</svg>
