<svg width="42" height="42" viewBox="0 0 42 42" fill="none" xmlns="http://www.w3.org/2000/svg">
<path d="M31 22.7969L40.1406 31.7812C41.2344 32.9531 41.2344 34.8281 40.1406 35.9219L36 40.0625C34.8281 41.1562 33.0312 41.1562 31.8594 40.0625L22.7188 30.9219C20.9219 29.125 20.6094 26.3906 21.625 24.2031L13.3438 15.9219H8.5L1 6L6 1L15.9219 8.5V13.3438L24.2812 21.7031C26.4688 20.6875 29.125 21 31 22.7969Z" fill="#597492"/>
<path opacity="0.4" d="M18.7344 24.9844C18.3438 26.7812 18.5781 28.5781 19.2812 30.2188L9.98438 39.5156C8.96875 40.5312 7.5625 41 6.23438 41C4.90625 41 3.5 40.5312 2.48438 39.5156C0.453125 37.4062 0.453125 34.125 2.48438 32.0156L14.125 20.375L18.7344 24.9844ZM6 37.875C7.01562 37.875 7.875 37.0938 7.875 36C7.875 34.9844 7.01562 34.125 6 34.125C4.90625 34.125 4.125 34.9844 4.125 36C4.125 37.0938 4.90625 37.875 6 37.875ZM40.6094 9.59375C41.5469 13.4219 40.4531 17.4844 37.6406 20.2969C36 21.9375 33.8906 23.0312 31.5469 23.4219L31 22.7969C29.2031 21.0781 26.5469 20.6094 24.2812 21.7031L18.7344 16.1562L19.0469 15.8438C17.7969 11.9375 18.6562 7.40625 21.7031 4.35938C24.5938 1.54688 28.5781 0.453125 32.4062 1.39062C32.5625 1.39062 32.7188 1.46875 32.875 1.625C33.1875 2.01562 33.1875 2.5625 32.875 2.95312L27.0156 8.73438L27.9531 14.0469L33.2656 14.9844L39.0469 9.125C39.2031 9.04688 39.2812 8.96875 39.5156 8.89062C39.9844 8.73438 40.5312 9.04688 40.6094 9.59375Z" fill="#597492"/>
</svg>
