<svg width="380" height="240" viewBox="0 0 380 240" fill="none" xmlns="http://www.w3.org/2000/svg">
<g clip-path="url(#clip0_7271_1996)">
<mask id="mask0_7271_1996" style="mask-type:luminance" maskUnits="userSpaceOnUse" x="0" y="0" width="380" height="240">
<path d="M371.5 0H8.5C4.08172 0 0.5 3.58172 0.5 8V232C0.5 236.418 4.08172 240 8.5 240H371.5C375.918 240 379.5 236.418 379.5 232V8C379.5 3.58172 375.918 0 371.5 0Z" fill="white"/>
</mask>
<g mask="url(#mask0_7271_1996)">
<path d="M371.5 0H8.5C4.08172 0 0.5 3.58172 0.5 8V232C0.5 236.418 4.08172 240 8.5 240H371.5C375.918 240 379.5 236.418 379.5 232V8C379.5 3.58172 375.918 0 371.5 0Z" fill="white"/>
<mask id="mask1_7271_1996" style="mask-type:luminance" maskUnits="userSpaceOnUse" x="46" y="-20" width="353" height="391">
<path d="M398.5 -20H46.5V371H398.5V-20Z" fill="white"/>
</mask>
<g mask="url(#mask1_7271_1996)">
<path d="M86 -19.5H47V19.5H86V-19.5Z" stroke="#BECFD2" stroke-opacity="0.02"/>
<path d="M125 -19.5H86V19.5H125V-19.5Z" stroke="#BECFD2" stroke-opacity="0.02"/>
<path d="M164 -19.5H125V19.5H164V-19.5Z" stroke="#BECFD2" stroke-opacity="0.02"/>
<path d="M203 -19.5H164V19.5H203V-19.5Z" stroke="#BECFD2" stroke-opacity="0.02"/>
<path d="M242 -19.5H203V19.5H242V-19.5Z" stroke="#BECFD2" stroke-opacity="0.02"/>
<path d="M281 -19.5H242V19.5H281V-19.5Z" stroke="#BECFD2" stroke-opacity="0.02"/>
<path d="M320 -19.5H281V19.5H320V-19.5Z" stroke="#BECFD2" stroke-opacity="0.02"/>
<path d="M355.5 -16H323.5V16H355.5V-16Z" fill="#5F789D" fill-opacity="0.01"/>
<path d="M355 -15.5H324V15.5H355V-15.5Z" stroke="#5F789D" stroke-opacity="0.08"/>
<path d="M359 -19.5H320V19.5H359V-19.5Z" stroke="#5F789D" stroke-opacity="0.12"/>
<path d="M398 -19.5H359V19.5H398V-19.5Z" stroke="#BECFD2" stroke-opacity="0.02"/>
<path d="M86 19.5H47V58.5H86V19.5Z" stroke="#BECFD2" stroke-opacity="0.02"/>
<path d="M125 19.5H86V58.5H125V19.5Z" stroke="#BECFD2" stroke-opacity="0.02"/>
<path d="M164 19.5H125V58.5H164V19.5Z" stroke="#BECFD2" stroke-opacity="0.02"/>
<path d="M203 19.5H164V58.5H203V19.5Z" stroke="#BECFD2" stroke-opacity="0.02"/>
<path d="M242 19.5H203V58.5H242V19.5Z" stroke="#BECFD2" stroke-opacity="0.02"/>
<path d="M281 19.5H242V58.5H281V19.5Z" stroke="#BECFD2" stroke-opacity="0.02"/>
<path d="M316.5 23H284.5V55H316.5V23Z" fill="#5F789D" fill-opacity="0.08"/>
<path d="M316 23.5H285V54.5H316V23.5Z" stroke="#5F789D" stroke-opacity="0.02"/>
<path d="M320 19.5H281V58.5H320V19.5Z" stroke="#5F789D" stroke-opacity="0.08"/>
<path d="M359 19.5H320V58.5H359V19.5Z" stroke="#BECFD2" stroke-opacity="0.02"/>
<path d="M398 19.5H359V58.5H398V19.5Z" stroke="#BECFD2" stroke-opacity="0.02"/>
<path d="M86 58.5H47V97.5H86V58.5Z" stroke="#BECFD2" stroke-opacity="0.02"/>
<path d="M125 58.5H86V97.5H125V58.5Z" stroke="#BECFD2" stroke-opacity="0.02"/>
<path d="M164 58.5H125V97.5H164V58.5Z" stroke="#BECFD2" stroke-opacity="0.02"/>
<path d="M203 58.5H164V97.5H203V58.5Z" stroke="#BECFD2" stroke-opacity="0.02"/>
<path d="M242 58.5H203V97.5H242V58.5Z" stroke="#BECFD2" stroke-opacity="0.02"/>
<path d="M281 58.5H242V97.5H281V58.5Z" stroke="#BECFD2" stroke-opacity="0.02"/>
<path d="M320 58.5H281V97.5H320V58.5Z" stroke="#BECFD2" stroke-opacity="0.02"/>
<path d="M355.5 62H323.5V94H355.5V62Z" fill="#5F789D" fill-opacity="0.01"/>
<path d="M355 62.5H324V93.5H355V62.5Z" stroke="#5F789D" stroke-opacity="0.08"/>
<path d="M359 58.5H320V97.5H359V58.5Z" stroke="#5F789D" stroke-opacity="0.12"/>
<path d="M398 58.5H359V97.5H398V58.5Z" stroke="#BECFD2" stroke-opacity="0.02"/>
<path d="M86 97.5H47V136.5H86V97.5Z" stroke="#BECFD2" stroke-opacity="0.02"/>
<path d="M125 97.5H86V136.5H125V97.5Z" stroke="#BECFD2" stroke-opacity="0.02"/>
<path d="M164 97.5H125V136.5H164V97.5Z" stroke="#BECFD2" stroke-opacity="0.02"/>
<path d="M203 97.5H164V136.5H203V97.5Z" stroke="#BECFD2" stroke-opacity="0.02"/>
<path d="M242 97.5H203V136.5H242V97.5Z" stroke="#BECFD2" stroke-opacity="0.02"/>
<path d="M281 97.5H242V136.5H281V97.5Z" stroke="#BECFD2" stroke-opacity="0.02"/>
<path d="M320 97.5H281V136.5H320V97.5Z" stroke="#BECFD2" stroke-opacity="0.02"/>
<path d="M359 97.5H320V136.5H359V97.5Z" stroke="#BECFD2" stroke-opacity="0.02"/>
<path d="M394.5 101H362.5V133H394.5V101Z" fill="#5F789D" fill-opacity="0.04"/>
<path d="M394 101.5H363V132.5H394V101.5Z" stroke="#5F789D" stroke-opacity="0.08"/>
<path d="M398 97.5H359V136.5H398V97.5Z" stroke="#5F789D" stroke-opacity="0.12"/>
<path d="M86 136.5H47V175.5H86V136.5Z" stroke="#BECFD2" stroke-opacity="0.02"/>
<path d="M125 136.5H86V175.5H125V136.5Z" stroke="#BECFD2" stroke-opacity="0.02"/>
<path d="M164 136.5H125V175.5H164V136.5Z" stroke="#BECFD2" stroke-opacity="0.02"/>
<path d="M203 136.5H164V175.5H203V136.5Z" stroke="#BECFD2" stroke-opacity="0.02"/>
<path d="M242 136.5H203V175.5H242V136.5Z" stroke="#BECFD2" stroke-opacity="0.02"/>
<path d="M281 136.5H242V175.5H281V136.5Z" stroke="#BECFD2" stroke-opacity="0.02"/>
<path d="M320 136.5H281V175.5H320V136.5Z" stroke="#BECFD2" stroke-opacity="0.02"/>
<path d="M359 136.5H320V175.5H359V136.5Z" stroke="#5F789D" stroke-opacity="0.12"/>
<path d="M398 136.5H359V175.5H398V136.5Z" stroke="#BECFD2" stroke-opacity="0.02"/>
<path d="M86 175.5H47V214.5H86V175.5Z" stroke="#BECFD2" stroke-opacity="0.02"/>
<path d="M125 175.5H86V214.5H125V175.5Z" stroke="#BECFD2" stroke-opacity="0.02"/>
<path d="M164 175.5H125V214.5H164V175.5Z" stroke="#BECFD2" stroke-opacity="0.02"/>
<path d="M203 175.5H164V214.5H203V175.5Z" stroke="#BECFD2" stroke-opacity="0.02"/>
<path d="M242 175.5H203V214.5H242V175.5Z" stroke="#BECFD2" stroke-opacity="0.02"/>
<path d="M281 175.5H242V214.5H281V175.5Z" stroke="#BECFD2" stroke-opacity="0.02"/>
<path d="M320 175.5H281V214.5H320V175.5Z" stroke="#BECFD2" stroke-opacity="0.02"/>
<path d="M359 175.5H320V214.5H359V175.5Z" stroke="#BECFD2" stroke-opacity="0.02"/>
<path d="M398 175.5H359V214.5H398V175.5Z" stroke="#BECFD2" stroke-opacity="0.02"/>
<path d="M86 214.5H47V253.5H86V214.5Z" stroke="#BECFD2" stroke-opacity="0.02"/>
<path d="M125 214.5H86V253.5H125V214.5Z" stroke="#BECFD2" stroke-opacity="0.02"/>
<path d="M164 214.5H125V253.5H164V214.5Z" stroke="#BECFD2" stroke-opacity="0.02"/>
<path d="M203 214.5H164V253.5H203V214.5Z" stroke="#BECFD2" stroke-opacity="0.02"/>
<path d="M242 214.5H203V253.5H242V214.5Z" stroke="#BECFD2" stroke-opacity="0.02"/>
<path d="M281 214.5H242V253.5H281V214.5Z" stroke="#BECFD2" stroke-opacity="0.02"/>
<path d="M320 214.5H281V253.5H320V214.5Z" stroke="#BECFD2" stroke-opacity="0.02"/>
<path d="M359 214.5H320V253.5H359V214.5Z" stroke="#BECFD2" stroke-opacity="0.02"/>
<path d="M398 214.5H359V253.5H398V214.5Z" stroke="#BECFD2" stroke-opacity="0.02"/>
</g>
<path d="M24.5 79.75C24.5 77.7188 26.1406 76 28.25 76H48.25C50.2812 76 52 77.7188 52 79.75V83.5H55.9062C57.2344 83.5 58.4844 84.0469 59.5 84.9844L65.5156 91C66.4531 91.9375 67 93.2656 67 94.5938V103.5C68.3281 103.5 69.5 104.672 69.5 106C69.5 107.406 68.3281 108.5 67 108.5H64.3438C63.7969 104.281 60.125 101 55.75 101C51.2969 101 47.625 104.281 47.0781 108.5H41.8438C41.2969 104.281 37.625 101 33.25 101C29.4219 101 26.2188 103.422 24.9688 106.703C24.6562 106.156 24.5 105.531 24.5 104.75V96H35.75C36.375 96 37 95.4531 37 94.75C37 94.125 36.375 93.5 35.75 93.5H24.5V91H38.25C38.875 91 39.5 90.4531 39.5 89.75C39.5 89.125 38.875 88.5 38.25 88.5H24.5V86H40.75C41.375 86 42 85.4531 42 84.75C42 84.125 41.375 83.5 40.75 83.5H24.5V79.75ZM62 96V94.5938L55.9062 88.5H52V96H62Z" fill="#597492"/>
<path opacity="0.4" d="M40.75 86H20.75C20.0469 86 19.5 85.4531 19.5 84.75C19.5 84.125 20.0469 83.5 20.75 83.5H40.75C41.375 83.5 42 84.125 42 84.75C42 85.4531 41.375 86 40.75 86ZM38.25 88.5C38.875 88.5 39.5 89.125 39.5 89.75C39.5 90.4531 38.875 91 38.25 91H23.25C22.5469 91 22 90.4531 22 89.75C22 89.125 22.5469 88.5 23.25 88.5H38.25ZM35.75 93.5C36.375 93.5 37 94.125 37 94.75C37 95.4531 36.375 96 35.75 96H20.75C20.0469 96 19.5 95.4531 19.5 94.75C19.5 94.125 20.0469 93.5 20.75 93.5H35.75ZM39.5 109.75C39.5 113.266 36.6875 116 33.25 116C29.7344 116 27 113.266 27 109.75C27 106.312 29.7344 103.5 33.25 103.5C36.6875 103.5 39.5 106.312 39.5 109.75ZM62 109.75C62 113.266 59.1875 116 55.75 116C52.2344 116 49.5 113.266 49.5 109.75C49.5 106.312 52.2344 103.5 55.75 103.5C59.1875 103.5 62 106.312 62 109.75Z" fill="#597492"/>
</g>
<path d="M371.5 0.5H8.5C4.35786 0.5 1 3.85786 1 8V232C1 236.142 4.35786 239.5 8.5 239.5H371.5C375.642 239.5 379 236.142 379 232V8C379 3.85786 375.642 0.5 371.5 0.5Z" stroke="#EDEDEE"/>
</g>
<defs>
<clipPath id="clip0_7271_1996">
<rect width="379" height="240" fill="white" transform="translate(0.5)"/>
</clipPath>
</defs>
</svg>
