<svg width="380" height="240" viewBox="0 0 380 240" fill="none" xmlns="http://www.w3.org/2000/svg">
<g clip-path="url(#clip0_7271_1912)">
<mask id="mask0_7271_1912" style="mask-type:luminance" maskUnits="userSpaceOnUse" x="0" y="0" width="380" height="240">
<path d="M371.5 0H8.5C4.08172 0 0.5 3.58172 0.5 8V232C0.5 236.418 4.08172 240 8.5 240H371.5C375.918 240 379.5 236.418 379.5 232V8C379.5 3.58172 375.918 0 371.5 0Z" fill="white"/>
</mask>
<g mask="url(#mask0_7271_1912)">
<path d="M371.5 0H8.5C4.08172 0 0.5 3.58172 0.5 8V232C0.5 236.418 4.08172 240 8.5 240H371.5C375.918 240 379.5 236.418 379.5 232V8C379.5 3.58172 375.918 0 371.5 0Z" fill="white"/>
<mask id="mask1_7271_1912" style="mask-type:luminance" maskUnits="userSpaceOnUse" x="46" y="-20" width="353" height="391">
<path d="M398.5 -20H46.5V371H398.5V-20Z" fill="white"/>
</mask>
<g mask="url(#mask1_7271_1912)">
<path d="M86 -19.5H47V19.5H86V-19.5Z" stroke="#BECFD2" stroke-opacity="0.02"/>
<path d="M125 -19.5H86V19.5H125V-19.5Z" stroke="#BECFD2" stroke-opacity="0.02"/>
<path d="M164 -19.5H125V19.5H164V-19.5Z" stroke="#BECFD2" stroke-opacity="0.02"/>
<path d="M203 -19.5H164V19.5H203V-19.5Z" stroke="#BECFD2" stroke-opacity="0.02"/>
<path d="M242 -19.5H203V19.5H242V-19.5Z" stroke="#BECFD2" stroke-opacity="0.02"/>
<path d="M281 -19.5H242V19.5H281V-19.5Z" stroke="#BECFD2" stroke-opacity="0.02"/>
<path d="M320 -19.5H281V19.5H320V-19.5Z" stroke="#BECFD2" stroke-opacity="0.02"/>
<path d="M355.5 -16H323.5V16H355.5V-16Z" fill="#5F789D" fill-opacity="0.01"/>
<path d="M355 -15.5H324V15.5H355V-15.5Z" stroke="#5F789D" stroke-opacity="0.08"/>
<path d="M359 -19.5H320V19.5H359V-19.5Z" stroke="#5F789D" stroke-opacity="0.12"/>
<path d="M398 -19.5H359V19.5H398V-19.5Z" stroke="#BECFD2" stroke-opacity="0.02"/>
<path d="M86 19.5H47V58.5H86V19.5Z" stroke="#BECFD2" stroke-opacity="0.02"/>
<path d="M125 19.5H86V58.5H125V19.5Z" stroke="#BECFD2" stroke-opacity="0.02"/>
<path d="M164 19.5H125V58.5H164V19.5Z" stroke="#BECFD2" stroke-opacity="0.02"/>
<path d="M203 19.5H164V58.5H203V19.5Z" stroke="#BECFD2" stroke-opacity="0.02"/>
<path d="M242 19.5H203V58.5H242V19.5Z" stroke="#BECFD2" stroke-opacity="0.02"/>
<path d="M281 19.5H242V58.5H281V19.5Z" stroke="#BECFD2" stroke-opacity="0.02"/>
<path d="M316.5 23H284.5V55H316.5V23Z" fill="#5F789D" fill-opacity="0.08"/>
<path d="M316 23.5H285V54.5H316V23.5Z" stroke="#5F789D" stroke-opacity="0.02"/>
<path d="M320 19.5H281V58.5H320V19.5Z" stroke="#5F789D" stroke-opacity="0.08"/>
<path d="M359 19.5H320V58.5H359V19.5Z" stroke="#BECFD2" stroke-opacity="0.02"/>
<path d="M398 19.5H359V58.5H398V19.5Z" stroke="#BECFD2" stroke-opacity="0.02"/>
<path d="M86 58.5H47V97.5H86V58.5Z" stroke="#BECFD2" stroke-opacity="0.02"/>
<path d="M125 58.5H86V97.5H125V58.5Z" stroke="#BECFD2" stroke-opacity="0.02"/>
<path d="M164 58.5H125V97.5H164V58.5Z" stroke="#BECFD2" stroke-opacity="0.02"/>
<path d="M203 58.5H164V97.5H203V58.5Z" stroke="#BECFD2" stroke-opacity="0.02"/>
<path d="M242 58.5H203V97.5H242V58.5Z" stroke="#BECFD2" stroke-opacity="0.02"/>
<path d="M281 58.5H242V97.5H281V58.5Z" stroke="#BECFD2" stroke-opacity="0.02"/>
<path d="M320 58.5H281V97.5H320V58.5Z" stroke="#BECFD2" stroke-opacity="0.02"/>
<path d="M355.5 62H323.5V94H355.5V62Z" fill="#5F789D" fill-opacity="0.01"/>
<path d="M355 62.5H324V93.5H355V62.5Z" stroke="#5F789D" stroke-opacity="0.08"/>
<path d="M359 58.5H320V97.5H359V58.5Z" stroke="#5F789D" stroke-opacity="0.12"/>
<path d="M398 58.5H359V97.5H398V58.5Z" stroke="#BECFD2" stroke-opacity="0.02"/>
<path d="M86 97.5H47V136.5H86V97.5Z" stroke="#BECFD2" stroke-opacity="0.02"/>
<path d="M125 97.5H86V136.5H125V97.5Z" stroke="#BECFD2" stroke-opacity="0.02"/>
<path d="M164 97.5H125V136.5H164V97.5Z" stroke="#BECFD2" stroke-opacity="0.02"/>
<path d="M203 97.5H164V136.5H203V97.5Z" stroke="#BECFD2" stroke-opacity="0.02"/>
<path d="M242 97.5H203V136.5H242V97.5Z" stroke="#BECFD2" stroke-opacity="0.02"/>
<path d="M281 97.5H242V136.5H281V97.5Z" stroke="#BECFD2" stroke-opacity="0.02"/>
<path d="M320 97.5H281V136.5H320V97.5Z" stroke="#BECFD2" stroke-opacity="0.02"/>
<path d="M359 97.5H320V136.5H359V97.5Z" stroke="#BECFD2" stroke-opacity="0.02"/>
<path d="M394.5 101H362.5V133H394.5V101Z" fill="#5F789D" fill-opacity="0.04"/>
<path d="M394 101.5H363V132.5H394V101.5Z" stroke="#5F789D" stroke-opacity="0.08"/>
<path d="M398 97.5H359V136.5H398V97.5Z" stroke="#5F789D" stroke-opacity="0.12"/>
<path d="M86 136.5H47V175.5H86V136.5Z" stroke="#BECFD2" stroke-opacity="0.02"/>
<path d="M125 136.5H86V175.5H125V136.5Z" stroke="#BECFD2" stroke-opacity="0.02"/>
<path d="M164 136.5H125V175.5H164V136.5Z" stroke="#BECFD2" stroke-opacity="0.02"/>
<path d="M203 136.5H164V175.5H203V136.5Z" stroke="#BECFD2" stroke-opacity="0.02"/>
<path d="M242 136.5H203V175.5H242V136.5Z" stroke="#BECFD2" stroke-opacity="0.02"/>
<path d="M281 136.5H242V175.5H281V136.5Z" stroke="#BECFD2" stroke-opacity="0.02"/>
<path d="M320 136.5H281V175.5H320V136.5Z" stroke="#BECFD2" stroke-opacity="0.02"/>
<path d="M359 136.5H320V175.5H359V136.5Z" stroke="#5F789D" stroke-opacity="0.12"/>
<path d="M398 136.5H359V175.5H398V136.5Z" stroke="#BECFD2" stroke-opacity="0.02"/>
<path d="M86 175.5H47V214.5H86V175.5Z" stroke="#BECFD2" stroke-opacity="0.02"/>
<path d="M125 175.5H86V214.5H125V175.5Z" stroke="#BECFD2" stroke-opacity="0.02"/>
<path d="M164 175.5H125V214.5H164V175.5Z" stroke="#BECFD2" stroke-opacity="0.02"/>
<path d="M203 175.5H164V214.5H203V175.5Z" stroke="#BECFD2" stroke-opacity="0.02"/>
<path d="M242 175.5H203V214.5H242V175.5Z" stroke="#BECFD2" stroke-opacity="0.02"/>
<path d="M281 175.5H242V214.5H281V175.5Z" stroke="#BECFD2" stroke-opacity="0.02"/>
<path d="M320 175.5H281V214.5H320V175.5Z" stroke="#BECFD2" stroke-opacity="0.02"/>
<path d="M359 175.5H320V214.5H359V175.5Z" stroke="#BECFD2" stroke-opacity="0.02"/>
<path d="M398 175.5H359V214.5H398V175.5Z" stroke="#BECFD2" stroke-opacity="0.02"/>
<path d="M86 214.5H47V253.5H86V214.5Z" stroke="#BECFD2" stroke-opacity="0.02"/>
<path d="M125 214.5H86V253.5H125V214.5Z" stroke="#BECFD2" stroke-opacity="0.02"/>
<path d="M164 214.5H125V253.5H164V214.5Z" stroke="#BECFD2" stroke-opacity="0.02"/>
<path d="M203 214.5H164V253.5H203V214.5Z" stroke="#BECFD2" stroke-opacity="0.02"/>
<path d="M242 214.5H203V253.5H242V214.5Z" stroke="#BECFD2" stroke-opacity="0.02"/>
<path d="M281 214.5H242V253.5H281V214.5Z" stroke="#BECFD2" stroke-opacity="0.02"/>
<path d="M320 214.5H281V253.5H320V214.5Z" stroke="#BECFD2" stroke-opacity="0.02"/>
<path d="M359 214.5H320V253.5H359V214.5Z" stroke="#BECFD2" stroke-opacity="0.02"/>
<path d="M398 214.5H359V253.5H398V214.5Z" stroke="#BECFD2" stroke-opacity="0.02"/>
</g>
<path d="M33.5625 114.906C32.0781 116.391 29.7344 116.391 28.25 114.906L25.5938 112.25C24.1094 110.766 24.1094 108.422 25.5938 106.938L46.6875 85.7656L54.7344 93.8125L33.5625 114.906Z" fill="#597492"/>
<path opacity="0.4" d="M41.375 76.3906C41.4531 76.1562 41.6875 76 42 76C42.2344 76 42.4688 76.1562 42.5469 76.3906L43.6406 79.3594L46.6094 80.4531C46.8438 80.5312 47 80.7656 47 81C47 81.3125 46.8438 81.5469 46.6094 81.625L43.6406 82.7188L42.5469 85.6094C42.4688 85.8438 42.2344 86 42 86C41.6875 86 41.4531 85.8438 41.375 85.6094L40.2812 82.7188L37.3125 81.625C37.0781 81.5469 37 81.3125 37 81C37 80.7656 37.0781 80.5312 37.3125 80.4531L40.2812 79.3594L41.375 76.3906ZM63.3281 85.1406L54.7344 93.8125L51.6094 90.6875L59.8125 82.4844L58.0156 80.6875L49.8125 88.8906L46.6875 85.7656L55.3594 77.1719C56.8438 75.6875 59.1875 75.6875 60.6719 77.1719L63.3281 79.8281C64.8125 81.3125 64.8125 83.6562 63.3281 85.1406ZM22.5469 85.2188L27 83.5L28.6406 79.125C28.7188 78.7344 29.1094 78.5 29.5 78.5C29.8125 78.5 30.2031 78.7344 30.2812 79.125L32 83.5L36.375 85.2188C36.7656 85.2969 37 85.6875 37 86C37 86.3906 36.7656 86.7812 36.375 86.8594L32 88.5L30.2812 92.9531C30.2031 93.2656 29.8125 93.5 29.5 93.5C29.1094 93.5 28.7188 93.2656 28.6406 92.9531L27 88.5L22.5469 86.8594C22.1562 86.7812 22 86.3906 22 86C22 85.6875 22.1562 85.2969 22.5469 85.2188ZM50.0469 105.219L54.5 103.5L56.1406 99.125C56.2188 98.7344 56.6094 98.5 57 98.5C57.3125 98.5 57.7031 98.7344 57.7812 99.125L59.5 103.5L63.875 105.219C64.2656 105.297 64.5 105.688 64.5 106C64.5 106.391 64.2656 106.781 63.875 106.859L59.5 108.5L57.7812 112.953C57.7031 113.266 57.3125 113.5 57 113.5C56.6094 113.5 56.2188 113.266 56.1406 112.953L54.5 108.5L50.0469 106.859C49.6562 106.781 49.5 106.391 49.5 106C49.5 105.688 49.6562 105.297 50.0469 105.219Z" fill="#597492"/>
</g>
<path d="M371.5 0.5H8.5C4.35786 0.5 1 3.85786 1 8V232C1 236.142 4.35786 239.5 8.5 239.5H371.5C375.642 239.5 379 236.142 379 232V8C379 3.85786 375.642 0.5 371.5 0.5Z" stroke="#EDEDEE"/>
</g>
<defs>
<clipPath id="clip0_7271_1912">
<rect width="379" height="240" fill="white" transform="translate(0.5)"/>
</clipPath>
</defs>
</svg>
