<svg width="380" height="240" viewBox="0 0 380 240" fill="none" xmlns="http://www.w3.org/2000/svg">
<g clip-path="url(#clip0_7271_1828)">
<mask id="mask0_7271_1828" style="mask-type:luminance" maskUnits="userSpaceOnUse" x="0" y="0" width="380" height="240">
<path d="M371.5 0H8.5C4.08172 0 0.5 3.58172 0.5 8V232C0.5 236.418 4.08172 240 8.5 240H371.5C375.918 240 379.5 236.418 379.5 232V8C379.5 3.58172 375.918 0 371.5 0Z" fill="white"/>
</mask>
<g mask="url(#mask0_7271_1828)">
<path d="M371.5 0H8.5C4.08172 0 0.5 3.58172 0.5 8V232C0.5 236.418 4.08172 240 8.5 240H371.5C375.918 240 379.5 236.418 379.5 232V8C379.5 3.58172 375.918 0 371.5 0Z" fill="white"/>
<mask id="mask1_7271_1828" style="mask-type:luminance" maskUnits="userSpaceOnUse" x="46" y="-20" width="353" height="391">
<path d="M398.5 -20H46.5V371H398.5V-20Z" fill="white"/>
</mask>
<g mask="url(#mask1_7271_1828)">
<path d="M86 -19.5H47V19.5H86V-19.5Z" stroke="#BECFD2" stroke-opacity="0.02"/>
<path d="M125 -19.5H86V19.5H125V-19.5Z" stroke="#BECFD2" stroke-opacity="0.02"/>
<path d="M164 -19.5H125V19.5H164V-19.5Z" stroke="#BECFD2" stroke-opacity="0.02"/>
<path d="M203 -19.5H164V19.5H203V-19.5Z" stroke="#BECFD2" stroke-opacity="0.02"/>
<path d="M242 -19.5H203V19.5H242V-19.5Z" stroke="#BECFD2" stroke-opacity="0.02"/>
<path d="M281 -19.5H242V19.5H281V-19.5Z" stroke="#BECFD2" stroke-opacity="0.02"/>
<path d="M320 -19.5H281V19.5H320V-19.5Z" stroke="#BECFD2" stroke-opacity="0.02"/>
<path d="M355.5 -16H323.5V16H355.5V-16Z" fill="#5F789D" fill-opacity="0.01"/>
<path d="M355 -15.5H324V15.5H355V-15.5Z" stroke="#5F789D" stroke-opacity="0.08"/>
<path d="M359 -19.5H320V19.5H359V-19.5Z" stroke="#5F789D" stroke-opacity="0.12"/>
<path d="M398 -19.5H359V19.5H398V-19.5Z" stroke="#BECFD2" stroke-opacity="0.02"/>
<path d="M86 19.5H47V58.5H86V19.5Z" stroke="#BECFD2" stroke-opacity="0.02"/>
<path d="M125 19.5H86V58.5H125V19.5Z" stroke="#BECFD2" stroke-opacity="0.02"/>
<path d="M164 19.5H125V58.5H164V19.5Z" stroke="#BECFD2" stroke-opacity="0.02"/>
<path d="M203 19.5H164V58.5H203V19.5Z" stroke="#BECFD2" stroke-opacity="0.02"/>
<path d="M242 19.5H203V58.5H242V19.5Z" stroke="#BECFD2" stroke-opacity="0.02"/>
<path d="M281 19.5H242V58.5H281V19.5Z" stroke="#BECFD2" stroke-opacity="0.02"/>
<path d="M316.5 23H284.5V55H316.5V23Z" fill="#5F789D" fill-opacity="0.08"/>
<path d="M316 23.5H285V54.5H316V23.5Z" stroke="#5F789D" stroke-opacity="0.02"/>
<path d="M320 19.5H281V58.5H320V19.5Z" stroke="#5F789D" stroke-opacity="0.08"/>
<path d="M359 19.5H320V58.5H359V19.5Z" stroke="#BECFD2" stroke-opacity="0.02"/>
<path d="M398 19.5H359V58.5H398V19.5Z" stroke="#BECFD2" stroke-opacity="0.02"/>
<path d="M86 58.5H47V97.5H86V58.5Z" stroke="#BECFD2" stroke-opacity="0.02"/>
<path d="M125 58.5H86V97.5H125V58.5Z" stroke="#BECFD2" stroke-opacity="0.02"/>
<path d="M164 58.5H125V97.5H164V58.5Z" stroke="#BECFD2" stroke-opacity="0.02"/>
<path d="M203 58.5H164V97.5H203V58.5Z" stroke="#BECFD2" stroke-opacity="0.02"/>
<path d="M242 58.5H203V97.5H242V58.5Z" stroke="#BECFD2" stroke-opacity="0.02"/>
<path d="M281 58.5H242V97.5H281V58.5Z" stroke="#BECFD2" stroke-opacity="0.02"/>
<path d="M320 58.5H281V97.5H320V58.5Z" stroke="#BECFD2" stroke-opacity="0.02"/>
<path d="M355.5 62H323.5V94H355.5V62Z" fill="#5F789D" fill-opacity="0.01"/>
<path d="M355 62.5H324V93.5H355V62.5Z" stroke="#5F789D" stroke-opacity="0.08"/>
<path d="M359 58.5H320V97.5H359V58.5Z" stroke="#5F789D" stroke-opacity="0.12"/>
<path d="M398 58.5H359V97.5H398V58.5Z" stroke="#BECFD2" stroke-opacity="0.02"/>
<path d="M86 97.5H47V136.5H86V97.5Z" stroke="#BECFD2" stroke-opacity="0.02"/>
<path d="M125 97.5H86V136.5H125V97.5Z" stroke="#BECFD2" stroke-opacity="0.02"/>
<path d="M164 97.5H125V136.5H164V97.5Z" stroke="#BECFD2" stroke-opacity="0.02"/>
<path d="M203 97.5H164V136.5H203V97.5Z" stroke="#BECFD2" stroke-opacity="0.02"/>
<path d="M242 97.5H203V136.5H242V97.5Z" stroke="#BECFD2" stroke-opacity="0.02"/>
<path d="M281 97.5H242V136.5H281V97.5Z" stroke="#BECFD2" stroke-opacity="0.02"/>
<path d="M320 97.5H281V136.5H320V97.5Z" stroke="#BECFD2" stroke-opacity="0.02"/>
<path d="M359 97.5H320V136.5H359V97.5Z" stroke="#BECFD2" stroke-opacity="0.02"/>
<path d="M394.5 101H362.5V133H394.5V101Z" fill="#5F789D" fill-opacity="0.04"/>
<path d="M394 101.5H363V132.5H394V101.5Z" stroke="#5F789D" stroke-opacity="0.08"/>
<path d="M398 97.5H359V136.5H398V97.5Z" stroke="#5F789D" stroke-opacity="0.12"/>
<path d="M86 136.5H47V175.5H86V136.5Z" stroke="#BECFD2" stroke-opacity="0.02"/>
<path d="M125 136.5H86V175.5H125V136.5Z" stroke="#BECFD2" stroke-opacity="0.02"/>
<path d="M164 136.5H125V175.5H164V136.5Z" stroke="#BECFD2" stroke-opacity="0.02"/>
<path d="M203 136.5H164V175.5H203V136.5Z" stroke="#BECFD2" stroke-opacity="0.02"/>
<path d="M242 136.5H203V175.5H242V136.5Z" stroke="#BECFD2" stroke-opacity="0.02"/>
<path d="M281 136.5H242V175.5H281V136.5Z" stroke="#BECFD2" stroke-opacity="0.02"/>
<path d="M320 136.5H281V175.5H320V136.5Z" stroke="#BECFD2" stroke-opacity="0.02"/>
<path d="M359 136.5H320V175.5H359V136.5Z" stroke="#5F789D" stroke-opacity="0.12"/>
<path d="M398 136.5H359V175.5H398V136.5Z" stroke="#BECFD2" stroke-opacity="0.02"/>
<path d="M86 175.5H47V214.5H86V175.5Z" stroke="#BECFD2" stroke-opacity="0.02"/>
<path d="M125 175.5H86V214.5H125V175.5Z" stroke="#BECFD2" stroke-opacity="0.02"/>
<path d="M164 175.5H125V214.5H164V175.5Z" stroke="#BECFD2" stroke-opacity="0.02"/>
<path d="M203 175.5H164V214.5H203V175.5Z" stroke="#BECFD2" stroke-opacity="0.02"/>
<path d="M242 175.5H203V214.5H242V175.5Z" stroke="#BECFD2" stroke-opacity="0.02"/>
<path d="M281 175.5H242V214.5H281V175.5Z" stroke="#BECFD2" stroke-opacity="0.02"/>
<path d="M320 175.5H281V214.5H320V175.5Z" stroke="#BECFD2" stroke-opacity="0.02"/>
<path d="M359 175.5H320V214.5H359V175.5Z" stroke="#BECFD2" stroke-opacity="0.02"/>
<path d="M398 175.5H359V214.5H398V175.5Z" stroke="#BECFD2" stroke-opacity="0.02"/>
<path d="M86 214.5H47V253.5H86V214.5Z" stroke="#BECFD2" stroke-opacity="0.02"/>
<path d="M125 214.5H86V253.5H125V214.5Z" stroke="#BECFD2" stroke-opacity="0.02"/>
<path d="M164 214.5H125V253.5H164V214.5Z" stroke="#BECFD2" stroke-opacity="0.02"/>
<path d="M203 214.5H164V253.5H203V214.5Z" stroke="#BECFD2" stroke-opacity="0.02"/>
<path d="M242 214.5H203V253.5H242V214.5Z" stroke="#BECFD2" stroke-opacity="0.02"/>
<path d="M281 214.5H242V253.5H281V214.5Z" stroke="#BECFD2" stroke-opacity="0.02"/>
<path d="M320 214.5H281V253.5H320V214.5Z" stroke="#BECFD2" stroke-opacity="0.02"/>
<path d="M359 214.5H320V253.5H359V214.5Z" stroke="#BECFD2" stroke-opacity="0.02"/>
<path d="M398 214.5H359V253.5H398V214.5Z" stroke="#BECFD2" stroke-opacity="0.02"/>
</g>
<path d="M44.5781 90.6875L53.4844 94.75C53.9531 94.9844 54.2656 95.4531 54.2656 95.9219C54.2656 96.3906 53.9531 96.8594 53.4844 97.0938L44.5781 101.156L40.5156 110.062C40.2812 110.531 39.8125 110.844 39.3438 110.844C38.875 110.844 38.4062 110.531 38.25 110.062L34.1094 101.156L25.2031 97.0938C24.7344 96.8594 24.5 96.3906 24.5 95.9219C24.5 95.4531 24.7344 94.9844 25.2031 94.75L34.1094 90.6875L38.25 81.7812C38.4062 81.3125 38.875 81 39.3438 81C39.8125 81 40.2812 81.3125 40.5156 81.7812L44.5781 90.6875Z" fill="#597492"/>
<path opacity="0.4" d="M50.0469 82.7188L54.5 81L56.1406 76.625C56.2188 76.2344 56.6094 76 57 76C57.3125 76 57.7031 76.2344 57.7812 76.625L59.5 81L63.875 82.7188C64.2656 82.7969 64.5 83.1875 64.5 83.5C64.5 83.8906 64.2656 84.2812 63.875 84.3594L59.5 86L57.7812 90.4531C57.7031 90.7656 57.3125 91 57 91C56.6094 91 56.2188 90.7656 56.1406 90.4531L54.5 86L50.0469 84.3594C49.6562 84.2812 49.5 83.8906 49.5 83.5C49.5 83.1875 49.6562 82.7969 50.0469 82.7188ZM50.0469 107.719L54.5 106L56.1406 101.625C56.2188 101.234 56.6094 101 57 101C57.3125 101 57.7031 101.234 57.7812 101.625L59.5 106L63.875 107.719C64.2656 107.797 64.5 108.188 64.5 108.5C64.5 108.891 64.2656 109.281 63.875 109.359L59.5 111L57.7812 115.453C57.7031 115.766 57.3125 116 57 116C56.6094 116 56.2188 115.766 56.1406 115.453L54.5 111L50.0469 109.359C49.6562 109.281 49.5 108.891 49.5 108.5C49.5 108.188 49.6562 107.797 50.0469 107.719Z" fill="#597492"/>
</g>
<path d="M371.5 0.5H8.5C4.35786 0.5 1 3.85786 1 8V232C1 236.142 4.35786 239.5 8.5 239.5H371.5C375.642 239.5 379 236.142 379 232V8C379 3.85786 375.642 0.5 371.5 0.5Z" stroke="#EDEDEE"/>
</g>
<defs>
<clipPath id="clip0_7271_1828">
<rect width="379" height="240" fill="white" transform="translate(0.5)"/>
</clipPath>
</defs>
</svg>
