<svg width="50" height="40" viewBox="0 0 50 40" fill="none" xmlns="http://www.w3.org/2000/svg">
<path d="M5 3.75C5 1.71875 6.64062 0 8.75 0H28.75C30.7812 0 32.5 1.71875 32.5 3.75V7.5H36.4062C37.7344 7.5 38.9844 8.04688 40 8.98438L46.0156 15C46.9531 15.9375 47.5 17.2656 47.5 18.5938V27.5C48.8281 27.5 50 28.6719 50 30C50 31.4062 48.8281 32.5 47.5 32.5H44.8438C44.2969 28.2812 40.625 25 36.25 25C31.7969 25 28.125 28.2812 27.5781 32.5H22.3438C21.7969 28.2812 18.125 25 13.75 25C9.92188 25 6.71875 27.4219 5.46875 30.7031C5.15625 30.1562 5 29.5312 5 28.75V20H16.25C16.875 20 17.5 19.4531 17.5 18.75C17.5 18.125 16.875 17.5 16.25 17.5H5V15H18.75C19.375 15 20 14.4531 20 13.75C20 13.125 19.375 12.5 18.75 12.5H5V10H21.25C21.875 10 22.5 9.45312 22.5 8.75C22.5 8.125 21.875 7.5 21.25 7.5H5V3.75ZM42.5 20V18.5938L36.4062 12.5H32.5V20H42.5Z" fill="#597492"/>
<path opacity="0.4" d="M21.25 10H1.25C0.546875 10 0 9.45312 0 8.75C0 8.125 0.546875 7.5 1.25 7.5H21.25C21.875 7.5 22.5 8.125 22.5 8.75C22.5 9.45312 21.875 10 21.25 10ZM18.75 12.5C19.375 12.5 20 13.125 20 13.75C20 14.4531 19.375 15 18.75 15H3.75C3.04688 15 2.5 14.4531 2.5 13.75C2.5 13.125 3.04688 12.5 3.75 12.5H18.75ZM16.25 17.5C16.875 17.5 17.5 18.125 17.5 18.75C17.5 19.4531 16.875 20 16.25 20H1.25C0.546875 20 0 19.4531 0 18.75C0 18.125 0.546875 17.5 1.25 17.5H16.25ZM20 33.75C20 37.2656 17.1875 40 13.75 40C10.2344 40 7.5 37.2656 7.5 33.75C7.5 30.3125 10.2344 27.5 13.75 27.5C17.1875 27.5 20 30.3125 20 33.75ZM42.5 33.75C42.5 37.2656 39.6875 40 36.25 40C32.7344 40 30 37.2656 30 33.75C30 30.3125 32.7344 27.5 36.25 27.5C39.6875 27.5 42.5 30.3125 42.5 33.75Z" fill="#597492"/>
</svg>
