<svg width="51" height="80" viewBox="0 0 51 80" fill="none" xmlns="http://www.w3.org/2000/svg">
<path d="M4.75 59.2969C3.42188 59.6875 2.01562 58.9062 1.70312 57.5781C1.3125 56.25 2.09375 54.8438 3.42188 54.5312L28.5 47.6562V25C28.5 22.2656 30.6875 20 33.5 20H51V45.9375C49.125 43.8281 46.4688 42.5 43.5 42.5C38.2656 42.5 34.0469 46.4844 33.5 51.4844L4.75 59.2969Z" fill="#597492"/>
<path opacity="0.4" d="M31.5469 6.71875L36 5L37.6406 0.625C37.7188 0.234375 38.1094 0 38.5 0C38.8125 0 39.2031 0.234375 39.2812 0.625L41 5L45.375 6.71875C45.7656 6.79688 46 7.1875 46 7.5C46 7.89062 45.7656 8.28125 45.375 8.35938L41 10L39.2812 14.4531C39.2031 14.7656 38.8125 15 38.5 15C38.1094 15 37.7188 14.7656 37.6406 14.4531L36 10L31.5469 8.35938C31.1562 8.28125 31 7.89062 31 7.5C31 7.1875 31.1562 6.79688 31.5469 6.71875ZM31.5469 31.7188L36 30L37.6406 25.625C37.7188 25.2344 38.1094 25 38.5 25C38.8125 25 39.2031 25.2344 39.2812 25.625L41 30L45.375 31.7188C45.7656 31.7969 46 32.1875 46 32.5C46 32.8906 45.7656 33.2812 45.375 33.3594L41 35L39.2812 39.4531C39.2031 39.7656 38.8125 40 38.5 40C38.1094 40 37.7188 39.7656 37.6406 39.4531L36 35L31.5469 33.3594C31.1562 33.2812 31 32.8906 31 32.5C31 32.1875 31.1562 31.7969 31.5469 31.7188ZM23.9688 56.4062C24.6719 56.1719 25.2969 56.1719 26 56.4062V66.1719L3.57812 72.1875L2.01562 66.1719C1.46875 64.1406 2.64062 62.1094 4.67188 61.5625C6.625 61.0156 8.73438 62.1875 9.28125 64.2188L9.59375 65.3906L21.625 62.1875L21.3125 60.9375C20.7656 58.9844 21.9375 56.875 23.9688 56.4062ZM1.625 59.7656C0.84375 57.1094 2.48438 54.375 5.14062 53.6719L19.5938 49.7656C22.25 49.0625 24.9844 50.625 25.7656 53.2812L25.8438 53.8281C25.0625 53.6719 24.2031 53.75 23.3438 53.9844C20.375 54.7656 18.5 57.5 18.7344 60.3906L11.2344 62.3438C9.90625 59.7656 6.9375 58.3594 3.96875 59.1406C3.10938 59.375 2.40625 59.7656 1.70312 60.3125L1.625 59.7656ZM36 72.5C36 68.3594 39.2812 65 43.5 65C47.6406 65 51 68.3594 51 72.5C51 76.6406 47.6406 80 43.5 80C39.2812 80 36 76.6406 36 72.5Z" fill="#597492"/>
</svg>
